<svg width="64" height="64" viewBox="0 0 64 64" fill="none" xmlns="http://www.w3.org/2000/svg">
<path d="M62.965 34.73C65.6571 18.5367 54.7122 3.2271 38.5189 0.535099C22.3256 -2.157 7.01604 8.7879 4.32404 24.9812C1.63194 41.1745 12.5769 56.4841 28.7701 59.1761C44.9634 61.8682 60.273 50.9232 62.965 34.73Z" fill="#FEFEFE"/>
<path d="M31.2759 4.76112C30.2199 4.56342 29.1006 4.44872 27.9537 4.41702C25.9327 4.36562 23.8682 4.68202 21.9816 5.32672C21.0483 5.64702 20.1228 6.07812 19.2369 6.60412C18.4142 7.09462 17.6074 7.69972 16.8401 8.39972C16.1599 9.02462 15.5073 9.74042 14.8982 10.5196C14.6174 10.8795 14.3366 11.271 14.044 11.714C13.8699 11.979 13.7038 12.2519 13.5377 12.5248C13.4309 12.7027 13.3202 12.8807 13.2095 13.0587C12.7349 13.7983 12.2286 14.4113 11.6631 14.9373C11.0619 15.4752 10.35 15.9458 9.42851 16.4204C8.98161 16.6459 8.52671 16.8594 8.07191 17.073C7.81091 17.1956 7.54991 17.3182 7.29281 17.4408C6.41081 17.864 5.56051 18.2911 4.82881 18.8923C4.43731 19.2166 4.12481 19.5488 3.87171 19.9127C3.58701 20.328 3.39321 20.7788 3.30621 21.2495C3.23101 21.6529 3.26271 22.0879 3.41291 22.6258C3.46041 22.8077 3.52371 22.9857 3.58301 23.1676C3.65811 23.3931 3.73721 23.6264 3.79261 23.8598L3.78081 23.8004L3.79661 23.8598H3.79261C3.83221 24.0654 3.84801 24.2553 3.84401 24.4332C3.82821 24.6073 3.79661 24.7773 3.74521 24.9474C3.66611 25.1807 3.55931 25.4101 3.41291 25.6474C3.10051 26.126 2.70101 26.5492 2.31341 26.9605C1.96541 27.3322 1.60551 27.7159 1.30891 28.1391C0.688013 29.021 0.363613 30.1601 0.312213 31.6234C0.272713 32.7704 0.442713 34.0043 0.838213 35.3965C1.13091 36.4287 1.57391 37.4689 2.15531 38.4893C3.16771 40.2532 4.60341 41.9024 6.54131 43.524C8.08771 44.8173 9.86351 46.0117 12.1337 47.2773C12.3591 47.4038 12.5885 47.5264 12.814 47.649C12.8377 47.6728 12.8693 47.6965 12.9089 47.7242C13.3202 47.9654 13.775 48.1751 14.3406 48.3807C14.831 48.5587 15.3768 48.7208 16.0135 48.8751C16.5158 48.9977 17.0656 49.1163 17.7419 49.2429C18.1374 49.3181 18.5368 49.3892 18.9363 49.4604L19.4425 49.5514L19.6759 49.5949C20.0041 49.6582 20.3324 49.7215 20.6607 49.7887C20.9573 49.848 21.2539 49.9073 21.5505 49.9667L21.6731 49.9904C22.1912 50.0893 22.7093 50.1763 23.2314 50.2593C26.0671 50.7063 28.895 50.9396 31.6358 50.9633C33.2494 50.9752 34.7286 50.908 36.1563 50.7577C37.7264 50.5916 39.1344 50.3305 40.4594 49.9548C43.3979 49.1282 45.5415 47.7796 46.8229 45.9444C47.1828 45.4303 47.4755 44.8766 47.697 44.3071C47.9303 43.7059 48.0925 43.0573 48.1835 42.381C48.2744 41.6889 48.2902 40.9414 48.2309 40.1583C48.2151 39.9526 48.1953 39.7509 48.1637 39.5492C48.1241 39.3119 48.0688 39.0628 47.9857 38.7899C47.8512 38.3311 47.6614 37.896 47.4637 37.457L47.3766 37.2632C47.1354 36.7254 46.8862 36.1717 46.7478 35.5903C46.6924 35.3174 46.6647 35.0445 46.6727 34.7795C46.6885 34.5738 46.728 34.3642 46.7913 34.1625C46.8546 33.9806 46.9376 33.8026 47.0444 33.6128C47.0958 33.5258 47.1512 33.4388 47.2066 33.3557L47.2738 33.2489C47.3569 33.1224 47.436 32.9918 47.5111 32.8613C47.8038 32.3788 48.049 31.8924 48.2388 31.4257C48.4326 30.955 48.5829 30.4725 48.6778 30.0019C48.7727 29.5312 48.8083 29.025 48.7886 28.495C48.749 27.5142 48.4682 26.474 47.9224 25.3192C47.6416 24.718 47.3054 24.1327 46.9772 23.5671C46.7359 23.1479 46.4868 22.7168 46.2613 22.2778C46.0834 21.9297 45.937 21.5975 45.8025 21.2653C45.6523 20.8817 45.5297 20.4703 45.4268 20.0036C45.2726 19.2522 45.1935 18.4731 45.1144 17.7177C45.063 17.2035 45.0076 16.6735 44.9285 16.1554C44.7663 15.0797 44.4578 14.0435 44.0188 13.0864C43.5522 12.066 42.9589 11.184 42.2589 10.4682C41.9148 10.1162 41.5074 9.79982 41.0605 9.53082C40.6373 9.27772 40.1667 9.09582 39.6565 8.98502C39.6209 8.97712 39.5893 8.96922 39.5497 8.96532C39.2729 8.91392 38.9683 8.89012 38.644 8.89412C37.7067 7.43072 36.1365 6.29562 33.9771 5.50072C33.1347 5.18822 32.2211 4.93912 31.2759 4.76112Z" fill="#3A0241"/>
<path d="M33.7398 10.2745C33.7517 10.2745 33.7596 10.2745 33.7675 10.2784C32.8855 10.1914 31.9996 10.1598 31.1137 10.1914C30.2278 10.2191 29.3498 10.3022 28.4718 10.4366H28.4757C27.5977 10.5751 26.7237 10.7689 25.8733 11.018C25.0586 11.2593 24.2558 11.544 23.4766 11.8881C23.4845 11.8842 23.4924 11.8802 23.5003 11.8763C22.8122 12.1808 22.1359 12.5249 21.4912 12.9164C20.8149 13.3238 20.1663 13.7786 19.5493 14.269C19.5533 14.269 19.5533 14.269 19.5533 14.2651C18.9798 14.7239 18.434 15.2103 17.9238 15.7442C17.4413 16.2465 16.9944 16.7805 16.5831 17.3421C15.8751 18.315 15.2779 19.3631 14.7559 20.4467C14.1942 21.6174 13.7117 22.8237 13.245 24.0339C13.245 24.0418 13.2411 24.0458 13.2371 24.0537C13.2411 24.0458 13.2411 24.0418 13.245 24.0339C13.2411 24.0418 13.2371 24.0537 13.2332 24.0616L13.2371 24.0576C13.1541 24.2831 13.0631 24.5046 12.9801 24.73C12.9128 24.9119 12.8416 25.0978 12.7625 25.2797C12.5846 25.6792 12.3829 26.0668 12.1535 26.4425C11.7145 27.1504 11.1964 27.8109 10.6466 28.4319C10.085 29.0607 9.49567 29.6658 8.91827 30.2788C8.34087 30.8919 7.77527 31.5207 7.27297 32.201C7.27697 32.1931 7.28487 32.1851 7.28877 32.1772C7.01987 32.5451 6.77067 32.9208 6.54917 33.3163C6.33567 33.6999 6.14977 34.0915 5.99157 34.4988C5.87287 34.8231 5.76217 35.1553 5.68707 35.4915C5.61187 35.8198 5.56047 36.148 5.52487 36.4842C5.52487 36.4803 5.52487 36.4763 5.52887 36.4724C5.49327 36.8481 5.48537 37.2278 5.50117 37.6035C5.52097 37.9753 5.56047 38.3431 5.61977 38.7109C5.61977 38.7109 5.61977 38.7109 5.61977 38.7148C5.70287 39.2013 5.80967 39.6799 5.94407 40.1545C6.32777 41.5031 6.86957 42.7964 7.37977 44.1015C7.39957 44.1569 7.42327 44.2123 7.44307 44.2677C8.77197 45.288 10.2867 46.2649 12.1258 47.2932C12.3512 47.4198 12.5806 47.5424 12.806 47.665C12.8258 47.6848 12.8535 47.7085 12.901 47.7401C13.3123 47.9814 13.7671 48.191 14.3366 48.3967C14.8073 48.5667 15.3531 48.7289 16.0096 48.891C16.5356 49.0176 17.0893 49.1362 17.7379 49.2589C18.0345 49.3142 18.3272 49.3656 18.6278 49.421L18.9323 49.4764L19.4386 49.5673L19.6719 49.6108C19.9211 49.6583 20.1623 49.7058 20.4115 49.7572L20.6567 49.8086C20.9533 49.8679 21.25 49.9272 21.5466 49.9866L21.6652 50.0103C22.1833 50.1092 22.7014 50.1962 23.2235 50.2792C26.075 50.7222 28.8989 50.9595 31.6279 50.9793C33.2494 50.9911 34.7246 50.92 36.1484 50.7697C37.7185 50.6036 39.1265 50.3425 40.4514 49.9668C41.2622 49.7414 42.0137 49.4724 42.7058 49.1639C42.9471 48.6537 43.1685 48.1317 43.3742 47.6017V47.6057C43.6629 46.8463 43.9121 46.0751 44.1059 45.288C44.2047 44.8807 44.2917 44.4654 44.3669 44.0501C44.4341 43.6665 44.4855 43.2789 44.5251 42.8913C44.5251 42.8992 44.5251 42.9111 44.5251 42.919C44.5884 42.2625 44.62 41.602 44.6042 40.9375C44.5963 40.6053 44.5765 40.2731 44.5449 39.9409C44.5132 39.6047 44.4697 39.2725 44.4183 38.9403C44.4183 38.9521 44.4183 38.96 44.4223 38.968C44.3115 38.2917 44.1573 37.6193 43.9556 36.9628C43.8527 36.6227 43.7341 36.2904 43.6075 35.9582C43.4849 35.6379 43.3663 35.3175 43.2555 34.9932C43.0538 34.396 42.8679 33.7948 42.7216 33.1818C42.5911 32.6479 42.4883 32.11 42.4092 31.5642C42.3261 30.971 42.2707 30.3738 42.2431 29.7766C42.2193 29.1596 42.2154 28.5426 42.2352 27.9296C42.2549 27.2256 42.2945 26.5256 42.3578 25.8216C42.4171 25.1611 42.4883 24.5006 42.5555 23.8401C42.5555 23.848 42.5555 23.8599 42.5555 23.8678C42.599 23.4248 42.6386 22.9819 42.6741 22.5389C42.6386 22.2779 42.599 22.0208 42.5555 21.7637C42.5555 21.7717 42.5595 21.7835 42.5595 21.7914C42.4052 20.866 42.2154 19.9444 41.9978 19.0269C41.986 18.9676 42.0097 18.9082 42.073 18.8885C42.0888 18.8845 42.1086 18.8806 42.1244 18.8845C42.164 18.8924 42.1996 18.9201 42.2114 18.9636C42.2154 18.9794 42.2193 18.9952 42.2233 19.0111C42.2589 19.0229 42.2905 19.0467 42.3024 19.0862C42.3775 19.3196 42.4408 19.5569 42.5001 19.7942C42.4883 19.6399 42.4764 19.4817 42.4606 19.3275C42.4566 19.2761 42.4962 19.2325 42.5436 19.2167C42.5634 19.197 42.5911 19.1811 42.6227 19.1772C42.6267 19.1772 42.6306 19.1772 42.6346 19.1772C42.6227 19.0743 42.6069 18.9676 42.5911 18.8647C42.5911 18.8687 42.5911 18.8687 42.5911 18.8726C42.508 18.3585 42.3973 17.8523 42.251 17.3539C42.1086 16.8714 41.9385 16.4008 41.7368 15.942C41.5588 15.5465 41.3611 15.1629 41.1396 14.7911C40.93 14.447 40.7006 14.1148 40.4475 13.7984C40.2181 13.5176 39.9768 13.2486 39.7158 12.9955C39.4508 12.7424 39.174 12.5091 38.8813 12.2915C38.6084 12.0977 38.3276 11.9158 38.031 11.7576C37.7304 11.5955 37.4219 11.4531 37.1016 11.3305C36.7773 11.2079 36.445 11.105 36.1089 11.0299C35.7529 10.9468 35.397 10.8915 35.0331 10.8559C35.041 10.8559 35.0529 10.8559 35.0608 10.8598C34.6574 10.8203 34.25 10.8084 33.8427 10.8282C33.4392 10.848 33.0398 10.8875 32.6403 10.9508C32.6403 10.9508 32.6403 10.9508 32.6443 10.9508C32.4584 10.9824 32.2765 11.0141 32.0906 11.0576C32.0629 11.0615 32.0352 11.0615 32.0075 11.0497C31.9838 11.0338 31.9601 11.0101 31.9561 10.9824C31.9403 10.9271 31.9719 10.8559 32.0273 10.844C32.5454 10.7333 33.0714 10.6502 33.6014 10.6146C33.8585 10.5988 34.1195 10.5909 34.3766 10.5948C34.602 10.5988 34.8274 10.6107 35.0529 10.6344C35.3139 10.6581 35.5749 10.6937 35.836 10.7451C35.919 10.761 36.006 10.7768 36.0891 10.7965C35.9546 10.7214 35.8202 10.6383 35.6857 10.5632C35.571 10.5395 35.4563 10.5157 35.3376 10.492C34.8077 10.405 34.2777 10.3299 33.7398 10.2745Z" fill="#2D0133"/>
<path d="M22.4878 31.7026C22.4364 31.7026 22.381 31.7264 22.3454 31.7699C22.3137 31.8055 22.2979 31.849 22.3019 31.8925C22.3573 32.5648 22.3414 33.253 22.2544 33.9412C22.1595 34.6293 22.0013 35.2305 21.7719 35.7802C21.6098 36.1599 21.4239 36.4842 21.2024 36.7769C21.0205 37.0063 20.8227 37.208 20.6131 37.3741C20.2097 37.6747 19.743 37.9317 19.13 38.1967C18.3943 38.5013 17.6231 38.7425 16.8717 38.9719L16.4564 39.1024C16.2428 39.1697 16.0253 39.2409 15.8117 39.312L15.6891 39.3555C15.4874 39.4228 15.2857 39.494 15.084 39.5573L14.9654 39.5928C14.7439 39.6601 14.5224 39.7273 14.3049 39.7985C14.0676 39.8776 13.8342 39.9686 13.6088 40.0714C13.5574 40.0833 13.5297 40.0991 13.5099 40.1189C13.4625 40.1426 13.4308 40.1782 13.415 40.2217C13.3992 40.2771 13.4031 40.3324 13.4308 40.3799C13.4506 40.4155 13.4822 40.4432 13.5178 40.459C13.5811 40.6053 13.6523 40.7517 13.7275 40.898C13.8263 41.0878 13.9489 41.2777 14.0953 41.4873C14.3405 41.8314 14.6332 42.1557 14.9654 42.4602C15.5586 43.006 16.2824 43.4727 17.1841 43.8959C17.8881 44.2241 18.6791 44.5129 19.6085 44.7739C20.2532 44.9558 20.9295 45.1061 21.6809 45.2406C22.4799 45.383 23.2867 45.4858 24.0856 45.5412C24.5325 45.5728 24.9755 45.5926 25.4026 45.5926C25.7981 45.5926 26.1936 45.5767 26.5733 45.5491C27.4394 45.4818 28.2067 45.3474 28.9146 45.1338C29.67 44.9044 30.3266 44.5801 30.8684 44.1727C31.0226 44.058 31.1769 43.9275 31.3193 43.7891C31.4696 43.6428 31.608 43.4806 31.7385 43.2947C31.9877 42.9388 32.1656 42.5116 32.2487 42.0647C32.3317 41.6178 32.308 41.1748 32.1775 40.7754C32.1103 40.5737 32.0114 40.3799 31.8848 40.2059C31.7662 40.0358 31.608 39.8816 31.4102 39.7313C31.3984 39.7234 31.3825 39.7155 31.3667 39.7115C31.3193 39.6601 31.2797 39.6522 31.2244 39.6443C31.1453 39.6364 31.0701 39.6284 30.991 39.6205L30.8209 39.6047C30.6786 39.5928 30.5322 39.5731 30.3859 39.5533H30.3898C29.4802 39.4267 28.8078 39.2567 28.2067 39.0075L28.2502 39.0312C27.9931 38.9165 27.7914 38.8019 27.6174 38.6753C27.5027 38.5804 27.4038 38.4854 27.3247 38.3826C27.2535 38.2837 27.1903 38.177 27.1309 38.0544C27.0677 37.8922 27.0281 37.738 27.0044 37.5718C26.9846 37.3741 26.9885 37.1684 27.0123 36.943C27.0597 36.5989 27.1586 36.2548 27.3089 35.891C27.4513 35.5627 27.6253 35.2424 27.827 34.9339H27.831C27.9022 34.9339 27.9615 34.8983 27.9971 34.8429C28.0208 34.7994 28.0287 34.748 28.0168 34.7005C28.005 34.6491 27.9733 34.6096 27.9298 34.5858C27.5937 34.3881 27.2614 34.1864 26.9292 33.9847C26.419 33.6722 25.8891 33.3519 25.3551 33.0552C24.4138 32.5292 23.5358 32.1496 22.6657 31.8885C22.6618 31.8371 22.646 31.7976 22.6143 31.7659C22.5866 31.7224 22.5392 31.7026 22.4878 31.7026ZM13.9845 40.55C13.9529 40.4827 13.9173 40.4155 13.8896 40.3483C13.9173 40.4194 13.9489 40.4867 13.9845 40.55Z" fill="#FFB39C"/>
<path d="M22.3374 31.7659C22.3058 31.8054 22.286 31.8529 22.29 31.8964C22.3493 32.5687 22.3335 33.2608 22.2425 33.945C22.1555 34.566 22.0171 35.1197 21.8193 35.6338C22.0369 35.7723 22.2583 35.9028 22.4838 36.0214C22.907 36.2469 23.346 36.4446 23.7929 36.6186C23.7889 36.6186 23.785 36.6147 23.781 36.6147C24.2675 36.8006 24.7618 36.9548 25.2681 37.0735C25.7585 37.1881 26.2529 37.2712 26.7512 37.3226C26.7433 37.3226 26.7354 37.3226 26.7275 37.3226C26.8184 37.3305 26.9094 37.3384 27.0043 37.3463C27.0043 37.2158 27.0083 37.0814 27.0241 36.939C27.0716 36.5989 27.1704 36.2548 27.3207 35.8909C27.4592 35.5706 27.6332 35.2502 27.8388 34.9338H27.8428C27.914 34.9338 27.9733 34.9022 28.0089 34.8428C28.0366 34.7993 28.0445 34.7479 28.0287 34.6965C28.0168 34.6451 27.9852 34.6016 27.9377 34.5779C27.6767 34.4236 27.4157 34.2654 27.1546 34.1072L26.9371 33.9767C26.51 33.7157 25.9246 33.3597 25.363 33.0473C24.4257 32.5252 23.5477 32.1416 22.6736 31.8805C22.6736 31.837 22.6578 31.7935 22.6262 31.7579C22.5866 31.7223 22.5352 31.6986 22.4838 31.6986C22.4363 31.6947 22.377 31.7223 22.3374 31.7659Z" fill="#EDA791"/>
<path d="M21.8669 32.3631C21.8116 32.4066 21.7957 32.466 21.7839 32.5174C21.7522 32.7033 21.7127 32.8852 21.6731 33.0671L21.6771 33.0592C21.6257 33.2847 21.5703 33.5022 21.511 33.7158C21.685 33.8384 21.859 33.9649 22.041 34.0836C22.7924 34.5819 23.6111 35.0169 24.4693 35.3848C25.1219 35.6537 25.7666 35.8752 26.3875 36.0413C26.6129 36.1006 26.8384 36.156 27.0994 36.2074V36.2114L27.1231 36.2193C27.2497 35.7012 27.4435 35.1554 27.7085 34.5503C27.7322 34.5028 27.7322 34.4435 27.7085 34.3881C27.6808 34.3288 27.6333 34.2813 27.574 34.2576C27.4593 34.2141 27.3367 34.2734 27.2853 34.3921C27.1033 34.8034 26.961 35.1672 26.8502 35.5153C26.3123 34.7836 25.4581 34.3644 24.7699 34.0796C24.6433 34.0282 24.5168 33.9768 24.3863 33.9293C23.6506 33.6604 22.9111 33.4745 22.0845 33.2767C22.1438 33.0394 22.1912 32.7982 22.2348 32.5569C22.2545 32.4541 22.1715 32.3592 22.0845 32.3276C22.0647 32.3196 22.0449 32.3157 22.0291 32.3157C22.0212 32.3157 22.0172 32.3157 22.0093 32.3157C21.9579 32.3117 21.9065 32.3315 21.8669 32.3631Z" fill="#FFB39C"/>
<path d="M22.0171 32.3038C21.9618 32.3038 21.9024 32.3235 21.8589 32.3591C21.7996 32.4026 21.7838 32.462 21.7759 32.5173C21.7442 32.6993 21.7047 32.8812 21.6651 33.0631C21.6137 33.2846 21.5583 33.4982 21.499 33.7078C21.673 33.8343 21.855 33.9569 22.0369 34.0796C22.7884 34.5779 23.607 35.0129 24.4653 35.3807C25.1178 35.6497 25.7625 35.8712 26.3834 36.0373C26.6089 36.0966 26.8343 36.152 27.0953 36.2034V36.2073L27.127 36.2192C27.2496 35.7051 27.4434 35.1593 27.7123 34.5502C27.7321 34.5027 27.7321 34.4434 27.7084 34.3841C27.6807 34.3208 27.6332 34.2694 27.5699 34.2457C27.4552 34.2022 27.3247 34.2615 27.2694 34.388C27.0874 34.8073 26.9451 35.1711 26.8343 35.5113C26.3123 34.7756 25.458 34.3524 24.7658 34.0677C24.6393 34.0163 24.5127 33.9649 24.3822 33.9174C23.6664 33.6524 22.9742 33.4823 22.0844 33.2648C22.1437 33.0671 22.1951 32.8337 22.2426 32.5569C22.2584 32.4461 22.1753 32.3473 22.0844 32.3117C22.0646 32.3038 22.0448 32.2998 22.029 32.2998H22.0171V32.3038Z" fill="#EDA791"/>
<path d="M41.7053 25.1808C41.4442 25.1136 41.1634 25.0899 40.8747 25.1215C40.7758 25.1334 40.7126 25.1571 40.6572 25.2125C40.5979 25.2718 40.5662 25.3549 40.5662 25.4379C40.5662 25.521 40.6058 25.608 40.669 25.6673C40.3289 26.3159 40.0323 27.016 39.7554 27.7951C39.5063 28.503 39.2848 29.2624 39.0396 30.263C39.0238 30.2432 38.9961 30.2353 38.9684 30.2274C38.8379 30.1918 38.6876 30.2551 38.6164 30.3737C38.5334 30.5201 38.5808 30.706 38.7271 30.8009C38.8735 30.8958 39.0277 30.967 39.1583 31.0224C39.3204 31.0896 39.4707 31.141 39.6131 31.1806C39.9097 31.2557 40.1945 31.2834 40.4634 31.2597C40.7244 31.2359 40.9815 31.1687 41.2504 31.054C41.4561 30.967 41.6578 30.8365 41.8832 30.6466C42.0573 30.5003 42.2234 30.3184 42.4013 30.0692C42.5398 29.8833 42.6624 29.6698 42.7771 29.4206C43.0025 28.9302 43.137 28.4042 43.1844 27.8544C43.2121 27.5064 43.1923 27.1544 43.1172 26.8063C43.046 26.4702 42.9155 26.1577 42.7336 25.9046C42.5319 25.6198 42.2827 25.4102 41.994 25.2837C41.903 25.2402 41.8041 25.2046 41.7053 25.1808Z" fill="#F3AB95"/>
<path d="M42.2193 26.5294C41.9701 26.5531 41.7249 26.5966 41.4837 26.6757C41.2464 26.7509 41.0249 26.8735 40.8153 27.0079C40.6057 27.1464 40.4119 27.3164 40.2378 27.4944C40.048 27.6922 39.8858 27.9176 39.7553 28.1588C39.7079 28.2459 39.7316 28.3566 39.8226 28.408C39.9056 28.4555 40.0203 28.4278 40.0678 28.3408C40.1548 28.1984 40.2457 28.06 40.3446 27.9255C40.4277 27.8187 40.5186 27.7159 40.6096 27.617C40.7124 27.5102 40.8271 27.4113 40.9418 27.3164C41.0328 27.2452 41.1277 27.182 41.2266 27.1226C41.3373 27.0594 41.452 27.004 41.5707 26.9526C41.6616 26.917 41.7526 26.8853 41.8436 26.8576C41.9385 26.83 42.0334 26.8141 42.1283 26.7983C42.16 26.7944 42.1916 26.7904 42.2193 26.7904C42.2905 26.7865 42.3498 26.735 42.3498 26.6599C42.3498 26.6045 42.3063 26.5492 42.2549 26.5373C42.243 26.5294 42.2312 26.5254 42.2193 26.5294ZM41.5984 26.9367C41.5944 26.9367 41.5904 26.9407 41.5865 26.9407C41.5904 26.9407 41.5944 26.9407 41.5984 26.9367ZM40.9655 27.2967C40.9616 27.3006 40.9576 27.3006 40.9576 27.3046C40.9576 27.3006 40.9616 27.2967 40.9655 27.2967Z" fill="#BF8675"/>
<path d="M38.2446 11.6469C38.2249 11.6429 38.2011 11.639 38.1695 11.639C38.1339 11.639 38.0943 11.6469 38.0627 11.6587C37.5683 11.639 37.0937 11.6192 36.6191 11.5955C34.9224 11.5203 33.1704 11.4412 31.4421 11.4808C28.8674 11.5361 26.8028 11.8486 24.94 12.4537C24.0937 12.7305 23.3106 13.0628 22.6185 13.4345C21.8947 13.8261 21.1709 14.3204 20.4709 14.9058C19.7827 15.4793 19.1697 16.116 18.6437 16.8002C18.09 17.52 17.6905 18.2675 17.4572 19.0269C17.299 18.9755 17.1368 18.9241 16.9707 18.8805C16.3973 18.7303 15.8515 18.7026 15.3531 18.7975C14.8074 18.9082 14.3011 19.189 13.9293 19.5924C13.5694 19.984 13.3005 20.4784 13.1581 21.0321C13.0197 21.5779 12.9881 22.1474 13.0751 22.7248C13.1937 23.5395 13.5655 24.2949 14.0994 24.7933C14.4039 25.078 14.752 25.2916 15.1356 25.4261C15.2029 25.4498 15.274 25.4696 15.3413 25.4893C15.6142 25.5605 15.9187 25.5961 16.243 25.5922C16.3538 26.3278 16.5475 27.0595 16.8125 27.7595C17.1329 28.6059 17.564 29.4285 18.086 30.2037C19.0906 31.6987 20.4234 32.9999 22.0489 34.0756C22.8083 34.5779 23.623 35.013 24.4734 35.3729C25.1101 35.6418 25.7587 35.8633 26.3915 36.0294C26.617 36.0887 26.8424 36.1441 27.0718 36.1876C27.9261 36.3656 28.8673 36.4565 29.868 36.4684C30.7776 36.4763 31.6714 36.3933 32.5218 36.2232C33.3009 36.069 34.0682 35.8158 34.8078 35.4757C35.4643 35.1751 36.1129 34.7717 36.7457 34.2734C37.865 33.3875 38.8339 32.1851 39.6249 30.706C40.3606 29.3296 40.9301 27.7437 41.3612 25.8532C41.7962 23.935 41.9979 22.0762 41.9663 20.3241C41.9346 18.576 41.6499 16.9822 41.1239 15.594C40.8352 14.8306 40.4673 14.1227 40.0323 13.4938C39.5735 12.8255 39.0238 12.2322 38.3989 11.722C38.3514 11.6943 38.304 11.6627 38.2446 11.6469Z" fill="#FFB39C"/>
<path d="M38.1693 11.6312C38.1298 11.6312 38.0902 11.6391 38.0586 11.651L37.0698 11.6074L36.619 11.5877C34.9341 11.5125 33.19 11.4374 31.4419 11.473C28.8711 11.5283 26.8027 11.8368 24.9359 12.4459C24.0935 12.7188 23.3104 13.051 22.6104 13.4267C21.8787 13.8262 21.155 14.3206 20.4628 14.902C19.7786 15.4715 19.1656 16.1082 18.6356 16.7964C18.2203 17.3382 17.8921 17.8919 17.6548 18.4575C17.6587 18.4812 17.6667 18.501 17.6746 18.5247C17.6746 18.5208 17.6746 18.5168 17.6706 18.5129C17.7695 18.8609 17.896 19.1931 18.078 19.5056C18.1966 19.7033 18.335 19.8892 18.5012 20.0514C18.6396 20.1898 18.7938 20.3045 18.9639 20.4034C19.1379 20.4983 19.3159 20.5695 19.5018 20.6209C19.7509 20.6842 20.004 20.7118 20.2611 20.7079C20.2532 20.7079 20.2414 20.7079 20.2334 20.7079C20.36 20.7039 20.4866 20.696 20.6131 20.6762C20.7159 20.6604 20.8188 20.6407 20.9216 20.613C20.9137 20.613 20.9097 20.613 20.9018 20.6169C21.0561 20.5734 21.2103 20.522 21.3567 20.4548C21.4911 20.3954 21.6177 20.3282 21.7442 20.257C21.7403 20.257 21.7403 20.261 21.7403 20.261C21.9222 20.1463 22.1002 20.0276 22.2663 19.8892C22.4324 19.7508 22.5906 19.6084 22.7449 19.4541C22.7488 19.4502 22.7488 19.4462 22.7528 19.4462C22.7528 19.4462 22.7528 19.4462 22.7567 19.4462C23.168 19.0151 23.524 18.5287 23.8206 18.0106C23.8167 18.0185 23.8127 18.0264 23.8048 18.0304C23.8562 17.9433 23.9037 17.8524 23.9511 17.7654C23.963 17.7416 23.9788 17.7219 24.0065 17.71C24.0263 17.7021 24.05 17.6981 24.0698 17.706C24.1054 17.6744 24.1568 17.6744 24.2003 17.7021C24.4969 17.9077 24.7935 18.1095 25.102 18.2914C25.0941 18.2874 25.0862 18.2835 25.0823 18.2756C25.5924 18.5603 26.1382 18.7739 26.7038 18.9281C27.4988 19.1338 28.3135 19.2248 29.1322 19.2248C29.1243 19.2248 29.1124 19.2248 29.1045 19.2248C30.1565 19.2169 31.2006 19.0626 32.2171 18.7858C32.2092 18.7897 32.1973 18.7897 32.1894 18.7937C33.2019 18.5089 34.1787 18.1055 35.0844 17.5676C35.0765 17.5716 35.0686 17.5755 35.0607 17.5795C35.737 17.1721 36.3698 16.6936 36.9314 16.132C37.141 15.9144 37.3427 15.689 37.5247 15.4477C37.7026 15.2104 37.8688 14.9613 38.019 14.7002C38.019 14.7002 38.019 14.7002 38.019 14.6963V14.7002C38.0388 14.6647 38.0626 14.6251 38.0823 14.5856C38.0942 14.5618 38.11 14.542 38.1377 14.5302C38.1575 14.5183 38.1812 14.5183 38.201 14.5223C38.2049 14.5223 38.2128 14.5262 38.2168 14.5262C38.2326 14.5341 38.2445 14.542 38.2563 14.5539C38.5609 14.7596 38.8417 15.0048 39.0869 15.2737C39.3598 15.5703 39.605 15.8907 39.8304 16.2269C40.2773 16.8874 40.657 17.5874 41.0209 18.2993C41.3531 18.9479 41.6774 19.6005 41.9582 20.2728C41.9226 18.5445 41.6379 16.9704 41.1158 15.5901C40.8271 14.8268 40.4632 14.1189 40.0242 13.4861C39.5615 12.8177 39.0117 12.2205 38.3908 11.7142C38.3592 11.6865 38.3078 11.647 38.2405 11.6272C38.2287 11.6312 38.201 11.6312 38.1693 11.6312Z" fill="#F3AB95"/>
<path d="M13.1462 21.0322C13.0077 21.574 12.9761 22.1436 13.0631 22.7289C13.1818 23.5436 13.5575 24.303 14.0914 24.8053C14.392 25.09 14.7361 25.3036 15.1276 25.442C15.1948 25.4658 15.2621 25.4855 15.3333 25.5053C15.6022 25.5765 15.9067 25.6121 16.239 25.6042C16.3418 26.32 16.5316 27.0478 16.8045 27.7676C17.1288 28.6179 17.556 29.4405 18.078 30.2157C18.9719 31.5446 20.1228 32.7153 21.4991 33.7159C21.4991 33.7119 21.4991 33.7119 21.4991 33.708L21.5031 33.7119C21.6771 33.8385 21.859 33.9611 22.0409 34.0837C22.7924 34.582 23.6111 35.0171 24.4693 35.3849C25.1219 35.6538 25.7665 35.8753 26.3875 36.0414C26.609 36.1007 26.8265 36.1522 27.0796 36.2036C26.8779 36.1442 26.6801 36.077 26.4864 36.0058C25.7507 35.7408 25.0428 35.4086 24.3586 35.0289C23.6427 34.6295 22.9545 34.1826 22.3059 33.6921C21.5624 33.1266 20.8624 32.5096 20.2216 31.8373C19.5809 31.1649 18.9916 30.4411 18.4894 29.6581C18.0108 28.9106 17.5995 28.1196 17.3108 27.2811C17.1723 26.8777 17.0576 26.4664 16.9785 26.0471C16.9034 25.6596 16.8559 25.268 16.8401 24.8725C16.496 24.8962 16.148 24.8646 15.8197 24.7618C15.4796 24.655 15.1553 24.4928 14.8705 24.2753C14.5858 24.0538 14.3287 23.7928 14.127 23.4922C13.9451 23.2272 13.8066 22.9425 13.6959 22.6419C13.5852 22.3413 13.4982 22.0289 13.4428 21.7125C13.3835 21.3763 13.3439 21.0401 13.3518 20.696C13.3558 20.6051 13.3597 20.5102 13.3676 20.4192C13.2727 20.613 13.2015 20.8186 13.1462 21.0322Z" fill="#F3AB95"/>
<path d="M22.7537 19.45V19.4548H22.7488L22.7537 19.45Z" fill="#F3AB95"/>
<path d="M16.4683 20.4032C15.974 20.8422 15.705 21.475 15.6141 22.1197C15.5231 22.7525 15.6141 23.409 15.8949 23.9825C15.9226 24.0418 16.0056 24.0576 16.057 24.026C16.1163 23.9904 16.1282 23.9231 16.1005 23.8638C16.0768 23.8164 16.057 23.7689 16.0373 23.7214C15.9661 23.5395 15.9186 23.3497 15.887 23.1559C15.8909 23.1677 15.8909 23.1796 15.8949 23.1875C15.8751 23.057 15.8672 22.9225 15.8632 22.7881C15.8593 22.6378 15.8711 22.4875 15.887 22.3411C15.9265 22.0841 15.9898 21.8309 16.0847 21.5857V21.5897C16.1678 21.3999 16.2706 21.2219 16.3932 21.0518C16.5039 20.9173 16.6226 20.7987 16.7571 20.6919C16.7966 20.6603 16.8164 20.593 16.8164 20.5456C16.8164 20.4942 16.7927 20.4388 16.7571 20.4032C16.7294 20.3755 16.6977 20.3597 16.6661 20.3518C16.5989 20.332 16.5237 20.3518 16.4683 20.4032ZM16.3774 21.0676C16.3734 21.0716 16.3695 21.0755 16.3695 21.0795C16.3695 21.0755 16.3734 21.0716 16.3774 21.0676Z" fill="#BF8675"/>
<path d="M15.2304 20.0198C15.0563 20.0079 14.8823 20.0198 14.7123 20.0435C14.6727 20.0475 14.6411 20.0554 14.6094 20.087C14.5817 20.1147 14.5659 20.1503 14.5659 20.1899C14.5699 20.265 14.6371 20.3441 14.7123 20.3322C14.7993 20.3204 14.8863 20.3164 14.9733 20.3164C15.0524 20.3164 15.1315 20.3204 15.2066 20.3322C15.349 20.356 15.4795 20.3916 15.614 20.439C15.7366 20.4944 15.8473 20.5577 15.9541 20.6328C16.0451 20.708 16.1281 20.7871 16.2112 20.8662C16.2705 20.9215 16.3575 20.9373 16.4327 20.8938C16.5118 20.8464 16.5553 20.7277 16.4999 20.6447C16.4524 20.5774 16.405 20.5181 16.3457 20.4588C16.2903 20.4034 16.2191 20.356 16.1558 20.3085C16.0214 20.2136 15.8632 20.1543 15.7089 20.1028C15.6852 20.0949 15.6575 20.087 15.6338 20.0791C15.5072 20.0475 15.3688 20.0317 15.2304 20.0198Z" fill="#BF8675"/>
<path d="M36.2947 9.51901L36.2037 9.49131C35.2822 9.24211 34.2974 9.08791 33.1861 9.02461C31.1888 8.90991 29.0373 9.11951 26.7869 9.64551C24.841 10.1043 23.0217 10.7648 21.3804 11.6151C20.9414 11.8445 20.5657 12.0541 20.2335 12.2637C19.7984 12.5366 19.3673 12.8609 18.8769 13.292C18.1334 13.9446 17.4017 14.7198 16.5791 15.7244C16.5514 15.7362 16.5237 15.7481 16.5039 15.7639C16.4327 15.8193 16.4011 15.8865 16.3774 15.9735C16.1598 16.7962 16.1875 17.7058 16.4525 18.5364C16.7333 19.4144 17.3424 20.0788 18.0899 20.3122L18.1531 20.3319C18.5526 20.4427 18.9995 20.4506 19.4425 20.3557C19.834 20.2726 20.2177 20.1104 20.6132 19.8573C20.9335 19.6517 21.246 19.3827 21.5979 19.0031C21.8708 18.7104 22.1358 18.3584 22.4166 17.9392C22.8635 17.2589 23.259 16.4995 23.6308 15.6136C23.7099 15.6967 23.7969 15.7718 23.8879 15.847C24.1015 16.021 24.3387 16.1752 24.5642 16.3137C24.9834 16.5707 25.4343 16.7962 25.901 16.982C26.1818 17.0928 26.4745 17.1917 26.7711 17.2747C27.3999 17.4487 28.0604 17.5595 28.7407 17.599C30.6509 17.7098 32.6126 17.2787 34.4161 16.3493C35.8952 15.5899 37.1727 14.53 38.114 13.2881C38.3038 13.4621 38.4976 13.6519 38.6835 13.8497L38.6796 13.8457C39.3638 14.5853 39.9887 15.4673 40.5384 16.4719C41.2384 17.773 41.7644 19.1533 42.1046 20.5732L42.1244 20.6602L42.1362 20.7077C42.156 20.7986 42.1837 20.8659 42.2509 20.9252C42.2826 20.9529 42.3221 20.9726 42.3656 20.9845C42.3854 20.9885 42.4091 20.9924 42.4289 20.9964C42.4328 20.9964 42.4882 21.0122 42.4882 21.0122C42.5713 21.028 42.6622 21.0043 42.7334 20.9529C42.8007 20.9015 42.8442 20.8303 42.856 20.7512C43.125 18.8686 42.947 16.895 42.33 15.052C42.0097 14.091 41.5667 13.2209 41.013 12.4734C40.7401 12.1016 40.4198 11.7496 40.0599 11.4253C39.7514 11.1445 39.3954 10.8914 38.901 10.5987C38.1575 10.1518 37.3032 9.79581 36.2947 9.51901Z" fill="#3A0241"/>
<path d="M36.6982 12.5329C35.7094 13.1933 34.6495 13.7431 33.5263 14.1346C33.5381 14.1307 33.546 14.1267 33.5579 14.1267C32.5375 14.4827 31.4697 14.7002 30.3899 14.7793C30.3979 14.7793 30.4018 14.7793 30.4097 14.7793C29.9114 14.8109 29.4052 14.8109 28.9068 14.7872C28.3887 14.7595 27.8667 14.6883 27.3565 14.5974C26.6485 14.4589 25.9445 14.2731 25.2761 14.0002C25.2089 13.9725 25.1219 13.9843 25.0547 14.0199C24.9874 14.0555 24.936 14.1149 24.9123 14.186C24.8648 14.3324 24.9479 14.5064 25.0982 14.5499C25.6044 14.6923 26.1146 14.8307 26.6327 14.9375C27.1508 15.0443 27.6729 15.1194 28.1989 15.1629C29.1955 15.246 30.2001 15.1946 31.1849 15.0324C31.6674 14.9533 32.146 14.8426 32.6126 14.7081C33.0991 14.5697 33.5737 14.3917 34.0404 14.2019C35.0054 13.8064 35.923 13.3001 36.7891 12.7187C36.8366 12.6871 36.8643 12.6317 36.8366 12.5764C36.8247 12.5526 36.797 12.5289 36.7654 12.521C36.7456 12.517 36.7219 12.517 36.6982 12.5329ZM30.4097 14.7753C30.4176 14.7753 30.4295 14.7753 30.4374 14.7753C30.4295 14.7753 30.4216 14.7753 30.4097 14.7753Z" fill="#2D0133"/>
<path d="M36.0811 11.2988C36.0495 11.2988 36.0257 11.3067 36.006 11.3265C35.9704 11.3502 35.9348 11.3779 35.8992 11.4017C35.9071 11.3937 35.915 11.3898 35.9229 11.3858C35.0844 11.9593 34.1867 12.4537 33.2256 12.7978C33.2375 12.7938 33.2493 12.7899 33.2572 12.7859C32.9725 12.8848 32.6838 12.9678 32.3911 13.039C32.1024 13.1063 31.8097 13.1458 31.5131 13.1695C31.5289 13.1695 31.5408 13.1695 31.5566 13.1695C31.3984 13.1774 31.2441 13.1814 31.0859 13.1774C30.9871 13.1774 30.9001 13.2486 30.8961 13.3475C30.8921 13.395 30.908 13.4464 30.9436 13.482C30.9712 13.5136 31.0227 13.5413 31.0701 13.5413C31.2837 13.5294 31.5012 13.5097 31.7148 13.478C31.9402 13.4464 32.1617 13.3989 32.3832 13.3396C32.8459 13.2249 33.2968 13.0628 33.7318 12.8769C34.5901 12.5091 35.385 12.0226 36.1444 11.4847C36.1918 11.4531 36.1879 11.374 36.1523 11.3384C36.1404 11.3226 36.1246 11.3146 36.1048 11.3067C36.0969 11.2988 36.089 11.2988 36.0811 11.2988Z" fill="#2D0133"/>
<path d="M32.8223 6.89298C31.8375 6.70708 30.8329 6.63598 29.8323 6.65968C29.3221 6.67148 28.8119 6.70318 28.3057 6.76248C27.7916 6.81788 27.2814 6.90878 26.7751 7.01168C25.7666 7.22128 24.7778 7.51788 23.8247 7.91338C23.358 8.10718 22.9071 8.32468 22.4602 8.56198C22.0252 8.79138 21.602 9.04058 21.1946 9.31738C20.7952 9.58638 20.4155 9.87898 20.0556 10.1915C19.7471 10.4604 19.4465 10.7412 19.1538 11.03C17.8724 12.2837 16.6978 13.66 15.3017 14.7991C15.1119 14.9493 14.9181 15.0996 14.7203 15.2381C14.1903 15.6019 13.6287 15.9104 13.0276 16.1319C12.549 16.294 12.0546 16.385 11.5524 16.4443C11.5326 16.4443 11.5089 16.4443 11.4891 16.4443C11.3783 16.4443 11.2755 16.472 11.1885 16.5511C11.1094 16.6223 11.0619 16.7251 11.054 16.8319C11.0422 17.0455 11.2201 17.267 11.4416 17.267C11.5444 17.267 11.6473 17.2749 11.7541 17.2749C11.8569 17.2749 11.9597 17.2709 12.0626 17.267C12.3038 17.2512 12.5451 17.2195 12.7824 17.1681C13.2174 17.0771 13.6446 16.9189 14.048 16.737C14.4395 16.559 14.8113 16.3376 15.1672 16.0963C15.5588 15.8353 15.9305 15.5505 16.2865 15.242C17.6549 14.0753 18.7623 12.6515 19.9884 11.3464C20.285 11.03 20.5974 10.7254 20.9217 10.4407C21.3172 10.0966 21.7325 9.78018 22.1596 9.47958C22.1359 9.49538 22.1122 9.51518 22.0885 9.53098C23.1405 8.80718 24.3072 8.27728 25.5056 7.85008C25.5016 7.85008 25.4977 7.85408 25.4937 7.85408C26.7553 7.41508 28.0763 7.15008 29.4091 7.04728C30.5838 6.96418 31.7663 7.01958 32.9251 7.23318C33.8071 7.40318 34.6772 7.66818 35.4919 8.05178C35.5631 8.08348 35.6501 8.02808 35.6739 7.96088C35.7015 7.87778 35.6501 7.81448 35.5829 7.77888C35.0134 7.51398 34.428 7.29638 33.8229 7.13028C33.4986 7.03538 33.1624 6.95628 32.8223 6.89298ZM25.5649 7.83038C25.553 7.83428 25.5372 7.83828 25.5214 7.84618C25.5372 7.83828 25.553 7.83428 25.5649 7.83038Z" fill="#2D0133"/>
<path d="M26.6643 6.0625C26.3756 6.0981 26.0908 6.1337 25.8021 6.1812C25.5095 6.2286 25.2208 6.2919 24.932 6.3631C24.3348 6.5055 23.7455 6.6993 23.1721 6.9247C22.6105 7.1462 22.0686 7.4112 21.5505 7.7157C21.2974 7.862 21.0561 8.0242 20.8149 8.1903C20.5578 8.3683 20.3047 8.5581 20.0714 8.7677C19.9764 8.8508 19.9764 9.0011 20.0555 9.0881C20.1386 9.183 20.2849 9.1869 20.3759 9.1039C20.542 8.9536 20.7121 8.8073 20.8821 8.6649C21.0522 8.5265 21.2302 8.3959 21.4081 8.2694C22.2624 7.688 23.1879 7.2371 24.1608 6.8891C24.1489 6.893 24.1371 6.897 24.1213 6.9049C24.9558 6.6122 25.8259 6.3908 26.7078 6.284C26.7672 6.2761 26.8067 6.2088 26.7948 6.1495C26.7869 6.106 26.7553 6.0783 26.7157 6.0665C26.6999 6.0625 26.6801 6.0625 26.6643 6.0625ZM21.3963 8.2813L21.3844 8.2892L21.3963 8.2813Z" fill="#2D0133"/>
<path d="M40.143 13.3356C40.0916 13.3633 40.0639 13.4424 40.0995 13.4938C40.5227 14.0831 40.9103 14.6922 41.2781 15.3171C41.4601 15.6256 41.6341 15.938 41.7962 16.2584C41.9623 16.5866 42.1087 16.9267 42.251 17.2669C42.4369 17.7336 42.5912 18.2121 42.7217 18.6986C42.7929 18.9596 42.8522 19.2246 42.9076 19.4896C42.9629 19.7585 42.9985 20.0354 43.042 20.3043C43.0579 20.3913 43.133 20.4783 43.2042 20.5218C43.2873 20.5732 43.3901 20.5851 43.4811 20.5614C43.572 20.5377 43.6511 20.4783 43.6986 20.3992C43.7104 20.3676 43.7223 20.3399 43.7381 20.3083C43.754 20.2489 43.7579 20.1857 43.7381 20.1224C43.6946 19.802 43.6155 19.4935 43.5285 19.185C43.4455 18.8805 43.3426 18.5799 43.2319 18.2873C43.0144 17.7019 42.7375 17.1364 42.4369 16.5906C42.1364 16.0408 41.8041 15.5069 41.4561 14.9888C41.0883 14.4391 40.6928 13.913 40.3012 13.3831C40.2815 13.3554 40.2577 13.3356 40.2261 13.3277C40.2024 13.3158 40.1747 13.3198 40.143 13.3356Z" fill="#2D0133"/>
<path d="M44.6674 24.5838C44.6121 24.5996 44.5646 24.6668 44.5844 24.7262C44.9047 25.6081 45.2132 26.5138 45.3398 27.4472C45.3398 27.4393 45.3398 27.4314 45.3358 27.4235C45.3635 27.6529 45.3793 27.8822 45.3833 28.1116C45.3872 28.3529 45.3635 28.5981 45.3319 28.8354C45.3319 28.8275 45.3319 28.8196 45.3358 28.8077C45.3002 29.0332 45.2567 29.2546 45.1934 29.4722C45.1262 29.7174 45.0313 29.9586 44.9324 30.192C44.9324 30.192 44.9324 30.188 44.9364 30.188C44.79 30.5281 44.616 30.8564 44.4341 31.1807C44.2166 31.5683 43.9714 31.9401 43.7776 32.3435C43.6154 32.6876 43.4849 33.0475 43.4018 33.4232C43.3306 33.7475 43.295 34.0797 43.2911 34.4119C43.2832 35.0289 43.4216 35.634 43.5679 36.2273C43.651 36.5595 43.7341 36.8917 43.8092 37.2239C43.8883 37.572 43.9516 37.924 43.999 38.276C43.999 38.272 43.999 38.2681 43.999 38.2641C43.999 38.2681 43.999 38.276 44.003 38.2799C44.007 38.3116 44.0109 38.3393 44.0149 38.3709C44.0109 38.3551 44.0109 38.3393 44.0069 38.3234C44.0149 38.3946 44.0228 38.4619 44.0307 38.533C44.0346 38.5686 44.0386 38.6042 44.0465 38.6398C44.0663 38.711 44.0979 38.7703 44.1493 38.8257C44.2284 38.9088 44.3352 38.9523 44.4499 38.9523C44.5567 38.9523 44.6635 38.9088 44.7426 38.8336C44.8177 38.7624 44.881 38.6398 44.8691 38.533C44.8296 38.1375 44.7703 37.742 44.6872 37.3505C44.616 37.0025 44.5251 36.6584 44.4341 36.3182C44.2798 35.7566 44.1177 35.199 44.0346 34.6216C43.9951 34.2973 43.999 33.9729 44.0386 33.6486C44.1177 33.1701 44.2719 32.7113 44.4578 32.2644C44.616 31.9005 44.8059 31.5485 44.9601 31.1847C45.0946 30.8722 45.2211 30.5558 45.3319 30.2315C45.5217 29.6739 45.6483 29.0846 45.672 28.4953C45.6957 27.9297 45.6127 27.3562 45.4861 26.8025C45.32 26.0748 45.0669 25.3669 44.8098 24.6629C44.794 24.6233 44.7663 24.5917 44.7268 24.5798C44.7109 24.5798 44.6912 24.5798 44.6674 24.5838ZM44.9245 30.2078C44.9206 30.2157 44.9166 30.2276 44.9126 30.2355C44.9166 30.2276 44.9206 30.2157 44.9245 30.2078ZM44.0228 34.5543C44.0228 34.5622 44.0267 34.5741 44.0267 34.582C44.0267 34.5741 44.0267 34.5662 44.0228 34.5543ZM44.003 38.3234C44.003 38.3116 43.999 38.2957 43.999 38.2799C43.999 38.276 43.999 38.276 43.999 38.272C43.999 38.2918 44.003 38.3076 44.003 38.3234ZM45.3358 28.8077C45.3358 28.8038 45.3358 28.7959 45.3398 28.7919C45.3358 28.7959 45.3358 28.7998 45.3358 28.8077Z" fill="#2D0133"/>
<path d="M10.4251 22.8278C9.66579 23.6504 8.84709 24.4216 8.04819 25.2047C7.64479 25.6002 7.25318 25.9997 6.87358 26.415C6.50178 26.8223 6.13789 27.2376 5.79779 27.6726C5.13729 28.519 4.62319 29.4919 4.33439 30.5281C4.18809 31.0621 4.10509 31.6237 4.08529 32.1774C4.07739 32.4582 4.09318 32.7311 4.12088 33.0079C4.15648 33.3362 4.21179 33.6645 4.28699 33.9888C4.33449 34.1905 4.39379 34.3922 4.46099 34.5899C4.49659 34.6928 4.54799 34.7758 4.64289 34.8351C4.73389 34.8905 4.84859 34.9063 4.95139 34.8786C5.16099 34.8233 5.29949 34.5978 5.24009 34.3843C5.10569 33.9215 4.99489 33.4548 4.92769 32.9763C4.86049 32.3989 4.85259 31.8175 4.92369 31.244C5.01079 30.6745 5.17688 30.1247 5.39438 29.5948C5.59208 29.1479 5.82148 28.7128 6.07858 28.2975C6.35548 27.8506 6.64419 27.4156 6.96849 27.0042C6.95659 27.0201 6.94078 27.0359 6.92888 27.0517C8.06398 25.6319 9.39679 24.3781 10.6268 23.0413C10.6822 22.982 10.6901 22.8911 10.6308 22.8317C10.615 22.812 10.5912 22.8001 10.5636 22.7922C10.5201 22.7764 10.4607 22.7882 10.4251 22.8278ZM5.42999 29.5196C5.42599 29.5354 5.41809 29.5473 5.41019 29.5631C5.41809 29.5473 5.42599 29.5315 5.42999 29.5196Z" fill="#2D0133"/>
<path d="M32.0788 22.0287C31.877 22.7089 31.6872 23.3931 31.5132 24.0813C31.3352 24.7813 31.177 25.4853 31.0228 26.1893C31.0267 26.1814 31.0267 26.1695 31.0267 26.1616C31.0228 26.1814 31.0188 26.2051 31.0149 26.2249C31.0069 26.2486 31.003 26.2763 31.007 26.304C31.0149 26.3435 31.0346 26.3791 31.0663 26.3989C31.1216 26.4385 31.2007 26.4345 31.2522 26.395C31.3589 26.304 31.4657 26.213 31.5844 26.1379C31.5844 26.1379 31.5844 26.1379 31.5804 26.1379C31.6674 26.0825 31.7624 26.039 31.8573 26.0034C31.9206 25.9836 31.9878 25.9718 32.055 25.9639C32.1104 25.9639 32.1658 25.9678 32.2172 25.9757C32.2607 25.9876 32.3002 26.0034 32.3398 26.0232C32.3793 26.0469 32.4149 26.0706 32.4466 26.1023C32.4822 26.1379 32.5138 26.1735 32.5415 26.213C32.581 26.2803 32.6127 26.3475 32.6364 26.4226C32.6601 26.5057 32.672 26.5927 32.6799 26.6797C32.6839 26.7944 32.676 26.9091 32.6562 27.0199C32.6246 27.1583 32.5771 27.2888 32.5138 27.4153C32.4466 27.538 32.3635 27.6487 32.2726 27.7555C32.1697 27.8544 32.0629 27.9453 31.9403 28.0244C31.7821 28.1193 31.616 28.1905 31.442 28.2499C31.2403 28.3092 31.0346 28.3448 30.825 28.3645C30.7024 28.3764 30.6194 28.5148 30.6391 28.6335C30.651 28.6928 30.6827 28.7442 30.7301 28.7798C30.7855 28.8194 30.8408 28.8273 30.9041 28.8194C31.264 28.7838 31.62 28.6928 31.9443 28.5307C32.2132 28.3962 32.4466 28.2063 32.6404 27.977C32.8025 27.7832 32.9251 27.5498 32.9963 27.3086C33.0635 27.0792 33.0833 26.8458 33.0556 26.6085C33.0121 26.217 32.7867 25.8254 32.4031 25.6791C32.2014 25.604 31.9799 25.6237 31.7821 25.687C31.6358 25.7345 31.4974 25.8057 31.3708 25.8966C31.4064 25.7107 31.446 25.5288 31.4855 25.3469C31.4855 25.3508 31.4855 25.3548 31.4816 25.3627C31.7189 24.2751 32.0036 23.1993 32.32 22.1315C32.3398 22.0603 32.3121 21.9851 32.2409 21.9575C32.2251 21.9535 32.2093 21.9495 32.1974 21.9495C32.1499 21.9377 32.0946 21.9733 32.0788 22.0287ZM32.1935 25.9639C32.2014 25.9639 32.2053 25.9678 32.2132 25.9678C32.2053 25.9678 32.2014 25.9678 32.1935 25.9639ZM32.4228 26.0706C32.4308 26.0786 32.4387 26.0865 32.4466 26.0944C32.4387 26.0865 32.4308 26.0786 32.4228 26.0706ZM32.5494 26.213C32.5534 26.217 32.5573 26.2249 32.5573 26.2289C32.5534 26.2249 32.5494 26.2209 32.5494 26.213ZM32.6878 26.6995C32.6878 26.7035 32.6878 26.7114 32.6878 26.7153C32.6878 26.7114 32.6878 26.7035 32.6878 26.6995ZM32.6562 27.0357C32.6562 27.0396 32.6562 27.0436 32.6522 27.0515C32.6522 27.0475 32.6522 27.0396 32.6562 27.0357ZM32.5415 27.3679C32.5375 27.3758 32.5336 27.3798 32.5296 27.3877C32.5336 27.3837 32.5375 27.3758 32.5415 27.3679ZM31.9878 27.9928C31.9759 28.0007 31.9641 28.0046 31.9561 28.0126C31.9641 28.0046 31.9759 27.9967 31.9878 27.9928ZM31.4895 28.2301C31.4736 28.234 31.4618 28.238 31.446 28.2419C31.4618 28.238 31.4776 28.2301 31.4895 28.2301ZM31.0267 26.1577C31.0267 26.1537 31.0267 26.1497 31.0307 26.1458C31.0267 26.1497 31.0267 26.1537 31.0267 26.1577ZM31.4895 25.3588C31.4895 25.3548 31.4895 25.3508 31.4934 25.3469C31.4934 25.3508 31.4895 25.3548 31.4895 25.3588Z" fill="#BF8675"/>
<path d="M25.11 23.0254C24.6631 23.0492 24.2281 23.243 23.9196 23.5673C23.8009 23.6938 23.7772 23.8916 23.8682 24.0379C23.9235 24.1249 24.0105 24.1882 24.1094 24.2119C24.2004 24.2317 24.3269 24.2238 24.4021 24.1645C24.5405 24.0537 24.6829 23.9588 24.8411 23.8797C24.9716 23.8243 25.1021 23.7848 25.2405 23.7571C25.3869 23.7373 25.5332 23.7334 25.6795 23.7452C25.8694 23.769 26.0513 23.8125 26.2293 23.8797C26.4231 23.9588 26.605 24.0616 26.7751 24.1842C26.8937 24.2792 27.0045 24.382 27.1073 24.4967C27.1785 24.5916 27.2378 24.6865 27.2892 24.7933C27.3248 24.8764 27.3565 24.9634 27.3802 25.0504C27.4 25.1295 27.4909 25.173 27.57 25.1532C27.6531 25.1295 27.6926 25.0425 27.6729 24.9634C27.5779 24.6035 27.4039 24.2673 27.1706 23.9786C26.9293 23.674 26.6208 23.4288 26.2688 23.2627C25.9406 23.1085 25.5846 23.0254 25.2247 23.0254C25.1891 23.0215 25.1496 23.0215 25.11 23.0254ZM26.7395 24.1486C26.7474 24.1566 26.7593 24.1645 26.7672 24.1684C26.7593 24.1645 26.7474 24.1566 26.7395 24.1486Z" fill="#3A0241"/>
<path d="M25.7666 20.6288C26.7553 20.2254 27.4316 19.5926 27.2813 19.2247C27.131 18.853 26.2056 18.8846 25.2168 19.288C24.2281 19.6914 23.5518 20.3242 23.702 20.692C23.8523 21.0638 24.7778 21.0322 25.7666 20.6288Z" fill="#3A0241"/>
<path d="M37.6553 24.999C38.0548 25.1414 38.3949 25.4301 38.5927 25.8098C38.6678 25.9561 38.6362 26.142 38.5136 26.2527C38.4424 26.316 38.3435 26.3516 38.2486 26.3476C38.1616 26.3437 38.0469 26.3041 37.9955 26.229C37.9005 26.0906 37.7938 25.964 37.6711 25.8533C37.5683 25.7702 37.4576 25.6951 37.3389 25.6357C37.2124 25.5804 37.0779 25.5369 36.9434 25.5092C36.7655 25.4815 36.5875 25.4736 36.4095 25.4855C36.2118 25.5052 36.018 25.5487 35.8321 25.616C35.6976 25.6674 35.5711 25.7307 35.4484 25.8137C35.3575 25.881 35.2784 25.9521 35.2032 26.0352C35.1479 26.1024 35.1004 26.1736 35.0529 26.2448C35.0134 26.3121 34.9185 26.3279 34.8512 26.2883C34.784 26.2448 34.7682 26.1578 34.8117 26.0866C34.9936 25.786 35.2428 25.525 35.5275 25.3233C35.8281 25.1097 36.1722 24.9713 36.54 24.912C36.8762 24.8566 37.2242 24.8803 37.5525 24.9753C37.5841 24.9753 37.6197 24.9832 37.6553 24.999Z" fill="#3A0241"/>
<path d="M37.6987 22.6498C36.9116 22.021 36.4608 21.2656 36.6981 20.9729C36.9354 20.6763 37.7659 20.9492 38.553 21.582C39.34 22.2108 39.7909 22.9623 39.5536 23.2589C39.3202 23.5515 38.4897 23.2787 37.6987 22.6498Z" fill="#3A0241"/>
<path d="M43.0577 38.5527C42.8283 38.5527 42.5989 38.5606 42.3696 38.5765C41.7842 38.6121 41.1949 38.6872 40.6254 38.7623C40.396 38.794 40.1627 38.8217 39.9333 38.8494C39.9135 38.8414 39.8898 38.8335 39.87 38.8335C38.0863 39.1499 36.176 39.2923 33.6567 39.2923C32.6324 39.2923 31.5962 39.2686 30.5916 39.2488C30.5402 39.2488 30.4888 39.2725 30.4532 39.32C30.3899 39.3556 30.3582 39.4031 30.3464 39.4545C30.3345 39.5019 30.3424 39.5494 30.3661 39.5889C30.4571 39.7274 30.5323 39.8618 30.5916 39.9963C30.6865 40.2296 30.7419 40.4353 30.7735 40.6568C30.8012 40.8901 30.8012 41.1353 30.7696 41.3806C30.73 41.6258 30.6667 41.8631 30.5679 42.1043C30.4532 42.3614 30.3147 42.5987 30.1526 42.8083C30.0062 42.9942 29.8322 43.1643 29.6424 43.3145C29.4011 43.4925 29.1243 43.6507 28.7683 43.801C28.1711 44.0502 27.5185 44.2163 26.7631 44.3231C26.2371 44.3903 25.6874 44.4259 25.1258 44.4259C24.4613 44.4259 23.7613 44.3784 23.0375 44.2796H23.0415C21.5979 44.0779 20.2295 43.71 18.9639 43.184C18.0108 42.7806 17.2158 42.3258 16.5237 41.7998C16.0372 41.4201 15.6378 41.0286 15.3174 40.6172C15.0643 40.289 14.8626 39.9409 14.7083 39.5889C14.6807 39.5296 14.6609 39.498 14.6213 39.4742C14.5936 39.4584 14.558 39.4505 14.5264 39.4505C14.5106 39.4505 14.4908 39.4545 14.475 39.4584C14.4473 39.4663 14.4236 39.4822 14.3998 39.5019C12.5133 39.9844 10.6742 40.7359 8.9182 41.7365C7.1503 42.745 5.5486 43.9711 4.1564 45.379C3.2863 46.2571 2.5151 47.2102 1.8586 48.199C1.8071 48.2741 1.823 48.3809 1.8902 48.4442C1.8902 48.456 1.8981 48.4719 1.906 48.4877C2.6931 49.9708 3.5157 51.2245 4.4214 52.324C4.9237 52.9291 5.4655 53.4907 6.035 53.993C6.6243 54.5111 7.2611 54.962 7.9295 55.3298C7.9453 55.3417 7.969 55.3456 7.9967 55.3456C8.0244 55.3456 8.0521 55.3417 8.0798 55.3298C8.0956 55.3219 8.1114 55.314 8.1272 55.2982C8.1866 55.2982 8.2419 55.2665 8.2815 55.2151C8.3962 55.0569 8.5188 54.9066 8.6453 54.7603L8.673 54.7247L8.6691 54.7207C9.5194 53.7755 10.5516 53.0161 11.5483 52.2845C11.5443 53.7201 11.5483 55.2072 11.4099 56.6626C11.3426 56.7536 11.3585 56.8723 11.4415 56.9355C13.1619 58.3198 14.827 59.447 16.5355 60.3764C17.4491 60.8708 18.3865 61.3098 19.3238 61.6815C20.2651 62.0533 21.2459 62.3578 22.2426 62.5912C22.8912 62.7415 23.5636 62.8601 24.2478 62.9432C24.5919 62.9827 24.9439 63.0144 25.3038 63.0341C25.6439 63.0539 25.984 63.0579 26.3241 63.0618C26.4942 63.0618 26.6643 63.0697 26.8343 63.0737L27.0558 63.0816C27.2496 63.0895 27.4434 63.0935 27.6372 63.0935C27.74 63.0935 27.8389 63.0935 27.9417 63.0895C28.2621 63.0816 28.5429 63.0579 28.8 63.0144C29.0768 62.9669 29.3023 62.8918 29.4881 62.7889C29.5277 62.7652 29.5672 62.7375 29.587 62.6861C29.5989 62.6505 29.6028 62.6149 29.5989 62.5793C30.3029 62.1087 30.9633 61.5629 31.5606 60.9617C32.2606 60.2617 32.8578 59.5063 33.3403 58.7153C33.8505 57.8768 34.2223 57.0067 34.4477 56.1208C34.5664 55.6581 34.6455 55.1874 34.681 54.7207C34.7166 54.2145 34.6969 53.6806 34.6178 53.0834C34.5347 52.4743 34.3884 51.8613 34.246 51.272C34.1115 50.7064 33.9612 50.0855 33.8663 49.4685C35.4127 49.3775 37.0184 49.0414 38.636 48.4639C39.5892 48.1238 40.5423 47.6927 41.4639 47.1825C41.887 46.9492 42.326 46.6842 42.769 46.3876C43.0933 46.17 43.4137 45.9367 43.7261 45.7073C44.4657 45.1655 45.0352 44.6909 45.5217 44.2123C45.8223 43.9157 46.0912 43.6112 46.3206 43.3027C46.5698 42.9625 46.7517 42.6422 46.8743 42.3218C47.0088 41.9778 47.076 41.6297 47.0681 41.2856C47.0602 40.9415 46.9613 40.5935 46.7754 40.2455C46.6093 39.933 46.3641 39.6404 46.0675 39.3951C45.8064 39.1816 45.4979 39.0076 45.142 38.8731C44.7544 38.7268 44.3273 38.6358 43.8369 38.5883C43.5877 38.5646 43.3346 38.5527 43.0577 38.5527Z" fill="#FF505D"/>
<path d="M43.3227 45.9959C42.8956 46.2095 42.4605 46.4152 42.0255 46.6169C41.5588 46.8344 41.096 47.0519 40.6175 47.2457C39.5615 47.6768 38.4739 48.013 37.3704 48.3017C36.8167 48.448 36.2551 48.5825 35.6975 48.713C35.3573 48.7961 35.0172 48.8871 34.6929 49.0215C34.7008 49.0176 34.7087 49.0136 34.7127 49.0097C34.5624 49.0729 34.4161 49.1441 34.2816 49.239C34.2381 49.2746 34.1985 49.3102 34.1629 49.3537C34.1471 49.3735 34.1352 49.3933 34.1234 49.417C34.1194 49.4249 34.1155 49.4368 34.1155 49.4447C35.5749 49.3419 37.0936 49.0097 38.6321 48.4599C39.5892 48.1198 40.5384 47.6887 41.4599 47.1785C41.8831 46.9451 42.3221 46.6802 42.765 46.3835C42.9549 46.257 43.1447 46.1225 43.3306 45.988L43.3227 45.9959Z" fill="#E44753"/>
<path d="M34.2896 49.2398C34.2939 49.2398 34.2982 49.2355 34.3025 49.2312C34.2982 49.2312 34.2939 49.2355 34.2896 49.2398Z" fill="#E44753"/>
<path d="M11.7459 50.9714C11.6154 50.9991 11.4968 51.0465 11.3781 51.0979H11.3821C11.3781 51.0979 11.3742 51.1019 11.3742 51.1019C11.1764 51.2008 10.9866 51.3194 10.8047 51.4499C10.595 51.6002 10.3973 51.7584 10.2035 51.9285C10.2035 51.9285 10.2035 51.9285 10.2035 51.9245C9.85546 52.2251 9.52316 52.5415 9.20676 52.8698C8.88646 53.198 8.57396 53.5382 8.27346 53.8823C8.00846 54.1868 7.74346 54.4992 7.49036 54.8156C7.44686 54.871 7.40336 54.9264 7.35986 54.9817C7.54966 55.1004 7.73946 55.2151 7.93326 55.3219C7.95306 55.3337 7.97676 55.3417 8.00056 55.3417C8.02826 55.3417 8.05986 55.3337 8.08356 55.3219C8.09936 55.3179 8.11916 55.3061 8.13496 55.2942C8.19036 55.2942 8.24966 55.2626 8.28926 55.2111C8.40396 55.0529 8.52656 54.9026 8.65306 54.7563L8.68076 54.7207C9.52316 53.7794 10.5515 53.0201 11.5442 52.2884V52.4506V52.498C11.5403 53.8625 11.5403 55.2705 11.4098 56.6508C11.3386 56.7417 11.3544 56.8604 11.4414 56.9316C11.9872 57.3706 12.529 57.7858 13.0669 58.1734C13.0946 57.8966 13.1183 57.6197 13.1341 57.3429C13.1895 56.457 13.1974 55.5631 13.1262 54.6772C13.0986 54.3648 13.0709 54.0523 13.0195 53.7438C12.9878 53.55 12.9522 53.3523 12.9166 53.1585C12.9166 53.1664 12.9206 53.1743 12.9206 53.1822C12.8613 52.8737 12.7901 52.5652 12.7031 52.2607C12.62 51.9759 12.533 51.6951 12.4064 51.4262C12.3511 51.3115 12.2878 51.2047 12.2087 51.1059C12.177 51.0663 12.1375 51.0347 12.0979 51.007C12.0821 50.9951 12.0623 50.9872 12.0426 50.9793C12.007 50.9674 11.9674 50.9635 11.9279 50.9556H11.9437C11.9358 50.9556 11.9318 50.9556 11.9239 50.9556H11.9279H11.9239H11.92H11.9239C11.916 50.9556 11.9121 50.9556 11.9041 50.9556C11.8527 50.9556 11.8013 50.9595 11.7459 50.9714Z" fill="#E44753"/>
<path d="M14.4752 39.4425C14.4514 39.4465 14.4277 39.4583 14.3961 39.486C12.5135 39.9646 10.6705 40.72 8.91839 41.7206C7.15449 42.7291 5.54869 43.9512 4.15659 45.3592C3.28649 46.2412 2.51529 47.1943 1.85869 48.1831C1.80339 48.2622 1.81919 48.3689 1.89039 48.4362C1.89039 48.4401 1.89429 48.4639 1.90619 48.4757C2.19489 49.0215 2.49149 49.5357 2.79209 50.0261C3.23899 49.334 3.74129 48.6695 4.27519 48.0407C4.86059 47.3486 5.48149 46.6881 6.13409 46.0513C6.72339 45.4778 7.33239 44.9202 7.96129 44.3863C8.23809 44.149 8.51889 43.9156 8.79969 43.6902C9.22289 43.3501 9.65799 43.0218 10.1049 42.7173C11.6315 41.6652 13.2847 40.7991 15.0289 40.1623C14.9142 39.9725 14.8113 39.7747 14.7243 39.577C14.7006 39.5177 14.6769 39.4821 14.6334 39.4583C14.6057 39.4386 14.5701 39.4307 14.5345 39.4307C14.5147 39.4346 14.4949 39.4346 14.4752 39.4425Z" fill="#E44753"/>
<path d="M21.9143 30.2234H21.8748C21.3725 30.2234 20.8623 30.2748 20.3719 30.3223C20.1662 30.342 19.9566 30.3618 19.751 30.3816L19.3792 30.4093C18.8571 30.4528 18.339 30.4923 17.8209 30.5477C16.9034 30.6505 16.1638 30.781 15.5033 30.9511C15.1078 31.0539 14.7598 31.1726 14.4434 31.3071C14.0993 31.4534 13.8185 31.6116 13.5772 31.7896C13.328 31.9755 13.1303 32.193 12.976 32.4303C12.8455 32.6359 12.802 32.8258 12.8455 32.9919C12.8732 33.1066 12.9602 33.2094 13.0828 33.2766C13.2133 33.3478 13.3636 33.3716 13.506 33.3834C13.5733 33.3913 13.6405 33.3913 13.7117 33.3913C13.7473 33.3913 13.7829 33.3913 13.8185 33.3874C13.6009 33.4783 13.4151 33.5733 13.2489 33.6721C12.976 33.8343 12.7823 33.9965 12.6478 34.1823C12.5845 34.2654 12.541 34.3564 12.5094 34.4552C12.4777 34.5541 12.4777 34.6648 12.4975 34.7875C12.5291 34.9575 12.6596 35.1157 12.8337 35.1948C12.976 35.2581 13.1461 35.2897 13.3518 35.2897C13.3913 35.2897 13.4309 35.2897 13.4704 35.2858C13.6484 35.2779 13.8382 35.2541 14.0558 35.2067C13.9569 35.2779 13.8778 35.357 13.8106 35.44C13.6603 35.622 13.5891 35.796 13.6049 35.9621C13.6128 36.057 13.6444 36.148 13.6998 36.2231C13.7552 36.3062 13.8343 36.3813 13.9529 36.4604C14.032 36.5118 14.1309 36.5514 14.2575 36.5791C14.3524 36.5988 14.4592 36.6107 14.5778 36.6107H14.653C14.9812 36.5949 15.3016 36.5079 15.5468 36.4327C15.9067 36.322 16.2508 36.1796 16.5514 36.053C16.8598 35.9225 17.1644 35.7762 17.4729 35.6338L17.7774 35.4914C17.6904 35.5982 17.6192 35.7129 17.5599 35.8276C17.4333 36.0807 17.3859 36.3141 17.4254 36.5158C17.4333 36.5672 17.4491 36.6186 17.4729 36.67C17.4966 36.7175 17.5243 36.757 17.5638 36.8045C17.6232 36.8757 17.722 36.935 17.8526 36.9825C17.9356 37.0102 18.0345 37.026 18.161 37.026H18.2401C18.4498 37.0181 18.6554 36.9667 18.8255 36.9192C19.1972 36.8164 19.5769 36.6621 20.0634 36.4248C20.3758 36.2706 20.6843 36.1005 20.9889 35.9304C21.4358 35.6813 21.8985 35.4242 22.381 35.2225C22.6856 35.0959 22.9901 35.001 23.2748 34.9298C23.3025 34.9457 23.3342 34.9536 23.3698 34.9536C23.4014 34.9536 23.433 34.9456 23.4607 34.9259L23.4963 34.9021L23.5319 34.8784L23.5794 34.8705L23.6308 34.8626L23.6703 34.8547V34.8507H23.7455C23.8048 34.8428 23.8602 34.8389 23.9195 34.8349C23.9749 34.831 24.0184 34.8151 24.05 34.7795C24.0856 34.7439 24.1054 34.6965 24.1054 34.6451C24.1054 34.5778 24.0619 34.5066 23.9986 34.475C24.493 33.9885 24.8133 33.4032 24.9201 32.7941C24.9557 32.5924 24.9636 32.3828 24.9439 32.1693C24.932 32.0664 24.9122 31.9636 24.8885 31.8608C24.8568 31.7342 24.8054 31.6116 24.7619 31.5088C24.6907 31.3466 24.584 31.1805 24.4455 31.0263C24.3427 30.9076 24.2122 30.7969 24.0421 30.6861C23.8879 30.5873 23.7218 30.5161 23.5912 30.4686C23.433 30.4093 23.2551 30.3579 23.0455 30.3183C22.7172 30.2511 22.3612 30.2234 21.9143 30.2234Z" fill="#FFB39C"/>
<path d="M24.3942 33.5338C24.3942 33.5338 24.3903 33.5338 24.3942 33.5338C24.3903 33.5338 24.3942 33.5338 24.3942 33.5338C24.3942 33.5338 24.3942 33.5298 24.3942 33.5338C23.7654 33.6841 23.1405 33.8739 22.5354 34.1073C21.9263 34.3406 21.3331 34.6135 20.7556 34.9141H20.7596C20.6449 34.9734 20.5263 35.0367 20.4116 35.1C20.3245 35.1474 20.2415 35.1909 20.1584 35.2423C20.0161 35.3294 19.8737 35.4243 19.7392 35.5231C19.4465 35.7328 19.1578 35.9542 18.8533 36.152C18.6951 36.2548 18.5329 36.3497 18.3668 36.4328C18.2126 36.5079 18.0544 36.5752 17.8883 36.6187C17.7498 36.6543 17.6075 36.682 17.4651 36.6859C17.4888 36.7334 17.5165 36.7729 17.5521 36.8164C17.6154 36.8916 17.7142 36.9509 17.8448 36.9904C17.9318 37.0221 18.0306 37.0379 18.1533 37.0379H18.2324C18.4499 37.026 18.6634 36.9707 18.8216 36.9272C19.1855 36.8283 19.5652 36.678 20.0596 36.4328C20.376 36.2786 20.6765 36.1124 20.989 35.9384C21.4122 35.7051 21.8907 35.4401 22.3811 35.2305C22.6817 35.1079 22.9823 35.009 23.275 34.9378C23.2947 34.9536 23.3303 34.9655 23.3659 34.9655C23.4015 34.9655 23.4371 34.9536 23.4609 34.9339L23.4965 34.9101L23.532 34.8824L23.5795 34.8785L23.627 34.8706L23.6705 34.8587H23.7417C23.801 34.8508 23.8564 34.8468 23.9157 34.8429C23.975 34.835 24.0225 34.8152 24.0541 34.7836C24.0897 34.744 24.1134 34.6926 24.1134 34.6412C24.1134 34.57 24.0699 34.4988 24.0027 34.4672C24.3151 34.1705 24.5564 33.8304 24.7185 33.4666C24.6078 33.4863 24.501 33.5101 24.3942 33.5338Z" fill="#F3AB95"/>
<path d="M19.039 30.1999C18.3073 30.2711 17.5796 30.3818 16.8598 30.5321C16.2033 30.6666 15.5507 30.8406 14.9179 31.07C14.8705 31.0858 14.8467 31.1412 14.8625 31.1886C14.8823 31.2361 14.9337 31.2598 14.9812 31.244C15.4321 31.0858 15.8908 30.9553 16.3575 30.8485C16.3615 30.8485 16.3654 30.8485 16.3694 30.8446H16.3654C17.2316 30.6468 18.1135 30.5203 18.9995 30.4372C19.8617 30.3581 20.7357 30.3344 21.6019 30.366C21.6019 30.366 21.6019 30.366 21.5979 30.366C21.855 30.3739 22.112 30.3897 22.3691 30.4214C22.5313 30.4372 22.6934 30.4649 22.8595 30.4847C23.0336 30.5084 23.2076 30.5203 23.3856 30.5282C23.4053 30.5242 23.4251 30.5163 23.4409 30.5044C23.4647 30.4886 23.4844 30.4609 23.4884 30.4293C23.4923 30.3976 23.4884 30.366 23.4686 30.3423C23.4528 30.3185 23.4211 30.2948 23.3935 30.2948C22.9782 30.2671 22.5669 30.188 22.1516 30.1524C21.8312 30.1248 21.5069 30.1168 21.1826 30.1089C21.0956 30.1089 21.0086 30.105 20.9256 30.105C20.2967 30.105 19.6679 30.1406 19.039 30.1999ZM16.3575 30.8446C16.3615 30.8446 16.3654 30.8446 16.3654 30.8446C16.3654 30.8446 16.3615 30.8446 16.3575 30.8446Z" fill="#E8A38E"/>
<path d="M17.0418 34.1665C16.583 34.2496 16.1282 34.3603 15.6813 34.4948C15.2185 34.6332 14.7677 34.8033 14.3287 34.9971C14.2812 35.0168 14.2535 35.0682 14.2733 35.1157C14.2891 35.1592 14.3445 35.1909 14.392 35.1711C15.0801 34.8705 15.792 34.6332 16.5237 34.4592C16.5237 34.4592 16.5237 34.4592 16.5276 34.4592L16.5356 34.4552C16.5356 34.4552 16.5356 34.4552 16.5316 34.4552C16.7056 34.4157 16.8836 34.3801 17.0576 34.3484C17.0813 34.3445 17.1051 34.3366 17.1209 34.3168C17.1367 34.297 17.1446 34.2733 17.1446 34.2496C17.1407 34.2061 17.1011 34.1665 17.0576 34.1665C17.0497 34.1665 17.0458 34.1665 17.0418 34.1665ZM16.5237 34.4592C16.5237 34.4592 16.5277 34.4592 16.5316 34.4592C16.5277 34.4592 16.5276 34.4592 16.5237 34.4592Z" fill="#E8A38E"/>
<path d="M16.7253 32.7625C15.8394 32.8891 14.9693 33.0749 14.1071 33.3122C14.0597 33.3241 14.0359 33.3874 14.0518 33.4309C14.0597 33.4546 14.0794 33.4744 14.0992 33.4823C14.1229 33.4942 14.1467 33.4942 14.1704 33.4863C14.467 33.4032 14.7637 33.3281 15.0642 33.2569C15.0603 33.2569 15.0524 33.2608 15.0484 33.2608C15.61 33.1303 16.1716 33.0275 16.7412 32.9444C16.7926 32.9365 16.8282 32.897 16.8242 32.8416C16.8202 32.7941 16.7807 32.7585 16.7332 32.7585C16.7293 32.7585 16.7293 32.7625 16.7253 32.7625Z" fill="#E8A38E"/>
<path d="M26.9926 29.9783C25.5649 29.9783 24.1727 30.0455 22.8557 30.18C22.8359 30.18 22.8162 30.1879 22.7964 30.1958C22.7529 30.1998 22.7133 30.2195 22.6856 30.2472C22.654 30.2789 22.6224 30.3342 22.6263 30.3817C22.6896 30.8958 22.7647 31.41 22.8359 31.9241C22.8992 32.3592 22.9625 32.7982 23.0179 33.2332C23.097 33.8542 23.1484 34.4197 23.1761 34.9537C23.18 35.0446 23.2433 35.1237 23.3303 35.1395C23.354 35.1474 23.3817 35.1514 23.4213 35.1514H23.623C23.7693 35.1514 23.9156 35.1554 24.062 35.1593C25.1812 35.1949 26.3677 35.3333 27.6808 35.5825C28.8198 35.8 30.0182 36.0966 31.2403 36.4724C32.2013 36.765 33.0556 37.0656 33.8506 37.386C34.8354 37.7775 35.6897 38.1967 36.4569 38.6674C36.6863 38.8098 36.8841 38.9442 37.0858 39.0866C37.2875 39.229 37.4971 39.3951 37.7265 39.5968C38.1299 39.9449 38.5056 40.3285 38.8536 40.6884L38.826 40.6488C38.9683 40.807 39.1147 40.9652 39.2571 41.1195C39.5893 41.4754 39.9334 41.8432 40.2893 42.1873C40.5741 42.4681 40.8351 42.7015 41.0843 42.8953C41.3374 43.097 41.6182 43.2829 41.9425 43.4648C42.5357 43.797 43.1923 44.0027 43.8409 44.066C43.9714 44.0778 44.1019 44.0857 44.2324 44.0857C44.5409 44.0857 44.8494 44.0501 45.1579 43.9829C44.5765 44.4891 43.9675 44.9637 43.394 45.3988C43.3109 45.4621 43.2911 45.5807 43.3505 45.6638C43.3861 45.7112 43.4454 45.7389 43.5047 45.7389C43.5443 45.7389 43.5838 45.727 43.6155 45.7033C44.2443 45.2287 44.9799 44.6592 45.6602 44.0264C46.4077 43.3343 46.9732 42.6659 47.3964 41.9896C47.6337 41.6059 47.8275 41.2105 47.9699 40.8189C48.1202 40.4076 48.2151 39.9765 48.2547 39.5375C48.2903 39.1499 48.2784 38.7228 48.2151 38.2284C48.1677 37.8487 48.0807 37.4572 47.958 37.0696C47.7445 36.3893 47.3964 35.7486 46.9218 35.1633C46.5066 34.6452 45.9726 34.1627 45.3359 33.7316C43.9793 32.8061 42.425 32.2801 41.2227 31.9281C40.6057 31.7462 39.9175 31.5682 39.0554 31.3704C38.0627 31.1371 37.0423 30.9354 35.9388 30.7495C33.7438 30.3777 31.5092 30.1404 29.2984 30.0376C28.5232 29.9981 27.748 29.9783 26.9926 29.9783Z" fill="#FF505D"/>
<path d="M44.9879 44.046C44.3907 44.6195 43.7658 45.1692 43.0816 45.6399C42.9985 45.6952 42.9946 45.8258 43.0539 45.9009C43.1211 45.984 43.2319 45.9879 43.3149 45.9286C43.9991 45.4619 44.6201 44.9122 45.2212 44.3387C45.2568 44.3031 45.2845 44.2675 45.2885 44.2161C45.2924 44.1686 45.2806 44.1172 45.2489 44.0777C45.2133 44.0341 45.154 44.0065 45.0986 44.0065C45.0551 44.0025 45.0195 44.0183 44.9879 44.046Z" fill="#FF505D"/>
<path d="M46.202 42.9468C46.1467 42.9547 46.115 42.9824 46.0794 43.018C45.9212 43.1881 45.7591 43.3581 45.5969 43.5282C45.6009 43.5243 45.6009 43.5243 45.6048 43.5203C45.6009 43.5243 45.5969 43.5282 45.593 43.5322C45.1144 44.0265 44.62 44.5011 44.0545 44.8966C43.9714 44.956 43.9675 45.0825 44.0268 45.1577C44.094 45.2407 44.2048 45.2447 44.2878 45.1854C45.0709 44.6356 45.7235 43.9356 46.3761 43.2395C46.4077 43.2079 46.4156 43.1485 46.4116 43.105C46.4037 43.0576 46.3761 43.0101 46.3365 42.9785C46.3049 42.9547 46.2653 42.9429 46.2258 42.9429C46.2218 42.9429 46.2099 42.9468 46.202 42.9468Z" fill="#FF505D"/>
<path d="M44.9127 44.0343C44.5172 44.4377 44.1059 44.8292 43.6352 45.1417C43.5878 45.1377 43.5364 45.1496 43.4968 45.1812C43.4652 45.201 43.4335 45.2247 43.4058 45.2524C43.3623 45.2841 43.3307 45.3276 43.2951 45.3671C43.2397 45.4304 43.2516 45.5332 43.2991 45.5926C43.3465 45.6519 43.4454 45.6875 43.5166 45.6479C43.8132 45.4818 44.0901 45.292 44.3511 45.0745C44.6319 44.8411 44.889 44.584 45.146 44.323C45.1816 44.2874 45.2093 44.2518 45.2133 44.2004C45.2172 44.1529 45.2054 44.1015 45.1737 44.062C45.1421 44.0264 45.0986 43.9987 45.0511 43.9947C45.0432 43.9947 45.0353 43.9947 45.0274 43.9947C44.9878 43.9908 44.9404 44.0066 44.9127 44.0343Z" fill="#FF505D"/>
<path d="M46.1505 42.8715C45.937 43.1286 45.7155 43.3778 45.4861 43.619C44.964 44.1609 44.3945 44.6592 43.7498 45.0547C43.7578 45.0507 43.7696 45.0428 43.7775 45.0389C43.7222 45.0705 43.6707 45.1021 43.6154 45.1298C43.5719 45.1575 43.5363 45.1852 43.5165 45.2327C43.5007 45.2762 43.5007 45.3315 43.5165 45.375C43.5363 45.4185 43.5719 45.4541 43.6193 45.4739C43.6589 45.4897 43.7222 45.4937 43.7617 45.4739C44.0148 45.3315 44.2561 45.1733 44.4894 45.0033C44.7346 44.8253 44.964 44.6315 45.1855 44.4298C45.6403 44.0185 46.0556 43.5637 46.4472 43.093C46.5104 43.0139 46.4827 42.8913 46.4076 42.832C46.376 42.8083 46.3364 42.7964 46.3008 42.7964C46.2455 42.7964 46.1901 42.8241 46.1505 42.8715ZM45.5098 43.5953L45.498 43.6072C45.5019 43.6032 45.5059 43.5993 45.5098 43.5953ZM43.738 45.0626C43.7419 45.0586 43.7459 45.0586 43.7498 45.0547C43.7459 45.0586 43.7419 45.0586 43.738 45.0626Z" fill="#FF505D"/>
<path d="M46.5501 42.5196C46.4948 42.5275 46.4631 42.5552 46.4236 42.5947C46.0478 42.9902 45.7156 43.4253 45.3399 43.8208C45.1184 44.0502 44.8851 44.2598 44.624 44.4378C44.541 44.4971 44.537 44.6236 44.5964 44.6988C44.6636 44.7818 44.7743 44.7858 44.8574 44.7265C45.6009 44.2163 46.1111 43.4609 46.7281 42.8122C46.7597 42.7806 46.7677 42.7213 46.7597 42.6738C46.7558 42.6264 46.7281 42.5789 46.6846 42.5512C46.653 42.5275 46.6134 42.5156 46.5739 42.5156C46.566 42.5196 46.558 42.5196 46.5501 42.5196ZM45.3636 43.801C45.3597 43.805 45.3557 43.8089 45.3557 43.8089C45.3557 43.805 45.3597 43.801 45.3636 43.801Z" fill="#FF505D"/>
<path d="M46.641 42.3732C46.3048 42.832 45.9568 43.2829 45.5613 43.6942L45.5929 43.6626C45.3002 43.9631 44.9838 44.2439 44.6239 44.4615C44.5844 44.4852 44.5607 44.5406 44.5567 44.5841C44.5488 44.6315 44.5646 44.683 44.5963 44.7225C44.6279 44.7621 44.6714 44.7858 44.7189 44.7897C44.7742 44.7937 44.8138 44.7779 44.8573 44.7502C45.2844 44.4892 45.6483 44.1451 45.9884 43.7773C46.3325 43.4055 46.637 43.0021 46.9376 42.5947C46.9969 42.5117 46.9811 42.393 46.8981 42.3337C46.8664 42.31 46.8269 42.2981 46.7873 42.2981C46.7319 42.2981 46.6766 42.3258 46.641 42.3732Z" fill="#FF505D"/>
<path d="M46.9613 41.9184C46.5698 42.4602 46.1664 42.9942 45.7076 43.4806C45.407 43.7891 45.0867 44.0739 44.7307 44.3191C44.6477 44.3745 44.6437 44.505 44.7031 44.5801C44.7347 44.6197 44.7782 44.6434 44.8257 44.6474C44.8771 44.6513 44.9245 44.6355 44.9641 44.6078C45.9054 43.9671 46.6054 43.0495 47.2619 42.1399C47.3213 42.0568 47.3054 41.9382 47.2224 41.8789C47.1907 41.8551 47.1512 41.8433 47.1116 41.8433C47.0523 41.8433 46.9969 41.867 46.9613 41.9184Z" fill="#FF505D"/>
<path d="M46.993 41.8393C46.6371 42.3455 46.2851 42.8597 45.8579 43.3106C45.6404 43.536 45.4071 43.7377 45.146 43.9117C45.063 43.9671 45.059 44.0976 45.1183 44.1727C45.146 44.2083 45.1935 44.2321 45.2409 44.24C45.2924 44.2479 45.3359 44.2281 45.3794 44.2004C46.1901 43.6665 46.7438 42.8399 47.2936 42.0608C47.3529 41.9777 47.3371 41.863 47.254 41.7998C47.2224 41.776 47.1829 41.7642 47.1433 41.7642C47.084 41.7642 47.0286 41.7918 46.993 41.8393Z" fill="#FF505D"/>
<path d="M45.6443 43.457C45.5889 43.4649 45.5573 43.4926 45.5217 43.5322C45.3991 43.6627 45.2804 43.7932 45.1578 43.9237C44.8573 44.2322 44.5448 44.5209 44.177 44.7464C44.1889 44.7384 44.2047 44.7305 44.2205 44.7187C44.1849 44.7384 44.1493 44.7582 44.1137 44.778C44.0702 44.8017 44.0346 44.8294 44.0149 44.8808C43.9951 44.9243 43.999 44.9797 44.0149 45.0232C44.0544 45.1102 44.1691 45.1695 44.2601 45.1221C44.3985 45.0469 44.533 44.9599 44.6635 44.869C44.8138 44.7622 44.9561 44.6356 45.0946 44.5091C45.3477 44.2718 45.585 44.0147 45.8223 43.7576C45.8539 43.726 45.8618 43.6666 45.8539 43.6231C45.85 43.5757 45.8223 43.5282 45.7827 43.4966C45.7511 43.4729 45.7115 43.461 45.672 43.461C45.6641 43.457 45.6522 43.457 45.6443 43.457Z" fill="#FF505D"/>
<path d="M45.7234 43.4608C45.672 43.4687 45.6364 43.4964 45.6008 43.5359C45.4901 43.6625 45.3754 43.7851 45.2607 43.9077C45.2646 43.9037 45.2646 43.9037 45.2686 43.8998C45.2607 43.9077 45.2567 43.9156 45.2488 43.9196L45.237 43.9314L45.2409 43.9275C44.9403 44.236 44.6239 44.5247 44.2601 44.758C44.1612 44.8173 44.0584 44.8727 43.9516 44.9202C43.8606 44.9637 43.8131 45.0705 43.8567 45.1654C43.8962 45.2564 44.007 45.3038 44.1019 45.2603C44.8256 44.9281 45.3833 44.3388 45.9053 43.7495C45.9726 43.6744 45.9409 43.5478 45.8658 43.4885C45.8342 43.4647 45.7946 43.4529 45.7551 43.4529C45.7392 43.4568 45.7313 43.4608 45.7234 43.4608ZM44.2482 44.7659L44.2205 44.7818C44.2284 44.7778 44.2403 44.7699 44.2482 44.7659ZM45.233 43.9314C45.237 43.9275 45.2409 43.9235 45.2409 43.9196C45.2449 43.9156 45.2488 43.9117 45.2528 43.9037C45.2488 43.9156 45.2409 43.9235 45.233 43.9314Z" fill="#FF505D"/>
<path d="M45.763 43.437C45.7116 43.4449 45.676 43.4726 45.6404 43.5122C45.5138 43.6545 45.3833 43.7969 45.2528 43.9353L45.2607 43.9274C45.2567 43.9314 45.2488 43.9393 45.2449 43.9433C45.2409 43.9512 45.233 43.9551 45.229 43.963C45.233 43.9591 45.233 43.9591 45.237 43.9551C44.9364 44.2636 44.6121 44.5523 44.2443 44.7817C44.2482 44.7817 44.2482 44.7778 44.2522 44.7778C44.1652 44.8292 44.0782 44.8766 43.9872 44.9162C43.8962 44.9597 43.8488 45.0625 43.8883 45.1614C43.9279 45.2524 44.0426 45.2998 44.1335 45.2563C44.8573 44.9201 45.4149 44.3229 45.937 43.7336C46.0042 43.6585 45.9726 43.5319 45.8974 43.4726C45.8658 43.4489 45.8263 43.437 45.7867 43.437C45.7788 43.437 45.7709 43.437 45.763 43.437ZM45.237 43.9551C45.2409 43.9512 45.2449 43.9472 45.2488 43.9433C45.2528 43.9393 45.2528 43.9393 45.2567 43.9353C45.2488 43.9433 45.2409 43.9472 45.237 43.9551Z" fill="#FF505D"/>
<path d="M46.4473 42.5828C46.0874 43.002 45.7393 43.4331 45.3557 43.8365C45.0156 44.1885 44.6517 44.5128 44.2325 44.7699C44.1771 44.8015 44.1257 44.8332 44.0664 44.8608C44.0229 44.8846 43.9873 44.9162 43.9675 44.9637C43.9477 45.0111 43.9517 45.0625 43.9675 45.106C44.0031 45.1931 44.1217 45.2524 44.2127 45.201C44.454 45.0705 44.6794 44.9241 44.8969 44.7541C45.1342 44.5682 45.3517 44.3625 45.5614 44.145C45.9766 43.7178 46.3524 43.2551 46.7399 42.8003C46.8072 42.7251 46.7795 42.5986 46.7004 42.5393C46.6688 42.5155 46.6332 42.5037 46.5936 42.5037C46.5462 42.5076 46.4868 42.5353 46.4473 42.5828ZM45.3794 43.8128C45.3755 43.8167 45.3715 43.8207 45.3676 43.8246C45.3715 43.8207 45.3755 43.8167 45.3794 43.8128ZM44.276 44.7422C44.2641 44.7501 44.2483 44.758 44.2364 44.7659C44.2523 44.758 44.2641 44.7501 44.276 44.7422Z" fill="#FF505D"/>
<path d="M46.9177 41.9343C46.6211 42.3891 46.3245 42.8479 45.9487 43.2473C45.9606 43.2355 45.9725 43.2236 45.9804 43.2117C45.8103 43.3858 45.6284 43.544 45.4227 43.6745C45.4188 43.6784 45.4109 43.6784 45.4069 43.6824C45.3634 43.7101 45.3278 43.7338 45.308 43.7852C45.2922 43.8287 45.2922 43.8801 45.312 43.9276C45.3318 43.9711 45.3674 44.0067 45.4148 44.0265C45.4544 44.0423 45.5177 44.0502 45.5572 44.0265C45.6363 43.979 45.7114 43.9315 45.7866 43.8801C45.8776 43.8129 45.9646 43.7417 46.0516 43.6626C46.2098 43.5202 46.3482 43.362 46.4827 43.1999C46.7516 42.8716 46.981 42.5077 47.2144 42.1558C47.2697 42.0727 47.2579 41.958 47.1748 41.8947C47.1432 41.871 47.1036 41.8591 47.0641 41.8591C47.0087 41.8591 46.9494 41.8829 46.9177 41.9343ZM45.4583 43.6547C45.4544 43.6586 45.4465 43.6626 45.4386 43.6666C45.4465 43.6626 45.4504 43.6586 45.4583 43.6547Z" fill="#FF505D"/>
<path d="M47.0562 41.7878C46.7358 42.2466 46.4392 42.7212 46.0556 43.1325C45.9211 43.267 45.7827 43.3896 45.6284 43.4964C45.5454 43.5557 45.5414 43.6822 45.6008 43.7574C45.668 43.8404 45.7787 43.8444 45.8618 43.7851C46.5065 43.3342 46.9138 42.6381 47.3568 42.0093C47.4161 41.9262 47.4003 41.8115 47.3172 41.7482C47.2856 41.7245 47.246 41.7126 47.2065 41.7126C47.1472 41.7126 47.0918 41.7364 47.0562 41.7878Z" fill="#FF505D"/>
<path d="M47.0642 41.7126C46.6924 42.2703 46.2969 42.8161 45.8342 43.3026C45.7946 43.3461 45.7511 43.3856 45.7116 43.4291C45.676 43.4647 45.6523 43.5003 45.6443 43.5517C45.6364 43.5992 45.6523 43.6506 45.6839 43.6901C45.7155 43.7297 45.759 43.7534 45.8065 43.7574C45.85 43.7613 45.9093 43.7534 45.9449 43.7178C46.206 43.4568 46.4512 43.1839 46.6766 42.8952C46.9218 42.5867 47.1472 42.2584 47.3648 41.9302C47.4201 41.8471 47.4122 41.7324 47.3252 41.6691C47.2936 41.6454 47.254 41.6335 47.2145 41.6335C47.1552 41.6375 47.0958 41.6652 47.0642 41.7126Z" fill="#FF505D"/>
<path d="M23.1682 34.9578C23.1721 35.0527 23.2394 35.1318 23.3264 35.1516C23.3501 35.1595 23.3778 35.1634 23.4173 35.1634H23.619C23.7654 35.1634 23.9117 35.1674 24.058 35.1714C25.1694 35.203 26.3519 35.3454 27.6769 35.5945C28.8199 35.8121 30.0182 36.1087 31.2364 36.4805C32.1895 36.7731 33.0438 37.0737 33.8466 37.3941C34.8354 37.7856 35.6857 38.2048 36.453 38.6755C36.6824 38.8179 36.8801 38.9523 37.0818 39.0947C37.2796 39.2331 37.4852 39.3992 37.7186 39.6049C38.1259 39.9529 38.5017 40.3326 38.8458 40.6965L38.8299 40.649C38.9407 40.7954 39.0672 40.9338 39.1938 41.0683L39.2492 41.1276L39.2768 41.1553L39.348 41.2265C39.6486 41.5468 39.9611 41.879 40.2814 42.1954C40.5662 42.4762 40.8272 42.7056 41.0764 42.9034C41.3413 43.109 41.6261 43.2989 41.9386 43.4729C41.9465 43.4768 41.9544 43.4808 41.9623 43.4848C41.5312 43.2 41.1238 42.8757 40.7481 42.5197C39.791 41.614 39 40.5541 38.1655 39.5377C38.1694 39.5416 38.1774 39.5495 38.1813 39.5574C37.9875 39.3201 37.7898 39.0828 37.5841 38.8574C37.3903 38.6399 37.1847 38.4303 36.9711 38.2286C36.5598 37.8449 36.1208 37.489 35.662 37.1568C35.0766 36.7454 34.4597 36.3776 33.819 36.0533C33.1822 35.733 32.5217 35.4522 31.8494 35.207C31.8573 35.2109 31.8652 35.2109 31.8731 35.2149C29.7295 34.4397 27.4633 34.0205 25.1971 33.8346C25.205 33.8346 25.2129 33.8346 25.2208 33.8346C24.5049 33.7752 23.7891 33.7396 23.0732 33.7278C23.1167 34.151 23.1484 34.5583 23.1682 34.9578Z" fill="#E44753"/>
<path d="M35.6551 37.1538C35.6507 37.1495 35.6464 37.1452 35.6421 37.1409C35.6464 37.1495 35.6507 37.1538 35.6551 37.1538Z" fill="#E44753"/>
<path d="M49.2197 28.4319L49.1841 28.4398C49.1406 28.4477 49.1168 28.4635 49.101 28.4873C49.0852 28.511 49.0813 28.5387 49.0892 28.5664C49.0931 28.5901 49.1089 28.6178 49.1327 28.6296L49.4293 28.772C49.722 28.9104 50.0146 29.0528 50.3073 29.1912C50.6197 29.3376 50.9361 29.4839 51.2525 29.6263L51.4187 29.7014V29.6975L51.4266 29.7054L51.4345 29.7094L51.4424 29.7133C52.0989 30.0139 52.7554 30.3342 53.412 30.6506C53.8984 30.884 54.3809 31.1213 54.8714 31.3507C55.1324 31.4733 55.3974 31.5959 55.6624 31.7106C55.7533 31.7501 55.8482 31.7897 55.9392 31.8292C56.1923 31.9321 56.4573 32.027 56.7223 32.11C57.0387 32.2089 57.3037 32.2643 57.5489 32.288C57.5924 32.292 57.6359 32.2959 57.6834 32.2959C57.7466 32.2959 57.8139 32.292 57.8772 32.2841C57.98 32.2722 58.0749 32.2366 58.1461 32.1812C58.2094 32.1338 58.2568 32.0665 58.2845 31.9795C58.3003 31.936 58.3003 31.8846 58.3043 31.845C58.3043 31.7739 58.2924 31.7066 58.2766 31.6552C58.2608 31.5919 58.2371 31.5286 58.2133 31.4654C58.1817 31.3902 58.1461 31.3151 58.1065 31.2439C58.0433 31.1331 57.9563 31.0264 57.8416 30.9156C57.6399 30.7218 57.3946 30.5834 57.2009 30.4806C56.9596 30.354 56.6867 30.2393 56.3268 30.1128C55.694 29.8873 55.0375 29.7331 54.3691 29.5788L54.0645 29.5076C53.9063 29.472 53.7481 29.4365 53.5939 29.3969C53.4753 29.3692 53.3606 29.3376 53.2419 29.3059C52.969 29.2308 52.6922 29.1675 52.4193 29.1042C51.9447 28.9975 51.4661 28.9025 50.9876 28.8076C50.418 28.6929 49.8327 28.5782 49.2592 28.4398L49.2197 28.4319Z" fill="#04BFBF"/>
<path d="M59.2852 27.1504C59.0637 27.1504 58.8383 27.1583 58.6168 27.1662C58.1382 27.1899 57.6201 27.2374 56.9834 27.3165C56.5009 27.3758 55.9907 27.451 55.3856 27.5538C54.9387 27.6289 54.4957 27.712 54.0488 27.799L53.325 27.9453L53.1787 27.977C53.1194 27.9888 53.0838 28.0363 53.0917 28.0917C53.0996 28.1431 53.1431 28.1826 53.1905 28.1826C53.2103 28.2182 53.242 28.2459 53.2815 28.2499C53.4397 28.2617 53.594 28.2776 53.7522 28.2973L54.1041 28.3369L54.4561 28.3764C55.081 28.4437 55.7059 28.5109 56.3308 28.5663C57.1416 28.6375 57.806 28.6849 58.427 28.7126C58.7513 28.7284 59.0716 28.7363 59.3959 28.7363C59.7084 28.7363 59.9892 28.7284 60.2581 28.7087C60.5271 28.6889 60.7446 28.6572 60.9384 28.6137C61.0728 28.5821 61.2429 28.5346 61.3972 28.4397C61.5118 28.3646 61.5791 28.2617 61.5949 28.151C61.6028 28.0798 61.587 28.0007 61.5712 27.9453C61.5474 27.8702 61.5118 27.799 61.4604 27.7278C61.4209 27.6724 61.3655 27.621 61.2904 27.5617C61.2231 27.5103 61.144 27.4628 61.0412 27.4193C60.9502 27.3758 60.8553 27.3481 60.7564 27.3165C60.6378 27.2849 60.5191 27.2572 60.3965 27.2374C60.1592 27.1979 59.8943 27.1741 59.566 27.1662C59.4711 27.1543 59.3762 27.1504 59.2852 27.1504Z" fill="#04BFBF"/>
<path d="M58.755 22.9739C58.6641 22.9739 58.5731 22.9778 58.4821 22.9857C58.2606 23.0055 58.0313 23.0451 57.7267 23.1163C57.0702 23.2745 56.4453 23.5157 55.9747 23.7095C55.4012 23.9429 54.8 24.2236 54.0802 24.5875C53.0677 25.0977 52.0394 25.6712 50.9439 26.3396C50.7224 26.474 50.5049 26.6085 50.2874 26.7509L50.2281 26.7667C50.1925 26.7746 50.1687 26.7825 50.149 26.8102C50.1331 26.83 50.1252 26.8577 50.1292 26.8854C50.1331 26.913 50.149 26.9368 50.1687 26.9526C50.1846 26.9645 50.2083 26.9763 50.232 26.9763C50.8529 26.8181 51.4976 26.656 52.1423 26.5175C52.4349 26.4543 52.7276 26.391 53.0242 26.3396L53.3841 26.2763C53.7401 26.213 54.1 26.1537 54.4599 26.0865C55.1678 25.9559 55.8046 25.8215 56.3978 25.6791C57.1493 25.4972 57.7505 25.3231 58.2844 25.1293C58.585 25.0186 58.8302 24.9158 59.0516 24.7971C59.285 24.6785 59.463 24.5638 59.6093 24.4333C59.7556 24.3067 59.8585 24.1722 59.9138 24.0299C59.9376 23.9626 59.9534 23.8914 59.9534 23.8084C59.9534 23.7372 59.9376 23.6581 59.902 23.575C59.8743 23.5078 59.8347 23.4366 59.7794 23.3694C59.7319 23.3101 59.6726 23.2507 59.5974 23.1954C59.4709 23.1083 59.3127 23.0451 59.111 23.0055C59.0002 22.9818 58.8816 22.9739 58.755 22.9739Z" fill="#04BFBF"/>
</svg>
