<svg width="60" height="61" viewBox="0 0 60 61" fill="none" xmlns="http://www.w3.org/2000/svg">
<path d="M59.126 34.7184C61.818 18.5272 50.874 3.21965 34.683 0.527951C18.492 -2.16375 3.18499 8.77975 0.492986 24.971C-2.19901 41.1622 8.74498 56.4697 24.936 59.1614C41.127 61.8531 56.435 50.9095 59.126 34.7184Z" fill="#FEFEFE"/>
<path d="M29.1781 4.94263C28.2131 4.94263 27.2091 5.02573 26.1931 5.19183C24.4011 5.48443 22.6341 6.10133 21.0831 6.98713C20.3121 7.42603 19.5691 7.95593 18.8771 8.56893C18.2321 9.13833 17.6231 9.80273 17.0661 10.5501C16.5671 11.2144 16.1131 11.9539 15.7091 12.7409C15.5231 13.1047 15.3421 13.4962 15.1561 13.9351C15.0451 14.2001 14.9461 14.469 14.8431 14.7339C14.7761 14.9079 14.7131 15.0859 14.6421 15.2599C14.3451 15.9914 14.0011 16.6162 13.5901 17.1699C13.1471 17.7433 12.6011 18.2771 11.8661 18.8466C11.5101 19.1194 11.1421 19.3844 10.7781 19.6454C10.5681 19.7956 10.3591 19.9459 10.1531 20.1001C9.44511 20.6182 8.76509 21.1402 8.22309 21.7887C7.93109 22.1406 7.70909 22.4847 7.55109 22.8445C7.36909 23.2598 7.27409 23.6868 7.27409 24.1179C7.27409 24.4856 7.3771 24.8653 7.5951 25.3121C7.6701 25.4664 7.7531 25.6127 7.8361 25.759C7.9391 25.9449 8.04909 26.1386 8.13609 26.3363L8.1171 26.2849L8.14011 26.3363H8.13609C8.20409 26.5143 8.25109 26.6764 8.27909 26.8346C8.29509 26.9928 8.29509 27.147 8.27909 27.3052C8.24709 27.5227 8.18811 27.7441 8.10111 27.9775C7.90311 28.452 7.6221 28.8909 7.3531 29.318C7.1081 29.7016 6.85511 30.101 6.66111 30.5241C6.26211 31.402 6.16309 32.4618 6.36109 33.7628C6.51509 34.7792 6.87109 35.839 7.45209 37.0016C7.87909 37.8636 8.4451 38.7059 9.1291 39.5087C10.3151 40.8967 11.8541 42.1108 13.8311 43.218C15.4091 44.0999 17.1721 44.8552 19.3871 45.5986C19.6041 45.6698 19.8301 45.7449 20.0511 45.8121C20.0751 45.828 20.1071 45.8477 20.1461 45.8596C20.5501 46.0059 20.9851 46.1127 21.5181 46.1997C21.9811 46.2748 22.4871 46.3262 23.0731 46.3579C23.5351 46.3816 24.0411 46.3934 24.6581 46.3934C25.0221 46.3934 25.3821 46.3895 25.7461 46.3855L26.2081 46.3816H26.4221C26.7231 46.3816 27.0231 46.3855 27.3201 46.3895C27.5931 46.3935 27.8651 46.3974 28.1341 46.3974H28.2451C28.7201 46.3974 29.1901 46.3895 29.6611 46.3737C32.2351 46.2946 34.7661 46.0336 37.1861 45.5986C38.6101 45.3416 39.9031 45.0371 41.1331 44.6653C42.4891 44.258 43.6871 43.7914 44.7911 43.2457C47.2421 42.0277 48.9071 40.4815 49.7341 38.6545C49.9631 38.1405 50.1331 37.6066 50.2321 37.0648C50.3351 36.4954 50.3741 35.8983 50.3391 35.2893C50.3031 34.6645 50.1921 34.0001 50.0101 33.3239C49.9631 33.146 49.9121 32.972 49.8521 32.798C49.7771 32.5923 49.6861 32.3867 49.5681 32.1613C49.3741 31.7817 49.1331 31.4297 48.8871 31.0699L48.7771 30.9117C48.4761 30.4767 48.1641 30.0298 47.9421 29.5434C47.8471 29.3141 47.7801 29.0768 47.7411 28.8395C47.7211 28.6537 47.7211 28.4639 47.7451 28.274C47.7721 28.104 47.8161 27.934 47.8791 27.7481C47.9111 27.6611 47.9421 27.5781 47.9781 27.495L48.0211 27.3922C48.0731 27.2656 48.1201 27.1391 48.1681 27.0126C48.3421 26.538 48.4801 26.0714 48.5711 25.6245C48.6661 25.1737 48.7131 24.7269 48.7211 24.2958C48.7251 23.8648 48.6741 23.414 48.5671 22.9474C48.3691 22.0892 47.9461 21.2193 47.2781 20.29C46.9301 19.8075 46.5341 19.3448 46.1551 18.9019C45.8741 18.5737 45.5811 18.2336 45.3091 17.8856C45.0951 17.6049 44.9091 17.3399 44.7391 17.0671C44.5411 16.7546 44.3671 16.4106 44.2011 16.0191C43.9401 15.3824 43.7391 14.7062 43.5451 14.0577C43.4141 13.6148 43.2761 13.1561 43.1221 12.7132C42.7971 11.7918 42.3591 10.9297 41.8131 10.1586C41.2311 9.33613 40.5631 8.65983 39.8281 8.14583C39.4641 7.89273 39.0571 7.68313 38.6141 7.52093C38.1981 7.36673 37.7521 7.28373 37.2851 7.27183C37.2531 7.27183 37.2221 7.27183 37.1901 7.27183C36.9371 7.27183 36.6641 7.29953 36.3831 7.35883C35.3121 6.22783 33.7421 5.48443 31.7051 5.14433C30.8871 5.00993 30.0441 4.94263 29.1781 4.94263Z" fill="#3A0241"/>
<path d="M32.2671 9.39111C32.2751 9.39111 32.2821 9.39111 32.2941 9.39111C31.5031 9.46231 30.7161 9.58091 29.9411 9.75491C29.1661 9.92501 28.4031 10.1464 27.6561 10.4114H27.6601C26.9081 10.6803 26.1731 10.9927 25.4611 11.3565C24.7811 11.7045 24.1241 12.092 23.4921 12.5191C23.5001 12.5151 23.5071 12.5112 23.5111 12.5033C22.9541 12.8869 22.4161 13.3021 21.9141 13.7529C21.3881 14.2274 20.8901 14.7336 20.4271 15.2675L20.4311 15.2635C20.0001 15.7618 19.6001 16.2838 19.2411 16.8374C18.9001 17.3594 18.5921 17.9051 18.3231 18.4706C17.8601 19.4473 17.5091 20.4715 17.2281 21.5116C16.9271 22.6346 16.7021 23.7814 16.4921 24.9243C16.4921 24.9322 16.4921 24.9362 16.4881 24.9441C16.4881 24.9362 16.4921 24.9322 16.4921 24.9243C16.4921 24.9322 16.4881 24.9401 16.4881 24.948V24.9441C16.4531 25.1576 16.4131 25.3672 16.3741 25.5807C16.3461 25.7547 16.3101 25.9287 16.2711 26.1027C16.1801 26.4823 16.0691 26.862 15.9271 27.2258C15.6581 27.9257 15.3141 28.5901 14.9301 29.2307C14.5431 29.8792 14.1201 30.508 13.7121 31.1447C13.3051 31.7813 12.9131 32.4299 12.5811 33.114C12.5851 33.1061 12.5891 33.0982 12.5931 33.0903C12.4191 33.458 12.2611 33.8337 12.1301 34.2173C12.0081 34.589 11.9091 34.9687 11.8341 35.3522C11.7821 35.6567 11.7391 35.9691 11.7311 36.2776C11.7191 36.5781 11.7271 36.8787 11.7511 37.1792V37.1673C11.7821 37.5035 11.8381 37.8396 11.9171 38.1678C11.9961 38.4921 12.0911 38.8124 12.2061 39.1248C12.2061 39.1248 12.2061 39.1248 12.2061 39.1288C12.3601 39.544 12.5341 39.9473 12.7321 40.3428C13.2931 41.4659 13.9891 42.5178 14.6531 43.5855C14.6811 43.629 14.7091 43.6764 14.7361 43.7199C16.0771 44.3961 17.5761 45.0091 19.3671 45.6102C19.5851 45.6813 19.8101 45.7565 20.0281 45.8237C20.0511 45.8395 20.0791 45.8553 20.1261 45.8751C20.5301 46.0175 20.9651 46.1282 21.5031 46.2152C21.9451 46.2864 22.4561 46.3378 23.0571 46.3734C23.5431 46.3971 24.0491 46.409 24.6421 46.409C24.9111 46.409 25.1801 46.405 25.4531 46.401H25.7301L26.1931 46.3971H26.4061C26.6311 46.3971 26.8571 46.3971 27.0821 46.401L27.3081 46.405C27.5811 46.409 27.8531 46.4129 28.1221 46.4129H28.2331C28.7081 46.4129 29.1781 46.405 29.6531 46.3892C32.2391 46.3061 34.7701 46.0451 37.1781 45.6102C38.6101 45.3492 39.8991 45.0447 41.1291 44.6769C42.4851 44.2696 43.6831 43.803 44.7871 43.2572C45.4671 42.9211 46.0841 42.5612 46.6371 42.1737C46.7641 41.6834 46.8741 41.189 46.9651 40.6868V40.6908C47.0921 39.975 47.1831 39.2514 47.2261 38.5237C47.2461 38.1481 47.2541 37.7684 47.2501 37.3888C47.2421 37.0408 47.2261 36.6889 47.1991 36.3409C47.1991 36.3488 47.1991 36.3567 47.2031 36.3646C47.1511 35.7754 47.0681 35.1862 46.9421 34.6048C46.8781 34.3162 46.8071 34.0235 46.7241 33.7349C46.6411 33.4462 46.5461 33.1575 46.4471 32.8728C46.4511 32.8807 46.4511 32.8886 46.4551 32.8965C46.2461 32.3192 45.9971 31.7497 45.7081 31.2079C45.5581 30.9272 45.4031 30.6504 45.2371 30.3815C45.0751 30.1205 44.9171 29.8555 44.7671 29.5906C44.4901 29.1002 44.2251 28.598 43.9961 28.08C43.7941 27.6291 43.6121 27.1744 43.4501 26.7078C43.2801 26.1976 43.1301 25.6835 43.0071 25.1616C42.8801 24.6237 42.7781 24.082 42.6911 23.5363C42.5921 22.9115 42.5091 22.2866 42.4491 21.6579C42.3901 21.0647 42.3431 20.4715 42.2911 19.8784C42.2911 19.8863 42.2911 19.8942 42.2951 19.9021C42.2601 19.5067 42.2241 19.1072 42.1771 18.7118C42.1011 18.4904 42.0261 18.2689 41.9431 18.0474L41.9511 18.0712C41.6591 17.2803 41.3381 16.5013 40.9981 15.7301C40.9741 15.6787 40.9901 15.6234 41.0421 15.5957C41.0531 15.5878 41.0691 15.5838 41.0851 15.5838C41.1211 15.5838 41.1561 15.6036 41.1721 15.6392C41.1801 15.651 41.1841 15.6669 41.1881 15.6787C41.2241 15.6827 41.2551 15.7024 41.2711 15.7301C41.3741 15.9239 41.4731 16.1216 41.5641 16.3193C41.5281 16.1849 41.4881 16.0504 41.4531 15.916C41.4411 15.8725 41.4651 15.825 41.5081 15.8053C41.5201 15.7815 41.5441 15.7657 41.5721 15.7578C41.5751 15.7578 41.5791 15.7578 41.5831 15.7578C41.5561 15.6669 41.5241 15.5799 41.4921 15.4889C41.4921 15.4929 41.4921 15.4929 41.4961 15.4968C41.3381 15.0579 41.1561 14.6308 40.9431 14.2156C40.7371 13.8122 40.5121 13.4247 40.2551 13.0569C40.0331 12.7366 39.7961 12.4321 39.5351 12.1434C39.2941 11.8745 39.0331 11.6214 38.7601 11.3842C38.5111 11.1746 38.2541 10.9768 37.9811 10.7989C37.7081 10.6209 37.4231 10.4588 37.1271 10.3164C36.8541 10.1899 36.5771 10.0752 36.2881 9.98431C35.9961 9.89331 35.6991 9.81421 35.3991 9.75891C35.0941 9.70751 34.7861 9.67191 34.4731 9.66001C34.1451 9.64811 33.8211 9.65611 33.4961 9.68371C33.5041 9.68371 33.5121 9.68371 33.5241 9.68371C33.1601 9.71541 32.8001 9.77471 32.4451 9.85771C32.0931 9.94081 31.7451 10.0436 31.4051 10.1662H31.4091C31.2501 10.2255 31.0921 10.2848 30.9381 10.352C30.9141 10.3599 30.8871 10.3639 30.8631 10.3599C30.8391 10.352 30.8151 10.3323 30.8031 10.3085C30.7801 10.265 30.7961 10.1939 30.8471 10.1741C31.2861 9.98821 31.7371 9.83001 32.1951 9.71141C32.4211 9.65211 32.6461 9.60461 32.8761 9.56511C33.0771 9.53351 33.2751 9.50581 33.4771 9.48601C33.7101 9.46621 33.9471 9.45041 34.1851 9.45041C34.2601 9.45041 34.3391 9.45041 34.4181 9.45441C34.2871 9.41091 34.1531 9.36341 34.0221 9.31601C33.9161 9.31201 33.8091 9.31201 33.7021 9.31201C33.2321 9.33181 32.7491 9.35161 32.2671 9.39111Z" fill="#2D0133"/>
<path d="M26.6281 31.5798C25.9751 31.5798 25.4181 31.7301 24.9671 32.0267C24.9351 31.999 24.8921 31.9792 24.8441 31.9792C24.7891 31.9792 24.7371 31.999 24.7021 32.0385C24.6701 32.0702 24.6391 32.1295 24.6421 32.1809C24.7571 33.1893 24.7611 34.1028 24.6501 34.9728C24.5521 35.6767 24.3741 36.345 24.1241 36.9619C23.8871 37.5036 23.6021 37.9979 23.2621 38.4408C22.9031 38.8956 22.4991 39.299 22.0361 39.6628C22.0291 39.6707 22.0171 39.6786 22.0091 39.6865L22.0131 39.6905H21.9971L22.0011 39.6865C21.4201 40.1255 20.7751 40.4932 20.0631 40.8017L20.0281 40.8214V40.8175C19.7781 40.9203 19.5251 41.0152 19.2721 41.1022C19.2091 41.1101 19.1541 41.1378 19.1181 41.1773C19.0861 41.2129 19.0711 41.2604 19.0751 41.3039C19.1141 41.8733 19.2251 42.4111 19.4111 42.9055C19.5931 43.3879 19.8501 43.8427 20.1741 44.2618C20.7751 45.0369 21.6091 45.6736 22.6491 46.156C23.6341 46.6148 24.7451 46.9153 26.0461 47.0735C26.6321 47.1447 27.2411 47.1842 27.8541 47.1842C28.4941 47.1842 29.1511 47.1446 29.8151 47.0656C31.1201 46.9113 32.3621 46.6147 33.5041 46.1877C34.6911 45.7487 35.7351 45.1753 36.6091 44.4872C37.1741 44.0404 37.6651 43.5342 38.0681 42.9727C38.4671 42.4151 38.7681 41.7745 38.9341 41.122C38.9501 41.0627 38.9381 40.9994 38.9021 40.9519C38.9141 40.944 38.9301 40.9282 38.9381 40.9124C38.9661 40.8649 38.9741 40.8096 38.9581 40.7582C38.9421 40.7068 38.9101 40.6633 38.8671 40.6356C38.0641 40.1927 37.1941 39.8724 36.4431 39.6114C36.2371 39.5362 36.0271 39.4651 35.8181 39.3939C35.2011 39.1803 34.5641 38.9628 33.9511 38.7058C33.2551 38.4092 32.7251 38.1166 32.2831 37.7805C32.0221 37.5748 31.8081 37.3652 31.6221 37.1359C31.4681 36.9342 31.3331 36.7048 31.2311 36.4636C31.1321 36.2224 31.0651 35.9693 31.0251 35.7083C30.9781 35.3287 30.9821 34.9293 31.0411 34.4864C31.1001 34.0988 31.1911 33.7034 31.3301 33.2723C31.3451 33.2249 31.3371 33.1695 31.3141 33.1221C31.2861 33.0707 31.2431 33.0351 31.1911 33.0232C31.1751 33.0193 31.1561 33.0153 31.1401 33.0153L31.1001 33.0193C31.0921 33.0074 31.0761 32.9995 31.0611 32.9916C30.1631 32.5329 29.0911 32.0267 27.9641 31.7499C27.4861 31.6391 27.0391 31.5798 26.6281 31.5798Z" fill="#FFB39C"/>
<path d="M24.9631 32.0187C24.9391 31.991 24.896 31.9712 24.844 31.9712C24.789 31.9712 24.7291 31.995 24.6941 32.0305C24.6581 32.0661 24.6271 32.1294 24.6351 32.1808C24.7371 33.0864 24.7491 33.9168 24.6701 34.7038C24.8521 34.8066 25.0341 34.9015 25.2201 34.9885C25.2121 34.9845 25.2041 34.9806 25.1961 34.9766C26.0261 35.3681 26.908 35.6449 27.81 35.815C28.617 35.9573 29.435 36.0127 30.254 35.9455C30.246 35.9455 30.2381 35.9455 30.2301 35.9455C30.5071 35.9217 30.7841 35.8822 31.0571 35.8268C31.0491 35.7873 31.045 35.7477 31.037 35.7082C30.985 35.3246 30.9931 34.9292 31.0531 34.4863C31.1081 34.1146 31.2031 33.7151 31.3371 33.2762C31.3531 33.2248 31.349 33.1694 31.322 33.122C31.294 33.0706 31.2461 33.031 31.1951 33.0192C31.1751 33.0152 31.1591 33.0113 31.1401 33.0113L31.1001 33.0152C31.1001 33.0073 31.084 32.9954 31.068 32.9875C30.171 32.5288 29.099 32.0226 27.972 31.7458C27.498 31.6272 27.0471 31.5679 26.6351 31.5679C25.9751 31.5679 25.4141 31.7221 24.9631 32.0187Z" fill="#EDA791"/>
<path d="M38.5659 40.4657C38.4709 40.6476 38.3769 40.8295 38.2739 41.0074L38.2779 41.0035C37.9609 41.5294 37.5779 42.0277 37.1349 42.4785L37.1029 42.518L37.0989 42.5141C36.6129 42.9886 36.0549 43.4157 35.4419 43.7835C34.6749 44.2303 33.8169 44.5941 32.8839 44.8551C31.7449 45.1675 30.5309 45.3297 29.2729 45.3376C27.9719 45.3376 26.6829 45.1675 25.4409 44.8393C24.3379 44.5388 23.3139 44.1196 22.3969 43.5936C21.6769 43.1705 21.0279 42.6802 20.4709 42.1344C19.9999 41.6599 19.5969 41.1458 19.2689 40.6001C19.2409 40.5566 19.1819 40.5289 19.1339 40.525L19.0709 40.521C19.0429 40.521 19.0189 40.525 18.9959 40.5329C18.9479 40.5527 18.9169 40.5843 18.8889 40.6397C17.9079 42.435 17.0459 44.5071 16.2469 46.9826C15.5159 49.2446 14.9379 51.5303 14.4079 53.6776L14.1749 54.6306L13.9419 55.5797C13.9299 55.6232 13.9379 55.6746 13.9659 55.7181C13.9969 55.7695 14.0529 55.8011 14.1079 55.813C15.3419 56.9914 17.0069 57.9405 19.1969 58.7116C20.0629 59.0161 21.0199 59.2969 22.1199 59.5658C22.5939 59.6805 23.0769 59.7872 23.5549 59.8861C24.1759 60.0166 24.6899 60.1155 25.1729 60.1985C26.9799 60.5069 28.8659 60.6612 30.7839 60.6612C31.4599 60.6612 32.1519 60.6414 32.8359 60.6019C34.0739 60.5307 35.3589 60.3923 36.6679 60.1866C37.2769 60.0917 37.9059 59.977 38.5819 59.8386C39.2389 59.7042 39.7649 59.5776 40.2429 59.4392C41.2749 59.1347 42.2949 58.7037 43.2719 58.1501C44.1539 57.6518 45.0679 57.0072 46.0599 56.1807C46.0959 56.1491 46.1309 56.1096 46.1429 56.0502C46.1509 55.9988 46.1429 55.9553 46.1189 55.9118C45.9489 53.9662 45.6799 52.2302 45.3049 50.601C44.8419 48.604 44.2369 46.8877 43.4579 45.3613C42.9119 44.2975 42.2839 43.3366 41.5799 42.5062C41.0539 41.8853 40.4719 41.3277 39.8439 40.8413C39.6659 40.7622 39.4839 40.6792 39.3059 40.5962C39.1789 40.5527 39.0529 40.5092 38.9219 40.4696C38.8229 40.438 38.7249 40.4063 38.6219 40.3787L38.5659 40.4657Z" fill="#FF505D"/>
<path d="M42.125 20.9463C41.864 20.9463 41.599 20.9977 41.334 21.0926C41.247 21.1242 41.192 21.1677 41.156 21.231C41.117 21.2982 41.105 21.3852 41.125 21.4643C41.149 21.5395 41.204 21.6106 41.279 21.6502C41.121 22.3383 41.014 23.0619 40.951 23.8568C40.892 24.5765 40.872 25.3397 40.888 26.3283C40.868 26.3165 40.84 26.3125 40.812 26.3125C40.682 26.3125 40.559 26.4074 40.524 26.534C40.48 26.6921 40.571 26.8503 40.733 26.9057C40.892 26.9571 41.054 26.9848 41.188 27.0045C41.358 27.0283 41.508 27.0401 41.651 27.0401C41.943 27.0401 42.216 26.9927 42.461 26.9057C42.699 26.8226 42.924 26.6961 43.146 26.5221C43.316 26.3916 43.47 26.2216 43.636 25.9882C43.762 25.8103 43.869 25.5968 43.976 25.3239C44.059 25.1143 44.122 24.8889 44.166 24.6279C44.253 24.1178 44.253 23.5958 44.158 23.0698C44.099 22.7377 43.992 22.4173 43.838 22.1089C43.691 21.8123 43.49 21.5553 43.26 21.3655C42.999 21.1519 42.719 21.0175 42.418 20.97C42.327 20.9502 42.228 20.9463 42.125 20.9463Z" fill="#F3AB95"/>
<path d="M42.9399 22.073C42.7109 22.1561 42.4929 22.2589 42.2909 22.3894C42.0899 22.5159 41.9119 22.686 41.7499 22.8639C41.5879 23.0458 41.4489 23.2475 41.3309 23.4611C41.2039 23.6904 41.1089 23.9396 41.0459 24.1966C41.0219 24.2915 41.0729 24.3864 41.1679 24.4101C41.2589 24.4339 41.3539 24.3785 41.3819 24.2876C41.4249 24.1333 41.477 23.9831 41.536 23.8328C41.588 23.7142 41.6429 23.5955 41.7059 23.4808C41.7769 23.3543 41.8559 23.2357 41.9429 23.121C42.0109 23.034 42.086 22.9509 42.161 22.8719C42.248 22.7849 42.3429 22.7058 42.4379 22.6267C42.5129 22.5713 42.5879 22.5199 42.6669 22.4725C42.7459 22.425 42.833 22.3854 42.92 22.3459C42.948 22.334 42.9759 22.3261 43.0029 22.3143C43.0669 22.2905 43.1099 22.2312 43.0899 22.16C43.0739 22.1086 43.0229 22.0691 42.9719 22.0691C42.9599 22.0691 42.9479 22.0691 42.9399 22.073ZM42.4609 22.6069C42.4579 22.6109 42.454 22.6109 42.45 22.6148C42.454 22.6109 42.4579 22.6109 42.4609 22.6069ZM41.959 23.0973C41.955 23.1012 41.9549 23.1052 41.9509 23.1052C41.9549 23.1012 41.955 23.0973 41.959 23.0973Z" fill="#BF8675"/>
<path d="M35.5841 9.19727C35.5651 9.19727 35.5411 9.20117 35.5091 9.20907C35.4741 9.21697 35.4421 9.23287 35.4141 9.25657C34.9481 9.35937 34.5011 9.45427 34.0541 9.55317C32.4561 9.90117 30.8041 10.2571 29.2061 10.7158C26.8251 11.3999 24.9791 12.1948 23.3931 13.219C22.6731 13.6856 22.0251 14.1839 21.4711 14.7019C20.8941 15.2437 20.3401 15.8843 19.8341 16.5961C19.3361 17.3 18.9201 18.0434 18.6001 18.8106C18.2641 19.6173 18.0741 20.4122 18.0421 21.1754C17.8841 21.1675 17.7181 21.1596 17.5521 21.1596C16.9831 21.1596 16.4691 21.2663 16.0261 21.4799C15.5431 21.7171 15.1441 22.1007 14.8951 22.5673C14.6531 23.0182 14.5271 23.5481 14.5311 24.0938C14.5351 24.6355 14.6461 25.1734 14.8671 25.6914C15.1791 26.419 15.7091 27.032 16.3301 27.3681C16.6821 27.5619 17.0581 27.6726 17.4491 27.7042C17.5161 27.7082 17.5881 27.7121 17.6551 27.7121C17.9281 27.7121 18.2161 27.6686 18.5211 27.5856C18.8061 28.242 19.1651 28.8747 19.5851 29.464C20.0911 30.1718 20.6921 30.8322 21.3721 31.4254C22.6771 32.5682 24.2351 33.454 26.0111 34.0591C26.8411 34.3398 27.7071 34.5455 28.5851 34.672C29.2451 34.763 29.9021 34.8104 30.5311 34.8104C30.7561 34.8104 30.9781 34.8065 31.2031 34.7946C32.0411 34.7471 32.9391 34.6048 33.8721 34.3715C34.7181 34.154 35.5331 33.8574 36.2841 33.4896C36.9731 33.1535 37.6251 32.7343 38.2301 32.2321C38.7681 31.7931 39.2741 31.2553 39.7371 30.6384C40.5591 29.5391 41.1681 28.1827 41.5401 26.6088C41.8881 25.1457 42.0261 23.5283 41.9631 21.6657C41.8961 19.7755 41.6311 17.996 41.1721 16.3707C40.7091 14.7494 40.0571 13.3376 39.2271 12.175C38.7721 11.5344 38.2541 10.9649 37.6961 10.4864C37.1031 9.98027 36.4471 9.55706 35.7431 9.23676C35.6951 9.21696 35.6441 9.19727 35.5841 9.19727Z" fill="#FFB39C"/>
<path d="M35.5129 9.2016C35.4739 9.2095 35.4419 9.2253 35.4139 9.2451L34.4809 9.4468L34.0539 9.5377C32.4679 9.8818 30.8229 10.2377 29.2059 10.7043C26.8249 11.3845 24.9789 12.1793 23.3889 13.2075C22.6729 13.6702 22.0249 14.1684 21.4669 14.6904C20.8859 15.2401 20.3319 15.8807 19.8299 16.5886C19.3359 17.2846 18.9159 18.032 18.5919 18.7991C18.3389 19.4042 18.1689 20.0013 18.0859 20.5866C18.0979 20.6063 18.1099 20.6261 18.1219 20.6459L18.118 20.638C18.296 20.9345 18.4969 21.2153 18.7419 21.4605C18.9049 21.6147 19.0789 21.7531 19.2679 21.8638C19.4299 21.9588 19.6039 22.026 19.7859 22.0774C19.9719 22.1248 20.1539 22.1486 20.3439 22.1486C20.5889 22.1486 20.8339 22.109 21.0719 22.0418C21.0639 22.0418 21.0559 22.0458 21.0479 22.0497C21.1659 22.0141 21.2809 21.9785 21.3919 21.9271C21.4829 21.8876 21.5739 21.8441 21.6649 21.7927C21.6569 21.7966 21.6529 21.7966 21.6489 21.8006C21.7829 21.7215 21.9139 21.6384 22.0329 21.5396C22.1429 21.4526 22.2459 21.3577 22.3449 21.2588L22.3409 21.2628C22.4829 21.1125 22.6179 20.9583 22.7399 20.7882C22.8629 20.6182 22.9739 20.4481 23.0799 20.2662C23.0799 20.2623 23.084 20.2583 23.088 20.2544C23.365 19.7522 23.5789 19.2143 23.7289 18.6568C23.7249 18.6647 23.7249 18.6726 23.7209 18.6805C23.7449 18.5856 23.7689 18.4907 23.7879 18.3958C23.7959 18.3681 23.8039 18.3483 23.8239 18.3325C23.8399 18.3206 23.8589 18.3127 23.8829 18.3127C23.9109 18.2771 23.958 18.2613 24.002 18.2771C24.33 18.3958 24.6539 18.5105 24.9869 18.6054C24.9789 18.6014 24.971 18.6014 24.963 18.5975C25.508 18.7398 26.0699 18.8031 26.6319 18.811C27.4219 18.811 28.2009 18.6924 28.9649 18.4907C28.9569 18.4946 28.9489 18.4946 28.9409 18.4986C29.9179 18.2336 30.8549 17.8342 31.7289 17.3281L31.7049 17.3439C32.5789 16.8298 33.3899 16.2129 34.0979 15.4932L34.0779 15.513C34.6079 14.9672 35.0819 14.3662 35.4619 13.7058C35.6039 13.4527 35.7349 13.1917 35.8449 12.9228C35.9519 12.6578 36.0469 12.385 36.1219 12.1082V12.1042V12.1082C36.1339 12.0686 36.1459 12.0291 36.1539 11.9856C36.1579 11.9579 36.1699 11.9381 36.1899 11.9223C36.2049 11.9104 36.2249 11.9025 36.2489 11.9025C36.2529 11.9025 36.261 11.9025 36.265 11.9025C36.28 11.9025 36.296 11.9104 36.308 11.9183C36.644 12.033 36.9609 12.1952 37.2609 12.385C37.5889 12.5946 37.898 12.8318 38.187 13.0889C38.764 13.5911 39.2899 14.1526 39.8039 14.726C40.2709 15.248 40.7329 15.774 41.1599 16.3315C40.7019 14.73 40.0529 13.334 39.2269 12.1793C38.7719 11.5387 38.258 10.9693 37.696 10.4868C37.103 9.9767 36.447 9.5575 35.739 9.2372C35.703 9.2174 35.6439 9.1937 35.5769 9.1937C35.5689 9.1858 35.5409 9.1937 35.5129 9.2016Z" fill="#F3AB95"/>
<path d="M14.5269 24.094C14.5309 24.6319 14.6419 25.1697 14.8629 25.6956C15.1749 26.4272 15.7089 27.0401 16.3299 27.3763C16.6779 27.5661 17.0539 27.6808 17.4529 27.7163C17.5199 27.7203 17.5919 27.7243 17.6589 27.7243C17.9279 27.7243 18.2199 27.6808 18.5249 27.5938C18.7939 28.2383 19.1539 28.8671 19.5809 29.4682C20.0909 30.18 20.6919 30.8404 21.3679 31.4336C22.6729 32.5804 24.2349 33.4662 26.0069 34.0672C26.8329 34.348 27.6989 34.5536 28.5849 34.6802C29.2489 34.7711 29.9059 34.8186 30.5309 34.8186C30.7559 34.8186 30.9769 34.8146 31.2029 34.8028C31.2309 34.8028 31.2619 34.7988 31.2899 34.7988C31.0609 34.7909 30.8349 34.779 30.6099 34.7593C29.8619 34.692 29.1189 34.5576 28.3909 34.3717C27.6279 34.174 26.8769 33.9288 26.1489 33.6283C25.3189 33.2882 24.5159 32.8849 23.7529 32.4143C22.9889 31.9476 22.2659 31.4177 21.6049 30.8087C20.9769 30.2314 20.3989 29.5947 19.9249 28.8829C19.6989 28.5428 19.4899 28.1869 19.3119 27.8192C19.1459 27.4751 19.0069 27.1232 18.8929 26.7594C18.5799 26.8661 18.2479 26.9215 17.9159 26.9057C17.5719 26.8899 17.2319 26.8187 16.9149 26.6882C16.5949 26.5537 16.2909 26.3718 16.0339 26.1425C15.7999 25.9408 15.5989 25.7114 15.4249 25.4583C15.2509 25.2053 15.0919 24.9363 14.9579 24.6556C14.8199 24.359 14.7009 24.0505 14.6259 23.7302C14.6059 23.6432 14.5859 23.5562 14.5699 23.4692C14.5429 23.6709 14.5229 23.8805 14.5269 24.094Z" fill="#F3AB95"/>
<path d="M17.4651 22.6902C17.1131 23.2201 17.0181 23.8726 17.0891 24.4974C17.1611 25.1064 17.4061 25.6995 17.8091 26.1622C17.8531 26.2097 17.9321 26.2057 17.9711 26.1622C18.0191 26.1147 18.0111 26.0475 17.9711 26.0001C17.9401 25.9645 17.9081 25.9249 17.8761 25.8854C17.7661 25.7312 17.6751 25.569 17.6001 25.395C17.6041 25.4029 17.6071 25.4148 17.6151 25.4227C17.5641 25.3041 17.5201 25.1815 17.4891 25.0589C17.4491 24.9205 17.4221 24.7781 17.4021 24.6358C17.3741 24.3866 17.3701 24.1336 17.4021 23.8844V23.8884C17.4301 23.6907 17.4851 23.5008 17.5601 23.311C17.6271 23.1608 17.7101 23.0184 17.8131 22.8879C17.8411 22.8483 17.8451 22.7811 17.8331 22.7376C17.8211 22.6862 17.7851 22.6467 17.7421 22.619C17.7101 22.5992 17.6791 22.5913 17.6431 22.5913C17.5681 22.5953 17.5051 22.6309 17.4651 22.6902ZM17.5441 23.3308C17.5401 23.3348 17.5401 23.3387 17.5361 23.3427C17.5401 23.3427 17.5401 23.3387 17.5441 23.3308Z" fill="#BF8675"/>
<path d="M16.219 22.6387C16.057 22.6703 15.895 22.7257 15.741 22.789C15.705 22.8048 15.678 22.8166 15.658 22.8522C15.638 22.8839 15.634 22.9234 15.642 22.959C15.662 23.0262 15.7451 23.0855 15.8161 23.0579C15.8951 23.0262 15.9741 22.9985 16.0531 22.9788C16.1241 22.959 16.2 22.9432 16.275 22.9353C16.413 22.9234 16.5441 22.9234 16.6781 22.9353C16.8051 22.955 16.923 22.9867 17.046 23.0341C17.149 23.0816 17.2481 23.1369 17.3421 23.1884C17.4141 23.2239 17.4971 23.216 17.5561 23.1607C17.6191 23.0974 17.6271 22.9748 17.5561 22.9115C17.4971 22.8601 17.437 22.8166 17.366 22.7771C17.299 22.7375 17.2241 22.7138 17.1531 22.6861C17.0061 22.6308 16.8441 22.615 16.6861 22.607C16.6621 22.607 16.635 22.6031 16.611 22.6031C16.48 22.5952 16.35 22.615 16.219 22.6387Z" fill="#BF8675"/>
<path d="M37.028 27.574H37.02C36.913 27.574 36.791 27.6096 36.68 27.6768C36.597 27.7282 36.522 27.8073 36.467 27.9061C36.403 28.0169 36.387 28.1434 36.376 28.2541C36.364 28.3728 36.376 28.4954 36.391 28.5982C36.411 28.7445 36.443 28.8908 36.49 29.049C36.554 29.2784 36.641 29.5156 36.775 29.8241L36.795 29.8715L36.815 29.919C36.731 29.8043 36.641 29.6936 36.55 29.5828C36.387 29.397 36.166 29.1558 35.909 28.966C35.747 28.8473 35.529 28.7089 35.276 28.7089C35.059 28.7089 34.861 28.8473 34.754 29.0688C34.655 29.2704 34.644 29.5117 34.715 29.8359C34.746 29.9862 34.802 30.1286 34.853 30.2472C34.92 30.4093 34.995 30.5715 35.086 30.7415C35.229 31.0104 35.395 31.2833 35.597 31.5759L35.537 31.5324C35.387 31.4494 35.233 31.3861 35.055 31.3307C34.988 31.311 34.889 31.2872 34.782 31.2872C34.667 31.2872 34.568 31.3149 34.497 31.3703C34.454 31.4019 34.422 31.4335 34.39 31.485C34.367 31.5205 34.355 31.5601 34.343 31.5957C34.311 31.6827 34.319 31.7855 34.323 31.8527C34.347 32.0821 34.43 32.2956 34.517 32.4933C34.616 32.7267 34.742 32.9718 34.908 33.2684C35.15 33.6955 35.434 34.1424 35.802 34.6723C36.154 35.1784 36.569 35.6846 37.072 36.2145C37.609 36.78 38.195 37.3178 38.76 37.8398L39.041 38.1008C39.021 38.1403 39.021 38.1957 39.033 38.2392C39.049 38.2827 39.084 38.3381 39.132 38.3539C39.227 38.3895 39.326 38.4211 39.421 38.4527L39.492 38.52C39.531 38.5556 39.579 38.5714 39.63 38.5714C39.674 38.5714 39.713 38.5595 39.745 38.5358C39.943 38.5793 40.136 38.607 40.326 38.6188C40.397 38.6228 40.464 38.6267 40.532 38.6267C40.86 38.6267 41.168 38.5793 41.449 38.4804C41.793 38.3618 42.102 38.1482 42.339 37.8675C42.497 37.6816 42.62 37.4523 42.707 37.1913C42.734 37.2783 42.774 37.3653 42.81 37.4523C42.845 37.5353 42.92 37.5867 42.999 37.5867C43.023 37.5867 43.043 37.5828 43.067 37.5748C43.118 37.559 43.165 37.5155 43.189 37.4602C43.209 37.4127 43.213 37.3613 43.193 37.3178C42.916 36.6693 42.722 36.088 42.604 35.5304C42.469 34.8542 42.422 34.1661 42.39 33.5215C42.371 33.1814 42.363 32.8453 42.355 32.5052C42.347 32.2679 42.339 32.0228 42.351 31.7855V31.738H42.347L42.378 31.4415C42.398 31.1765 42.418 30.9116 42.426 30.6426C42.43 30.4449 42.422 30.2709 42.402 30.1048C42.378 29.9111 42.335 29.7568 42.264 29.6263C42.208 29.5275 42.129 29.4247 42.019 29.3258C41.932 29.2467 41.825 29.1914 41.706 29.1597C41.675 29.1518 41.639 29.1479 41.595 29.1479C41.536 29.1479 41.477 29.1558 41.418 29.1716C41.327 29.1953 41.236 29.2546 41.141 29.3456C40.955 29.5156 40.832 29.7529 40.745 29.9387C40.638 30.1681 40.548 30.4331 40.457 30.7692C40.385 31.0341 40.33 31.307 40.294 31.5878L40.291 31.6273L40.287 31.6748L40.065 31.3386L39.816 30.9748L39.757 30.8641L39.717 30.7929C39.555 30.5003 39.393 30.2037 39.227 29.915C39.017 29.5473 38.819 29.2349 38.63 28.9541C38.408 28.6219 38.199 28.353 37.989 28.1236C37.886 28.0129 37.787 27.922 37.688 27.8429C37.574 27.748 37.463 27.6847 37.356 27.6372C37.238 27.5937 37.135 27.574 37.028 27.574Z" fill="#FFB39C"/>
<path d="M34.4849 31.3621C34.4419 31.3938 34.4099 31.4254 34.3789 31.4808C34.3549 31.5164 34.3429 31.5559 34.3269 31.5915C34.2949 31.6785 34.2989 31.7813 34.3069 31.8525C34.3349 32.0898 34.4259 32.3231 34.5009 32.4971C34.6119 32.7502 34.7379 32.9993 34.8929 33.2722C35.1379 33.7032 35.4219 34.1501 35.7859 34.676C36.1339 35.1782 36.5499 35.6844 37.0559 36.2222C37.5899 36.7877 38.1789 37.3255 38.7439 37.8475L39.0289 38.1085C39.0089 38.1401 39.0049 38.1915 39.0209 38.2429C39.0369 38.2864 39.0759 38.3418 39.1239 38.3616C39.2189 38.3972 39.3179 38.4288 39.4129 38.4604L39.4839 38.5316C39.5229 38.5672 39.5749 38.587 39.6259 38.587C39.6699 38.587 39.7089 38.5751 39.7449 38.5514C39.9269 38.5949 40.1239 38.6226 40.3219 38.6344C40.3889 38.6384 40.4599 38.6423 40.5279 38.6423C40.5629 38.6423 40.5949 38.6423 40.6269 38.6384C40.4369 38.4921 40.2509 38.3418 40.0689 38.1915C39.2429 37.5074 38.4669 36.76 37.7559 35.9572C37.5739 35.7556 37.3999 35.5499 37.2259 35.3403C37.0599 35.1387 36.9009 34.933 36.7389 34.7274C36.4429 34.3478 36.1259 33.9761 35.8339 33.5925C35.6829 33.3987 35.5409 33.2049 35.4069 33.0033C35.2639 32.7937 35.1299 32.5801 35.0149 32.3547C34.9079 32.1491 34.8139 31.9395 34.7379 31.718C34.7029 31.6073 34.6669 31.4926 34.6429 31.378C34.6399 31.3503 34.6319 31.3226 34.6279 31.2949C34.5799 31.3028 34.5289 31.3266 34.4849 31.3621Z" fill="#F3AB95"/>
<path d="M35.652 31.7105C35.608 31.7461 35.604 31.8054 35.636 31.8489C36.051 32.4342 36.526 32.9799 37 33.5216C37.036 33.5651 37.095 33.5731 37.139 33.5375C37.178 33.5019 37.19 33.4386 37.155 33.3991C36.68 32.8573 36.209 32.3116 35.79 31.7224C35.77 31.6986 35.743 31.6868 35.715 31.6868C35.691 31.6907 35.668 31.6986 35.652 31.7105Z" fill="#DB9A86"/>
<path d="M37.0441 30.1722C37.0241 30.188 37.0121 30.2118 37.0081 30.2355C37.0041 30.2632 37.0161 30.2869 37.0281 30.3106C37.2451 30.6626 37.4751 31.0027 37.7161 31.3388C37.9571 31.6749 38.2101 31.9992 38.4631 32.3234C38.5031 32.3709 38.5741 32.3788 38.6221 32.3393C38.6691 32.2997 38.6771 32.2285 38.6371 32.1811C38.1071 31.5484 37.6171 30.8801 37.1821 30.1801C37.1701 30.1603 37.1391 30.1485 37.1151 30.1445C37.1111 30.1445 37.1071 30.1445 37.1031 30.1445C37.0831 30.1485 37.0601 30.1564 37.0441 30.1722Z" fill="#DB9A86"/>
<path d="M34.639 31.2635C34.58 31.2912 34.533 31.3268 34.489 31.3742C34.446 31.4177 34.41 31.4771 34.382 31.5364C34.319 31.6708 34.307 31.825 34.311 31.9714C34.319 32.1493 34.367 32.3194 34.426 32.4815C34.469 32.5962 34.521 32.7109 34.572 32.8216C34.616 32.9204 34.663 33.0153 34.711 33.1063C34.726 33.13 34.742 33.1577 34.758 33.1814C34.766 33.1893 34.774 33.1973 34.778 33.2052C34.79 33.2289 34.802 33.2487 34.813 33.2684C34.857 33.3357 34.896 33.4029 34.936 33.4701C35.122 33.7469 35.312 34.0237 35.498 34.3005C35.6 34.4429 35.703 34.5892 35.806 34.7316C35.814 34.7276 35.822 34.7237 35.826 34.7158C35.715 34.5536 35.612 34.3915 35.513 34.2215C35.351 33.9407 35.205 33.656 35.086 33.3554C34.96 33.1221 34.845 32.8888 34.742 32.6436C34.699 32.5369 34.655 32.4301 34.62 32.3154C34.592 32.2205 34.572 32.1216 34.556 32.0228C34.556 32.0307 34.56 32.0425 34.56 32.0544C34.548 31.9595 34.548 31.8725 34.56 31.7776C34.568 31.7341 34.58 31.6906 34.596 31.6471C34.608 31.6194 34.62 31.5957 34.635 31.572C34.655 31.5482 34.675 31.5285 34.699 31.5087C34.715 31.4968 34.73 31.4889 34.746 31.481C34.782 31.4691 34.813 31.4612 34.845 31.4533C34.889 31.4494 34.932 31.4494 34.976 31.4533C35.07 31.4691 35.161 31.5008 35.252 31.5324C35.328 31.568 35.395 31.6036 35.462 31.6431C35.525 31.6787 35.608 31.659 35.644 31.5957C35.679 31.5364 35.66 31.4494 35.596 31.4138C35.426 31.3228 35.248 31.2398 35.059 31.2082C35.011 31.2002 34.96 31.1963 34.908 31.1963C34.821 31.2042 34.722 31.22 34.639 31.2635Z" fill="#DB9A86"/>
<path d="M35.035 28.6497C34.94 28.6773 34.857 28.7367 34.786 28.8039C34.758 28.8316 34.734 28.8592 34.715 28.8909C34.679 28.9423 34.651 28.9937 34.624 29.053C34.576 29.1558 34.548 29.2705 34.533 29.3812C34.517 29.4999 34.517 29.6145 34.537 29.7332C34.548 29.8044 34.56 29.8795 34.58 29.9507C34.6 30.0258 34.628 30.097 34.651 30.1682C34.849 30.6862 35.201 31.1212 35.462 31.6036C35.49 31.6511 35.553 31.6669 35.596 31.6392C35.644 31.6116 35.66 31.5522 35.632 31.5048C35.517 31.2952 35.387 31.0935 35.264 30.8879C35.13 30.6664 35.007 30.441 34.904 30.2038C34.908 30.2077 34.908 30.2117 34.908 30.2156C34.904 30.2117 34.904 30.2038 34.904 30.1998C34.841 30.0456 34.798 29.8874 34.77 29.7213C34.77 29.7292 34.77 29.7332 34.77 29.7371C34.766 29.6857 34.762 29.6383 34.758 29.5869C34.758 29.5394 34.762 29.492 34.766 29.4445C34.782 29.3496 34.806 29.2626 34.841 29.1756C34.865 29.1281 34.8931 29.0846 34.9201 29.0411C34.9401 29.0174 34.96 28.9937 34.987 28.9739C35.015 28.9541 35.047 28.9344 35.078 28.9186C35.11 28.9067 35.142 28.8988 35.169 28.8948C35.213 28.8909 35.256 28.8909 35.3 28.8948C35.387 28.9106 35.4661 28.9304 35.5451 28.9621C35.6751 29.0214 35.798 29.0965 35.913 29.1835C35.905 29.1756 35.893 29.1716 35.885 29.1637C36.237 29.4406 36.51 29.8004 36.787 30.1444C36.818 30.18 36.882 30.184 36.921 30.1603C36.945 30.1444 36.965 30.1207 36.973 30.093C36.98 30.0654 36.98 30.0298 36.961 30.01C36.771 29.753 36.581 29.5038 36.368 29.2666C36.277 29.1637 36.1781 29.0649 36.0711 28.9739C35.9921 28.9067 35.909 28.8474 35.818 28.792C35.731 28.7406 35.64 28.7011 35.549 28.6655C35.462 28.6338 35.371 28.622 35.276 28.6141C35.26 28.6141 35.244 28.6101 35.233 28.6101C35.173 28.6141 35.102 28.6299 35.035 28.6497ZM34.861 29.1479C34.857 29.1598 34.853 29.1677 34.849 29.1756C34.853 29.1677 34.857 29.1598 34.861 29.1479Z" fill="#DB9A86"/>
<path d="M37.0121 27.5462C36.8621 27.5739 36.7111 27.6253 36.5891 27.7202C36.4861 27.7993 36.4071 27.9061 36.3561 28.0286C36.3041 28.1591 36.2881 28.2976 36.2881 28.4399C36.2881 28.5823 36.3081 28.7246 36.3401 28.863C36.3751 29.0291 36.4311 29.1952 36.4901 29.3534C36.5931 29.6302 36.7191 29.8991 36.8621 30.1562C36.8891 30.2036 36.9531 30.2194 36.9961 30.1917C37.0441 30.1641 37.0551 30.1047 37.0321 30.0573C36.9331 29.8793 36.8461 29.6974 36.7671 29.5076L36.7711 29.5155C36.6521 29.2348 36.5571 28.9421 36.5101 28.6416L36.5141 28.6693C36.4981 28.5506 36.4901 28.432 36.5061 28.3094C36.5141 28.2382 36.5341 28.171 36.5571 28.0998C36.5771 28.0563 36.6011 28.0168 36.6281 27.9812C36.6521 27.9535 36.6761 27.9298 36.7001 27.9061C36.7431 27.8744 36.7831 27.8507 36.8301 27.827C36.9011 27.7993 36.9761 27.7756 37.0551 27.7637C37.1191 27.7597 37.1781 27.7597 37.2411 27.7637C37.3131 27.7756 37.3761 27.7953 37.4431 27.823C37.5341 27.8626 37.6171 27.914 37.6961 27.9772C37.8421 28.0959 37.9651 28.2382 38.0841 28.3885C38.2381 28.5981 38.3721 28.8195 38.5031 29.045C38.6181 29.2466 38.7281 29.4523 38.8511 29.65C38.9221 29.7686 38.9931 29.8873 39.0601 30.0059C39.3211 30.3855 39.5861 30.7612 39.8351 31.1487C39.9151 31.2515 39.9941 31.3583 40.0691 31.4611C40.0931 31.4888 40.1161 31.5125 40.1401 31.5402C40.1721 31.5758 40.2031 31.6074 40.2311 31.643C40.2391 31.6312 40.2471 31.6193 40.2471 31.6035C40.1761 31.4888 40.1001 31.3781 40.0331 31.2634C40.0291 31.2595 40.0251 31.2515 40.0211 31.2436C39.7801 30.8877 39.5741 30.5121 39.3691 30.1364C39.2501 29.9149 39.1281 29.6974 39.0011 29.4799C38.9221 29.3494 38.8551 29.215 38.7801 29.0805C38.6101 28.7721 38.4361 28.4636 38.2141 28.1908C38.0991 28.0484 37.9811 27.914 37.8381 27.8032C37.7161 27.7044 37.5771 27.6292 37.4271 27.5778C37.3681 27.5581 37.3051 27.5502 37.2411 27.5422C37.2141 27.5383 37.1861 27.5383 37.1581 27.5383C37.1111 27.5304 37.0591 27.5343 37.0121 27.5462ZM36.6241 27.9812C36.6241 27.9812 36.6211 27.9852 36.6211 27.9891C36.6211 27.9852 36.6241 27.9851 36.6241 27.9812Z" fill="#DB9A86"/>
<path d="M36.7751 29.5313C36.7751 29.5273 36.7711 29.5233 36.7671 29.5154C36.7711 29.5233 36.7711 29.5273 36.7751 29.5313Z" fill="#DB9A86"/>
<path d="M42.9481 36.1511C42.9041 36.1511 42.8611 36.1669 42.8251 36.1907C42.5761 36.3647 42.3111 36.5347 42.0341 36.7008C41.2591 37.1516 40.5281 37.4719 39.7961 37.6815C39.4521 37.7764 39.1121 37.8397 38.7841 37.8713C38.7281 37.8753 38.6811 37.9069 38.6451 37.9544C38.6101 38.0018 38.5941 38.0611 38.6021 38.1244C39.0801 41.1931 39.4961 43.5262 39.9461 45.6893C40.2151 46.9666 40.5081 48.2281 40.8161 49.4303C41.0691 50.411 41.3461 51.3719 41.5601 52.1035C41.8171 52.9814 42.0381 53.6497 42.2761 54.2705C42.5841 55.0812 42.9121 55.7732 43.2881 56.3901C43.7151 57.0901 44.1821 57.6477 44.7151 58.0906C44.9761 58.3081 45.2811 58.5018 45.6171 58.664C45.9221 58.8103 46.2741 58.921 46.6571 58.9922C46.8751 59.0317 47.1001 59.0515 47.3251 59.0515C47.5231 59.0515 47.7291 59.0357 47.9301 59.008C48.3611 58.9447 48.8081 58.7945 49.2631 58.5572C49.6631 58.3436 50.0541 58.0589 50.4221 57.707C50.7581 57.3867 51.0661 57.007 51.3391 56.5839C51.5921 56.1845 51.7981 55.7495 51.9441 55.2987C52.0191 55.0654 52.0711 54.8281 52.1141 54.6106C52.1661 54.3536 52.1971 54.0728 52.2211 53.7565C52.2881 52.7718 52.1381 51.6883 51.7781 50.5375C51.1691 48.5998 50.0981 46.8322 49.0571 45.1238L48.7691 44.6453C48.4491 44.1154 48.1241 43.5895 47.7961 43.0675C47.4641 42.5416 47.1201 42.0196 46.7761 41.5015C46.0521 40.418 45.2931 39.3147 44.6361 38.3696L44.3361 37.9346C43.9441 37.3731 43.5571 36.8115 43.1651 36.25C43.1461 36.2263 43.1181 36.2025 43.0821 36.1907C43.0391 36.1709 42.9911 36.1511 42.9481 36.1511Z" fill="#FF505D"/>
<path d="M38.7801 37.8635C38.7211 37.8714 38.6691 37.9069 38.6381 37.9544C38.6021 37.9979 38.5821 38.0651 38.5941 38.1244C39.0691 41.1773 39.4841 43.5104 39.9391 45.6933C40.2071 46.9706 40.5001 48.2321 40.8121 49.4342C41.0141 50.2251 41.2591 51.0991 41.5561 52.1075C41.8131 52.9893 42.0341 53.6576 42.2721 54.2745C42.5801 55.0852 42.9121 55.7812 43.2841 56.3941C43.7071 57.0941 44.1741 57.6517 44.7121 58.0985C44.9771 58.32 45.2811 58.5098 45.6131 58.6719C45.9181 58.8182 46.2701 58.9329 46.6571 59.0041C46.8751 59.0436 47.1041 59.0634 47.3261 59.0634C47.5191 59.0634 47.7251 59.0476 47.9341 59.0199C48.3661 58.9566 48.8161 58.8064 49.2671 58.5651C49.4571 58.4663 49.6471 58.3476 49.8331 58.2132C49.6861 58.2211 49.5361 58.2251 49.3901 58.2211C48.9391 58.2053 48.4881 58.1222 48.0651 57.972C47.6381 57.8177 47.2311 57.6042 46.8591 57.3432C46.4631 57.0664 46.1001 56.7382 45.7671 56.3862C45.4081 56.0026 45.0831 55.5835 44.7871 55.1485C44.4621 54.6739 44.1741 54.1796 43.9051 53.6734C43.3281 52.5662 42.8531 51.4075 42.4421 50.2291C42.0111 48.9834 41.6471 47.7141 41.3311 46.4368C41.0261 45.203 40.7651 43.9613 40.5321 42.7116C40.2271 41.0468 39.9781 39.3701 39.7801 37.6895C39.4441 37.7685 39.1041 37.8318 38.7801 37.8635Z" fill="#E44753"/>
<path d="M23.65 28.0762H23.658C23.765 28.0762 23.887 28.1118 23.998 28.179C24.081 28.2304 24.156 28.3095 24.212 28.4083C24.275 28.5191 24.291 28.6456 24.303 28.7563C24.314 28.875 24.303 28.9976 24.287 29.1004C24.267 29.2467 24.231 29.393 24.188 29.5512C24.125 29.7805 24.038 30.0178 23.907 30.3263L23.887 30.3737L23.868 30.4212C23.951 30.3065 24.042 30.1958 24.132 30.085C24.295 29.8992 24.516 29.658 24.773 29.4681C24.935 29.3456 25.153 29.2111 25.402 29.2111C25.619 29.2111 25.817 29.3495 25.924 29.571C26.023 29.7726 26.035 30.0139 25.963 30.3381C25.932 30.4884 25.876 30.6308 25.825 30.7494C25.758 30.9115 25.683 31.0737 25.592 31.2437C25.449 31.5126 25.283 31.7855 25.082 32.0781L25.141 32.0346C25.291 31.9516 25.445 31.8883 25.623 31.8329C25.691 31.8132 25.789 31.7894 25.896 31.7894C26.011 31.7894 26.11 31.8171 26.181 31.8725C26.224 31.9041 26.256 31.9357 26.288 31.9871C26.311 32.0227 26.323 32.0623 26.335 32.0979C26.367 32.1849 26.359 32.2877 26.355 32.3549C26.331 32.5843 26.248 32.7978 26.161 32.9955C26.062 33.2289 25.936 33.474 25.77 33.7706C25.528 34.2017 25.244 34.6446 24.876 35.1745C24.524 35.6806 24.109 36.1868 23.607 36.7167C23.069 37.2822 22.483 37.82 21.918 38.342L21.637 38.603C21.657 38.6425 21.657 38.6979 21.641 38.7414C21.625 38.7849 21.59 38.8403 21.542 38.8561C21.447 38.8917 21.352 38.9233 21.254 38.9549L21.182 39.0222C21.143 39.0577 21.095 39.0736 21.044 39.0736C21.001 39.0736 20.961 39.0617 20.929 39.038C20.736 39.0815 20.538 39.1092 20.348 39.121C20.277 39.125 20.21 39.1289 20.138 39.1289C19.81 39.1289 19.502 39.0815 19.221 38.9826C18.877 38.864 18.569 38.6544 18.331 38.3697C18.173 38.1838 18.051 37.9545 17.964 37.6935C17.936 37.7805 17.9 37.8675 17.861 37.9545C17.825 38.0375 17.75 38.0889 17.671 38.0889C17.647 38.0889 17.627 38.0849 17.604 38.077C17.552 38.0612 17.505 38.0177 17.481 37.9624C17.461 37.9149 17.457 37.8635 17.477 37.82C17.754 37.1715 17.948 36.5862 18.066 36.0326C18.201 35.3564 18.248 34.6683 18.28 34.0237C18.3 33.6836 18.308 33.3475 18.315 33.0074C18.323 32.7701 18.331 32.525 18.319 32.2877V32.2402H18.323L18.292 31.9436C18.272 31.6787 18.252 31.4137 18.244 31.1488C18.24 30.9511 18.248 30.7771 18.268 30.607C18.292 30.4133 18.339 30.259 18.406 30.1285C18.462 30.0257 18.541 29.9269 18.652 29.828C18.739 29.7489 18.845 29.6936 18.964 29.6619C18.996 29.654 19.031 29.6501 19.075 29.6501C19.134 29.6501 19.193 29.658 19.253 29.6738C19.344 29.6975 19.435 29.7568 19.529 29.8478C19.715 30.0178 19.838 30.2551 19.925 30.4409C20.032 30.6703 20.123 30.9353 20.214 31.2714C20.285 31.5363 20.34 31.8092 20.376 32.09L20.38 32.1335L20.384 32.1809L20.605 31.8448L20.854 31.481L20.914 31.3703L20.953 31.2991C21.115 31.0064 21.277 30.7099 21.443 30.4212C21.653 30.0534 21.851 29.741 22.041 29.4602C22.262 29.132 22.472 28.8592 22.681 28.6298C22.784 28.5191 22.883 28.4281 22.982 28.349C23.096 28.2581 23.207 28.1909 23.314 28.1434C23.44 28.0999 23.547 28.0762 23.65 28.0762Z" fill="#FFB39C"/>
<path d="M26.1929 31.8685C26.2359 31.9001 26.2679 31.9318 26.2989 31.9871C26.3229 32.0227 26.3349 32.0623 26.3509 32.0979C26.3819 32.1849 26.3779 32.2877 26.3709 32.3589C26.3429 32.5961 26.2519 32.8294 26.1769 33.0034C26.0659 33.2565 25.9399 33.5056 25.7849 33.7785C25.5399 34.2095 25.2549 34.6564 24.8919 35.1823C24.5439 35.6846 24.1279 36.1907 23.6219 36.7285C23.0839 37.294 22.4989 37.8318 21.9339 38.3538L21.6489 38.6148C21.6689 38.6465 21.6729 38.6979 21.6569 38.7493C21.6409 38.7928 21.6009 38.8481 21.5539 38.8679C21.4589 38.9035 21.3599 38.9351 21.2649 38.9668L21.1939 39.038C21.1549 39.0736 21.1029 39.0933 21.0519 39.0933C21.0079 39.0933 20.9689 39.0815 20.9289 39.0577C20.7469 39.1012 20.5499 39.1289 20.3519 39.1408C20.2849 39.1447 20.2129 39.1487 20.1459 39.1487C20.1149 39.1487 20.0789 39.1487 20.0469 39.1447C20.2369 38.9984 20.4229 38.8481 20.6049 38.6979C21.4309 38.0138 22.2059 37.2664 22.9179 36.4636C23.0999 36.2619 23.2739 36.0563 23.4479 35.8467C23.6139 35.645 23.7719 35.4394 23.9349 35.2338C24.2309 34.8541 24.5479 34.4824 24.8399 34.0988C24.9899 33.9051 25.1329 33.7113 25.2669 33.5096C25.4099 33.3 25.5439 33.0865 25.6589 32.8611C25.7659 32.6554 25.8639 32.4458 25.9359 32.2244C25.9709 32.1137 26.0069 31.999 26.0299 31.8843C26.0379 31.8566 26.0419 31.829 26.0459 31.8013C26.1019 31.8092 26.1489 31.8329 26.1929 31.8685Z" fill="#F3AB95"/>
<path d="M25.0259 32.2166C25.0699 32.2522 25.0739 32.3115 25.0419 32.355C24.6269 32.9403 24.1519 33.486 23.6779 34.0277C23.6419 34.0712 23.5829 34.0792 23.5389 34.0436C23.4999 34.008 23.4879 33.9447 23.5229 33.9052C23.9979 33.3634 24.4719 32.8177 24.8879 32.2285C24.9069 32.2047 24.9349 32.1929 24.9629 32.1929C24.9869 32.1929 25.0099 32.2008 25.0259 32.2166Z" fill="#DB9A86"/>
<path d="M23.6339 30.6742C23.6539 30.69 23.6659 30.7137 23.6699 30.7374C23.6739 30.7651 23.6619 30.7888 23.6499 30.8126C23.4319 31.1645 23.2029 31.5046 22.9619 31.8407C22.7209 32.1769 22.4679 32.5011 22.2109 32.8254C22.1709 32.8729 22.0999 32.8808 22.0519 32.8412C22.0049 32.8017 21.9969 32.7305 22.0369 32.683C22.5659 32.0503 23.0569 31.382 23.4919 30.6821C23.5039 30.6623 23.5349 30.6504 23.5589 30.6465C23.5629 30.6465 23.5669 30.6465 23.5709 30.6465C23.5949 30.6544 23.6179 30.6623 23.6339 30.6742Z" fill="#DB9A86"/>
<path d="M26.0379 31.7657C26.0939 31.7934 26.1449 31.829 26.1889 31.8764C26.2319 31.9199 26.2679 31.9793 26.2919 32.0386C26.3549 32.173 26.3669 32.3273 26.3629 32.4736C26.3549 32.6515 26.3069 32.8216 26.2479 32.9837C26.2049 33.0984 26.1529 33.2131 26.1019 33.3238C26.0579 33.4226 26.0109 33.5175 25.9629 33.6085C25.9469 33.6322 25.9319 33.6599 25.9159 33.6836C25.9079 33.6915 25.8999 33.6995 25.8959 33.7074C25.8839 33.7271 25.8719 33.7509 25.8599 33.7706C25.8209 33.8379 25.7769 33.9051 25.7379 33.9723C25.5519 34.2491 25.3619 34.5259 25.1759 34.8028C25.0739 34.9451 24.9709 35.0914 24.8679 35.2338C24.8599 35.2298 24.8519 35.2259 24.8479 35.218C24.9589 35.0558 25.0619 34.8937 25.1609 34.7237C25.3229 34.4429 25.4689 34.1582 25.5879 33.8576C25.7139 33.6243 25.8289 33.391 25.9319 33.1458C25.9749 33.0391 26.0189 32.9323 26.0539 32.8176C26.0859 32.7227 26.1019 32.6238 26.1179 32.525C26.1179 32.5329 26.1139 32.5447 26.1139 32.5566C26.1249 32.4617 26.1249 32.3747 26.1139 32.2798C26.1059 32.2363 26.0939 32.1928 26.0779 32.1493C26.0659 32.1216 26.0539 32.0979 26.0379 32.0742C26.0189 32.0504 25.9989 32.0307 25.9749 32.0109C25.9589 31.999 25.9439 31.9911 25.9279 31.9832C25.8919 31.9713 25.8599 31.9634 25.8289 31.9555C25.7849 31.9516 25.7419 31.9516 25.6979 31.9555C25.6029 31.9713 25.5129 32.003 25.4259 32.0346C25.3499 32.0702 25.2829 32.1058 25.2159 32.1453C25.1529 32.1809 25.0699 32.1612 25.0339 32.0979C24.9979 32.0386 25.0179 31.9516 25.0809 31.916C25.2509 31.825 25.4289 31.742 25.6189 31.7104C25.6669 31.7024 25.7179 31.6985 25.7699 31.6985C25.8599 31.7064 25.9549 31.7262 26.0379 31.7657Z" fill="#DB9A86"/>
<path d="M25.6431 29.1516C25.7381 29.1793 25.821 29.2386 25.892 29.3058C25.92 29.3335 25.9431 29.3612 25.9631 29.3928C25.9991 29.4442 26.026 29.4956 26.054 29.555C26.102 29.6578 26.129 29.7725 26.145 29.8832C26.161 30.0018 26.161 30.1165 26.141 30.2351C26.129 30.3063 26.117 30.3814 26.098 30.4526C26.078 30.5278 26.05 30.5989 26.026 30.6701C25.829 31.1882 25.477 31.6232 25.216 32.1056C25.188 32.1531 25.125 32.1689 25.081 32.1412C25.034 32.1135 25.018 32.0542 25.046 32.0067C25.16 31.7972 25.291 31.5955 25.414 31.3898C25.548 31.1684 25.6711 30.943 25.7731 30.7057C25.7691 30.7097 25.7691 30.7136 25.7691 30.7176C25.7691 30.7136 25.7731 30.7097 25.7731 30.7018C25.8371 30.5475 25.884 30.3894 25.908 30.2233C25.908 30.2312 25.908 30.2351 25.908 30.2391C25.912 30.1877 25.9161 30.1402 25.9201 30.0888C25.9201 30.0414 25.916 29.9939 25.912 29.9465C25.896 29.8555 25.8721 29.7645 25.8371 29.6775C25.8131 29.6301 25.785 29.5866 25.758 29.5431C25.738 29.5194 25.718 29.4956 25.69 29.4759C25.663 29.4521 25.631 29.4363 25.599 29.4205C25.568 29.4086 25.536 29.4007 25.504 29.3968C25.461 29.3928 25.417 29.3928 25.374 29.3968C25.287 29.4126 25.208 29.4324 25.129 29.464C24.998 29.5233 24.876 29.5985 24.761 29.6855C24.769 29.6775 24.781 29.6736 24.789 29.6657C24.437 29.9425 24.164 30.3024 23.887 30.6464C23.855 30.682 23.792 30.6859 23.753 30.6622C23.729 30.6464 23.709 30.6227 23.701 30.595C23.693 30.5673 23.6931 30.5317 23.7131 30.5119C23.9031 30.2549 24.093 30.0058 24.306 29.7685C24.397 29.6657 24.496 29.5668 24.603 29.4759C24.682 29.4086 24.765 29.3493 24.856 29.294C24.943 29.2426 25.034 29.203 25.125 29.1674C25.212 29.1358 25.3031 29.1239 25.3981 29.116C25.4141 29.116 25.4291 29.1121 25.4411 29.1121C25.5041 29.12 25.5761 29.1318 25.6431 29.1516ZM25.817 29.6538C25.821 29.6657 25.8251 29.6736 25.8291 29.6815C25.8251 29.6736 25.821 29.6617 25.817 29.6538Z" fill="#DB9A86"/>
<path d="M23.666 28.0485C23.816 28.0762 23.9661 28.1276 24.0891 28.2225C24.1961 28.3016 24.2711 28.4084 24.3221 28.531C24.3741 28.6615 24.3931 28.7999 24.3931 28.9422C24.3931 29.0846 24.3741 29.227 24.3421 29.3654C24.3061 29.5315 24.251 29.6975 24.192 29.8557C24.089 30.1325 23.9621 30.4014 23.8201 30.6585C23.7921 30.7059 23.7291 30.7218 23.6861 30.6941C23.6381 30.6664 23.6261 30.6071 23.6501 30.5596C23.7491 30.3817 23.8361 30.1998 23.9151 30.0099L23.9111 30.0179C24.0301 29.7371 24.1251 29.4445 24.1721 29.1439L24.1681 29.1716C24.1841 29.053 24.1881 28.9343 24.1761 28.8117C24.1681 28.7406 24.1481 28.6733 24.1251 28.6022C24.1051 28.5587 24.0811 28.5191 24.0531 28.4835C24.0301 28.4558 24.0061 28.4321 23.9821 28.4084C23.9391 28.3767 23.899 28.353 23.856 28.3293C23.785 28.3016 23.7091 28.2779 23.6301 28.266C23.5671 28.2621 23.5081 28.2621 23.4441 28.266C23.3731 28.2779 23.3101 28.2977 23.2431 28.3253C23.1521 28.3649 23.0691 28.4163 22.9901 28.4796C22.8431 28.5982 22.7211 28.7406 22.6021 28.8908C22.4481 29.1004 22.3131 29.3219 22.1831 29.5473C22.0681 29.749 21.9581 29.9546 21.8351 30.1523C21.7641 30.2709 21.6931 30.3896 21.6251 30.5082C21.3641 30.8878 21.0991 31.2635 20.8501 31.6511C20.7711 31.7539 20.6921 31.8606 20.6171 31.9635C20.5931 31.9911 20.5701 32.0149 20.5461 32.0425C20.5141 32.0781 20.483 32.1098 20.451 32.1454C20.443 32.1335 20.4351 32.1216 20.4351 32.1058C20.5061 31.9911 20.581 31.8804 20.649 31.7657C20.653 31.7618 20.6571 31.7539 20.6601 31.746C20.9021 31.3901 21.107 31.0144 21.313 30.6387C21.432 30.4173 21.5541 30.1998 21.6811 29.9823C21.7601 29.8518 21.8271 29.7173 21.8981 29.5829C22.0681 29.2744 22.2421 28.966 22.4641 28.6931C22.5781 28.5507 22.6971 28.4163 22.8391 28.3056C22.9621 28.2067 23.1001 28.1316 23.2511 28.0802C23.3101 28.0604 23.3731 28.0525 23.4371 28.0446C23.4641 28.0406 23.4921 28.0406 23.5201 28.0406C23.5671 28.0367 23.618 28.0406 23.666 28.0485ZM24.0531 28.4875C24.0531 28.4875 24.0571 28.4914 24.0571 28.4954C24.0571 28.4914 24.0531 28.4875 24.0531 28.4875Z" fill="#DB9A86"/>
<path d="M23.9031 30.0376C23.9031 30.0336 23.9071 30.0297 23.9111 30.0217C23.9071 30.0297 23.9071 30.0336 23.9031 30.0376Z" fill="#DB9A86"/>
<path d="M17.734 36.6572C17.778 36.6572 17.821 36.673 17.857 36.6968C18.106 36.8708 18.371 37.0408 18.648 37.2069C19.423 37.6577 20.154 37.978 20.886 38.1876C21.23 38.2825 21.57 38.3458 21.898 38.3814C21.954 38.3853 22.001 38.417 22.037 38.4644C22.072 38.5119 22.092 38.5712 22.08 38.6345C21.602 41.7031 21.186 44.0363 20.736 46.1994C20.467 47.4806 20.174 48.7382 19.866 49.9403C19.612 50.921 19.336 51.882 19.122 52.6135C18.865 53.4914 18.644 54.1597 18.406 54.7806C18.098 55.5913 17.766 56.2833 17.394 56.9002C16.967 57.6001 16.5 58.1577 15.966 58.6006C15.705 58.8181 15.401 59.0119 15.069 59.174C14.764 59.3203 14.412 59.4311 14.029 59.5022C13.811 59.5418 13.586 59.5616 13.36 59.5616C13.163 59.5616 12.957 59.5457 12.755 59.5181C12.324 59.4548 11.878 59.3045 11.423 59.0672C11.023 58.8537 10.632 58.569 10.264 58.217C9.92802 57.8967 9.61999 57.521 9.34699 57.094C9.09399 56.6946 8.88801 56.2596 8.74201 55.8088C8.66701 55.5754 8.615 55.3421 8.572 55.1207C8.52 54.8636 8.489 54.5829 8.465 54.2665C8.398 53.2818 8.548 52.1983 8.908 51.0476C9.517 49.1099 10.588 47.3422 11.628 45.6339L11.917 45.1554C12.237 44.6255 12.562 44.0996 12.89 43.5776C13.222 43.0516 13.566 42.5296 13.91 42.0116C14.634 40.9281 15.393 39.8248 16.05 38.8796L16.35 38.4447C16.742 37.8831 17.129 37.3216 17.517 36.76C17.536 36.7324 17.564 36.7126 17.6 36.7007C17.639 36.673 17.687 36.6572 17.734 36.6572Z" fill="#FF505D"/>
<path d="M21.898 38.3695C21.958 38.3774 22.009 38.4091 22.041 38.4606C22.076 38.5041 22.096 38.5713 22.084 38.6306C21.61 41.6795 21.194 44.0166 20.74 46.1995C20.471 47.4768 20.178 48.7381 19.866 49.9403C19.66 50.7312 19.419 51.6092 19.122 52.6136C18.865 53.4955 18.644 54.1638 18.406 54.7807C18.098 55.5913 17.766 56.2873 17.394 56.8963C16.971 57.5963 16.504 58.1538 15.967 58.6007C15.702 58.8222 15.397 59.012 15.065 59.1741C14.76 59.3204 14.408 59.4351 14.021 59.5063C13.799 59.5458 13.574 59.5655 13.353 59.5655C13.159 59.5655 12.953 59.5498 12.744 59.5221C12.313 59.4588 11.862 59.3085 11.411 59.0672C11.217 58.9684 11.031 58.8498 10.845 58.7154C10.992 58.7272 11.142 58.7271 11.288 58.7232C11.739 58.7074 12.19 58.6243 12.613 58.4741C13.04 58.3198 13.448 58.1063 13.819 57.8453C14.215 57.5685 14.578 57.2403 14.911 56.8883C15.271 56.5047 15.595 56.0857 15.891 55.6507C16.216 55.1761 16.504 54.6817 16.773 54.1755C17.351 53.0683 17.825 51.9097 18.236 50.7313C18.667 49.4856 19.031 48.2161 19.348 46.9389C19.652 45.7051 19.913 44.4633 20.146 43.2137C20.451 41.5489 20.7 39.8723 20.898 38.1917C21.234 38.2747 21.574 38.3339 21.898 38.3695Z" fill="#E44753"/>
<path d="M31.448 20.7327C31.448 21.3298 31.405 21.9269 31.385 22.5241C31.373 22.8246 31.373 23.1212 31.385 23.4217C31.397 23.7025 31.428 23.9793 31.468 24.2522C31.48 24.3234 31.583 24.3629 31.638 24.3233C31.812 24.1929 31.994 24.0742 32.192 23.9872C32.29 23.9477 32.393 23.916 32.496 23.9002C32.563 23.8923 32.627 23.8923 32.694 23.9002C32.741 23.9081 32.785 23.92 32.828 23.9358C32.872 23.9556 32.911 23.9793 32.951 24.007C32.986 24.0386 33.022 24.0742 33.054 24.1098C33.05 24.1019 33.046 24.0979 33.042 24.09C33.046 24.0979 33.05 24.1059 33.058 24.1098C33.062 24.1138 33.062 24.1138 33.066 24.1177C33.062 24.1138 33.062 24.1138 33.058 24.1098C33.089 24.1573 33.113 24.2008 33.137 24.2522C33.164 24.3273 33.184 24.3985 33.196 24.4776C33.212 24.5923 33.208 24.7069 33.196 24.8216C33.176 24.9442 33.145 25.0589 33.097 25.1736C33.042 25.2961 32.971 25.4108 32.892 25.5176C32.899 25.5057 32.907 25.4939 32.919 25.482C32.84 25.5809 32.753 25.6679 32.658 25.7509C32.551 25.83 32.437 25.8972 32.314 25.9526C32.227 25.9882 32.14 26.0159 32.049 26.0435C31.942 26.0712 31.879 26.1859 31.907 26.2927C31.935 26.3955 32.053 26.4706 32.156 26.435C32.279 26.3955 32.401 26.348 32.516 26.2887C32.634 26.2294 32.741 26.1503 32.844 26.0673C33.022 25.9249 33.168 25.743 33.283 25.5453C33.386 25.3634 33.457 25.1617 33.493 24.9561C33.528 24.7544 33.524 24.5527 33.481 24.351C33.441 24.181 33.362 24.0268 33.247 23.9002C33.141 23.7737 32.99 23.6906 32.832 23.655C32.642 23.6076 32.437 23.6392 32.251 23.6985C32.041 23.7658 31.844 23.8804 31.666 24.0149C31.662 23.9793 31.654 23.9437 31.65 23.9042C31.65 23.916 31.654 23.9239 31.654 23.9358C31.523 22.8721 31.67 21.8004 31.666 20.7366C31.666 20.6773 31.618 20.6299 31.559 20.6299C31.5 20.6259 31.448 20.6734 31.448 20.7327ZM33.2 24.8018C33.2 24.8058 33.2 24.8097 33.2 24.8097C33.2 24.8097 33.2 24.8058 33.2 24.8018ZM33.113 25.138C33.109 25.1459 33.105 25.1538 33.101 25.1617C33.105 25.1538 33.109 25.1459 33.113 25.138ZM32.678 25.7311C32.67 25.7351 32.666 25.7391 32.658 25.747C32.666 25.7391 32.67 25.7351 32.678 25.7311ZM32.65 25.7509C32.646 25.7549 32.642 25.7588 32.638 25.7588C32.646 25.7549 32.646 25.7509 32.65 25.7509Z" fill="#BF8675"/>
<path d="M26.39 23.1608C26.39 22.366 26.003 21.7253 25.524 21.7253C25.046 21.7253 24.658 22.3699 24.658 23.1608C24.658 23.9557 25.046 24.6002 25.524 24.6002C26.003 24.5963 26.39 23.9517 26.39 23.1608Z" fill="#3A0241"/>
<path d="M25.7061 20.0366C26.6361 19.6491 27.2681 19.052 27.1261 18.704C26.9801 18.356 26.1101 18.3876 25.1801 18.7752C24.2511 19.1627 23.6141 19.7598 23.7611 20.1078C23.9071 20.4558 24.7771 20.4242 25.7061 20.0366Z" fill="#3A0241"/>
<path d="M36.502 22.6665C36.502 21.9152 36.87 21.3022 37.321 21.3022C37.775 21.3022 38.1429 21.9152 38.1429 22.6665C38.1429 23.4179 37.775 24.0308 37.321 24.0308C36.87 24.0308 36.502 23.4179 36.502 22.6665Z" fill="#3A0241"/>
<path d="M37.1501 19.7044C36.2691 19.3367 35.6681 18.7712 35.8061 18.4429C35.9441 18.1147 36.7711 18.1424 37.6491 18.5102C38.5311 18.8779 39.1321 19.4434 38.9931 19.7717C38.8551 20.0999 38.0321 20.0722 37.1501 19.7044Z" fill="#3A0241"/>
<path d="M29.969 28.456C29.926 28.456 29.8781 28.4915 29.8511 28.5232C29.8231 28.5627 29.807 28.6102 29.815 28.6576C29.823 28.7051 29.847 28.7446 29.882 28.7763C29.91 28.796 29.942 28.8079 29.973 28.8119C30.005 28.8158 30.036 28.8119 30.064 28.8C30.084 28.7921 30.104 28.7881 30.123 28.7802C30.183 28.7644 30.246 28.7525 30.305 28.7407C30.4 28.7209 30.495 28.717 30.594 28.713H30.5581C30.6811 28.713 30.804 28.717 30.926 28.7288C31.049 28.7407 31.1671 28.7684 31.2821 28.796C31.2741 28.7921 31.2621 28.7921 31.2511 28.7881C31.2981 28.8 31.345 28.8158 31.393 28.8277C31.456 28.8474 31.523 28.8277 31.551 28.7605C31.575 28.7051 31.5471 28.622 31.4841 28.6062C31.2391 28.535 30.99 28.4876 30.736 28.4599C30.61 28.448 30.487 28.4441 30.361 28.4441C30.226 28.4441 30.096 28.448 29.969 28.456ZM30.104 28.7881C30.1 28.7881 30.0961 28.7881 30.0921 28.7921C30.0921 28.7881 30.096 28.7881 30.104 28.7881Z" fill="#3A0241"/>
<path d="M33.188 7.91626H33.097C32.199 7.92416 31.262 8.03486 30.234 8.25626C28.391 8.65566 26.485 9.39126 24.575 10.4432C22.922 11.3527 21.435 12.4165 20.158 13.6068C19.818 13.9231 19.529 14.2118 19.28 14.4886C18.956 14.8445 18.647 15.2518 18.307 15.7699C17.797 16.5528 17.331 17.4386 16.832 18.5657C16.809 18.5815 16.789 18.6013 16.773 18.621C16.722 18.6883 16.71 18.7594 16.71 18.8425C16.722 19.6452 16.975 20.4638 17.429 21.1519C17.908 21.8795 18.632 22.3303 19.367 22.3541H19.43C19.822 22.3541 20.229 22.2473 20.609 22.0496C20.945 21.8716 21.249 21.6264 21.546 21.2982C21.783 21.0333 22.001 20.705 22.226 20.27C22.4 19.9339 22.554 19.5503 22.701 19.0956C22.934 18.364 23.104 17.5731 23.215 16.6754C23.31 16.7308 23.409 16.7782 23.507 16.8217C23.749 16.9246 24.002 17.0036 24.243 17.0748C24.69 17.2014 25.156 17.2923 25.627 17.3437C25.912 17.3754 26.2 17.3912 26.493 17.3912C27.11 17.3912 27.739 17.324 28.368 17.1895C30.131 16.8059 31.808 15.9162 33.212 14.6151C34.362 13.5474 35.256 12.2622 35.798 10.894C36.015 11.0047 36.237 11.1273 36.458 11.2617L36.454 11.2578C37.265 11.7561 38.056 12.4006 38.811 13.1757C39.776 14.1801 40.607 15.3032 41.275 16.5093L41.314 16.5845L41.334 16.624C41.374 16.6992 41.417 16.7545 41.492 16.7901C41.528 16.8059 41.572 16.8138 41.611 16.8138C41.631 16.8138 41.651 16.8099 41.674 16.8099H41.734C41.813 16.802 41.892 16.7585 41.943 16.6952C41.995 16.6319 42.014 16.5568 42.003 16.4817C41.773 14.6982 41.105 12.9543 40.081 11.4318C39.547 10.6369 38.922 9.96066 38.23 9.42286C37.886 9.15396 37.506 8.91276 37.099 8.71106C36.751 8.53316 36.36 8.39476 35.838 8.25236C35.043 8.01906 34.173 7.91626 33.188 7.91626Z" fill="#3A0241"/>
<path d="M34.3189 10.5538C33.5879 11.404 32.7609 12.1712 31.8439 12.8158C31.8519 12.8118 31.8589 12.8039 31.8709 12.7999C31.0329 13.3813 30.1199 13.8518 29.1589 14.1959C29.1629 14.1919 29.1699 14.1919 29.1739 14.188C28.7279 14.3461 28.2689 14.4727 27.8099 14.5755C27.3319 14.6823 26.8409 14.7495 26.3549 14.793C25.6749 14.8484 24.9909 14.8563 24.3139 14.7772C24.2469 14.7693 24.1679 14.8049 24.1169 14.8484C24.0649 14.8958 24.0339 14.967 24.0299 15.0382C24.0259 15.1845 24.1439 15.3229 24.2909 15.3229C24.7889 15.3229 25.2869 15.3229 25.7809 15.2873C26.2799 15.2517 26.7739 15.1885 27.2639 15.0975C28.1899 14.9195 29.0949 14.619 29.9489 14.2236C30.3689 14.0298 30.7759 13.8083 31.1669 13.5671C31.5749 13.318 31.9619 13.0372 32.3379 12.7446C33.1129 12.1395 33.8209 11.4475 34.4619 10.7001C34.4969 10.6566 34.5089 10.6013 34.4689 10.5578C34.4499 10.538 34.4179 10.5261 34.3899 10.5261C34.3549 10.5261 34.3349 10.534 34.3189 10.5538ZM29.1699 14.188C29.1779 14.184 29.1859 14.184 29.1939 14.1801C29.1859 14.1801 29.1779 14.184 29.1699 14.188Z" fill="#2D0133"/>
<path d="M33.4409 9.58886C33.4129 9.59676 33.3939 9.60866 33.3779 9.63236L33.2989 9.73126C33.3029 9.72336 33.3109 9.71936 33.3149 9.71146C32.6979 10.447 32.0059 11.1233 31.2229 11.6769L31.2499 11.6571C31.0169 11.8192 30.7759 11.9695 30.5269 12.104C30.2819 12.2384 30.0239 12.3491 29.7629 12.444C29.7749 12.4401 29.7869 12.4361 29.8029 12.4322C29.6609 12.4796 29.5219 12.5231 29.3799 12.5587C29.2889 12.5825 29.2299 12.6695 29.2489 12.7604C29.2569 12.8039 29.2849 12.8474 29.3249 12.8711C29.3599 12.8909 29.4119 12.9067 29.4509 12.8909C29.6449 12.8276 29.8349 12.7525 30.0239 12.6695C30.2219 12.5825 30.4119 12.4836 30.5979 12.3768C30.9889 12.1554 31.3569 11.8944 31.7089 11.6136C32.3969 11.0639 32.9939 10.4154 33.5479 9.73516C33.5839 9.69166 33.5599 9.62446 33.5159 9.60076C33.4999 9.58886 33.4849 9.58496 33.4649 9.58496C33.4569 9.58496 33.4489 9.58886 33.4409 9.58886Z" fill="#2D0133"/>
<path d="M29.3641 6.40955C28.4191 6.48865 27.4941 6.67845 26.5881 6.95525C26.1251 7.09365 25.6711 7.25575 25.2241 7.43375C24.7731 7.61565 24.3301 7.82525 23.8991 8.05065C23.0371 8.49745 22.2111 9.01555 21.4471 9.61655C21.0721 9.90925 20.7161 10.2256 20.3721 10.5499C20.0361 10.8702 19.7151 11.2024 19.4151 11.5583C19.1221 11.9023 18.8491 12.2622 18.6001 12.6418C18.3871 12.9661 18.1891 13.2983 17.9911 13.6304C17.1451 15.0975 16.4251 16.6477 15.4441 18.0318C15.3101 18.2176 15.1721 18.3995 15.0291 18.5775C14.6421 19.0402 14.2071 19.4633 13.7161 19.8192C13.3211 20.0881 12.8981 20.2977 12.4551 20.4756C12.4351 20.4796 12.4151 20.4875 12.3961 20.4915C12.2931 20.5191 12.2061 20.5705 12.1501 20.6655C12.0951 20.7485 12.0791 20.8553 12.0991 20.9541C12.1421 21.1519 12.3601 21.31 12.5621 21.2507C12.6571 21.223 12.7511 21.2033 12.8461 21.1795C12.9411 21.1558 13.0321 21.1242 13.1231 21.0925C13.3411 21.0134 13.5501 20.9264 13.7521 20.8197C14.1241 20.6259 14.4721 20.3768 14.7961 20.1039C15.1081 19.8429 15.3891 19.5463 15.6501 19.2379C15.9391 18.9018 16.2041 18.5459 16.4531 18.1781C17.4021 16.7703 18.0501 15.1964 18.8291 13.6977C19.0191 13.3339 19.2251 12.9819 19.4461 12.6379C19.7151 12.2226 20.0161 11.8311 20.3281 11.4515C20.3121 11.4752 20.2931 11.495 20.2771 11.5148C21.0521 10.5894 21.9771 9.81435 22.9581 9.12225L22.9501 9.13015C23.9861 8.41045 25.1211 7.83705 26.3031 7.40605C27.3511 7.03435 28.4391 6.78125 29.5501 6.68635C30.3961 6.61915 31.2511 6.63885 32.0891 6.77725C32.1601 6.78915 32.2271 6.71405 32.2311 6.64675C32.2351 6.56765 32.1721 6.52025 32.1011 6.50445C31.5151 6.40555 30.9261 6.35815 30.3371 6.35815C30.0171 6.36605 29.6881 6.38185 29.3641 6.40955ZM23.0051 9.09855C22.9941 9.10645 22.9821 9.11435 22.9701 9.12225C22.9821 9.11435 22.9941 9.10645 23.0051 9.09855Z" fill="#2D0133"/>
<path d="M23.5549 7.21615C23.3019 7.31895 23.0489 7.42565 22.7999 7.54435C22.5469 7.66295 22.298 7.79345 22.052 7.92795C21.546 8.21265 21.0599 8.53695 20.5929 8.88485C20.1379 9.22895 19.715 9.60855 19.32 10.0159C19.13 10.2137 18.9479 10.4193 18.7739 10.6328C18.5839 10.8582 18.4019 11.0955 18.2439 11.3446C18.1809 11.4435 18.217 11.5779 18.311 11.6412C18.41 11.7045 18.545 11.6729 18.608 11.574C18.723 11.396 18.8369 11.2181 18.9599 11.048C19.0789 10.878 19.2089 10.7159 19.3399 10.5537C19.9679 9.81025 20.6959 9.16175 21.4909 8.60015C21.4829 8.60805 21.471 8.61595 21.459 8.62395C22.143 8.14545 22.8789 7.72625 23.6539 7.40595C23.7049 7.38215 23.7249 7.31105 23.6969 7.26355C23.6779 7.22405 23.6419 7.20825 23.6029 7.20825C23.5869 7.20825 23.5709 7.20825 23.5549 7.21615ZM19.328 10.5696C19.324 10.5735 19.32 10.5775 19.32 10.5814C19.32 10.5775 19.324 10.5735 19.328 10.5696Z" fill="#2D0133"/>
<path d="M37.6529 10.4113C37.6129 10.4508 37.6049 10.5299 37.6529 10.5655C38.1869 10.9926 38.6969 11.4513 39.1869 11.9258C39.4319 12.1592 39.6659 12.4004 39.8949 12.6495C40.1319 12.9066 40.3499 13.1755 40.5629 13.4523C40.8479 13.8319 41.1129 14.2273 41.3539 14.6347C41.4849 14.8561 41.6069 15.0815 41.7219 15.3069C41.8409 15.5402 41.9389 15.7775 42.0499 16.0148C42.0859 16.0899 42.1769 16.1492 42.2519 16.169C42.3389 16.1927 42.4339 16.1809 42.5129 16.1334C42.5879 16.0899 42.6469 16.0148 42.6669 15.9317C42.6709 15.9001 42.6749 15.8724 42.6789 15.8408C42.6789 15.7815 42.6629 15.7221 42.6309 15.6707C42.5089 15.3939 42.3589 15.129 42.2039 14.8719C42.0499 14.6149 41.8839 14.3697 41.7099 14.1285C41.3619 13.65 40.9669 13.211 40.5549 12.7879C40.1399 12.3648 39.7049 11.9654 39.2579 11.5778C38.7879 11.1705 38.2929 10.7949 37.8029 10.4113C37.7789 10.3915 37.7479 10.3796 37.7199 10.3796C37.6999 10.3796 37.6769 10.3875 37.6529 10.4113Z" fill="#2D0133"/>
<path d="M44.6201 19.4909C44.5731 19.5186 44.5451 19.5937 44.5811 19.6412C45.0951 20.3609 45.6051 21.1043 45.9571 21.9229C45.9531 21.915 45.9531 21.9071 45.9491 21.8992C46.0321 22.1009 46.1071 22.3025 46.1671 22.5121C46.2301 22.7296 46.2731 22.959 46.3051 23.1844C46.3011 23.1765 46.3011 23.1686 46.3011 23.1607C46.3291 23.3742 46.3411 23.5878 46.3411 23.8013C46.3411 24.0425 46.3171 24.2837 46.2851 24.521C46.2851 24.5171 46.2851 24.5171 46.2851 24.5131C46.2381 24.8611 46.1631 25.2012 46.0801 25.5413C45.9811 25.9525 45.8501 26.3519 45.7791 26.7672C45.7201 27.1231 45.6921 27.4829 45.7121 27.8428C45.7281 28.1552 45.7831 28.4676 45.8621 28.7681C46.0121 29.3336 46.2891 29.8477 46.5741 30.3499C46.7321 30.6307 46.8941 30.9114 47.0481 31.1962C47.2071 31.4928 47.3531 31.7973 47.4871 32.1057C47.4871 32.1017 47.4831 32.0978 47.4831 32.0978C47.4871 32.1017 47.4871 32.1057 47.4911 32.1136C47.5031 32.1413 47.5151 32.165 47.5271 32.1927C47.5191 32.1808 47.5151 32.165 47.5071 32.1492C47.5311 32.2125 47.5591 32.2718 47.5821 32.3351C47.5981 32.3667 47.6101 32.3983 47.6221 32.43C47.6571 32.4893 47.7051 32.5367 47.7641 32.5723C47.8551 32.6277 47.9661 32.6396 48.0691 32.6119C48.1681 32.5842 48.2511 32.517 48.3061 32.43C48.3571 32.3469 48.3811 32.2204 48.3461 32.1255C48.2071 31.7735 48.0531 31.4334 47.8831 31.0973C47.7291 30.8007 47.5631 30.5081 47.3891 30.2234C47.1081 29.7528 46.8191 29.2862 46.5981 28.78C46.4791 28.4953 46.4001 28.1987 46.3561 27.8942C46.3051 27.4394 46.3331 26.9807 46.3881 26.5299C46.4391 26.1582 46.5231 25.7904 46.5701 25.4187C46.6131 25.1023 46.6491 24.778 46.6691 24.4577C46.7001 23.9002 46.6651 23.3347 46.5381 22.7929C46.4161 22.2709 46.1941 21.7726 45.9371 21.3021C45.6011 20.6812 45.1941 20.1039 44.7831 19.5305C44.7591 19.4988 44.7231 19.4751 44.6881 19.4751C44.6561 19.4751 44.6361 19.483 44.6201 19.4909ZM46.2771 24.5408C46.2771 24.5526 46.2731 24.5606 46.2731 24.5685C46.2731 24.5566 46.2731 24.5487 46.2771 24.5408ZM46.5581 28.7207C46.5621 28.7286 46.5661 28.7365 46.5701 28.7444C46.5661 28.7365 46.5621 28.7286 46.5581 28.7207ZM47.4951 32.1532C47.4911 32.1413 47.4871 32.1294 47.4791 32.1176C47.4791 32.1136 47.4791 32.1136 47.4761 32.1097C47.4831 32.1255 47.4911 32.1373 47.4951 32.1532ZM46.2931 23.1607C46.2931 23.1567 46.2931 23.1488 46.2891 23.1449C46.2931 23.1528 46.2931 23.1567 46.2931 23.1607Z" fill="#2D0133"/>
<path d="M13.0401 26.5733C12.5581 27.5145 12.0121 28.4201 11.4821 29.3336C11.2171 29.7923 10.9601 30.2589 10.7191 30.7334C10.4851 31.1961 10.2561 31.6667 10.0581 32.1491C9.67114 33.0863 9.45312 34.1026 9.45312 35.115C9.45312 35.637 9.52113 36.1669 9.64313 36.677C9.70613 36.9341 9.79012 37.1792 9.88812 37.4244C10.0031 37.717 10.1371 37.9978 10.2881 38.2746C10.3831 38.4486 10.4851 38.6147 10.6001 38.7768C10.6591 38.8599 10.7271 38.9271 10.8301 38.9548C10.9281 38.9825 11.0351 38.9667 11.1221 38.9152C11.3001 38.8124 11.3671 38.5712 11.2611 38.3933C11.0231 38.0057 10.8021 37.6103 10.6161 37.1911C10.4101 36.6849 10.2521 36.155 10.1731 35.6172C10.1101 35.0755 10.1181 34.5376 10.1851 33.9998C10.2481 33.5411 10.3471 33.0903 10.4781 32.6474C10.6161 32.1729 10.7661 31.7023 10.9601 31.2475C10.9521 31.2633 10.9441 31.2831 10.9361 31.2989C11.6091 29.7171 12.5021 28.2421 13.2811 26.7157C13.3171 26.6485 13.3011 26.5654 13.2301 26.5259C13.2101 26.514 13.1821 26.5061 13.1591 26.5061C13.1111 26.5061 13.0641 26.5298 13.0401 26.5733ZM10.1931 33.9207C10.1931 33.9366 10.1891 33.9524 10.1851 33.9642L10.1931 33.9207Z" fill="#2D0133"/>
</svg>
