<svg width="64" height="64" viewBox="0 0 64 64" fill="none" xmlns="http://www.w3.org/2000/svg">
<path d="M59.225 35.0681C61.905 18.9488 51.01 3.70915 34.891 1.02945C18.771 -1.65035 3.53202 9.24455 0.852016 25.3639C-1.82798 41.4831 9.06702 56.7227 25.187 59.4025C41.306 62.0822 56.545 51.1873 59.225 35.0681Z" fill="#FEFEFE"/>
<path d="M26.513 21.4961H26.438C26.163 21.4961 25.911 21.5355 25.678 21.6024C25.458 21.6654 25.265 21.7795 25.096 21.937C25.056 21.9725 25.021 22.0158 24.985 22.0709C24.891 22.2008 24.824 22.3622 24.789 22.5394C24.726 22.8504 24.773 23.1575 24.828 23.4173C24.899 23.7559 25.025 24.0866 25.21 24.4291C25.363 24.7204 25.576 25.0157 25.863 25.3306C26.103 25.5984 26.391 25.8543 26.737 26.122C27.355 26.5905 28.084 27.0117 28.97 27.4054C29.962 27.8503 31.084 28.2361 32.406 28.5825C32.981 28.7361 33.584 28.8739 34.194 28.9959C32.249 29.0628 30.064 29.2479 27.702 29.5313C26.54 29.6731 25.355 29.8384 24.088 30.0313C23.481 30.1258 22.879 30.2203 22.277 30.3227L22.037 30.362L21.84 30.3975L21.604 30.4368L21.202 30.5077L21.056 30.5313C20.328 30.6534 19.604 30.7754 18.883 30.9092C17.533 31.1651 16.411 31.4132 15.352 31.6927C14.734 31.8581 14.163 32.0313 13.6 32.2202C13.017 32.421 12.517 32.6258 12.064 32.8502C11.608 33.0746 11.238 33.3108 10.927 33.5745C10.789 33.6966 10.671 33.8226 10.584 33.9525C10.474 34.106 10.399 34.2674 10.356 34.4328C10.277 34.7399 10.348 35.0903 10.557 35.421C10.655 35.5784 10.797 35.7399 10.986 35.9131C11.194 36.102 11.438 36.2792 11.714 36.4328C11.99 36.5863 12.301 36.7162 12.671 36.8225C12.832 36.8697 12.997 36.9091 13.163 36.9485C12.891 36.976 12.62 37.0469 12.387 37.1138C11.777 37.2831 11.261 37.4603 10.809 37.6453C10.427 37.8028 9.98603 38.0036 9.58803 38.2949C9.42703 38.413 9.28903 38.5351 9.17103 38.6728C9.14303 38.7043 9.11602 38.7398 9.09202 38.7791C9.06802 38.8146 9.04103 38.85 9.02103 38.8854C8.98203 38.9484 8.95002 39.0193 8.91502 39.1256C8.86402 39.2634 8.84802 39.4248 8.87202 39.5823C8.90302 39.7594 8.96604 39.9287 9.07204 40.0862C9.17504 40.2516 9.31603 40.409 9.50503 40.5744C9.68703 40.7319 9.91502 40.8972 10.206 41.0744C10.789 41.4366 11.466 41.6964 12.281 41.8775C12.533 41.9287 12.781 41.9759 13.013 42.0074C12.864 42.0153 12.714 42.0665 12.588 42.1137C12.352 42.2003 12.127 42.2988 11.919 42.409C11.738 42.4995 11.564 42.6098 11.403 42.7357C11.242 42.8657 11.116 43.0035 11.021 43.1373C10.915 43.2869 10.84 43.4483 10.801 43.6216C10.726 43.9601 10.809 44.3302 11.045 44.7278C11.289 45.1491 11.675 45.527 12.19 45.8538C12.643 46.1412 13.179 46.3616 13.875 46.5506C14.474 46.712 15.159 46.8262 15.958 46.8931C16.553 46.9443 17.155 46.9679 17.801 46.9679C17.954 46.9679 18.104 46.9679 18.261 46.964H18.383L18.533 46.9601C18.32 46.9837 18.119 47.0467 17.911 47.1136C17.537 47.2396 17.194 47.3774 16.867 47.5348C16.612 47.6608 16.399 47.7947 16.222 47.9482C16.159 48.0033 16.104 48.0663 16.053 48.1333C15.993 48.2159 15.958 48.2907 15.923 48.3892C15.875 48.523 15.891 48.6884 15.958 48.8301C16.025 48.9758 16.131 49.1017 16.281 49.2198C16.43 49.338 16.6 49.4364 16.808 49.5348C17.045 49.649 17.293 49.7356 17.505 49.8104C17.738 49.8891 18.001 49.9679 18.304 50.0427C18.789 50.1726 19.367 50.2907 20.072 50.4088C20.647 50.4994 21.182 50.5663 21.702 50.6135C21.954 50.6371 22.206 50.6489 22.458 50.6608C23.021 50.6804 23.576 50.6922 24.163 50.6922H24.261C26.442 50.6922 28.702 50.5387 30.977 50.2356C33.186 49.9403 35.438 49.4994 37.678 48.9167C38.78 48.6293 39.891 48.3065 40.969 47.96C41.851 47.6766 42.729 47.3774 43.544 47.0939L44.292 46.838C46.363 46.1294 48.571 45.3971 50.859 44.9522L50.898 44.9286C51.65 44.7987 52.398 44.6924 53.252 44.5979C54.059 44.4995 54.902 44.4208 55.752 44.3656C56.634 44.3026 57.508 44.2751 58.343 44.2751C59.142 44.2751 59.941 44.3066 60.721 44.3656C61.028 44.3893 61.335 44.4168 61.638 44.4522C61.65 44.4522 61.666 44.4562 61.681 44.4562C61.713 44.4837 61.725 44.4956 61.74 44.5034C61.776 44.527 61.815 44.5389 61.859 44.5389C61.929 44.5389 61.992 44.5074 62.028 44.4483C62.414 43.8223 62.717 43.0901 62.929 42.2712C63.13 41.4956 63.252 40.6571 63.303 39.7004C63.343 38.8421 63.319 37.9327 63.221 36.917C63.13 36.0233 62.977 35.0745 62.76 34.1021C62.5 32.9722 62.166 31.8895 61.768 30.8738C61.366 29.8463 60.925 28.9841 60.418 28.24C60.39 28.2007 60.366 28.1731 60.339 28.1534C60.355 28.1455 60.347 28.1022 60.343 28.0786C60.315 27.9881 60.229 27.929 60.134 27.929C60.111 27.929 60.087 27.9329 60.067 27.9408C59.311 28.1652 58.544 28.3503 57.788 28.492L57.839 28.5235C56.729 28.6928 55.709 28.803 54.808 28.8542C54.441 28.8778 54.036 28.8896 53.599 28.8896C52.997 28.8896 52.402 28.866 51.843 28.8227L51.886 28.866C49.741 28.6573 47.627 28.1928 45.603 27.4763C44.564 27.0983 43.56 26.6613 42.623 26.1771C42.387 26.059 42.154 25.9291 41.922 25.8031C41.804 25.7362 41.686 25.6692 41.568 25.6023C41.422 25.5196 41.28 25.4369 41.135 25.3621C40.658 25.1023 40.139 24.8582 39.587 24.6299C38.694 24.2559 37.713 23.9448 36.584 23.6771C35.666 23.4567 34.729 23.2795 33.902 23.122L33.446 23.0354C32.887 22.9252 32.32 22.815 31.757 22.6929C31.588 22.6575 31.253 22.5866 30.922 22.4921C30.662 22.4173 30.407 22.3425 30.147 22.2638L30.021 22.2244C29.765 22.1457 29.505 22.0709 29.245 21.9961C28.733 21.8543 28.048 21.6733 27.332 21.5709C27.017 21.5158 26.749 21.4961 26.513 21.4961Z" fill="#E0947D"/>
<path d="M36.745 7.28003C36.355 7.28003 35.958 7.32733 35.568 7.42573C35.174 7.52413 34.78 7.68553 34.391 7.89813C34.032 8.09503 33.694 8.35093 33.375 8.65013C32.8 9.19733 32.367 9.89023 32.123 10.654C31.977 10.2642 31.745 9.90993 31.43 9.60673C30.643 8.83123 29.584 8.60683 28.836 8.55173C28.718 8.54383 28.599 8.53983 28.481 8.53983C28.111 8.53983 27.722 8.57923 27.328 8.65793C26.836 8.75643 26.348 8.92573 25.879 9.16583C24.922 9.65403 24.178 10.4217 23.792 11.3232C23.596 11.7839 23.485 12.2878 23.462 12.8193C23.454 13.0358 23.458 13.2563 23.481 13.4728C23.399 13.4098 23.304 13.3508 23.206 13.2956C22.647 12.9807 21.974 12.8075 21.261 12.7917C21.237 12.7917 21.21 12.7917 21.186 12.7917C20.552 12.7917 19.891 12.9374 19.281 13.213C18.978 13.3508 18.686 13.5279 18.415 13.7445C18.289 13.8429 18.167 13.9531 18.052 14.0633C17.942 14.1736 17.828 14.3035 17.702 14.4688C17.576 14.6342 17.454 14.8232 17.352 15.0318C17.234 14.7877 17.08 14.5712 16.907 14.3783C16.612 14.0555 16.222 13.8114 15.781 13.6696C15.513 13.587 15.222 13.5437 14.915 13.5437C14.765 13.5437 14.616 13.5515 14.466 13.5712C14.009 13.6263 13.549 13.7641 13.06 13.9807C12.616 14.1814 12.186 14.4492 11.749 14.7956C11.344 15.1106 10.978 15.4846 10.655 15.8979C10.175 16.52 9.60004 17.5042 9.60004 18.6774C9.60004 19.3546 9.81302 20.0238 10.218 20.6104C10.509 21.0317 10.907 21.4214 11.391 21.7718C11.127 21.7088 10.848 21.6773 10.564 21.6773C10.127 21.6773 9.71004 21.7482 9.32804 21.8899C8.91504 22.0435 8.53303 22.2757 8.19403 22.5907C7.89103 22.8742 7.62803 23.2285 7.41103 23.6419C7.00503 24.4135 6.80104 25.3426 6.81704 26.3308C6.83204 27.2993 7.07603 28.2126 7.51703 28.9724C7.71803 29.3189 7.96603 29.626 8.25003 29.8858C8.54903 30.1575 8.89904 30.37 9.28504 30.5196C9.64704 30.6614 10.061 30.7322 10.513 30.7322C10.903 30.7322 11.297 30.6732 11.722 30.559C11.679 30.7362 11.659 30.9291 11.667 31.122C11.675 31.4015 11.746 31.6732 11.872 31.9291C11.982 32.1535 12.171 32.3582 12.415 32.5196C12.517 32.5865 12.643 32.6456 12.809 32.7007C12.875 32.7243 12.946 32.7401 13.017 32.7519C12.694 33.3031 12.462 33.8778 12.324 34.4566C12.179 35.0707 12.139 35.7006 12.21 36.3227C12.246 36.6179 12.305 36.9132 12.387 37.2006C12.466 37.4722 12.572 37.7439 12.706 38.0273C12.938 38.5234 13.269 39.0037 13.683 39.4604C14.06 39.8777 14.509 40.2517 15.017 40.5785C15.497 40.8856 16.021 41.1296 16.584 41.3107C17.171 41.4958 17.769 41.5942 18.363 41.5942C18.907 41.5942 19.43 41.5155 19.926 41.358C20.643 41.1296 21.312 40.7202 21.863 40.173C22.446 39.5903 22.922 38.8147 23.277 37.8738C23.3 37.8029 23.277 37.7242 23.218 37.6691C23.458 37.4329 23.714 37.2045 23.985 36.9959C24.568 36.551 25.182 36.1888 25.808 35.9211C26.324 35.7124 26.848 35.5668 27.375 35.488C27.662 35.4526 27.946 35.4329 28.245 35.4329C28.548 35.4329 28.859 35.4526 29.162 35.488C30.383 35.6573 31.532 36.0943 32.399 36.4565C32.883 36.6612 33.359 36.8817 33.836 37.0982L33.946 37.1494L34.001 37.173C34.509 37.4053 35.036 37.6494 35.56 37.8699C36.576 38.299 37.643 38.6494 38.725 38.9092C39.804 39.169 40.898 39.3265 41.969 39.3816C42.237 39.3974 42.505 39.4013 42.768 39.4013C43.583 39.4013 44.406 39.3344 45.217 39.2006C46.276 39.0273 47.335 38.7163 48.367 38.2793C48.867 38.0667 49.367 37.8148 49.855 37.5234C50.095 37.3817 50.335 37.2085 50.595 36.9919C51.032 36.6258 51.441 36.1613 51.808 35.618C52.138 35.1298 52.426 34.5668 52.654 33.9448C52.863 33.3818 53.008 32.7716 53.087 32.1338C53.158 31.5432 53.154 30.9448 53.067 30.3543C52.985 29.7874 52.812 29.2559 52.552 28.7756C52.437 28.5591 52.284 28.3347 52.091 28.1063C51.93 27.9173 51.733 27.7323 51.489 27.5512C51.111 27.2677 50.654 27.0552 50.13 26.9174C49.977 26.878 49.812 26.8465 49.611 26.815C49.796 26.7205 49.985 26.5788 50.17 26.4016C50.587 26.0079 50.914 25.4646 51.142 24.7875C51.339 24.2009 51.441 23.5159 51.449 22.76C51.457 22.0828 51.375 21.3781 51.205 20.6616C51.044 19.9963 50.815 19.3821 50.516 18.8428C50.229 18.3152 49.812 17.827 49.28 17.3861C48.745 16.9412 48.119 16.5751 47.426 16.2995C46.784 16.0436 46.107 15.9098 45.477 15.9098H45.398C44.69 15.9216 44.048 16.1223 43.54 16.4885C43.276 16.6735 43.044 16.9097 42.831 17.2089C42.761 17.3113 42.694 17.4215 42.635 17.5318C42.607 17.3428 42.536 17.1459 42.426 16.9255C42.241 16.5475 41.926 16.2168 41.54 15.9924C41.186 15.7838 40.745 15.6696 40.261 15.6578H40.221C40.083 15.6578 39.926 15.6696 39.745 15.6972C39.784 15.6775 39.824 15.642 39.867 15.5909C40.107 15.335 40.331 15.0397 40.536 14.709C40.91 14.0988 41.17 13.4019 41.284 12.6893C41.398 11.9728 41.363 11.2681 41.186 10.587C41.005 9.90993 40.65 9.27603 40.162 8.75243C39.658 8.20913 38.961 7.77613 38.15 7.50443C37.717 7.35483 37.237 7.28003 36.745 7.28003ZM22.048 39.3344C22.226 38.9801 22.434 38.6415 22.663 38.3266C22.474 38.6966 22.269 39.0352 22.048 39.3344Z" fill="#04BFBF"/>
<path d="M25.104 52.4598C25.104 53.7472 26.178 54.822 27.466 54.822C28.753 54.822 29.828 53.7472 29.828 52.4598C29.828 51.1724 28.753 50.0977 27.466 50.0977C26.178 50.0977 25.104 51.1724 25.104 52.4598Z" fill="#04BFBF"/>
<path d="M30.855 53.7358C30.855 54.2082 31.249 54.6019 31.721 54.6019C32.194 54.6019 32.587 54.2082 32.587 53.7358C32.587 53.2633 32.194 52.8697 31.721 52.8697C31.249 52.8657 30.855 53.2633 30.855 53.7358Z" fill="#04BFBF"/>
<path d="M22.8911 57.1333C22.8911 57.4049 23.1191 57.6333 23.3911 57.6333C23.6631 57.6333 23.8911 57.4049 23.8911 57.1333C23.8911 56.8616 23.6631 56.6333 23.3911 56.6333C23.1231 56.6333 22.8911 56.8616 22.8911 57.1333Z" fill="#04BFBF"/>
<path d="M52.4341 25.2364C52.4341 25.8899 52.9811 26.4411 53.6341 26.4411C54.2881 26.4411 54.8351 25.8939 54.8351 25.2364C54.8351 24.5789 54.2881 24.0356 53.6341 24.0356C52.9811 24.0356 52.4341 24.5829 52.4341 25.2364Z" fill="#04BFBF"/>
<path d="M17.623 10.5833C17.623 11.2998 18.226 11.9021 18.942 11.9021C19.659 11.9021 20.261 11.2998 20.261 10.5833C20.261 9.8668 19.659 9.2644 18.942 9.2644C18.226 9.2644 17.623 9.8628 17.623 10.5833Z" fill="#04BFBF"/>
<path d="M23.304 7.00438C23.304 7.24058 23.501 7.43738 23.738 7.43738C23.974 7.43738 24.174 7.24058 24.174 7.00438C24.174 6.76818 23.978 6.56738 23.738 6.56738C23.501 6.56738 23.304 6.76818 23.304 7.00438Z" fill="#04BFBF"/>
<path d="M10.624 23.6933C10.478 23.7209 10.344 23.776 10.21 23.835C10.076 23.8941 9.95403 23.9846 9.84003 24.0752C9.63103 24.2405 9.46604 24.4689 9.34804 24.7011C9.21804 24.9531 9.13903 25.2248 9.09203 25.5043C8.99403 26.0988 9.05304 26.7168 9.25304 27.2838C9.44604 27.8349 9.78103 28.3467 10.249 28.705C10.368 28.7955 10.498 28.8782 10.631 28.9451C10.686 28.9727 10.757 28.9609 10.793 28.9018C10.824 28.8507 10.809 28.768 10.749 28.7404C10.631 28.6814 10.521 28.6105 10.415 28.5318C10.277 28.4215 10.155 28.2995 10.045 28.1656C10.045 28.1656 10.045 28.1656 10.049 28.1696C9.90305 27.9767 9.78103 27.768 9.68703 27.5436C9.69003 27.5515 9.69003 27.5554 9.69403 27.5633C9.58003 27.2838 9.50503 26.9885 9.45803 26.6893C9.45803 26.6972 9.45803 26.7011 9.45803 26.709C9.45803 26.7011 9.45403 26.6893 9.45403 26.6814C9.45403 26.6735 9.45403 26.6696 9.45003 26.6617C9.45003 26.6657 9.45003 26.6696 9.45403 26.6696C9.42303 26.3901 9.41903 26.1106 9.45403 25.831C9.48603 25.6184 9.54103 25.4137 9.62403 25.2169C9.68703 25.0751 9.76503 24.9374 9.86003 24.8114C9.93503 24.7208 10.017 24.6382 10.108 24.5633C10.19 24.5082 10.273 24.4571 10.36 24.4137C10.478 24.3665 10.604 24.3311 10.73 24.3114C10.872 24.2956 11.009 24.2996 11.151 24.3114C11.265 24.3271 11.379 24.3547 11.494 24.3862C11.679 24.4413 11.879 24.3232 11.931 24.1382C11.958 24.0476 11.942 23.9453 11.895 23.8626C11.852 23.7878 11.769 23.713 11.683 23.7012C11.501 23.6697 11.324 23.6461 11.139 23.6382C11.12 23.6382 11.096 23.6382 11.076 23.6382C10.923 23.6461 10.773 23.6657 10.624 23.6933ZM11.183 24.3232C11.194 24.3232 11.206 24.3271 11.218 24.3271C11.206 24.3271 11.194 24.3271 11.183 24.3232ZM10.139 24.5437C10.131 24.5515 10.124 24.5555 10.116 24.5633L10.139 24.5437ZM9.87503 24.7956C9.87203 24.7996 9.86803 24.8035 9.86403 24.8074C9.86803 24.8035 9.87203 24.7996 9.87503 24.7956ZM9.45403 25.8547C9.45403 25.8625 9.45003 25.8743 9.45003 25.8822C9.45003 25.8743 9.45003 25.8625 9.45403 25.8547ZM9.45403 26.6814C9.45403 26.6853 9.45403 26.6893 9.45403 26.6893C9.45403 26.6814 9.45403 26.6775 9.45003 26.6696C9.45403 26.6735 9.45403 26.6775 9.45403 26.6814Z" fill="#04E0E0"/>
<path d="M13.938 15.0752C13.757 15.1106 13.588 15.1775 13.423 15.2563C13.123 15.3901 12.852 15.6066 12.623 15.8389C12.387 16.087 12.19 16.3743 12.037 16.6775C11.419 17.894 11.36 19.5081 12.222 20.6302C12.257 20.6735 12.289 20.7089 12.344 20.7246C12.395 20.7404 12.454 20.7325 12.501 20.705C12.588 20.6538 12.643 20.5121 12.576 20.4254C12.446 20.2522 12.336 20.0711 12.249 19.8703C12.249 19.8743 12.253 19.8743 12.253 19.8782C12.163 19.6499 12.104 19.4137 12.068 19.1696C12.033 18.8704 12.037 18.5751 12.076 18.2759C12.123 17.9767 12.202 17.6853 12.312 17.4058C12.423 17.146 12.564 16.9019 12.734 16.6775C12.875 16.5043 13.029 16.3429 13.202 16.2011C13.352 16.0909 13.513 15.9964 13.682 15.9177C13.836 15.8586 13.99 15.8153 14.151 15.7878C14.324 15.7681 14.493 15.772 14.663 15.7878C14.895 15.8271 15.119 15.8941 15.336 15.9846C15.427 16.024 15.556 15.9925 15.635 15.9452C15.722 15.8941 15.789 15.8114 15.816 15.713C15.844 15.6106 15.828 15.5004 15.777 15.4098C15.757 15.3822 15.738 15.3586 15.714 15.3311C15.663 15.2838 15.608 15.2484 15.541 15.2327C15.198 15.0909 14.832 15.0161 14.458 15.0161H14.442C14.281 15.0161 14.108 15.0397 13.938 15.0752ZM12.305 17.4176C12.301 17.4255 12.297 17.4295 12.297 17.4373C12.301 17.4295 12.301 17.4255 12.305 17.4176ZM12.257 19.89C12.261 19.8979 12.265 19.9097 12.269 19.9176C12.265 19.9097 12.261 19.8979 12.257 19.89Z" fill="#04E0E0"/>
<path d="M36.4099 9.18161C36.1859 9.18561 35.9649 9.21311 35.7449 9.24861C34.8589 9.38631 34.0209 9.84301 33.4539 10.5399C33.1739 10.8824 32.9579 11.2682 32.7689 11.6658C32.6149 11.9887 32.4729 12.3233 32.3359 12.654C32.2249 12.5162 32.1069 12.3823 31.9809 12.2603C31.7329 12.0201 31.4459 11.8154 31.1499 11.6422C30.5479 11.2879 29.8669 11.0753 29.1739 11.0084C28.5209 10.9454 27.8509 11.0477 27.2529 11.3272C26.6189 11.6225 26.1349 12.1619 25.8399 12.7878C25.8039 12.8626 25.8239 12.9493 25.8989 12.9886C25.9659 13.0241 26.0639 13.0044 26.0989 12.9296C26.1859 12.7485 26.2839 12.5792 26.3989 12.4178C26.5319 12.2446 26.6779 12.0871 26.8469 11.9493C27.0319 11.8036 27.2329 11.6816 27.4459 11.5831C27.6899 11.4768 27.9419 11.406 28.2059 11.3627C28.5209 11.3194 28.8359 11.3154 29.1509 11.3469C29.5279 11.3902 29.8949 11.4847 30.2529 11.6225C30.5799 11.7524 30.8869 11.9217 31.1739 12.1225C31.4379 12.3194 31.6779 12.5398 31.8869 12.7957C31.8749 12.78 31.8629 12.7682 31.8509 12.7524C31.9849 12.9138 32.1029 13.087 32.1979 13.276C32.2329 13.3469 32.3279 13.3902 32.4059 13.3902C32.4929 13.3902 32.5679 13.339 32.6109 13.2642C32.8039 12.9296 32.9579 12.5752 33.1269 12.2288C33.2919 11.8863 33.4769 11.5556 33.6979 11.2446C33.8629 11.0241 34.0479 10.8233 34.2569 10.6422C34.4769 10.4651 34.7129 10.3233 34.9649 10.2052C35.2329 10.091 35.5089 10.0084 35.7959 9.95721C36.1349 9.90601 36.4769 9.89811 36.8199 9.93361C37.1069 9.97291 37.3909 10.0399 37.6619 10.1383C37.8749 10.2249 38.0759 10.3312 38.2609 10.4611C38.4179 10.5792 38.5639 10.7131 38.6899 10.8666C38.7999 11.0123 38.8939 11.1658 38.9729 11.3272C39.0129 11.4178 39.0439 11.5083 39.0719 11.6028C39.1349 11.8076 39.3509 11.9296 39.5599 11.8705C39.7639 11.8115 39.8899 11.5871 39.8269 11.3824C39.7639 11.1776 39.6779 10.9808 39.5789 10.7918C39.4729 10.5989 39.3349 10.4218 39.1899 10.2603C39.0679 10.1225 38.9259 10.0044 38.7759 9.89421C38.5989 9.76431 38.4139 9.65411 38.2169 9.55961C37.8429 9.38631 37.4459 9.27611 37.0359 9.22891C36.8469 9.20921 36.6619 9.19341 36.4729 9.19341C36.4499 9.17771 36.4299 9.17771 36.4099 9.18161ZM38.6499 10.8036C38.6579 10.8154 38.6699 10.8273 38.6779 10.8391C38.6699 10.8273 38.6579 10.8154 38.6499 10.8036ZM28.1819 11.3587C28.1739 11.3587 28.1699 11.3627 28.1619 11.3627C28.1699 11.3587 28.1739 11.3587 28.1819 11.3587ZM26.3989 12.4099C26.3909 12.4178 26.3869 12.4256 26.3789 12.4335C26.3869 12.4256 26.3909 12.4178 26.3989 12.4099Z" fill="#04E0E0"/>
<path d="M38.7801 13.6108C38.7841 13.8273 38.9651 13.9966 39.1821 13.9966C39.3941 13.9966 39.5721 13.8076 39.5681 13.5951C39.5641 13.3785 39.3831 13.2092 39.1661 13.2092C38.9541 13.2092 38.7761 13.3982 38.7801 13.6108Z" fill="#04E0E0"/>
<path d="M46.292 17.7481C46.06 17.7481 45.831 17.7835 45.607 17.8347C45.505 17.8583 45.4181 17.8937 45.3511 17.9803C45.2881 18.063 45.257 18.1693 45.272 18.2717C45.288 18.374 45.339 18.4646 45.418 18.5276C45.493 18.5866 45.6151 18.6299 45.7131 18.6063C45.9491 18.5512 46.19 18.5118 46.43 18.5079C46.607 18.5118 46.784 18.5355 46.961 18.5788C47.111 18.626 47.2571 18.689 47.3941 18.7677C47.5281 18.8504 47.65 18.9488 47.76 19.0551C47.914 19.2205 48.048 19.4016 48.166 19.5945C48.331 19.8898 48.453 20.2047 48.544 20.5275L48.54 20.5039C48.544 20.5157 48.544 20.5275 48.548 20.5393L48.56 20.5827L48.548 20.5472C48.682 21.063 48.741 21.5984 48.741 22.1338C48.741 22.1062 48.741 22.0826 48.741 22.0551C48.737 22.622 48.6701 23.1889 48.5281 23.7361C48.4341 24.0708 48.312 24.3975 48.138 24.7007C48.099 24.7637 48.064 24.8227 48.02 24.8818C47.938 24.9999 47.949 25.1574 48.064 25.2479C48.17 25.3306 48.347 25.3188 48.43 25.2046C48.76 24.7322 48.965 24.1889 49.103 23.6298C49.26 22.9999 49.316 22.3503 49.3 21.7047C49.288 21.063 49.19 20.4212 48.985 19.811C48.796 19.248 48.469 18.7205 48.02 18.3268C47.717 18.0591 47.347 17.8937 46.953 17.8032C46.749 17.752 46.544 17.7441 46.335 17.7441H46.292V17.7481ZM46.8901 18.563C46.8981 18.567 46.906 18.5669 46.918 18.5709C46.91 18.5669 46.8981 18.563 46.8901 18.563ZM47.343 18.7402C47.351 18.7441 47.363 18.752 47.371 18.7559C47.363 18.752 47.355 18.7441 47.343 18.7402ZM48.5321 23.744C48.5281 23.7637 48.52 23.7873 48.516 23.807C48.52 23.7873 48.5241 23.7676 48.5321 23.744ZM48.548 20.5512L48.544 20.5433C48.544 20.5393 48.54 20.5354 48.54 20.5315C48.544 20.5393 48.548 20.5433 48.548 20.5512Z" fill="#04E0E0"/>
<path d="M32.375 18.6656C32.308 18.6852 32.28 18.7482 32.292 18.8112C32.391 19.4608 32.69 20.0632 33.15 20.5356C33.576 20.9686 34.143 21.26 34.737 21.3584C35.332 21.4608 35.961 21.3741 36.489 21.0671C36.623 20.9883 36.749 20.8899 36.867 20.7875C37.001 20.6694 37.115 20.5277 37.221 20.386C37.32 20.2521 37.398 20.1065 37.469 19.9569C37.56 19.7639 37.631 19.5632 37.682 19.3584C37.729 19.1734 37.627 18.9805 37.438 18.9293C37.347 18.9057 37.249 18.9175 37.166 18.9647C37.091 19.0081 37.024 19.0868 37.005 19.1734C36.965 19.3663 36.91 19.5553 36.839 19.7403C36.761 19.9135 36.666 20.0789 36.556 20.2324C36.461 20.3466 36.363 20.449 36.249 20.5435C36.111 20.6458 35.961 20.7324 35.804 20.8033C35.643 20.8663 35.477 20.9096 35.304 20.9332C35.111 20.9529 34.914 20.9529 34.721 20.9293C34.729 20.9293 34.741 20.9332 34.749 20.9332C34.741 20.9332 34.729 20.9293 34.721 20.9293L34.694 20.9253C34.702 20.9253 34.713 20.9253 34.721 20.9293C34.493 20.8938 34.272 20.8309 34.064 20.7442C33.847 20.6498 33.647 20.5317 33.458 20.3899C33.469 20.3978 33.477 20.4057 33.489 20.4175C33.312 20.2797 33.158 20.1222 33.017 19.949C32.883 19.7718 32.776 19.5829 32.69 19.3781C32.694 19.3899 32.698 19.3978 32.702 19.4057C32.619 19.1931 32.56 18.9766 32.524 18.7522C32.517 18.697 32.458 18.6656 32.406 18.6656C32.395 18.6616 32.387 18.6616 32.375 18.6656ZM35.363 20.9214C35.343 20.9253 35.324 20.9253 35.304 20.9293C35.324 20.9253 35.343 20.9253 35.363 20.9214ZM34.721 20.9253C34.721 20.9253 34.717 20.9253 34.721 20.9253C34.717 20.9253 34.717 20.9253 34.721 20.9253Z" fill="#04E0E0"/>
<path d="M50.4179 30.8461C50.4179 31.102 50.4059 31.3579 50.3749 31.6099C50.3749 31.602 50.3749 31.5941 50.3779 31.5862C50.3469 31.8343 50.2999 32.0784 50.2369 32.3185C50.1699 32.5705 50.0829 32.8146 49.9809 33.0547C49.7999 33.4681 49.5749 33.8578 49.2999 34.22C49.0709 34.5074 48.8119 34.7673 48.5199 34.9956C48.1459 35.2791 47.741 35.5153 47.312 35.7003C46.957 35.846 46.595 35.9523 46.221 36.035C46.036 36.0743 45.9299 36.2869 45.9769 36.4641C46.0279 36.6491 46.2249 36.7554 46.4059 36.7082C47.0519 36.5468 47.6779 36.279 48.2289 35.8972C48.4969 35.7082 48.7489 35.4956 48.9769 35.2633C49.2009 35.035 49.4019 34.787 49.5869 34.5232C49.9489 34.0153 50.2129 33.4405 50.3859 32.8421C50.5709 32.1965 50.6459 31.5154 50.6419 30.8422C50.6419 30.7831 50.595 30.7319 50.532 30.7319C50.469 30.7359 50.4179 30.7871 50.4179 30.8461ZM49.997 33.0153C49.993 33.0232 49.989 33.0272 49.989 33.035C49.989 33.0272 49.993 33.0232 49.997 33.0153Z" fill="#04E0E0"/>
<path d="M14.1709 35.4212C14.0759 35.4487 14.0329 35.5432 14.0529 35.6338C14.1349 36.0156 14.2689 36.3818 14.4459 36.7282C14.6229 37.0786 14.8559 37.3975 15.1119 37.6888C15.6309 38.2754 16.2969 38.7321 17.0169 39.0392C17.7299 39.3423 18.5249 39.4841 19.2959 39.3975C19.4889 39.3738 19.6779 39.3384 19.8669 39.2911C20.0719 39.236 20.2689 39.1612 20.4659 39.0746C20.8439 38.9053 21.1939 38.6612 21.4929 38.3778C21.6389 38.24 21.6309 37.9998 21.4929 37.8581C21.3519 37.7164 21.1149 37.7164 20.9739 37.8581C20.8549 37.9802 20.7299 38.0943 20.5959 38.1967C20.3909 38.3502 20.1699 38.4762 19.9379 38.5864C19.6549 38.7045 19.3629 38.7794 19.0599 38.8266C18.7339 38.866 18.4029 38.862 18.0759 38.8187C17.7019 38.7597 17.3359 38.6612 16.9859 38.5195C16.6149 38.3581 16.2689 38.1573 15.9459 37.9132C15.9619 37.925 15.9739 37.9368 15.9889 37.9487C15.6589 37.6928 15.3599 37.3975 15.1039 37.0668C14.8949 36.7873 14.7179 36.492 14.5799 36.1731L14.5999 36.2125C14.5089 35.9959 14.4379 35.7755 14.3869 35.5471C14.3709 35.4723 14.2969 35.4212 14.2219 35.4212C14.1979 35.4172 14.1819 35.4172 14.1709 35.4212ZM19.0519 38.8227L18.9889 38.8305C19.0129 38.8266 19.0329 38.8266 19.0519 38.8227Z" fill="#04E0E0"/>
<path d="M27.158 51.5822C27.158 51.7987 27.336 51.9759 27.552 51.9759C27.769 51.9759 27.946 51.7987 27.946 51.5822C27.946 51.3656 27.769 51.1885 27.552 51.1885C27.336 51.1885 27.158 51.3656 27.158 51.5822Z" fill="#04E0E0"/>
<path d="M28.218 52.7986C28.218 52.9404 28.336 53.0545 28.473 53.0545C28.615 53.0545 28.729 52.9364 28.729 52.7986C28.729 52.6608 28.611 52.5427 28.473 52.5427C28.336 52.5427 28.218 52.6569 28.218 52.7986Z" fill="#04E0E0"/>
<path d="M53.6741 24.941C53.6741 25.0984 53.8041 25.2284 53.9611 25.2284C54.1181 25.2284 54.248 25.0984 54.248 24.941C54.248 24.7835 54.1181 24.6536 53.9611 24.6536C53.8041 24.6536 53.6741 24.7874 53.6741 24.941Z" fill="#04E0E0"/>
<path d="M18.324 10.7129C18.324 10.8665 18.454 11.0003 18.611 11.0003C18.765 11.0003 18.899 10.8704 18.899 10.7129C18.899 10.5555 18.769 10.4255 18.611 10.4255C18.458 10.4255 18.324 10.5555 18.324 10.7129Z" fill="#04E0E0"/>
<path d="M22.879 15.0713C22.694 15.0713 22.517 15.1028 22.359 15.1618C22.064 15.276 21.824 15.5319 21.678 15.8862C21.607 16.0634 21.556 16.272 21.525 16.5161C21.489 16.7996 21.485 17.0949 21.517 17.4019C21.548 17.709 21.623 18.0397 21.749 18.4059C21.804 18.5673 21.863 18.7208 21.93 18.8783C21.733 18.6972 21.533 18.5279 21.324 18.3586C20.848 17.9689 20.407 17.646 19.981 17.3744C19.659 17.1697 19.226 16.9098 18.753 16.7523C18.556 16.6854 18.379 16.6461 18.206 16.6303C18.163 16.6264 18.123 16.6224 18.08 16.6224C18.037 16.6224 17.993 16.6224 17.95 16.6264C17.875 16.6303 17.796 16.646 17.694 16.6775C17.556 16.7169 17.419 16.7957 17.304 16.9059C17.182 17.024 17.084 17.1736 17.009 17.3508C16.938 17.524 16.887 17.7287 16.859 17.9807C16.824 18.2877 16.836 18.5988 16.852 18.8389C16.891 19.52 17.068 20.2247 17.391 20.9924C17.489 21.2286 17.596 21.453 17.706 21.6656C17.596 21.5711 17.474 21.4845 17.352 21.4018C17.147 21.2601 16.938 21.1341 16.726 21.0239C16.541 20.9255 16.352 20.8467 16.163 20.7916C15.97 20.7365 15.789 20.709 15.619 20.709C15.434 20.709 15.261 20.7405 15.104 20.8074C14.789 20.9412 14.537 21.2168 14.348 21.6341C14.147 22.0751 14.06 22.6065 14.088 23.2089C14.115 23.7443 14.241 24.3112 14.489 24.9884C14.702 25.575 15.001 26.1931 15.407 26.882C15.761 27.4923 16.182 28.13 16.694 28.8347L16.745 28.9056L16.836 29.0276C16.674 28.8899 16.501 28.7599 16.332 28.63C16.005 28.3899 15.694 28.1891 15.387 28.0198C15.139 27.882 14.907 27.7875 14.682 27.7324C14.604 27.7127 14.521 27.7009 14.438 27.7009C14.332 27.7009 14.249 27.7127 14.155 27.7403C14.021 27.7796 13.899 27.882 13.824 28.0119C13.745 28.1497 13.706 28.3072 13.694 28.4922C13.686 28.6733 13.698 28.8662 13.737 29.1024C13.781 29.3662 13.852 29.6182 13.915 29.8308C13.986 30.0788 14.076 30.3347 14.182 30.6182C14.371 31.1182 14.608 31.6575 14.903 32.2677C15.159 32.7953 15.411 33.2677 15.674 33.7205C15.8 33.9409 15.934 34.1535 16.068 34.3661C16.359 34.8149 16.671 35.2795 17.021 35.7795C18.281 37.5826 19.726 39.3699 21.312 41.0904C22.812 42.7163 24.47 44.3068 26.241 45.8107C27.092 46.5312 27.989 47.2516 28.918 47.9524C29.643 48.4996 30.387 49.039 31.111 49.5626L31.753 50.0272C33.524 51.3106 35.391 52.6964 37.076 54.3184C37.076 54.3184 37.091 54.3302 37.095 54.3302C37.099 54.3302 37.107 54.3381 37.107 54.3381C37.607 54.8381 38.131 55.3853 38.741 56.0703C39.296 56.6884 39.843 57.3341 40.371 57.9797C41.493 59.3655 42.43 60.6962 43.233 62.0426C43.39 62.3064 43.544 62.5741 43.69 62.8458C43.697 62.8615 43.709 62.8772 43.721 62.8969C43.709 62.9166 43.705 62.9442 43.709 62.9678C43.713 63.0741 43.8 63.1607 43.902 63.1607C44.642 63.1135 45.41 62.9402 46.197 62.645C46.945 62.3655 47.701 61.9796 48.508 61.4718C49.237 61.0111 49.969 60.4679 50.737 59.8065C51.433 59.2041 52.119 58.5348 52.772 57.8144C53.532 56.9719 54.229 56.0782 54.843 55.1491C55.453 54.2239 55.902 53.3696 56.221 52.535C56.233 52.4995 56.244 52.4641 56.244 52.4247C56.268 52.4169 56.292 52.3972 56.311 52.3736C56.378 52.287 56.359 52.1649 56.272 52.094C55.67 51.6177 55.075 51.0941 54.504 50.5429L54.536 50.5862C53.8 49.8579 53.111 49.0941 52.493 48.3107C51.898 47.5587 51.331 46.7359 50.815 45.8658L50.835 45.9131C49.76 44.0824 48.914 42.0864 48.327 39.9801C48.04 38.9211 47.819 37.8503 47.674 36.7912C47.638 36.5314 47.607 36.2676 47.575 36.0078C47.56 35.87 47.548 35.7362 47.536 35.5984C47.52 35.433 47.504 35.2716 47.485 35.1062C47.422 34.559 47.323 33.9921 47.193 33.4212C46.985 32.4803 46.674 31.5 46.245 30.4174C45.91 29.5709 45.528 28.7245 45.158 27.9096L44.965 27.4844C44.729 26.9608 44.497 26.4332 44.272 25.9017C44.174 25.6695 44.06 25.3899 43.957 25.1025C43.871 24.8466 43.784 24.5947 43.697 24.3388C43.599 24.0396 43.497 23.7443 43.394 23.4451C43.201 22.9018 42.957 22.2601 42.642 21.642C42.489 21.3467 42.339 21.0948 42.182 20.8782C42.024 20.6538 41.847 20.4688 41.662 20.3231C41.481 20.1814 41.276 20.0869 41.056 20.0475C41.001 20.0357 40.946 20.0318 40.886 20.0318C40.729 20.0318 40.556 20.0712 40.394 20.142C40.115 20.2641 39.89 20.4806 39.705 20.6735C39.473 20.9176 39.276 21.2089 39.099 21.5633C38.95 21.8585 38.831 22.201 38.741 22.6144C38.662 22.9609 38.615 23.3428 38.599 23.7837C38.568 24.5474 38.646 25.386 38.831 26.3466C39.04 27.4135 39.371 28.5552 39.843 29.8308C40.052 30.3898 40.28 30.9607 40.532 31.5276C39.229 29.8662 37.816 28.1891 36.331 26.5395C35.572 25.6931 34.757 24.823 33.847 23.8703C33.422 23.4294 32.997 22.9924 32.568 22.5554C32.41 22.394 32.249 22.2325 32.087 22.0711L31.796 21.7798L31.694 21.6735C31.178 21.1499 30.658 20.6263 30.135 20.1105C29.147 19.146 28.296 18.3744 27.469 17.6775C26.966 17.2563 26.497 16.8862 26.029 16.5476C25.536 16.1933 25.08 15.898 24.631 15.6539C24.186 15.4099 23.781 15.2445 23.387 15.1461C23.206 15.0949 23.036 15.0713 22.879 15.0713ZM24.966 22.4254C24.91 22.3664 24.855 22.3073 24.804 22.2483C24.698 22.1341 24.592 22.016 24.489 21.8979C24.647 22.0751 24.808 22.2522 24.966 22.4254Z" fill="#FFB39C"/>
<path d="M13.8161 28.0078C13.7381 28.1496 13.6941 28.3071 13.6821 28.4921C13.6751 28.6693 13.6901 28.8622 13.7261 29.1023C13.7771 29.3858 13.8521 29.6535 13.9031 29.8306C13.9741 30.0826 14.0641 30.3385 14.1711 30.618C14.3561 31.1101 14.5921 31.6534 14.8911 32.2676C15.1391 32.7794 15.3911 33.2558 15.6631 33.7203C15.7891 33.9368 15.9231 34.1534 16.0561 34.366C16.3481 34.8148 16.6591 35.2754 17.0091 35.7793C18.2691 37.5785 19.7141 39.3698 21.3001 41.0942C22.8081 42.724 24.4661 44.3146 26.2291 45.8145C27.0721 46.5271 27.9731 47.2476 28.9061 47.9562C29.5761 48.4601 30.2691 48.9641 30.8911 49.4168L31.0951 49.5664L31.7371 50.031C33.5091 51.3144 35.3831 52.7081 37.0601 54.3183C37.6741 54.9206 38.1941 55.4757 38.7251 56.0741C39.2681 56.6804 39.8161 57.3221 40.3551 57.9835C41.4771 59.3693 42.4141 60.7 43.2171 62.0464C43.3751 62.3102 43.5281 62.5779 43.6741 62.8496C43.6781 62.8653 43.6901 62.8811 43.7051 62.9007C43.6971 62.9125 43.6901 62.9401 43.6901 62.9716C43.6941 63.0779 43.7881 63.1724 43.8941 63.1724C44.6271 63.1251 45.4021 62.9519 46.1931 62.6566C46.3391 62.6015 46.4851 62.5425 46.6271 62.4834C46.1701 61.7551 45.6901 61.0425 45.1821 60.3496C44.0871 58.8378 42.8941 57.4048 41.6501 56.0151C41.6541 56.0229 41.6621 56.0269 41.6661 56.0348C41.1461 55.4521 40.6191 54.8773 40.0721 54.3183C39.5911 53.8301 39.0991 53.3577 38.5991 52.8931C37.5911 51.964 36.5481 51.0782 35.4811 50.216C32.6431 47.9286 29.6661 45.8224 26.7881 43.5862C25.3551 42.476 23.9421 41.3304 22.5921 40.1178C21.2691 38.9328 20.0051 37.6809 18.8481 36.3344C17.6941 34.9919 16.6431 33.5589 15.7611 32.0235C15.3201 31.2519 14.9191 30.4606 14.5641 29.6495C14.3161 29.0787 14.0921 28.5 13.8871 27.9094C13.8671 27.933 13.8401 27.9685 13.8161 28.0078Z" fill="#F3AB95"/>
<path d="M16.9341 29.1025C16.8911 29.1301 16.8711 29.201 16.9071 29.2403C17.5211 29.9569 18.1191 30.6813 18.7301 31.3978C19.3521 32.13 19.9781 32.8544 20.6271 33.5631C21.2691 34.2599 21.9341 34.9331 22.6271 35.5748C23.3361 36.2284 24.0841 36.8465 24.8711 37.4016C24.9071 37.4252 24.9421 37.4449 24.9891 37.4409C25.0331 37.437 25.0761 37.4173 25.1031 37.3858C25.1591 37.3228 25.1591 37.2087 25.0881 37.1575C24.5681 36.7756 24.0641 36.3819 23.5721 35.9646C23.0641 35.5355 22.5681 35.0827 22.0881 34.6221C21.1431 33.7127 20.2491 32.7481 19.3711 31.7757C19.3751 31.7796 19.3751 31.7796 19.3791 31.7836C18.9931 31.3545 18.6191 30.9253 18.2411 30.4923C17.8481 30.0435 17.4581 29.5907 17.0721 29.138C17.0481 29.1104 17.0171 29.0947 16.9851 29.0947C16.9661 29.0868 16.9501 29.0907 16.9341 29.1025ZM19.3671 31.7678C19.3631 31.7639 19.3631 31.7639 19.3591 31.76C19.3631 31.76 19.3671 31.7639 19.3671 31.7678Z" fill="#E9A48F"/>
<path d="M18.0409 21.8544C17.9969 21.8859 17.9859 21.9449 18.0129 21.9922C18.3439 22.5001 18.6859 23 19.0409 23.4922C19.3949 23.9882 19.7649 24.4685 20.1429 24.9449C20.9029 25.9015 21.6979 26.8307 22.5129 27.7401C22.5169 27.744 22.5209 27.748 22.5209 27.748L22.5369 27.7677C23.3869 28.7164 24.2569 29.6534 25.1429 30.5707C26.0329 31.4959 26.9219 32.429 27.8629 33.3069C27.9539 33.3935 28.1109 33.3738 28.1859 33.2833C28.2249 33.24 28.2449 33.1809 28.2409 33.1179C28.2369 33.0982 28.2329 33.0786 28.2289 33.0589C28.2139 33.0195 28.1939 32.988 28.1619 32.9604C27.6389 32.3975 27.0879 31.8581 26.5369 31.3187C26.2689 31.0589 25.9969 30.7991 25.7289 30.5353C25.4419 30.2558 25.1589 29.9763 24.8709 29.6967C23.7609 28.6101 22.6739 27.4999 21.6389 26.3425C21.6469 26.3504 21.6549 26.3582 21.6629 26.3661C21.0369 25.6653 20.4299 24.9449 19.8519 24.2087C19.2609 23.4528 18.6979 22.6812 18.1749 21.878C18.1549 21.8505 18.1229 21.8347 18.0919 21.8347C18.0759 21.8387 18.0559 21.8426 18.0409 21.8544Z" fill="#E9A48F"/>
<path d="M22.1229 18.8585C22.0799 18.89 22.0679 18.9491 22.0959 18.9963C22.5169 19.6144 22.9499 20.2207 23.3949 20.8191C23.8549 21.4372 24.3359 22.0356 24.8279 22.634C25.3039 23.2088 25.7879 23.7757 26.2809 24.3348C26.7849 24.9096 27.2959 25.4686 27.8079 26.0355C27.7959 26.0237 27.7839 26.0119 27.7729 26.0001C28.3319 26.6261 28.9029 27.2363 29.4809 27.8465C30.0639 28.4567 30.6389 29.0748 31.2449 29.6614C31.3629 29.7756 31.5639 29.748 31.6659 29.6299C31.7169 29.5709 31.7449 29.4961 31.7369 29.4173C31.7329 29.3347 31.6939 29.2677 31.6349 29.2087C31.1619 28.7323 30.6699 28.2717 30.1819 27.8032C29.6779 27.319 29.1779 26.8347 28.6819 26.3465C28.2019 25.8741 27.7209 25.4017 27.2569 24.9174C26.7809 24.4214 26.3119 23.9175 25.8549 23.4057C25.8549 23.4096 25.8589 23.4096 25.8589 23.4096C25.2179 22.6891 24.5959 21.9569 23.9889 21.2049C23.3869 20.453 22.8039 19.6813 22.2609 18.8861C22.2409 18.8585 22.2099 18.8428 22.1779 18.8428C22.1589 18.8428 22.1389 18.8467 22.1229 18.8585ZM25.8509 23.4017C25.8439 23.3939 25.8399 23.386 25.8319 23.3781C25.8399 23.386 25.8439 23.3939 25.8509 23.4017Z" fill="#E9A48F"/>
</svg>
