<svg width="62" height="65" viewBox="0 0 62 65" fill="none" xmlns="http://www.w3.org/2000/svg">
<path d="M61.5301 36.3317C64.3281 19.4968 52.9501 3.58062 36.1151 0.78192C19.2801 -2.01678 3.36407 9.36182 0.565072 26.1967C-2.23393 43.0316 9.14507 58.9478 25.9801 61.7465C42.8151 64.5452 58.7311 53.1666 61.5301 36.3317Z" fill="#FEFEFE"/>
<path d="M34.734 5.552C35.737 5.552 36.782 5.6383 37.838 5.811C39.701 6.1153 41.539 6.7567 43.155 7.6778C43.957 8.1341 44.726 8.6851 45.449 9.3224C46.119 9.9145 46.753 10.6053 47.332 11.3824C47.85 12.0732 48.323 12.8379 48.743 13.6603C48.936 14.0385 49.125 14.4456 49.318 14.902C49.433 15.1775 49.536 15.4571 49.643 15.7326C49.713 15.9135 49.779 16.0985 49.853 16.2794C50.161 17.0401 50.519 17.6897 50.947 18.2654C51.407 18.8616 51.974 19.4166 52.739 20.0128C53.109 20.2965 53.492 20.572 53.87 20.8434C54.088 20.9996 54.306 21.1559 54.52 21.3162C55.256 21.8549 55.963 22.3976 56.53 23.0719C56.834 23.4379 57.065 23.7956 57.229 24.1739C57.422 24.6015 57.517 25.0497 57.517 25.4978C57.517 25.8802 57.41 26.275 57.184 26.7396C57.106 26.8999 57.02 27.0521 56.933 27.2042C56.826 27.3974 56.711 27.5989 56.621 27.8045L56.641 27.7511L56.617 27.8045H56.621C56.551 27.9895 56.501 28.154 56.473 28.3226C56.456 28.487 56.456 28.6474 56.473 28.8119C56.506 29.038 56.563 29.2683 56.658 29.5109C56.863 30.0043 57.155 30.4607 57.439 30.9047C57.694 31.3036 57.957 31.7188 58.158 32.1588C58.574 33.0716 58.677 34.1735 58.471 35.5222C58.311 36.5789 57.941 37.6808 57.336 38.8896C56.892 39.786 56.304 40.6618 55.593 41.4965C54.359 42.9397 52.76 44.202 50.704 45.3532C49.063 46.2701 47.23 47.0555 44.927 47.8285C44.701 47.9025 44.467 47.9806 44.236 48.0505C44.207 48.0669 44.179 48.0834 44.133 48.0998C43.714 48.252 43.262 48.363 42.707 48.4534C42.226 48.5316 41.699 48.585 41.091 48.6179C40.61 48.6426 40.083 48.6549 39.442 48.6549C39.064 48.6549 38.69 48.6508 38.311 48.6467L37.83 48.6426H37.608C37.296 48.6426 36.983 48.6467 36.675 48.6508C36.391 48.6549 36.107 48.659 35.828 48.659H35.713C35.219 48.659 34.73 48.6508 34.241 48.6344C31.564 48.5521 28.933 48.2808 26.416 47.8285C24.936 47.5612 23.591 47.2446 22.309 46.8581C20.898 46.4346 19.652 45.9494 18.505 45.382C15.952 44.1156 14.225 42.5079 13.366 40.6083C13.123 40.0738 12.95 39.5187 12.848 38.9554C12.737 38.3633 12.7 37.7425 12.737 37.1052C12.774 36.4555 12.889 35.7689 13.078 35.0617C13.127 34.8766 13.181 34.6957 13.242 34.5148C13.32 34.301 13.415 34.0872 13.538 33.8487C13.74 33.454 13.991 33.088 14.246 32.718L14.361 32.5535C14.673 32.1012 14.998 31.6366 15.224 31.1309C15.323 30.8924 15.393 30.6457 15.434 30.4031C15.454 30.2098 15.454 30.0125 15.43 29.8151C15.401 29.6383 15.356 29.4615 15.29 29.2683C15.257 29.1778 15.224 29.0915 15.187 29.0051L15.142 28.8982C15.088 28.7666 15.039 28.6351 14.99 28.5035C14.809 28.0101 14.665 27.5249 14.57 27.0603C14.472 26.5957 14.422 26.1269 14.414 25.6788C14.41 25.2306 14.463 24.7619 14.574 24.2767C14.78 23.3844 15.22 22.4799 15.915 21.5136C16.277 21.012 16.688 20.5309 17.083 20.0704C17.375 19.7291 17.679 19.3755 17.963 19.0137C18.185 18.7218 18.378 18.4463 18.559 18.1626C18.76 17.8378 18.945 17.48 19.118 17.073C19.389 16.411 19.599 15.7079 19.8 15.0336C19.936 14.5731 20.08 14.0961 20.24 13.6356C20.578 12.6776 21.034 11.7812 21.601 10.9794C22.206 10.1242 22.901 9.4211 23.665 8.8866C24.044 8.6234 24.467 8.4055 24.928 8.2369C25.359 8.0766 25.824 7.9902 26.309 7.9779C26.342 7.9779 26.375 7.9779 26.408 7.9779C26.671 7.9779 26.955 8.0067 27.247 8.0684C28.357 6.8924 29.993 6.1194 32.111 5.7658C32.954 5.626 33.834 5.552 34.734 5.552Z" fill="#3A0241"/>
<path d="M30.8769 10.3092C31.6339 10.3092 32.3899 10.3585 33.1429 10.4531H33.1389C33.1469 10.4531 33.1509 10.4531 33.1589 10.4572C33.1589 10.4572 33.1549 10.4572 33.1509 10.4572C33.1549 10.4572 33.1589 10.4572 33.1629 10.4572H33.1589C33.8699 10.5518 34.5739 10.6916 35.2639 10.8848C35.9669 11.0781 36.6579 11.3206 37.3279 11.6002C37.3199 11.5961 37.3119 11.5961 37.3039 11.592C37.9939 11.8881 38.6649 12.2211 39.3099 12.6035C39.9639 12.99 40.6009 13.4094 41.2059 13.874C42.3819 14.7827 43.4219 15.8517 44.3349 17.0236C45.1649 18.1049 45.8849 19.2727 46.4189 20.5226C46.4189 20.5226 46.4189 20.5185 46.4149 20.5185C46.4889 20.6994 46.5629 20.8803 46.6289 21.0613C46.6869 21.2175 46.7439 21.3779 46.7849 21.5382C46.8629 21.8178 46.9169 22.1056 46.9579 22.3935C46.9579 22.3976 46.9579 22.4058 46.9619 22.4099C46.9869 22.6155 47.0069 22.8211 47.0239 23.0308C47.0899 23.9682 47.0609 24.9098 47.1019 25.8514C47.1429 26.7395 47.2419 27.64 47.5829 28.4664C47.7429 28.8488 47.9569 29.2148 48.2369 29.5314C48.3889 29.7082 48.5529 29.8685 48.7379 30.0124C48.9229 30.1563 49.1249 30.2797 49.3339 30.3866C49.7739 30.6045 50.2349 30.7525 50.7039 30.8923C51.1809 31.0321 51.6659 31.1719 52.1259 31.3611C52.1219 31.3569 52.1139 31.3569 52.1099 31.3528C52.2739 31.4227 52.4349 31.5009 52.5869 31.5872C52.7179 31.6653 52.8499 31.7476 52.9729 31.8421C53.0759 31.9244 53.1789 32.0107 53.2729 32.1053C53.3599 32.1916 53.4419 32.2862 53.5159 32.3849C53.6019 32.5 53.6849 32.6192 53.7499 32.7467C53.8119 32.8577 53.8699 32.9728 53.9189 33.0921C53.9149 33.0839 53.9109 33.0756 53.9069 33.0674C53.9679 33.2237 54.0259 33.3799 54.0669 33.5403C54.1079 33.7006 54.1409 33.861 54.1659 34.0254C54.1659 34.0295 54.1659 34.0296 54.1659 34.0337C54.1659 34.0296 54.1659 34.0295 54.1659 34.0254V34.0131C54.1949 34.2351 54.2109 34.4572 54.2109 34.6833C54.2069 34.9136 54.1899 35.1397 54.1619 35.3659C54.1619 35.3576 54.1659 35.3453 54.1659 35.3371C54.1289 35.5797 54.0839 35.8181 54.0179 36.0525C53.9559 36.2663 53.8859 36.4719 53.7999 36.6775C53.8039 36.6693 53.8079 36.661 53.8079 36.6528C53.7179 36.8666 53.6149 37.0722 53.4959 37.2655C53.3849 37.4423 53.2649 37.6149 53.1379 37.7835C52.6489 38.4085 52.0559 38.9389 51.4639 39.4652C51.1639 39.7325 50.8599 39.9997 50.5719 40.2752C50.2839 40.5548 50.0009 40.8385 49.7499 41.151C49.4909 41.4717 49.2519 41.813 49.0629 42.1789C48.8989 42.4955 48.7549 42.8286 48.6269 43.1657C48.4789 43.5522 48.3479 43.9511 48.2409 44.354C48.1259 44.7775 48.0269 45.2051 47.9529 45.6369C47.8909 46.011 47.8419 46.3852 47.8169 46.7635C46.9329 47.1335 45.9749 47.4871 44.9229 47.8407C44.6969 47.9148 44.4619 47.9929 44.2359 48.0628C44.2109 48.0792 44.1829 48.0957 44.1329 48.1162C43.7139 48.2684 43.2619 48.3794 42.7019 48.4698C42.2419 48.5438 41.7109 48.6014 41.0859 48.6343C40.5809 48.6631 40.0539 48.6713 39.4379 48.6713C39.1579 48.6713 38.8779 48.6713 38.5949 48.6672L38.3069 48.6631L37.8259 48.659H37.6039C37.3689 48.659 37.1349 48.659 36.9009 48.6631L36.6659 48.6672C36.3829 48.6713 36.0989 48.6754 35.8189 48.6754H35.7039C35.2109 48.6754 34.7219 48.6672 34.2279 48.6507C31.5389 48.5644 28.9079 48.293 26.4039 47.8407C24.9149 47.5735 23.5749 47.2528 22.2959 46.8704C20.8859 46.4469 19.6399 45.9617 18.4929 45.3943C17.2629 44.7816 16.2269 44.095 15.3839 43.3343C15.3469 42.9766 15.3269 42.6189 15.3269 42.2612C15.3309 41.8048 15.3639 41.3525 15.4209 40.8961V40.9002C15.4869 40.4109 15.5859 39.9298 15.7169 39.4529C15.8529 38.9636 16.0219 38.4866 16.2149 38.0179L16.2069 38.0426C16.3999 37.5821 16.6179 37.1339 16.8689 36.698C17.0949 36.3033 17.3579 35.9333 17.6329 35.5714C17.6369 35.5673 17.6369 35.5632 17.6419 35.5632C17.6419 35.5632 17.6369 35.5673 17.6369 35.5714C17.6419 35.5673 17.6459 35.5591 17.6499 35.555C17.8959 35.2384 18.1509 34.93 18.4099 34.6216C18.7269 34.2392 19.0479 33.861 19.3479 33.458C19.6479 33.0592 19.9319 32.6439 20.1579 32.1957C20.3839 31.7558 20.5609 31.2912 20.6599 30.806C20.7749 30.2262 20.8359 29.6383 20.8489 29.0462C20.8689 27.8086 20.7129 26.5792 20.5939 25.3498C20.5319 24.733 20.4789 24.1121 20.4659 23.4954C20.4579 23.1747 20.4579 22.854 20.4739 22.5332C20.4909 22.2372 20.5159 21.9453 20.5569 21.6492C20.5569 21.6575 20.5529 21.6657 20.5529 21.678C20.6139 21.2381 20.6969 20.8022 20.7909 20.3705C20.8449 20.1896 20.9019 20.0087 20.9639 19.8277C21.1449 19.3796 21.3259 18.9314 21.5269 18.4956C21.6549 18.2242 21.7899 17.961 21.9459 17.702C22.1029 17.443 22.2749 17.1963 22.4689 16.9619C22.4689 16.9619 22.4689 16.9619 22.4689 16.9578C22.4689 16.9578 22.4689 16.9578 22.4729 16.9537L22.4689 16.9578C22.4809 16.9455 22.4889 16.9331 22.5019 16.9208C22.5219 16.9002 22.5339 16.8797 22.5339 16.8509C22.5339 16.8262 22.5259 16.8015 22.5099 16.781C22.5179 16.7686 22.5259 16.7604 22.5339 16.7481C22.5669 16.7029 22.5469 16.633 22.5019 16.6042C22.4849 16.5918 22.4689 16.5877 22.4479 16.5877C22.4359 16.5836 22.4229 16.5795 22.4069 16.5795C22.3699 16.5795 22.3369 16.596 22.3169 16.6247C22.2469 16.744 22.1809 16.8591 22.1109 16.9783C22.0079 17.1264 21.9089 17.2785 21.8149 17.4347C21.8559 17.3566 21.8929 17.2744 21.9339 17.1963C21.9459 17.1716 21.9549 17.1469 21.9459 17.1181C21.9379 17.0935 21.9259 17.0688 21.9009 17.0565C21.8849 17.0482 21.8639 17.04 21.8479 17.04C21.8399 17.04 21.8309 17.04 21.8229 17.04C21.8109 17.04 21.7979 17.0482 21.7899 17.0565C21.8969 16.7728 22.0119 16.4849 22.1319 16.2012L22.1229 16.2259C22.2549 15.9093 22.3949 15.6009 22.5429 15.2884C22.6659 15.0253 22.7939 14.7621 22.9329 14.5072C23.1839 14.0385 23.4679 13.5862 23.7929 13.1627C23.9689 12.9365 24.1589 12.7186 24.3599 12.513C24.5659 12.3075 24.7749 12.1183 25.0059 11.9415C25.2149 11.7812 25.4369 11.6249 25.6679 11.4933C25.9139 11.3494 26.1689 11.2261 26.4279 11.1151C26.4199 11.1192 26.4119 11.1233 26.4039 11.1274C26.6749 11.0164 26.9499 10.9177 27.2339 10.8437C27.5139 10.7697 27.7969 10.7121 28.0849 10.671H28.0809C28.3689 10.634 28.6569 10.6134 28.9489 10.6175C29.2119 10.6217 29.4749 10.6422 29.7339 10.671C29.7379 10.671 29.7379 10.671 29.7419 10.671C30.1699 10.7286 30.5929 10.8231 31.0049 10.9465C31.4029 11.0657 31.7899 11.2096 32.1719 11.3741C32.1679 11.3741 32.1639 11.37 32.1599 11.3659C33.8129 12.0731 35.3299 13.0517 36.9619 13.7959C36.9869 13.8082 37.0159 13.8123 37.0409 13.8041C37.0649 13.8 37.0899 13.7794 37.1019 13.7589C37.1269 13.7137 37.1149 13.6396 37.0649 13.6191C36.1769 13.212 35.3219 12.7392 34.4579 12.2746C33.6199 11.8264 32.7729 11.3782 31.8839 11.0328C31.3989 10.8437 30.9019 10.6833 30.3959 10.5764C29.9109 10.4736 29.4169 10.4079 28.9239 10.4079H28.8869H28.8209C29.4669 10.338 30.1119 10.2968 30.7579 10.2927H30.8769V10.3092ZM29.7459 10.6875H29.7499H29.7459ZM32.1759 11.3905C32.1799 11.3905 32.1849 11.3947 32.1889 11.3947C32.1849 11.3905 32.1759 11.3905 32.1759 11.3905ZM46.4109 20.5062C46.4109 20.5103 46.4149 20.5144 46.4149 20.5185C46.4149 20.5144 46.4109 20.5103 46.4109 20.5062ZM52.1259 31.357C52.1299 31.357 52.1299 31.3569 52.1349 31.3611C52.1299 31.3611 52.1299 31.357 52.1259 31.357Z" fill="#2D0133"/>
<path d="M17.646 35.5687C17.65 35.5641 17.65 35.5595 17.655 35.5549C17.655 35.5595 17.65 35.5641 17.646 35.5687Z" fill="#2D0133"/>
<path d="M46.9669 22.4028C46.9669 22.3983 46.9669 22.3983 46.9619 22.3939V22.385C46.9669 22.3895 46.9669 22.3983 46.9669 22.4028Z" fill="#2D0133"/>
<path d="M37.3121 33.2278C36.9581 33.2278 36.5761 33.2566 36.1361 33.31C35.3921 33.4087 34.6481 33.5814 33.9241 33.75C33.6491 33.8158 33.3731 33.8774 33.0981 33.9391C33.0441 33.9514 32.9991 34.0008 32.9741 34.0419C32.9501 34.0912 32.9451 34.1529 32.9621 34.2064C32.9741 34.2434 32.9991 34.2763 33.0281 34.3051C33.1721 34.7573 33.2581 35.2014 33.2911 35.6208C33.3111 35.9744 33.2911 36.3239 33.2251 36.6611L33.2411 36.6076C33.1721 36.9201 33.0651 37.2244 32.9251 37.5122L32.9581 37.4669C32.7971 37.7712 32.5921 38.0714 32.3531 38.351C32.0331 38.7046 31.6461 39.0335 31.1771 39.3542C30.2691 39.9545 29.2701 40.3739 28.5011 40.6741C28.0361 40.855 27.5711 41.0236 27.0991 41.188L26.7331 41.3155C26.3211 41.4594 25.8981 41.6074 25.4871 41.7678C25.4331 41.7883 25.3961 41.8377 25.3801 41.8952C25.3551 41.9322 25.3471 41.9693 25.3511 42.0104C25.4091 42.3804 25.4911 42.7464 25.6061 43.0876C25.7131 43.4042 25.8531 43.7249 26.0341 44.0621C26.3461 44.6419 26.7821 45.1928 27.3291 45.6986C27.8181 46.1508 28.4101 46.5702 29.0971 46.9403C29.7141 47.2775 30.3961 47.5612 31.1901 47.812C32.5961 48.256 34.1341 48.4904 35.7661 48.5027H35.9301C36.6131 48.5027 37.2911 48.4575 37.9491 48.3629C38.6611 48.2643 39.2981 48.1203 39.8901 47.9271C40.3511 47.775 40.8151 47.5735 41.3211 47.3062C41.8601 47.0184 42.3861 46.6648 42.8831 46.2495C43.3811 45.8342 43.8131 45.3737 44.1701 44.8886C44.3471 44.646 44.5121 44.3828 44.6561 44.1114C44.7911 43.8524 44.9101 43.5605 45.0091 43.248C45.0461 43.2398 45.0831 43.2192 45.1081 43.1904C45.1861 43.1041 45.1781 42.9725 45.0911 42.8944C44.7341 42.5696 44.3511 42.2612 43.9811 41.9651L43.9031 41.9035L43.3851 41.4841C43.1751 41.3155 42.9611 41.1428 42.7521 40.9742C42.0901 40.4274 41.3991 39.8312 40.8111 39.1445C40.4491 38.7128 40.1571 38.277 39.9231 37.8123C39.7051 37.3559 39.5491 36.8707 39.4541 36.3691C39.3561 35.7894 39.3311 35.1603 39.3841 34.4983C39.4051 34.2434 39.4421 33.9926 39.4791 33.7417C39.4991 33.6225 39.4301 33.5156 39.3191 33.4909C39.3061 33.4868 39.2901 33.4868 39.2771 33.4868C39.2361 33.4827 39.2241 33.4786 39.2081 33.4745C38.7021 33.3429 38.1751 33.2648 37.6411 33.2401C37.5301 33.2319 37.4231 33.2278 37.3121 33.2278Z" fill="#FFB39C"/>
<path d="M36.1321 33.302C35.3801 33.4006 34.6111 33.5815 33.9321 33.7378L33.8421 33.7583L33.7231 33.7871L33.0941 33.931C33.0401 33.9434 32.9911 33.9927 32.9701 34.0379C32.9411 34.0914 32.9371 34.1531 32.9581 34.2065C32.9701 34.2435 32.9911 34.2805 33.0281 34.3093C33.1681 34.7534 33.2541 35.1933 33.2871 35.6168C33.3071 35.9704 33.2871 36.3199 33.2211 36.6571L33.2541 36.6078C33.2331 36.6735 33.2171 36.7434 33.1921 36.8092C33.4391 36.875 33.6901 36.9285 33.9411 36.9696C34.2741 37.023 34.6111 37.0518 34.9481 37.0642H34.9191C35.2971 37.0724 35.6801 37.06 36.0581 37.0148C36.4081 36.9737 36.7531 36.912 37.0981 36.8339C37.0981 36.8339 37.1021 36.8339 37.1071 36.8339L37.1271 36.8298H37.1191C37.5051 36.7352 37.8841 36.616 38.2541 36.4762C38.6281 36.3282 38.9941 36.1596 39.3471 35.9663L39.3391 35.9704C39.3601 35.9581 39.3851 35.9458 39.4051 35.9334C39.3601 35.4811 39.3561 35.0042 39.3931 34.5026C39.4131 34.2476 39.4501 33.9968 39.4871 33.746C39.5081 33.6227 39.4381 33.5116 39.3231 33.487H39.2781V33.4829C39.2491 33.4788 39.2321 33.4788 39.2201 33.4746C38.7141 33.3431 38.1841 33.2608 37.6371 33.2321C37.5261 33.2279 37.4191 33.2238 37.3081 33.2238C36.9591 33.2197 36.5721 33.2444 36.1321 33.302ZM37.1191 36.8216C37.1151 36.8216 37.1111 36.8257 37.1071 36.8257H37.0981L37.1191 36.8216Z" fill="#F3AB95"/>
<path d="M14.3281 32.3313C14.3151 32.3313 14.2951 32.3313 14.2821 32.3354C14.2541 32.3436 14.2331 32.3519 14.2131 32.3683C14.2041 32.3683 14.1961 32.3683 14.1881 32.3683C14.1591 32.3683 14.1471 32.3724 14.1301 32.3765C13.2671 32.7301 12.2841 32.9974 11.1251 33.1948C10.1131 33.3592 9.08911 33.4579 8.12711 33.5442C8.09411 33.5484 8.06112 33.5566 8.03312 33.573H8.02411C7.88111 33.573 7.7901 33.6635 7.7901 33.7745C7.7861 34.8477 7.75311 35.9414 7.72411 36.9981L7.71611 37.3147C7.67511 38.7743 7.64211 40.0942 7.63411 41.4387C7.60911 45.0447 7.7691 47.7748 8.1521 50.2871C8.3821 51.8166 8.69512 53.1694 9.10212 54.4276C9.55012 55.8091 10.0881 56.985 10.7501 58.0171C11.0921 58.5516 11.4781 59.0614 11.8941 59.522C12.3091 59.9784 12.7731 60.3977 13.2751 60.776C14.2951 61.5367 15.4911 62.0835 16.8281 62.396C17.2471 62.4947 17.6871 62.5687 18.1721 62.6263C18.5421 62.6715 18.8791 62.6921 19.2001 62.6921C19.4431 62.6921 19.6771 62.6797 19.8991 62.6551C20.5241 62.5893 21.1041 62.4248 21.6181 62.1699C21.8731 62.0424 22.1281 61.8738 22.3701 61.6641C22.5881 61.475 22.7941 61.2406 22.9791 60.961C22.9911 60.9405 23.0031 60.9158 23.0071 60.8911C23.1471 60.5745 23.3281 60.2621 23.5581 59.9249C23.7761 59.6165 24.0191 59.3164 24.2531 59.0244C24.3601 58.8929 24.4631 58.7613 24.5661 58.6297C24.7261 58.4241 24.8821 58.2103 25.0301 57.9965C25.1781 57.7827 25.3181 57.5442 25.4741 57.24C25.9511 56.3231 26.2971 55.2417 26.4981 54.0246C26.6631 53.0255 26.7291 51.94 26.7041 50.6078C26.6921 50.0116 26.6631 49.436 26.6301 48.8973C26.6131 48.6301 26.5931 48.3628 26.5721 48.0955C26.5481 47.8077 26.5111 47.5158 26.4741 47.228C26.4241 46.8497 26.3631 46.4714 26.3051 46.0973C26.2351 45.6532 26.1651 45.2132 26.1121 44.7651C25.9881 43.7988 25.9601 43.0587 26.0211 42.368C26.0381 42.1994 26.0621 42.0308 26.0951 41.8622C26.1121 41.7759 26.0751 41.6854 26.0011 41.6402C26.0211 41.5867 26.0131 41.525 25.9801 41.4757C25.9391 41.414 25.8731 41.377 25.7991 41.377C25.7621 41.377 25.7211 41.3894 25.6881 41.4099C23.3771 42.9148 20.4131 44.9789 17.9991 47.6063C16.9101 43.2561 15.8411 38.5934 14.5371 32.4958C14.5131 32.3971 14.4261 32.3313 14.3281 32.3313Z" fill="#FF505D"/>
<path d="M8.12696 33.5362C8.08996 33.5444 8.05696 33.5526 8.03296 33.5691C7.88896 33.5691 7.78595 33.6554 7.78595 33.7747C7.78195 34.782 7.75696 35.7853 7.71996 36.9982L7.71196 37.3148C7.67096 38.9143 7.64196 40.1478 7.62996 41.4389C7.60496 45.0366 7.76495 47.7668 8.14795 50.2872C8.38195 51.8291 8.68997 53.1819 9.09797 54.4359C9.54597 55.8134 10.084 56.9893 10.746 58.0255C11.088 58.56 11.474 59.0698 11.889 59.5345C12.301 59.9908 12.769 60.4102 13.275 60.7885C14.295 61.5492 15.491 62.0919 16.832 62.4085C17.243 62.5072 17.683 62.5853 18.176 62.6429C18.55 62.6881 18.887 62.7087 19.204 62.7087C19.434 62.7087 19.669 62.6963 19.903 62.6717C20.532 62.6059 21.112 62.4414 21.622 62.1824C21.877 62.059 22.132 61.8904 22.378 61.6766C22.604 61.4834 22.806 61.249 22.987 60.9735C23.003 60.953 23.012 60.9283 23.02 60.8995C23.155 60.5912 23.336 60.2746 23.567 59.9374C23.785 59.629 24.031 59.3247 24.261 59.041L24.294 58.9999L24.578 58.6463C24.738 58.4407 24.895 58.2269 25.043 58.009C25.187 57.7993 25.331 57.5608 25.487 57.2525C25.964 56.3355 26.309 55.2542 26.511 54.033C26.675 53.0339 26.741 51.9484 26.716 50.6162C26.704 50.0323 26.675 49.4485 26.642 48.9057C26.626 48.6385 26.605 48.3712 26.585 48.1039C26.56 47.8161 26.523 47.5242 26.486 47.2364C26.432 46.8581 26.375 46.4839 26.317 46.1056C26.309 46.0563 26.301 46.007 26.293 45.9576C25.425 46.854 24.603 47.7956 23.838 48.7824C23.209 49.5965 22.621 50.4394 22.086 51.3152C21.848 51.7099 21.651 52.1334 21.461 52.5528C20.964 53.6506 20.516 54.7649 19.961 55.8339C19.652 56.4301 19.315 57.0181 18.908 57.5526C18.727 57.787 18.538 58.0172 18.324 58.2228C18.131 58.4078 17.921 58.5805 17.687 58.7121C17.473 58.8355 17.239 58.9383 16.996 58.9876C16.749 59.0369 16.499 59.0452 16.252 59.004C15.972 58.9588 15.701 58.8601 15.454 58.7244C15.146 58.5559 14.862 58.3421 14.599 58.1036C14.241 57.7788 13.916 57.4169 13.62 57.0304C13.304 56.6193 13.012 56.1834 12.757 55.727C12.235 54.8101 11.815 53.8315 11.47 52.8324C11.125 51.8456 10.841 50.8382 10.586 49.8226C10.434 49.2141 10.294 48.6056 10.171 47.9929C10.043 47.3433 9.93196 46.6895 9.83796 46.0316C9.65696 44.7406 9.52896 43.4372 9.45896 42.1379C9.38496 40.818 9.36096 39.4981 9.36896 38.1742C9.37696 36.5871 9.43096 35 9.49196 33.4128C9.02396 33.454 8.56696 33.4951 8.12696 33.5362Z" fill="#E44753"/>
<path d="M9.55397 17.9856H9.54198C9.43098 17.9856 9.31597 18.0144 9.19597 18.0719C9.09797 18.1213 9.01098 18.1994 8.96198 18.257C8.88798 18.3392 8.82196 18.442 8.77696 18.553C8.62096 18.9025 8.57998 19.2972 8.55898 19.6385C8.53798 20.0085 8.55098 20.4156 8.59998 20.9213C8.54698 20.7528 8.48496 20.5842 8.41496 20.4197C8.27096 20.0579 8.12698 19.7495 7.97498 19.4781C7.80698 19.178 7.64197 18.9642 7.46497 18.7997C7.33397 18.6805 7.11996 18.5366 6.86096 18.5366C6.60596 18.5407 6.37596 18.6722 6.21896 18.8902C6.05096 19.1245 6.00996 19.4165 5.99696 19.6467C5.98496 19.8359 5.99698 20.0291 6.01398 20.1771C6.03398 20.3745 6.06697 20.5801 6.11697 20.8268C6.17797 21.1352 6.26497 21.46 6.38797 21.8506C6.34297 21.7684 6.28097 21.6943 6.22397 21.6203C6.00997 21.3572 5.78797 21.1968 5.56197 21.1352C5.51197 21.1228 5.45897 21.1146 5.40897 21.1146C5.19997 21.1146 4.99398 21.2215 4.86298 21.3983C4.71898 21.5874 4.66497 21.8506 4.68997 22.2206C4.71897 22.6113 4.82596 22.9895 4.92796 23.3061C5.05196 23.6967 5.20398 24.0668 5.33498 24.3752C5.42998 24.6013 5.53297 24.8233 5.63597 25.0454C5.83697 25.4812 6.03397 25.9253 6.22397 26.3652C6.90997 27.9935 7.29297 29.2763 7.46097 30.5263V30.5222C7.55997 31.3363 7.56396 32.1257 7.46896 32.8782V32.874C7.37496 33.5278 7.20598 34.1775 6.95998 34.8024C6.91398 34.8847 6.91397 34.9505 6.93497 35.008C6.95497 35.0574 6.99196 35.0985 7.03796 35.1149C7.76096 35.4069 8.53796 35.5795 9.35696 35.6371C9.56196 35.6536 9.76798 35.6618 9.97298 35.6618C10.179 35.6618 10.385 35.6536 10.59 35.6412C10.977 35.6124 11.375 35.5549 11.815 35.4603C13.518 35.0944 14.961 34.2145 15.878 32.981C15.902 32.9481 15.919 32.9069 15.927 32.8658C15.939 32.8124 15.935 32.7548 15.907 32.7055C15.639 32.2244 15.389 31.7146 15.166 31.1883L15.154 31.1677C15.15 31.1677 15.146 31.1513 15.142 31.1513C14.541 29.6916 14.126 28.1785 13.917 26.6531C13.871 26.3118 13.851 25.9911 13.847 25.6704C13.842 25.4031 13.859 25.1112 13.9 24.774V24.7247H13.896C13.982 24.1655 14.097 23.668 14.262 23.2198L14.324 23.0512C14.377 22.8991 14.435 22.7428 14.484 22.5866C14.566 22.3317 14.611 22.0973 14.632 21.8711C14.648 21.6532 14.615 21.4476 14.541 21.275C14.472 21.1187 14.352 20.9666 14.196 20.8391C14.077 20.7445 13.954 20.6788 13.814 20.6376C13.744 20.6212 13.67 20.6089 13.592 20.6089C13.518 20.6089 13.444 20.6171 13.374 20.6294C13.234 20.6541 13.098 20.7158 12.987 20.7774C12.835 20.8597 12.699 20.9707 12.584 21.0694C12.296 21.3161 12.066 21.6162 11.881 21.8794C11.713 22.1179 11.552 22.381 11.404 22.6565C11.384 22.2988 11.355 21.9575 11.318 21.6162C11.24 20.8926 11.137 20.1196 10.903 19.3753C10.788 19.0176 10.664 18.7463 10.516 18.5201C10.434 18.4009 10.356 18.3104 10.269 18.2364C10.171 18.1501 10.06 18.0843 9.92796 18.0432C9.78396 18.0062 9.66897 17.9856 9.55397 17.9856Z" fill="#04BFBF"/>
<path d="M13.616 20.6047C13.694 20.761 13.727 20.9419 13.727 21.1146C13.731 21.3243 13.707 21.534 13.674 21.7437C13.6 22.196 13.472 22.6359 13.328 23.0718C13.283 23.2033 13.242 23.3308 13.197 23.4624C13.115 23.6967 13.045 23.9393 12.991 24.1819C12.942 24.3998 12.901 24.6178 12.872 24.8357V24.8316C12.819 25.2386 12.794 25.6498 12.798 26.0568C12.806 26.4762 12.839 26.8874 12.893 27.3027C12.893 27.2986 12.893 27.2904 12.889 27.2821C12.995 28.0469 13.172 28.7952 13.398 29.5312C13.616 30.2426 13.875 30.9415 14.163 31.6323L14.155 31.6076C14.41 32.2079 14.689 32.8041 14.994 33.3839C15.059 33.5072 15.125 33.6265 15.191 33.7498C15.438 33.5155 15.664 33.2647 15.865 32.9933C15.894 32.9522 15.911 32.9152 15.919 32.8699C15.931 32.8165 15.923 32.7589 15.898 32.7096C15.631 32.2326 15.384 31.7187 15.158 31.1924L15.129 31.1554C14.529 29.6875 14.118 28.1744 13.912 26.6613C13.867 26.3282 13.847 26.0075 13.842 25.6786C13.838 25.4072 13.855 25.1112 13.896 24.7822V24.7329C13.982 24.1531 14.101 23.6638 14.258 23.2321L14.319 23.0635C14.377 22.9073 14.43 22.7552 14.48 22.5989C14.562 22.344 14.611 22.1055 14.628 21.8794C14.644 21.6614 14.611 21.4517 14.533 21.2791C14.459 21.1187 14.34 20.9666 14.184 20.8391C14.06 20.7404 13.937 20.6746 13.797 20.6376C13.736 20.6171 13.678 20.6088 13.616 20.6047Z" fill="#03AFAF"/>
<path d="M6.42095 21.9248C6.36695 21.9412 6.32994 21.9988 6.34694 22.0522C6.58094 22.7677 6.80294 23.4913 7.18094 24.1451C7.21394 24.1985 7.28394 24.2191 7.33794 24.1862C7.39094 24.1533 7.40794 24.0834 7.37894 24.03C7.23494 23.7709 7.10695 23.5037 6.98795 23.2282L6.99195 23.2323C6.82395 22.8252 6.68395 22.4099 6.54795 21.9947C6.53195 21.9494 6.49494 21.9207 6.44994 21.9207C6.43694 21.9207 6.42895 21.9207 6.42095 21.9248ZM6.99994 23.2528C6.99594 23.2487 6.99595 23.2405 6.99195 23.2323C6.99595 23.2405 6.99594 23.2446 6.99994 23.2528Z" fill="#03AFAF"/>
<path d="M8.57496 21.1558C8.61596 21.5382 8.68197 21.9164 8.78097 22.2906C8.87497 22.6648 9.01497 23.0266 9.18397 23.372C9.21297 23.4295 9.29497 23.446 9.34797 23.4131C9.37697 23.3966 9.39296 23.372 9.40196 23.3432C9.40996 23.3103 9.40197 23.2815 9.38897 23.2527C9.33597 23.1376 9.28197 23.0266 9.23297 22.9115C9.23697 22.9197 9.24096 22.932 9.24496 22.9403C9.14296 22.6853 9.05196 22.4263 8.97396 22.159C8.89196 21.8712 8.83397 21.5752 8.79297 21.2791V21.2832C8.78897 21.2421 8.78497 21.201 8.78097 21.1558C8.77697 21.127 8.77296 21.1023 8.75196 21.0818C8.73196 21.0612 8.70696 21.053 8.67796 21.053C8.62496 21.053 8.56696 21.1023 8.57496 21.1558Z" fill="#03AFAF"/>
<path d="M9.33202 25.4729C9.31102 25.6702 9.29901 25.8636 9.30301 26.0609C9.30701 26.2706 9.32402 26.4762 9.35202 26.6818C9.41002 27.0889 9.50902 27.4918 9.72702 27.8413C9.78402 27.9318 9.89102 27.9811 9.99802 27.9523C10.06 27.9359 10.109 27.8948 10.142 27.8413C10.171 27.792 10.191 27.7138 10.166 27.6562C10.088 27.4588 9.99401 27.2656 9.90701 27.0682C9.85001 26.9284 9.79601 26.7886 9.74701 26.6447C9.69801 26.4926 9.66502 26.3364 9.64002 26.1761C9.61102 25.9417 9.60301 25.7031 9.62001 25.4688C9.62801 25.3906 9.55001 25.325 9.47601 25.325C9.39301 25.3291 9.34002 25.3948 9.33202 25.4729Z" fill="#03AFAF"/>
<path d="M25.8939 41.3318C25.8609 41.3318 25.8319 41.34 25.8119 41.3523C25.5239 41.525 25.3059 41.6936 25.1209 41.891C25.0299 41.9855 24.9439 42.0924 24.8619 42.2035C24.7709 42.335 24.6929 42.4748 24.6399 42.5859C24.5329 42.7997 24.4509 43.0505 24.3889 43.3753C24.3399 43.6261 24.3149 43.9057 24.3149 44.2305C24.3149 44.8267 24.3929 45.4106 24.4839 46.0068L24.5409 46.3727C24.6149 46.8497 24.6929 47.3472 24.7299 47.8365C24.7339 47.8653 24.7429 47.8899 24.7589 47.9146C24.6229 48.2929 24.4469 48.6876 24.2199 49.1193C23.8789 49.7525 23.4799 50.3652 23.0899 50.9573C22.9089 51.2328 22.7279 51.5082 22.5509 51.7878C22.2389 52.2853 21.9879 52.7335 21.7779 53.1652C21.5349 53.6587 21.3459 54.1685 21.2149 54.6742C21.0629 55.254 20.9759 55.8707 20.9559 56.5081C20.9389 57.0714 20.9839 57.6717 21.0829 58.2966C21.2929 59.6001 21.7619 60.8336 22.1439 61.7628C22.3779 62.3343 22.6329 62.9059 22.8549 63.3952C22.8799 63.4486 22.9289 63.4897 22.9869 63.5062C23.0029 63.5226 23.0239 63.5349 23.0489 63.5473C24.1219 63.9543 25.2979 64.2751 26.5389 64.5053C27.7109 64.7232 28.9449 64.8507 30.2069 64.8877C30.4079 64.8918 30.6099 64.8959 30.8109 64.8959C31.8229 64.8959 32.8339 64.826 33.6939 64.7602C34.9189 64.6616 36.1029 64.5259 37.2049 64.3491C38.4179 64.1558 39.5899 63.9009 40.6839 63.5925C41.8469 63.2677 42.9289 62.8689 43.9069 62.4083C44.8279 61.9725 45.7199 61.4997 46.5509 60.998C47.5419 60.4059 48.3889 59.8097 49.1499 59.1765C49.6269 58.7777 50.0749 58.3419 50.4899 57.8855C50.9009 57.425 51.2549 56.9398 51.5469 56.4423C51.5709 56.397 51.5959 56.3477 51.5839 56.286C51.5999 56.249 51.6079 56.2161 51.6039 56.1832C51.5299 54.8675 51.3409 53.5888 51.0369 52.3799C50.8109 51.4877 50.5349 50.5954 50.2149 49.7196C49.4579 47.6597 48.5489 45.9821 47.4309 44.5841C46.4809 43.3959 45.3959 42.4995 44.2069 41.928C44.1659 41.9074 44.1289 41.8992 44.0959 41.8992C44.0759 41.8992 44.0589 41.9033 44.0429 41.9074C44.0059 41.9156 43.9729 41.9362 43.9479 41.965C43.9359 41.9732 43.9239 41.9855 43.9149 41.9979C43.4919 42.5776 43.0599 43.0793 42.5959 43.5315C41.9379 44.1606 41.2099 44.6993 40.4409 45.1392C39.6679 45.5627 38.8739 45.8834 38.0519 46.1014L38.1059 46.0931C37.2339 46.3111 36.3289 46.4262 35.4169 46.4262H35.3219L35.3749 46.4344C34.4089 46.4138 33.4389 46.274 32.4889 46.0109C31.5099 45.7313 30.5519 45.3119 29.6519 44.7733L29.6639 44.7815C28.7879 44.247 27.9829 43.6014 27.2629 42.8613C27.2629 42.8572 27.2589 42.8572 27.2589 42.8572L27.2549 42.8613L27.2509 42.849C27.2509 42.849 27.2549 42.8572 27.2589 42.8572C26.8399 42.4173 26.4489 41.9403 26.0989 41.4428C26.0709 41.4058 26.0339 41.377 25.9839 41.3647C25.9469 41.3359 25.9229 41.3318 25.8939 41.3318Z" fill="#FF505D"/>
<path d="M43.315 57.5155C43.418 59.2301 43.43 60.9488 43.356 62.6634C43.545 62.5812 43.73 62.4989 43.911 62.4126C44.215 62.2687 44.52 62.1206 44.812 61.9685C44.75 60.9776 44.655 59.9867 44.524 58.9999C44.524 59.0081 44.528 59.0163 44.528 59.0287C44.355 57.7664 44.129 56.5082 43.817 55.2706C43.516 54.0782 43.146 52.9063 42.674 51.7715L42.678 51.7797C42.612 51.6235 42.542 51.4631 42.468 51.3069C42.916 53.3504 43.188 55.4309 43.315 57.5155Z" fill="#E44753"/>
<path d="M45.5731 43.3507C46.0291 44.2142 46.4281 45.1064 46.7651 46.0192C47.4561 47.8818 47.9241 49.8225 48.2081 51.7879C48.5171 53.9137 48.6321 56.0641 48.5821 58.2104C48.5701 58.7038 48.5491 59.1931 48.5251 59.6865C48.7431 59.522 48.9561 59.3535 49.1621 59.1808C49.6391 58.7778 50.0911 58.3461 50.4981 57.8897C50.9101 57.4333 51.2631 56.944 51.5511 56.4424C51.5761 56.4013 51.6041 56.3478 51.5921 56.2779C51.6041 56.2368 51.6131 56.2039 51.6131 56.1751C51.5391 54.8594 51.3491 53.5806 51.0411 52.3677C50.8151 51.4672 50.5391 50.5709 50.2191 49.7074C49.4661 47.6516 48.5581 45.9699 47.4351 44.5719C46.6991 43.6509 45.8811 42.9108 45.0051 42.3557C45.2111 42.6805 45.3961 43.0136 45.5731 43.3507Z" fill="#E44753"/>
<path d="M21.425 22.1179C21.696 22.1179 21.971 22.1714 22.243 22.2701C22.337 22.3029 22.391 22.3482 22.428 22.414C22.469 22.488 22.481 22.5743 22.461 22.6566C22.44 22.7347 22.378 22.8087 22.3 22.8498C22.465 23.5652 22.576 24.3177 22.642 25.1441C22.703 25.8925 22.724 26.686 22.707 27.7139C22.728 27.7016 22.757 27.6975 22.785 27.6975C22.921 27.6975 23.049 27.7962 23.086 27.9277C23.131 28.0922 23.036 28.2567 22.868 28.3142C22.703 28.3677 22.535 28.3965 22.391 28.417C22.218 28.4417 22.062 28.454 21.914 28.454C21.61 28.454 21.326 28.4047 21.071 28.3142C20.824 28.2279 20.59 28.0963 20.364 27.9154C20.187 27.7797 20.027 27.6029 19.854 27.3603C19.722 27.1753 19.611 26.9533 19.496 26.6696C19.41 26.4516 19.344 26.2173 19.299 25.9459C19.208 25.4155 19.208 24.8728 19.307 24.3259C19.369 23.9805 19.48 23.6475 19.636 23.3268C19.788 23.0184 19.998 22.7511 20.236 22.5538C20.508 22.3317 20.8 22.1919 21.112 22.1426C21.219 22.1261 21.322 22.1179 21.425 22.1179Z" fill="#F3AB95"/>
<path d="M20.582 23.2897C20.82 23.3761 21.0459 23.483 21.2559 23.6187C21.4659 23.7502 21.651 23.927 21.819 24.1121C21.988 24.3012 22.132 24.5109 22.255 24.7329C22.387 24.9714 22.4849 25.2346 22.5509 25.4977C22.5759 25.5964 22.5219 25.6951 22.4239 25.7197C22.3289 25.7444 22.2299 25.6868 22.2019 25.5923C22.1559 25.4319 22.103 25.2757 22.041 25.1194C21.988 24.9961 21.93 24.8727 21.865 24.7535C21.79 24.6219 21.7079 24.4986 21.6179 24.3793C21.5479 24.2889 21.474 24.2025 21.392 24.1203C21.301 24.0298 21.203 23.9476 21.104 23.8654C21.026 23.8078 20.948 23.7543 20.865 23.7009C20.783 23.6515 20.693 23.6104 20.602 23.5693C20.573 23.557 20.545 23.5446 20.516 23.5364C20.45 23.5118 20.405 23.4501 20.425 23.3761C20.442 23.3226 20.4949 23.2815 20.5529 23.2815C20.5609 23.2856 20.569 23.2856 20.582 23.2897ZM21.0789 23.8448C21.0829 23.8489 21.0869 23.8489 21.0919 23.853C21.0869 23.853 21.0829 23.8489 21.0789 23.8448ZM21.601 24.3546C21.605 24.3588 21.605 24.3629 21.61 24.3629C21.605 24.3588 21.601 24.3546 21.601 24.3546Z" fill="#BF8675"/>
<path d="M28.2249 9.9021C28.2459 9.9021 28.2699 9.9062 28.3029 9.9144C28.3399 9.9227 28.3729 9.9391 28.4019 9.9638C28.8869 10.0707 29.3519 10.1694 29.8159 10.2722C31.4779 10.634 33.1959 11.004 34.8569 11.481C37.3329 12.1923 39.2569 13.0188 40.9019 14.0837C41.6499 14.5689 42.3239 15.0869 42.8999 15.6256C43.4999 16.1889 44.0759 16.855 44.6019 17.5951C45.1199 18.327 45.5519 19.1 45.8849 19.8976C46.2339 20.7364 46.4319 21.5629 46.4649 22.3564C46.6329 22.3482 46.8019 22.34 46.9749 22.34C47.5709 22.34 48.1009 22.451 48.5619 22.673C49.0629 22.9197 49.4789 23.3186 49.7379 23.8037C49.9879 24.2725 50.1199 24.8234 50.1159 25.3909C50.1119 25.9542 49.9969 26.5134 49.7659 27.052C49.4419 27.8085 48.8909 28.4459 48.2449 28.7912C47.8789 28.9927 47.4889 29.1078 47.0809 29.1407C47.0119 29.1448 46.9379 29.1489 46.8679 29.1489C46.5839 29.1489 46.2839 29.1037 45.9669 29.0174C45.6709 29.6999 45.2969 30.3578 44.8609 30.9704C44.3349 31.7064 43.7099 32.3931 43.0029 33.0098C41.6459 34.1981 40.0259 35.1191 38.1799 35.7482C37.3159 36.0402 36.4159 36.254 35.5029 36.3855C34.8159 36.4801 34.1339 36.5294 33.4799 36.5294C33.2459 36.5294 33.0149 36.5253 32.7809 36.513C31.9089 36.4637 30.9719 36.3156 30.0059 36.073C29.1259 35.8469 28.2789 35.5385 27.4969 35.1561C26.7859 34.8066 26.1039 34.3708 25.4749 33.8486C24.9149 33.3922 24.3889 32.833 23.9079 32.1916C23.0529 31.0486 22.4199 29.6382 22.0329 28.0018C21.6709 26.4805 21.5269 24.7988 21.5929 22.8622C21.6629 20.8968 21.9379 19.0465 22.4149 17.3566C22.8959 15.6708 23.5749 14.2029 24.4379 12.9941C24.9149 12.328 25.4499 11.7359 26.0299 11.2384C26.6459 10.7121 27.3289 10.2722 28.0609 9.9391C28.1139 9.9227 28.1679 9.9021 28.2249 9.9021Z" fill="#FFB39C"/>
<path d="M28.3031 9.9061C28.3441 9.9144 28.3771 9.9308 28.4061 9.9514L29.3761 10.1611L29.8201 10.2556C31.4691 10.6133 33.1801 10.9834 34.8611 11.4686C37.3371 12.1758 39.2571 13.0022 40.9101 14.0713C41.6541 14.5523 42.3281 15.0704 42.9081 15.6132C43.5121 16.1847 44.0881 16.8508 44.6101 17.5868C45.1241 18.3104 45.5601 19.0876 45.8971 19.8852C46.1601 20.5143 46.3371 21.1352 46.4231 21.7437C46.4111 21.7643 46.4031 21.7848 46.3861 21.8054L46.3911 21.7972C46.2051 22.1055 45.9961 22.3975 45.7411 22.6524C45.5721 22.8127 45.3911 22.9567 45.1941 23.0718C45.0251 23.1705 44.8441 23.2404 44.6551 23.2938C44.4621 23.3432 44.2731 23.3678 44.0761 23.3678C43.8211 23.3678 43.5661 23.3267 43.3191 23.2568C43.3271 23.2568 43.3361 23.2609 43.3441 23.265C43.2201 23.228 43.1011 23.191 42.9861 23.1376C42.8911 23.0965 42.7971 23.0512 42.7021 22.9978C42.7111 23.0019 42.7151 23.0019 42.7191 23.006C42.5791 22.9238 42.4431 22.8374 42.3201 22.7346C42.2051 22.6442 42.0981 22.5455 41.9951 22.4427L41.9991 22.4468C41.8511 22.2906 41.7111 22.1302 41.5841 21.9534C41.4561 21.7766 41.3411 21.5998 41.2301 21.4107C41.2301 21.4066 41.2261 21.4024 41.2261 21.3983C40.9381 20.8761 40.7161 20.3169 40.5601 19.7372C40.5641 19.7454 40.5641 19.7536 40.5681 19.7619C40.5441 19.6632 40.5191 19.5645 40.4941 19.4658C40.4861 19.437 40.4781 19.4165 40.4571 19.4C40.4411 19.3877 40.4201 19.3795 40.3961 19.3795C40.3671 19.3425 40.3181 19.326 40.2721 19.3425C39.9311 19.4658 39.5941 19.5851 39.2481 19.6837C39.2571 19.6796 39.2651 19.6796 39.2731 19.6755C38.7061 19.8194 38.1221 19.8893 37.5381 19.8934C36.7161 19.8934 35.9061 19.7701 35.1121 19.5604C35.1201 19.5645 35.1291 19.5645 35.1371 19.5686C34.1211 19.2931 33.1471 18.8779 32.2381 18.3516L32.2631 18.368C31.3541 17.8335 30.5111 17.1921 29.7751 16.4437L29.7961 16.4643C29.2451 15.8969 28.7551 15.2719 28.3571 14.5852C28.2091 14.3221 28.0731 14.0507 27.9581 13.7711C27.8471 13.4956 27.7481 13.2119 27.6701 12.9241V12.92V12.9241C27.6581 12.883 27.6451 12.8419 27.6371 12.7967C27.6331 12.7679 27.6211 12.7473 27.6001 12.7309C27.5841 12.7185 27.5631 12.7103 27.5381 12.7103C27.5341 12.7103 27.5261 12.7103 27.5221 12.7103C27.5051 12.7103 27.4931 12.7185 27.4771 12.7268C27.1271 12.846 26.7981 13.0146 26.4861 13.2119C26.1441 13.4299 25.8241 13.6766 25.5241 13.9438C24.9231 14.466 24.3761 15.0499 23.8421 15.6461C23.3571 16.1888 22.8761 16.7398 22.4321 17.3154C22.9091 15.6502 23.5831 14.1987 24.4421 12.9981C24.9151 12.332 25.4501 11.7399 26.0331 11.2383C26.6501 10.7079 27.3331 10.2721 28.0691 9.939C28.1061 9.9185 28.1671 9.8938 28.2371 9.8938C28.2461 9.8938 28.2741 9.8979 28.3031 9.9061Z" fill="#F3AB95"/>
<path d="M50.1239 25.3909C50.1199 25.9501 50.0049 26.5092 49.7699 27.0561C49.4459 27.8168 48.8909 28.4541 48.2449 28.8036C47.8829 29.0009 47.4929 29.1202 47.0769 29.1572C47.0069 29.1613 46.9329 29.1654 46.8629 29.1654C46.5839 29.1654 46.2799 29.1202 45.9629 29.0297C45.6829 29.6999 45.3089 30.3537 44.8649 30.9787C44.3349 31.7188 43.7099 32.4054 43.0069 33.0222C41.6499 34.2146 40.0259 35.1356 38.1839 35.7606C37.3239 36.0525 36.4239 36.2663 35.5029 36.402C34.8119 36.4966 34.1299 36.5459 33.4799 36.5459C33.2459 36.5459 33.0149 36.5418 32.7809 36.5294C32.7519 36.5294 32.7189 36.5253 32.6899 36.5253C32.9289 36.5171 33.1629 36.5048 33.3979 36.4842C34.1789 36.4143 34.9479 36.2745 35.7039 36.0813C36.4979 35.8757 37.2789 35.6208 38.0359 35.3083C38.8989 34.9547 39.7339 34.5353 40.5269 34.046C41.3209 33.5608 42.0729 33.0098 42.7599 32.3766C43.4139 31.7763 44.0139 31.1143 44.5069 30.3742C44.7419 30.0206 44.9599 29.6506 45.1449 29.2682C45.3169 28.9105 45.4609 28.5445 45.5809 28.1663C45.9049 28.2773 46.2509 28.3348 46.5959 28.3184C46.9539 28.3019 47.3079 28.2279 47.6359 28.0922C47.9689 27.9524 48.2859 27.7633 48.5529 27.5248C48.7959 27.3151 49.0059 27.0767 49.1869 26.8135C49.3669 26.5504 49.5319 26.2708 49.6719 25.9747C49.8159 25.6663 49.9389 25.3456 50.0169 25.0126C50.0379 24.9221 50.0579 24.8317 50.0749 24.7412C50.1079 24.9509 50.1239 25.1688 50.1239 25.3909Z" fill="#F3AB95"/>
<path d="M41.2261 21.4067L41.2321 21.4121L41.2261 21.4067Z" fill="#F3AB95"/>
<path d="M47.069 23.9312C47.435 24.4821 47.534 25.1606 47.46 25.8102C47.386 26.4434 47.131 27.0602 46.711 27.5412C46.666 27.5906 46.584 27.5865 46.543 27.5412C46.493 27.4919 46.502 27.422 46.543 27.3727C46.576 27.3315 46.609 27.2945 46.641 27.2534C46.757 27.0931 46.851 26.9245 46.929 26.7436C46.925 26.7518 46.921 26.7641 46.913 26.7723C46.966 26.649 47.007 26.5215 47.044 26.3941C47.086 26.2502 47.114 26.1021 47.135 25.9541C47.164 25.6951 47.168 25.4319 47.135 25.1729V25.177C47.102 24.9714 47.049 24.7741 46.97 24.5767C46.9 24.4205 46.814 24.2724 46.707 24.1367C46.678 24.0956 46.674 24.0257 46.687 23.9805C46.699 23.9271 46.736 23.8859 46.781 23.8572C46.814 23.8366 46.847 23.8284 46.884 23.8284C46.962 23.8325 47.028 23.8695 47.069 23.9312ZM46.987 24.6014C46.987 24.6055 46.991 24.6096 46.991 24.6137C46.991 24.6096 46.987 24.6055 46.987 24.6014Z" fill="#BF8675"/>
<path d="M48.3639 23.878C48.5329 23.9109 48.7019 23.9684 48.8619 24.0342C48.8989 24.0465 48.9279 24.063 48.9479 24.1C48.9689 24.1329 48.9729 24.174 48.9649 24.211C48.9439 24.2809 48.8579 24.3426 48.7839 24.3138C48.7019 24.2809 48.6189 24.2521 48.5369 24.2316C48.4629 24.211 48.3849 24.1946 48.3069 24.1863C48.1669 24.174 48.0269 24.174 47.8869 24.1863C47.7559 24.2069 47.6319 24.2398 47.5049 24.2891C47.3979 24.3385 47.2989 24.3919 47.1969 24.4495C47.1229 24.4865 47.0359 24.4783 46.9749 24.4207C46.9089 24.3549 46.9009 24.2275 46.9749 24.1617C47.0359 24.1082 47.1019 24.063 47.1719 24.0219C47.2419 23.9808 47.3199 23.9561 47.3939 23.9273C47.5459 23.8697 47.7149 23.8533 47.8789 23.8451C47.9039 23.8451 47.9329 23.841 47.9569 23.841C48.0889 23.8327 48.2289 23.8533 48.3639 23.878Z" fill="#BF8675"/>
<path d="M31.9421 21.855C31.9421 22.4758 31.9871 23.0967 32.0081 23.7175C32.0201 24.03 32.0201 24.3384 32.0081 24.6509C31.9961 24.9428 31.9631 25.2307 31.9221 25.5144C31.9091 25.5884 31.8021 25.6295 31.7451 25.5884C31.5601 25.4527 31.3751 25.3293 31.1691 25.2389C31.0661 25.1978 30.9601 25.1649 30.8531 25.1484C30.7831 25.1402 30.7171 25.1402 30.6471 25.1484C30.5981 25.1566 30.5521 25.169 30.5071 25.1854C30.4621 25.206 30.4211 25.2307 30.3801 25.2594C30.3431 25.2923 30.3061 25.3293 30.2731 25.3663C30.2771 25.3581 30.2811 25.354 30.2851 25.3458C30.2811 25.354 30.2771 25.3622 30.2691 25.3663C30.2651 25.3704 30.2651 25.3704 30.2611 25.3746C30.2651 25.3704 30.2651 25.3704 30.2691 25.3663C30.2361 25.4157 30.2071 25.4609 30.1871 25.5144C30.1581 25.5884 30.1371 25.6665 30.1251 25.7487C30.1131 25.868 30.1131 25.9872 30.1251 26.1064C30.1451 26.2339 30.1781 26.3531 30.2281 26.4724C30.2851 26.5998 30.3551 26.7191 30.4411 26.8301C30.4331 26.8178 30.4251 26.8054 30.4131 26.7931C30.4951 26.8959 30.5851 26.9863 30.6841 27.0727C30.7951 27.1549 30.9141 27.2248 31.0421 27.2824C31.1321 27.3194 31.2231 27.3482 31.3171 27.377C31.4281 27.4057 31.4941 27.525 31.4651 27.636C31.4371 27.7429 31.3131 27.821 31.2061 27.784C31.0791 27.7429 30.9511 27.6936 30.8321 27.6319C30.7091 27.5702 30.5981 27.488 30.4911 27.4016C30.3061 27.2536 30.1541 27.0645 30.0341 26.8589C29.9271 26.6697 29.8531 26.46 29.8161 26.2462C29.7791 26.0365 29.7841 25.8268 29.8291 25.6172C29.8701 25.4403 29.9521 25.28 30.0711 25.1484C30.1821 25.0168 30.3391 24.9305 30.5031 24.8935C30.7001 24.8442 30.9141 24.877 31.1081 24.9387C31.3251 25.0086 31.5311 25.1279 31.7161 25.2677C31.7201 25.2306 31.7281 25.1936 31.7331 25.1525C31.7331 25.1649 31.7281 25.1731 31.7281 25.1854C31.8641 24.0794 31.7121 22.9651 31.7161 21.8591C31.7161 21.7974 31.7651 21.748 31.8271 21.748C31.8891 21.7439 31.9421 21.7933 31.9421 21.855ZM30.1211 26.0859C30.1211 26.09 30.1211 26.0941 30.1211 26.0941C30.1211 26.0941 30.1211 26.09 30.1211 26.0859ZM30.2111 26.4354C30.2151 26.4436 30.2191 26.4518 30.2241 26.46C30.2191 26.4518 30.2151 26.4436 30.2111 26.4354ZM30.6631 27.048C30.6721 27.0521 30.6761 27.0562 30.6841 27.0645C30.6761 27.0604 30.6681 27.0562 30.6631 27.048ZM30.6881 27.0686C30.6921 27.0727 30.6961 27.0727 30.7001 27.0768C30.6961 27.0768 30.6921 27.0727 30.6881 27.0686ZM30.2691 25.3622C30.2691 25.3581 30.2691 25.3581 30.2691 25.3622V25.3622Z" fill="#BF8675"/>
<path d="M37.197 24.3751C37.197 23.5487 37.6 22.8826 38.097 22.8826C38.595 22.8826 38.998 23.5528 38.998 24.3751C38.998 25.2016 38.595 25.8718 38.097 25.8718C37.6 25.8718 37.197 25.2016 37.197 24.3751Z" fill="#3A0241"/>
<path d="M37.912 21.1312C36.946 20.7283 36.284 20.1074 36.436 19.7456C36.588 19.3837 37.493 19.4166 38.459 19.8196C39.426 20.2225 40.083 20.8434 39.935 21.2052C39.783 21.5671 38.875 21.5342 37.912 21.1312Z" fill="#3A0241"/>
<path d="M27.51 23.8653C27.51 23.0841 27.127 22.4468 26.659 22.4468C26.186 22.4468 25.803 23.08 25.803 23.8653C25.803 24.6465 26.186 25.2839 26.659 25.2839C27.127 25.2839 27.51 24.6465 27.51 23.8653Z" fill="#3A0241"/>
<path d="M26.8351 20.7856C27.7521 20.4033 28.3771 19.8153 28.2331 19.474C28.0891 19.1327 27.2301 19.1615 26.3171 19.5439C25.4001 19.9263 24.7751 20.5143 24.9191 20.8555C25.0591 21.1968 25.9181 21.168 26.8351 20.7856Z" fill="#3A0241"/>
<path d="M46.4891 22.2329C46.4971 22.344 46.5101 22.455 46.5221 22.566C45.6261 23.7173 44.6551 24.8069 43.6151 25.8266C42.4841 26.9367 41.2671 27.9564 39.9971 28.898C39.9061 28.9638 39.7831 28.9638 39.7051 28.8774C39.6351 28.7952 39.6391 28.6554 39.7251 28.5855C40.6421 27.9112 41.5261 27.1916 42.3691 26.431C43.2251 25.6621 44.0351 24.848 44.8031 23.9886C44.7911 24.001 44.7791 24.0174 44.7661 24.0297C45.3341 23.3924 45.8811 22.7304 46.3951 22.0479C46.4071 22.0315 46.4231 22.015 46.4401 22.0027C46.4651 22.0767 46.4771 22.1548 46.4891 22.2329Z" fill="#FEFEFE"/>
<path d="M45.9009 29.1735C45.9009 29.1694 45.9049 29.1694 45.9049 29.1653C45.9049 29.1694 45.9009 29.1735 45.9009 29.1735C45.8189 29.3668 45.7329 29.56 45.6379 29.7492C43.8819 30.7154 42.0319 31.5131 40.1119 32.0764C40.0629 32.0928 40.0009 32.0723 39.9599 32.0435C39.9149 32.0147 39.8819 31.9654 39.8739 31.9119C39.8649 31.8585 39.8739 31.805 39.9059 31.7598C39.9389 31.7105 39.9849 31.6858 40.0379 31.6734C40.2229 31.62 40.4039 31.5665 40.5849 31.5049C42.4429 30.9046 44.2359 30.0946 45.9259 29.116C45.9179 29.1365 45.9099 29.1571 45.9009 29.1735Z" fill="#FEFEFE"/>
<path d="M22.789 24.2397C22.789 24.2438 22.789 24.2438 22.789 24.2397C23.435 25.6418 24.138 27.0069 24.96 28.3103C25.022 28.4049 24.989 28.5323 24.895 28.594C24.8 28.6557 24.6729 28.6228 24.6109 28.5282C23.4059 26.6286 22.452 24.5892 21.585 22.5169L21.589 22.4635C21.601 22.2949 21.618 22.1263 21.63 21.9577C21.638 21.8426 21.651 21.7316 21.659 21.6165C22.021 22.5005 22.391 23.3763 22.789 24.2397Z" fill="#FEFEFE"/>
<path d="M24.8581 30.8018C24.9481 30.8717 24.9401 31.0156 24.8701 31.0938C24.8331 31.1349 24.7801 31.1595 24.7261 31.1595C24.6691 31.1595 24.6231 31.139 24.5781 31.1061C23.8421 30.5469 23.0941 29.9918 22.4151 29.3586C22.3701 29.1818 22.3171 29.0091 22.2591 28.8364C22.2341 28.7419 22.2101 28.6473 22.1851 28.5527C22.9911 29.3997 23.9331 30.0987 24.8581 30.8018Z" fill="#FEFEFE"/>
<path d="M31.042 24.6384C31.132 24.6384 31.227 24.6425 31.317 24.6467H31.313C31.523 24.6672 31.732 24.7042 31.938 24.7577C32.094 24.7988 32.242 24.8481 32.394 24.9016C32.39 24.8975 32.382 24.8975 32.378 24.8934C32.386 24.8975 32.39 24.8975 32.399 24.9016H32.394H32.399H32.403H32.399C33.052 25.1483 33.661 25.4937 34.257 25.8432C34.878 26.205 35.495 26.5833 36.132 26.9122C36.144 26.9369 36.165 26.9533 36.185 26.9615C36.884 27.3028 37.604 27.6153 38.356 27.8085C38.726 27.9031 39.097 27.9771 39.479 28.0141C39.668 28.0306 39.857 28.0429 40.05 28.047C40.17 28.047 40.285 28.047 40.404 28.0429C40.548 28.2485 40.671 28.4664 40.782 28.6967C41 29.1695 41.144 29.667 41.239 30.1769C41.358 30.8759 41.383 31.5872 41.321 32.2985C41.321 32.2903 41.321 32.278 41.325 32.2697C41.263 32.9029 41.136 33.532 40.918 34.1364C40.848 34.3174 40.774 34.4942 40.688 34.6669C39.907 35.0986 39.076 35.4686 38.188 35.7688C37.341 36.0607 36.436 36.2745 35.507 36.4102C34.8 36.5048 34.117 36.5541 33.48 36.5541C33.246 36.5541 33.011 36.55 32.781 36.5377L32.686 36.5336L32.748 36.5212C31.881 36.4801 30.955 36.328 30.001 36.0854C29.109 35.8593 28.266 35.5509 27.493 35.1685C26.786 34.8272 26.108 34.3914 25.466 33.861C25.002 33.4827 24.562 33.0304 24.146 32.5205C24.072 32.2985 24.015 32.0724 23.97 31.8462C23.867 31.2583 23.85 30.658 23.904 30.0576C23.904 30.0659 23.904 30.0741 23.9 30.0864C23.949 29.5642 24.052 29.0462 24.233 28.5528L24.225 28.5774C24.331 28.2978 24.463 28.0306 24.636 27.7839C24.899 27.7469 25.162 27.7099 25.425 27.6646C25.627 27.6317 25.828 27.5947 26.025 27.5495C26.395 27.4632 26.761 27.3439 27.099 27.1671C27.456 26.9821 27.781 26.7395 28.081 26.4681C28.184 26.3777 28.283 26.2831 28.377 26.1844C28.468 26.094 28.554 25.9994 28.645 25.9089C28.813 25.7363 28.99 25.5677 29.175 25.4114C29.167 25.4155 29.163 25.4238 29.154 25.4279C29.286 25.321 29.418 25.2141 29.557 25.1236C29.693 25.0373 29.829 24.9591 29.973 24.8892C30.075 24.844 30.178 24.7988 30.285 24.7659C30.396 24.733 30.511 24.7042 30.622 24.6837C30.746 24.6672 30.865 24.6508 30.988 24.6467H31.042V24.6384ZM40.774 28.6761C40.774 28.6761 40.774 28.6802 40.778 28.6843C40.774 28.6843 40.774 28.6802 40.774 28.6761Z" fill="#04BFBF"/>
<path d="M29.9561 24.8896C29.9611 24.8896 29.9661 24.885 29.9701 24.885C29.9661 24.8896 29.9611 24.8896 29.9561 24.8896Z" fill="#04BFBF"/>
<path d="M31.0419 24.6304C31.1279 24.6304 31.2189 24.6345 31.3089 24.6386C31.5389 24.6633 31.7489 24.7003 31.9419 24.7496C32.0979 24.7907 32.2459 24.8401 32.3989 24.8935C33.0559 25.1402 33.6569 25.4815 34.2649 25.8351L34.7009 26.09C35.1739 26.3696 35.6549 26.6533 36.1399 26.9041C36.1569 26.9288 36.1769 26.9453 36.1939 26.9535C36.8189 27.2577 37.5589 27.5949 38.3649 27.8005C38.7719 27.9033 39.1379 27.9691 39.4829 28.002C39.6719 28.0184 39.8609 28.0307 40.0549 28.0349H40.1409C40.2309 28.0349 40.3179 28.0349 40.4079 28.0266C40.5519 28.2281 40.6799 28.446 40.7949 28.6845C40.9999 29.1327 41.1519 29.6179 41.2549 30.1688C41.3699 30.8473 41.3989 31.5627 41.3369 32.2905C41.2719 32.9483 41.1359 33.5651 40.9299 34.1325C40.8599 34.3216 40.7859 34.4984 40.6999 34.6629C39.9269 35.0946 39.0839 35.4688 38.1959 35.769C37.3529 36.0568 36.4489 36.2747 35.5109 36.4145C34.7879 36.5091 34.1049 36.5584 33.4839 36.5584C33.2499 36.5584 33.0149 36.5543 32.7849 36.542L32.6909 36.5378L32.7519 36.5091C31.9129 36.4844 30.9879 36.3405 30.0019 36.0897C29.1089 35.8594 28.2659 35.551 27.4929 35.1728C26.8149 34.8479 26.1609 34.4285 25.5439 33.931C25.8979 34.1325 26.2639 34.3134 26.6339 34.4738C27.6089 34.8973 28.6319 35.2098 29.6729 35.4153C30.6879 35.6168 31.7239 35.7237 32.7599 35.732C33.2789 35.732 33.7969 35.7155 34.3149 35.6744C34.8489 35.6333 35.3839 35.5634 35.9099 35.44C36.4119 35.3208 36.9089 35.1604 37.3699 34.9178C37.7809 34.704 38.1709 34.4409 38.4879 34.1037C38.7639 33.8118 38.9939 33.4705 39.1579 33.1046C39.3229 32.7386 39.4419 32.348 39.4909 31.9492C39.5369 31.5545 39.5319 31.1515 39.4459 30.7609C39.4049 30.5635 39.3469 30.3703 39.2649 30.1894C39.1909 30.0167 39.1049 29.8522 39.0019 29.7001C38.8869 29.5315 38.7549 29.367 38.6029 29.2272C38.4509 29.0833 38.2869 28.9518 38.1099 28.849C37.9819 28.775 37.8509 28.7009 37.7149 28.6475C37.5879 28.594 37.4559 28.5488 37.3239 28.5077C37.0779 28.4337 36.8309 28.372 36.5839 28.3062C36.5879 28.3062 36.5879 28.3062 36.5929 28.3062C36.5929 28.3062 36.5879 28.3062 36.5839 28.3062C36.5799 28.3062 36.5719 28.3021 36.5679 28.3021C36.5719 28.3021 36.5759 28.3021 36.5799 28.3062C36.5759 28.3062 36.5719 28.3021 36.5679 28.3021C36.3539 28.2445 36.1359 28.1829 35.9349 28.0965C35.7089 28.002 35.4949 27.8909 35.2849 27.7717C35.2929 27.7758 35.3009 27.7799 35.3059 27.7882C35.0139 27.6155 34.7339 27.4222 34.4669 27.2207C34.2159 27.0316 33.9689 26.8342 33.7229 26.641C33.2909 26.3038 32.8709 25.942 32.4269 25.6131C32.1969 25.4445 31.9629 25.28 31.7159 25.1402C31.4819 25.0045 31.2429 24.8812 30.9879 24.7948C30.8569 24.7496 30.7209 24.7085 30.5809 24.6797C30.5979 24.6756 30.6139 24.6715 30.6309 24.6715C30.7539 24.655 30.8729 24.6386 30.9969 24.6345H31.0419V24.6304Z" fill="#03A5A5"/>
<path d="M31.3131 25.9253C31.4411 25.9376 31.5721 25.9623 31.6951 25.9952C31.8351 26.0322 31.9751 26.0856 32.1071 26.1432C32.3741 26.2542 32.6211 26.4145 32.8551 26.5831C33.1021 26.7599 33.3361 26.9491 33.5661 27.1382C33.7021 27.2492 33.8381 27.3602 33.9731 27.4712C34.1211 27.5864 34.2691 27.7015 34.4091 27.829C34.4671 27.8824 34.4631 27.977 34.4091 28.0263C34.3851 28.051 34.3481 28.0675 34.3111 28.0675C34.2741 28.0675 34.2411 28.051 34.2121 28.0263C34.1461 27.9688 34.0761 27.9153 34.0061 27.8577C33.8381 27.7303 33.6691 27.6069 33.5051 27.4754C33.3441 27.352 33.1841 27.2287 33.0281 27.1053C33.0321 27.1053 33.0321 27.1094 33.0361 27.1094C32.6861 26.8381 32.3251 26.579 31.9181 26.3981C31.8191 26.357 31.7161 26.32 31.6131 26.2912C31.5021 26.2583 31.3871 26.2377 31.2721 26.2213C31.1821 26.2131 31.0951 26.2048 31.0051 26.2048C30.8731 26.2007 30.7461 26.2131 30.6141 26.2295C30.6261 26.2295 30.6391 26.2254 30.6511 26.2254C30.4991 26.246 30.3511 26.2789 30.2031 26.32C30.0671 26.357 29.9361 26.4063 29.8081 26.4598C29.5661 26.5708 29.3391 26.7024 29.1171 26.8463C28.8831 26.9984 28.6651 27.167 28.4431 27.3356C28.2211 27.5041 27.9951 27.6727 27.7611 27.8249C27.5261 27.9811 27.2751 28.1168 27.0161 28.2319C26.9881 28.2443 26.9671 28.2525 26.9381 28.2443C26.9141 28.236 26.8891 28.2196 26.8771 28.1949C26.8521 28.1497 26.8601 28.0757 26.9141 28.0551C27.1401 27.9564 27.3491 27.8413 27.5551 27.7097C27.7561 27.5823 27.9501 27.4384 28.1391 27.2903C28.1311 27.2944 28.1271 27.3027 28.1181 27.3068C28.5791 26.9491 29.0311 26.5708 29.5451 26.2953C29.8041 26.1555 30.0801 26.0527 30.3671 25.9869C30.5771 25.9376 30.7951 25.9129 31.0131 25.9129C31.1121 25.9088 31.2141 25.9129 31.3131 25.9253ZM31.2761 26.2213C31.2881 26.2213 31.2971 26.2254 31.3091 26.2254C31.3011 26.2254 31.2881 26.2213 31.2761 26.2213ZM29.8411 26.4392C29.8291 26.4433 29.8211 26.4474 29.8081 26.4516C29.8211 26.4516 29.8291 26.4474 29.8411 26.4392ZM33.0071 27.0847C33.0151 27.0889 33.0241 27.0971 33.0281 27.1012C33.0241 27.0971 33.0151 27.093 33.0071 27.0847ZM33.9981 27.8454C34.0021 27.8495 34.0021 27.8495 34.0061 27.8536C34.0021 27.8495 33.9981 27.8454 33.9981 27.8454Z" fill="#03A5A5"/>
<path d="M25.771 28.8406C25.832 28.8817 25.894 28.9187 25.96 28.9558C26.021 28.9928 26.087 29.0339 26.153 29.0709C26.297 29.1572 26.445 29.2354 26.593 29.3135C26.585 29.3053 26.572 29.3011 26.56 29.297C27.493 29.7822 28.493 30.1276 29.516 30.3537C29.512 30.3537 29.512 30.3537 29.508 30.3496C31.013 30.6703 32.559 30.7608 34.093 30.6827C35.38 30.6169 36.662 30.4401 37.908 30.1111C37.962 30.0988 38.019 30.144 38.028 30.1934C38.04 30.2509 37.999 30.3003 37.945 30.3126C37.041 30.5511 36.124 30.7156 35.199 30.8225C34.2 30.9376 33.192 30.9787 32.189 30.9417C31.178 30.9088 30.17 30.7855 29.183 30.5634C28.702 30.4565 28.225 30.3208 27.761 30.1523C27.317 29.9919 26.889 29.7945 26.478 29.5684C26.33 29.4862 26.19 29.3998 26.05 29.3053C25.989 29.2641 25.927 29.223 25.865 29.1778C25.791 29.1243 25.721 29.0668 25.647 29.0133C25.602 28.9804 25.59 28.9105 25.623 28.8653C25.643 28.8365 25.676 28.8201 25.709 28.8201C25.73 28.8201 25.75 28.8283 25.771 28.8406ZM29.504 30.3496C29.496 30.3496 29.488 30.3455 29.479 30.3455C29.488 30.3455 29.496 30.3496 29.504 30.3496Z" fill="#03A5A5"/>
<path d="M26.3591 30.95C26.5971 31.1021 26.8441 31.2378 27.0951 31.3694C28.0401 31.8587 29.0601 32.2041 30.1001 32.4384C30.0881 32.4384 30.0801 32.4343 30.0671 32.4343C31.3831 32.7221 32.7401 32.8332 34.0891 32.7715C34.0891 32.7715 34.0891 32.7715 34.0841 32.7715C34.0931 32.7715 34.1011 32.7715 34.1051 32.7715C34.1091 32.7715 34.1091 32.7715 34.1131 32.7715C35.0181 32.7221 35.9221 32.5947 36.7981 32.3521C36.8521 32.3356 36.9091 32.3809 36.9171 32.4343C36.9301 32.4919 36.8891 32.5371 36.8351 32.5536C36.4241 32.6687 36.0051 32.7592 35.5851 32.8332C35.1211 32.9113 34.6561 32.9606 34.1911 32.9894C33.2501 33.0511 32.3041 33.0182 31.3711 32.9113C30.4371 32.8003 29.5121 32.6029 28.6201 32.3069C28.1961 32.1671 27.7771 32.0026 27.3741 31.8135C27.1851 31.723 26.9961 31.6284 26.8151 31.5256C26.7121 31.4681 26.6091 31.4105 26.5111 31.3488C26.4121 31.2872 26.3171 31.2214 26.2231 31.1597C26.1651 31.1227 26.1531 31.0363 26.1901 30.9829C26.2151 30.9459 26.2561 30.9294 26.2931 30.9294C26.3091 30.9294 26.3341 30.9336 26.3591 30.95ZM34.1051 32.7674C34.0971 32.7674 34.0931 32.7674 34.0841 32.7674C34.0931 32.7674 34.1011 32.7674 34.1091 32.7674H34.1051Z" fill="#03A5A5"/>
<path d="M28.2499 33.4374C28.6029 33.6142 28.9609 33.7746 29.3349 33.9103C29.6929 34.0418 30.0629 34.1446 30.4329 34.2269C30.4289 34.2269 30.4249 34.2269 30.4209 34.2269C30.9679 34.3461 31.5189 34.4201 32.0739 34.4612C32.6529 34.5023 33.2369 34.5023 33.8129 34.4736H33.8089C33.8169 34.4736 33.8249 34.4736 33.8339 34.4736H33.8379C33.9029 34.4695 33.9689 34.4653 34.0349 34.4612C34.0639 34.4612 34.0879 34.4612 34.1129 34.4777C34.1339 34.4941 34.1499 34.5188 34.1539 34.5435C34.1579 34.5723 34.1539 34.5969 34.1379 34.6216C34.1249 34.6421 34.0969 34.6627 34.0719 34.6627C33.5699 34.6915 33.0729 34.7079 32.5709 34.6997C32.0609 34.6874 31.5519 34.6422 31.0459 34.5681C30.5559 34.4982 30.0749 34.3831 29.6029 34.2392C29.3439 34.1611 29.0929 34.0665 28.8459 33.9637C28.6079 33.865 28.3769 33.7499 28.1509 33.6307C28.1099 33.6101 28.0979 33.5443 28.1099 33.5032C28.1179 33.4785 28.1389 33.4539 28.1629 33.4415C28.1759 33.4374 28.1959 33.4292 28.2129 33.4292C28.2289 33.4292 28.2419 33.4333 28.2499 33.4374ZM33.8379 34.4736C33.8289 34.4736 33.8249 34.4736 33.8169 34.4736C33.8249 34.4736 33.8339 34.4736 33.8379 34.4736ZM30.4539 34.2351C30.4449 34.2351 30.4409 34.231 30.4329 34.231C30.4409 34.231 30.4499 34.231 30.4539 34.2351Z" fill="#03A5A5"/>
<path d="M30.721 8.56982H30.815C31.749 8.57392 32.723 8.69323 33.792 8.92343C35.708 9.33873 37.69 10.1035 39.676 11.1972C41.395 12.1429 42.941 13.2489 44.269 14.4866C44.623 14.8155 44.923 15.1156 45.182 15.4035C45.519 15.7735 45.84 16.197 46.193 16.7357C46.724 17.5498 47.209 18.4708 47.727 19.6426C47.752 19.6591 47.772 19.6796 47.789 19.7002C47.842 19.7701 47.854 19.8441 47.854 19.9304C47.842 20.7651 47.579 21.6162 47.106 22.3317C46.608 23.0882 45.856 23.557 45.091 23.5816H45.025C44.618 23.5816 44.195 23.4706 43.8 23.265C43.451 23.0841 43.134 22.8251 42.826 22.4838C42.579 22.2083 42.353 21.8671 42.119 21.4148C41.938 21.0653 41.777 20.6664 41.625 20.1936C41.383 19.4329 41.206 18.6106 41.091 17.6772C40.992 17.7348 40.889 17.7841 40.786 17.8294C40.536 17.9363 40.272 18.0185 40.022 18.0925C39.557 18.2241 39.072 18.3187 38.582 18.3721C38.286 18.405 37.986 18.4214 37.682 18.4214C37.041 18.4214 36.387 18.3515 35.733 18.2118C33.899 17.8129 32.156 16.8878 30.696 15.535C29.5 14.4249 28.57 13.0886 28.007 11.6659C27.781 11.7811 27.551 11.9085 27.321 12.0483L27.325 12.0442C26.482 12.5623 25.659 13.2325 24.874 14.0384C23.871 15.0828 23.007 16.2505 22.312 17.5045L22.271 17.5827L22.251 17.6238C22.206 17.7019 22.164 17.7595 22.086 17.7965C22.049 17.8129 22.004 17.8211 21.963 17.8211C21.942 17.8211 21.922 17.817 21.897 17.817H21.836C21.753 17.8088 21.671 17.7636 21.618 17.6978C21.564 17.632 21.544 17.5539 21.552 17.4758C21.794 15.6214 22.485 13.8081 23.55 12.2251C24.105 11.3987 24.755 10.6956 25.474 10.1364C25.832 9.85683 26.227 9.60602 26.65 9.39632C27.012 9.21122 27.419 9.06732 27.962 8.91932C28.793 8.68082 29.697 8.56982 30.721 8.56982Z" fill="#3A0241"/>
<path d="M28.8461 10.4943C28.9281 10.6259 29.0111 10.7533 29.0971 10.8849C29.1011 10.8931 29.1051 10.9014 29.1131 10.9096C29.1131 10.9055 29.1091 10.9055 29.1091 10.9014C29.4381 11.3742 29.7921 11.8265 30.1741 12.2582C30.5611 12.6941 30.9801 13.1011 31.4241 13.4794C31.4161 13.4753 31.4121 13.4712 31.4081 13.467C31.6171 13.6439 31.8351 13.8124 32.0531 13.9769C32.2711 14.1414 32.4971 14.2976 32.7281 14.4456C33.1961 14.7417 33.6861 15.0089 34.1871 15.2474C34.5941 15.4324 35.0091 15.5969 35.4371 15.7367C35.8731 15.8806 36.3211 15.9916 36.7731 16.078C37.1351 16.1397 37.4971 16.1808 37.8591 16.1972C38.2581 16.2178 38.6571 16.2054 39.0551 16.189C39.1131 16.1931 39.1621 16.2096 39.2081 16.2383C39.2771 16.2836 39.3311 16.3535 39.3471 16.4357C39.3641 16.5179 39.3471 16.6002 39.3061 16.6701C39.2651 16.7358 39.1871 16.7975 39.1091 16.8099C38.5831 16.8839 38.0481 16.8798 37.5221 16.8345C37.0001 16.7893 36.4771 16.6906 35.9721 16.5549C34.9601 16.2836 34.0021 15.8272 33.1181 15.2639C32.9041 15.1282 32.6991 14.9802 32.4971 14.828C32.2791 14.6594 32.0611 14.4909 31.8481 14.3182C31.4451 13.9851 31.0621 13.6192 30.7001 13.2409C30.3391 12.8585 29.9931 12.4638 29.6681 12.0485C29.3561 11.6497 29.0721 11.2303 28.8011 10.8027L28.6691 10.5971C28.6401 10.5477 28.6691 10.482 28.7151 10.4573C28.7311 10.4491 28.7431 10.445 28.7601 10.445C28.7891 10.4367 28.8261 10.4614 28.8461 10.4943ZM31.4411 13.4917C31.4321 13.4876 31.4281 13.4794 31.4201 13.4753C31.4281 13.4835 31.4321 13.4876 31.4411 13.4917ZM29.1051 10.8972C29.1011 10.8931 29.0971 10.889 29.0971 10.8849C29.0971 10.889 29.1011 10.8931 29.1051 10.8972Z" fill="#2D0133"/>
<path d="M29.8331 9.7416C29.8621 9.7498 29.8781 9.7704 29.8951 9.7951C29.9071 9.8115 29.9191 9.828 29.9321 9.8444C29.9321 9.8444 29.9281 9.8403 29.9281 9.8362C30.4581 10.601 31.1081 11.2794 31.8191 11.8838C32.0371 12.0647 32.2631 12.2415 32.4891 12.4142C32.7481 12.6075 33.0111 12.7884 33.2831 12.9652C33.3651 13.0186 33.3901 13.1297 33.3401 13.216C33.3161 13.2571 33.2701 13.2859 33.2251 13.2941C33.1841 13.3023 33.1261 13.2982 33.0941 13.2695C32.4601 12.7925 31.8441 12.2991 31.2721 11.7481C30.9761 11.4644 30.7011 11.1684 30.4371 10.8518C30.1781 10.5434 29.9441 10.2186 29.7221 9.8855C29.6931 9.8403 29.7221 9.7704 29.7671 9.7457C29.7841 9.7375 29.7961 9.7334 29.8121 9.7334C29.8121 9.7334 29.8211 9.7375 29.8331 9.7416ZM29.9321 9.8485C29.9321 9.8444 29.9281 9.8444 29.9281 9.8403C29.9321 9.8444 29.9321 9.8485 29.9321 9.8485Z" fill="#2D0133"/>
<path d="M40.342 8.77962C41.95 9.71292 43.422 10.9259 44.569 12.3979C44.836 12.735 45.083 13.0886 45.309 13.4546C45.568 13.874 45.811 14.3098 46.049 14.7416C46.498 15.5516 46.938 16.3698 47.414 17.1675C47.632 17.5334 47.854 17.8911 48.097 18.2406C48.089 18.2283 48.076 18.2118 48.068 18.1995C48.311 18.549 48.57 18.8903 48.849 19.211C49.129 19.5358 49.437 19.8359 49.762 20.1114C50.05 20.354 50.35 20.576 50.667 20.7775C51 20.9913 51.349 21.1805 51.707 21.3532C51.703 21.3532 51.699 21.349 51.695 21.349C51.699 21.3532 51.703 21.3532 51.707 21.3532C51.728 21.3614 51.748 21.3737 51.769 21.3819C51.752 21.3737 51.74 21.3655 51.724 21.3614C51.97 21.4724 52.221 21.5752 52.476 21.6698C52.645 21.7314 52.747 21.9082 52.694 22.0892C52.665 22.1714 52.608 22.2454 52.525 22.2865C52.451 22.3235 52.353 22.34 52.275 22.3071C51.773 22.1097 51.288 21.8918 50.819 21.6286C50.404 21.3943 50.009 21.127 49.639 20.8269C48.944 20.2677 48.348 19.5934 47.834 18.8656C47.575 18.4996 47.34 18.1255 47.114 17.739C46.888 17.3525 46.683 16.9495 46.477 16.5507C46.263 16.1354 46.054 15.7201 45.844 15.3007C45.622 14.8649 45.392 14.4332 45.153 14.0097C44.956 13.6561 44.754 13.3025 44.524 12.9653C43.878 12.0443 43.101 11.2219 42.246 10.4942L42.242 10.4901C42.234 10.4818 42.226 10.4736 42.213 10.4654C42.217 10.4695 42.221 10.4736 42.226 10.4736C41.703 10.0378 41.156 9.63071 40.585 9.26481C39.997 8.89061 39.38 8.55342 38.747 8.25742C38.759 8.26152 38.768 8.26561 38.78 8.26971C37.694 7.76811 36.555 7.39391 35.38 7.18011C35.388 7.18011 35.4 7.18431 35.408 7.18431C34.508 7.02391 33.595 6.96631 32.682 7.03621C32.69 7.03621 32.699 7.03621 32.711 7.03621C31.967 7.09791 31.235 7.24182 30.528 7.48852C30.532 7.48852 30.54 7.48442 30.544 7.48442C30.265 7.58312 29.997 7.69412 29.73 7.82162C29.677 7.84622 29.619 7.82572 29.59 7.77632C29.566 7.72702 29.586 7.66121 29.636 7.63651C30.873 7.04031 32.193 6.78542 33.525 6.78542C35.902 6.78132 38.311 7.59952 40.342 8.77962ZM51.724 21.3614C51.719 21.3573 51.711 21.3573 51.707 21.3532C51.707 21.3532 51.707 21.3532 51.703 21.3532C51.711 21.3532 51.715 21.3573 51.724 21.3614ZM42.242 10.4859C42.242 10.4859 42.246 10.4859 42.246 10.4901C42.238 10.4859 42.234 10.4777 42.226 10.4736C42.234 10.4777 42.238 10.4818 42.242 10.4859Z" fill="#2D0133"/>
<path d="M41.1729 7.71469C41.5099 7.87919 41.8429 8.04369 42.1679 8.22049C42.4839 8.39319 42.7969 8.58229 43.1009 8.77969C43.6929 9.15789 44.2569 9.58559 44.7909 10.0419C45.3299 10.5066 45.8309 11.0123 46.2999 11.5427C46.7979 12.1101 47.2539 12.7145 47.6569 13.3478C47.6899 13.3971 47.6899 13.467 47.6729 13.5204C47.6529 13.578 47.6119 13.6315 47.5539 13.6602C47.5009 13.689 47.4349 13.6931 47.3809 13.6726C47.3199 13.652 47.2789 13.6109 47.2459 13.5574C47.0979 13.3231 46.9499 13.0887 46.7939 12.8626C46.8019 12.8749 46.8059 12.8831 46.8139 12.8914C46.4279 12.3322 46.0119 11.7894 45.5599 11.2837C45.1239 10.7944 44.6509 10.338 44.1539 9.91449C43.6889 9.52389 43.2039 9.16619 42.6979 8.82899C42.1759 8.48359 41.6289 8.16699 41.0699 7.88739C41.0209 7.86269 41.0119 7.78869 41.0369 7.74759C41.0579 7.71469 41.0859 7.70239 41.1189 7.70239C41.1359 7.70239 41.1559 7.70649 41.1729 7.71469Z" fill="#2D0133"/>
<path d="M25.849 11.5796C25.877 11.6248 25.865 11.6906 25.82 11.7235C25.437 11.9579 25.08 12.2293 24.739 12.5212L24.763 12.5006C24.401 12.8131 24.056 13.1462 23.735 13.4998C23.39 13.8781 23.0809 14.281 22.7899 14.7004C22.5389 15.0663 22.304 15.4446 22.095 15.8352C21.881 16.2341 21.6999 16.6493 21.5229 17.0687C21.4939 17.1345 21.4239 17.188 21.3589 17.2085C21.2849 17.2332 21.2019 17.225 21.1369 17.188C21.0709 17.1551 21.0219 17.0934 20.9969 17.0235C20.9719 16.9454 20.985 16.8755 21.013 16.8015C21.231 16.2793 21.527 15.7941 21.848 15.3254C22.193 14.8114 22.58 14.3262 22.995 13.8616C23.789 12.9735 24.689 12.1635 25.713 11.5467C25.729 11.5344 25.75 11.5303 25.771 11.5303C25.795 11.5344 25.828 11.5508 25.849 11.5796ZM22.806 14.6716C22.802 14.6757 22.798 14.6798 22.798 14.6881C22.798 14.6798 22.802 14.6757 22.806 14.6716Z" fill="#2D0133"/>
<path d="M17.9379 21.1887C17.9789 21.2298 17.9789 21.2873 17.9459 21.3326C17.9049 21.386 17.8639 21.4436 17.8229 21.5011C17.8269 21.497 17.8269 21.4929 17.8309 21.4929C17.5509 21.8918 17.3209 22.3153 17.1519 22.7717C17.0089 23.1787 16.9219 23.6022 16.8809 24.0339C16.8809 24.0298 16.8809 24.0257 16.8809 24.0216C16.8809 24.0298 16.8809 24.0422 16.8769 24.0504C16.8769 24.0545 16.8769 24.0586 16.8769 24.0586V24.0545C16.8359 24.5973 16.8689 25.14 16.9629 25.6745L16.9549 25.6252C17.0289 26.0199 17.1319 26.4064 17.2509 26.7888C17.3129 26.9862 17.3829 27.1835 17.4489 27.3809C17.5179 27.5865 17.6049 27.792 17.6749 27.9976C17.8099 28.38 17.9009 28.7706 17.9579 29.1736C18.0079 29.5395 17.9989 29.9055 17.9669 30.2755C17.9089 30.9498 17.6709 31.5871 17.3749 32.1874C17.2179 32.5082 17.0409 32.8165 16.8609 33.1249C16.6469 33.495 16.4289 33.865 16.2029 34.2268C16.1489 34.3091 16.0879 34.3708 15.9929 34.4036C15.9029 34.4324 15.7999 34.4242 15.7129 34.3831C15.5409 34.2926 15.4669 34.0665 15.5609 33.8938C16.0629 32.9563 16.6799 32.0764 17.0579 31.0773C17.1849 30.7196 17.2759 30.3536 17.3169 29.9754C17.3499 29.5066 17.3049 29.0379 17.2219 28.5733C17.1609 28.2443 17.0739 27.9236 16.9839 27.6029C16.8889 27.2699 16.8069 26.9327 16.7369 26.5955C16.6139 25.9788 16.5399 25.3538 16.5399 24.7247C16.5439 24.1162 16.6429 23.5118 16.8399 22.9402C16.9429 22.636 17.0739 22.3399 17.2219 22.0562C17.3869 21.752 17.5799 21.4641 17.7899 21.1887C17.8059 21.164 17.8349 21.1558 17.8639 21.1558C17.8879 21.164 17.9169 21.1722 17.9379 21.1887ZM17.8139 21.5094L17.8099 21.5135C17.8099 21.5135 17.8139 21.5135 17.8139 21.5094ZM17.2059 28.5157C17.2099 28.528 17.2099 28.5404 17.2139 28.5527C17.2099 28.5404 17.2099 28.528 17.2059 28.5157ZM16.8729 24.0586V24.0545C16.8729 24.0504 16.8729 24.0422 16.8729 24.0381C16.8729 24.0422 16.8729 24.0504 16.8729 24.0586Z" fill="#2D0133"/>
</svg>
