<svg width="193" height="157" viewBox="0 0 193 157" fill="none" xmlns="http://www.w3.org/2000/svg">
<path d="M192.35 0.700022C192.35 17.9334 191.983 38.2834 191.25 61.75C190.15 95.1167 184.833 119.317 175.3 134.35C165.767 149.383 148.9 156.9 124.7 156.9L118.1 128.85C131.3 128.483 140.283 124.083 145.05 115.65C149.45 107.583 151.65 95.4833 151.65 79.35H113.15L113.15 0.700022H192.35ZM79.6 0.700022C79.6 17.9334 79.2333 38.2834 78.5 61.75C77.4 95.1167 72.0833 119.317 62.55 134.35C53.0167 149.383 36.15 156.9 11.95 156.9L5.35 128.85C18.55 128.483 27.5333 124.083 32.3 115.65C36.7 107.583 38.9 95.4833 38.9 79.35H0.399995L0.399995 0.700022H79.6Z" fill="#5AE295" fill-opacity="0.5"/>
</svg>
