<svg width="105" height="36" viewBox="0 0 105 36" fill="none" xmlns="http://www.w3.org/2000/svg">
<path d="M9.375 11.5293C10.9417 11.5293 12.2833 11.921 13.4 12.7043C14.5333 13.471 15.3917 14.521 15.975 15.8543C16.575 17.171 16.875 18.646 16.875 20.2793C16.875 21.9126 16.575 23.396 15.975 24.7293C15.3917 26.046 14.5333 27.096 13.4 27.8793C12.2833 28.646 10.9417 29.0293 9.375 29.0293H3.4C2.96667 29.0293 2.6 28.8876 2.3 28.6043C2.01667 28.3043 1.875 27.9376 1.875 27.5043V13.0543C1.875 12.621 2.01667 12.2626 2.3 11.9793C2.6 11.6793 2.96667 11.5293 3.4 11.5293H9.375ZM9.125 26.1543C10.625 26.1543 11.75 25.6043 12.5 24.5043C13.25 23.3876 13.625 21.9793 13.625 20.2793C13.625 18.5793 13.2417 17.1793 12.475 16.0793C11.725 14.9626 10.6083 14.4043 9.125 14.4043H5V26.1543H9.125ZM22.3211 27.5043C22.3211 27.9376 22.1794 28.3043 21.8961 28.6043C21.6128 28.8876 21.2544 29.0293 20.8211 29.0293C20.3878 29.0293 20.0294 28.8876 19.7461 28.6043C19.4628 28.3043 19.3211 27.9376 19.3211 27.5043V17.1793C19.3211 16.746 19.4628 16.3876 19.7461 16.1043C20.0294 15.8043 20.3878 15.6543 20.8211 15.6543C21.2544 15.6543 21.6128 15.8043 21.8961 16.1043C22.1794 16.3876 22.3211 16.746 22.3211 17.1793V27.5043ZM20.7961 14.0293C20.2294 14.0293 19.8294 13.9376 19.5961 13.7543C19.3628 13.571 19.2461 13.246 19.2461 12.7793V12.3043C19.2461 11.8376 19.3711 11.5126 19.6211 11.3293C19.8711 11.146 20.2711 11.0543 20.8211 11.0543C21.4044 11.0543 21.8128 11.146 22.0461 11.3293C22.2794 11.5126 22.3961 11.8376 22.3961 12.3043V12.7793C22.3961 13.2626 22.2711 13.596 22.0211 13.7793C21.7878 13.946 21.3794 14.0293 20.7961 14.0293ZM31.2293 15.4043C32.646 15.4043 33.7876 15.6293 34.6543 16.0793C35.521 16.5126 35.9543 17.096 35.9543 17.8293C35.9543 18.196 35.846 18.521 35.6293 18.8043C35.4126 19.071 35.1293 19.2043 34.7793 19.2043C34.5126 19.2043 34.296 19.171 34.1293 19.1043C33.9626 19.021 33.796 18.921 33.6293 18.8043C33.4793 18.671 33.3293 18.5626 33.1793 18.4793C33.0126 18.396 32.7626 18.321 32.4293 18.2543C32.1126 18.1876 31.8543 18.1543 31.6543 18.1543C30.4043 18.1543 29.421 18.546 28.7043 19.3293C28.0043 20.096 27.6543 21.1043 27.6543 22.3543C27.6543 23.5543 28.0126 24.5543 28.7293 25.3543C29.446 26.1376 30.3626 26.5293 31.4793 26.5293C32.296 26.5293 32.9043 26.4293 33.3043 26.2293C33.4043 26.1793 33.5376 26.096 33.7043 25.9793C33.8876 25.846 34.0543 25.746 34.2043 25.6793C34.3543 25.6126 34.5376 25.5793 34.7543 25.5793C35.171 25.5793 35.496 25.7126 35.7293 25.9793C35.9793 26.246 36.1043 26.5876 36.1043 27.0043C36.1043 27.4043 35.871 27.7793 35.4043 28.1293C34.9376 28.4793 34.321 28.7626 33.5543 28.9793C32.7876 29.1793 31.971 29.2793 31.1043 29.2793C29.821 29.2793 28.6876 28.9793 27.7043 28.3793C26.7376 27.7793 25.9876 26.9543 25.4543 25.9043C24.921 24.8376 24.6543 23.6543 24.6543 22.3543C24.6543 21.0043 24.9293 19.8043 25.4793 18.7543C26.046 17.7043 26.8293 16.8876 27.8293 16.3043C28.8293 15.7043 29.9626 15.4043 31.2293 15.4043ZM51.1205 22.3543C51.1205 23.6876 50.8205 24.8876 50.2205 25.9543C49.6205 27.0043 48.7955 27.821 47.7455 28.4043C46.7122 28.9876 45.5705 29.2793 44.3205 29.2793C43.0538 29.2793 41.9038 28.9876 40.8705 28.4043C39.8372 27.821 39.0205 27.0043 38.4205 25.9543C37.8205 24.8876 37.5205 23.6876 37.5205 22.3543C37.5205 21.021 37.8205 19.8293 38.4205 18.7793C39.0205 17.7126 39.8372 16.8876 40.8705 16.3043C41.9038 15.7043 43.0538 15.4043 44.3205 15.4043C45.5705 15.4043 46.7122 15.7043 47.7455 16.3043C48.7955 16.8876 49.6205 17.7126 50.2205 18.7793C50.8205 19.8293 51.1205 21.021 51.1205 22.3543ZM48.1205 22.3543C48.1205 21.5376 47.9455 20.8126 47.5955 20.1793C47.2622 19.5293 46.8038 19.0293 46.2205 18.6793C45.6538 18.3293 45.0205 18.1543 44.3205 18.1543C43.6205 18.1543 42.9788 18.3293 42.3955 18.6793C41.8288 19.0293 41.3705 19.5293 41.0205 20.1793C40.6872 20.8126 40.5205 21.5376 40.5205 22.3543C40.5205 23.171 40.6872 23.896 41.0205 24.5293C41.3705 25.1626 41.8288 25.6543 42.3955 26.0043C42.9788 26.3543 43.6205 26.5293 44.3205 26.5293C45.0205 26.5293 45.6538 26.3543 46.2205 26.0043C46.8038 25.6543 47.2622 25.1626 47.5955 24.5293C47.9455 23.896 48.1205 23.171 48.1205 22.3543ZM60.077 26.2043C60.3103 26.2043 60.5186 26.321 60.702 26.5543C60.902 26.771 61.002 27.0626 61.002 27.4293C61.002 27.8793 60.752 28.2626 60.252 28.5793C59.7686 28.8793 59.2186 29.0293 58.602 29.0293C57.5686 29.0293 56.6936 28.8126 55.977 28.3793C55.277 27.9293 54.927 26.9876 54.927 25.5543V18.6543H53.777C53.377 18.6543 53.0436 18.521 52.777 18.2543C52.5103 17.9876 52.377 17.6543 52.377 17.2543C52.377 16.871 52.5103 16.5543 52.777 16.3043C53.0436 16.0376 53.377 15.9043 53.777 15.9043H54.927V14.3043C54.927 13.871 55.0686 13.5126 55.352 13.2293C55.652 12.9293 56.0186 12.7793 56.452 12.7793C56.8686 12.7793 57.2186 12.9293 57.502 13.2293C57.7853 13.5126 57.927 13.871 57.927 14.3043V15.9043H59.702C60.102 15.9043 60.4353 16.0376 60.702 16.3043C60.9686 16.571 61.102 16.9043 61.102 17.3043C61.102 17.6876 60.9686 18.0126 60.702 18.2793C60.4353 18.5293 60.102 18.6543 59.702 18.6543H57.927V25.4293C57.927 25.7793 58.0186 26.0376 58.202 26.2043C58.3853 26.3543 58.6353 26.4293 58.952 26.4293C59.0853 26.4293 59.2686 26.396 59.502 26.3293C59.702 26.246 59.8936 26.2043 60.077 26.2043ZM74.6814 15.4043C75.1148 15.4043 75.4731 15.546 75.7564 15.8293C76.0398 16.1126 76.1814 16.4793 76.1814 16.9293V27.5043C76.1814 27.9376 76.0398 28.3043 75.7564 28.6043C75.4731 28.8876 75.1148 29.0293 74.6814 29.0293C74.2481 29.0293 73.8898 28.8876 73.6064 28.6043C73.3398 28.321 73.1981 27.9626 73.1814 27.5293C72.7648 28.0126 72.1981 28.4293 71.4814 28.7793C70.7814 29.1126 70.0398 29.2793 69.2564 29.2793C68.1064 29.2793 67.0648 28.9876 66.1314 28.4043C65.1981 27.8043 64.4564 26.9793 63.9064 25.9293C63.3731 24.8793 63.1064 23.6876 63.1064 22.3543C63.1064 21.021 63.3731 19.8293 63.9064 18.7793C64.4398 17.7126 65.1648 16.8876 66.0814 16.3043C67.0148 15.7043 68.0398 15.4043 69.1564 15.4043C69.9564 15.4043 70.7064 15.5543 71.4064 15.8543C72.1064 16.1376 72.6981 16.5043 73.1814 16.9543V16.9293C73.1814 16.496 73.3231 16.1376 73.6064 15.8543C73.8898 15.5543 74.2481 15.4043 74.6814 15.4043ZM69.6314 26.5293C70.7148 26.5293 71.5981 26.1376 72.2814 25.3543C72.9648 24.5543 73.3064 23.5543 73.3064 22.3543C73.3064 21.1543 72.9648 20.1543 72.2814 19.3543C71.5981 18.5543 70.7148 18.1543 69.6314 18.1543C68.5648 18.1543 67.6898 18.5543 67.0064 19.3543C66.3231 20.1543 65.9814 21.1543 65.9814 22.3543C65.9814 23.5543 66.3148 24.5543 66.9814 25.3543C67.6648 26.1376 68.5481 26.5293 69.6314 26.5293ZM78.6576 26.9543C78.5076 26.7543 78.4326 26.5043 78.4326 26.2043C78.4326 25.771 78.6493 25.4043 79.0826 25.1043C79.316 24.9543 79.5576 24.8793 79.8076 24.8793C80.1576 24.8793 80.491 25.0376 80.8076 25.3543C81.3076 25.871 81.8243 26.2543 82.3576 26.5043C82.9076 26.7543 83.566 26.8793 84.3326 26.8793C85.6326 26.8293 86.2826 26.3376 86.2826 25.4043C86.2826 24.921 86.0576 24.5543 85.6076 24.3043C85.1743 24.0543 84.491 23.8043 83.5576 23.5543C82.591 23.2876 81.7993 23.021 81.1826 22.7543C80.5826 22.4876 80.0576 22.0876 79.6076 21.5543C79.1743 21.0043 78.9576 20.271 78.9576 19.3543C78.9576 18.5543 79.1826 17.8626 79.6326 17.2793C80.0993 16.6793 80.6993 16.221 81.4326 15.9043C82.1826 15.571 82.9743 15.4043 83.8076 15.4043C84.6576 15.4043 85.5076 15.5626 86.3576 15.8793C87.2076 16.196 87.8743 16.6626 88.3576 17.2793C88.5743 17.546 88.6826 17.846 88.6826 18.1793C88.6826 18.5626 88.5243 18.8793 88.2076 19.1293C87.9743 19.3126 87.7076 19.4043 87.4076 19.4043C87.041 19.4043 86.741 19.2876 86.5076 19.0543C86.2076 18.6876 85.816 18.396 85.3326 18.1793C84.866 17.9626 84.3326 17.8543 83.7326 17.8543C82.466 17.8543 81.8326 18.3126 81.8326 19.2293C81.8326 19.596 81.9493 19.896 82.1826 20.1293C82.416 20.346 82.7076 20.521 83.0576 20.6543C83.4243 20.771 83.9326 20.921 84.5826 21.1043C85.4826 21.3543 86.2326 21.6126 86.8326 21.8793C87.4326 22.146 87.941 22.5543 88.3576 23.1043C88.7743 23.6543 88.9826 24.3793 88.9826 25.2793C88.9826 26.096 88.741 26.8126 88.2576 27.4293C87.7743 28.0293 87.1493 28.4876 86.3826 28.8043C85.6326 29.121 84.8576 29.2793 84.0576 29.2793C82.9576 29.2793 81.9326 29.096 80.9826 28.7293C80.0326 28.3626 79.2576 27.771 78.6576 26.9543Z" fill="#5AE295"/>
<g opacity="0.8">
<path opacity="0.8" d="M92.8707 1.08168C92.8707 1.08168 93.5918 2.1367 93.4467 3.18735L94.3621 2.97897C94.3621 2.97897 93.7293 1.27916 94.0762 0.787109C94.0762 0.787109 93.1925 0.804565 92.8707 1.08168Z" fill="#5AE295"/>
<g style="mix-blend-mode:multiply" opacity="0.41">
<path d="M92.8707 1.08168C92.8707 1.08168 93.5918 2.1367 93.4467 3.18735L94.3621 2.97897C94.3621 2.97897 93.7293 1.27916 94.0762 0.787109C94.0762 0.787109 93.1925 0.804565 92.8707 1.08168Z" fill="#5AE295"/>
</g>
<path opacity="0.8" d="M94.4244 0.358569C94.4931 0.658599 94.0884 1.00663 93.5199 1.13646C92.9515 1.2663 92.4344 1.12774 92.3667 0.827707C92.2991 0.527677 92.7028 0.178551 93.2712 0.0487196C93.8396 -0.0811117 94.3568 0.0574473 94.4244 0.358569Z" fill="#5AE295"/>
<g style="mix-blend-mode:screen" opacity="0.4">
<path d="M93.4293 0.387126C93.4555 0.496228 93.3028 0.631514 93.0878 0.68061C92.8729 0.729706 92.6787 0.680609 92.6514 0.56387C92.6241 0.447131 92.7791 0.319484 92.9929 0.270388C93.2067 0.221292 93.4031 0.27366 93.4293 0.387126Z" fill="#5AE295"/>
</g>
</g>
<g opacity="0.8">
<path opacity="0.8" d="M96.7319 18.0124C96.7319 18.0124 96.9239 16.7479 96.338 15.8641L97.2534 15.6558C97.2534 15.6558 97.4247 17.4614 97.9462 17.7549C97.9462 17.7549 97.1421 18.1215 96.7319 18.0124Z" fill="#5AE295"/>
<g style="mix-blend-mode:multiply" opacity="0.41">
<path d="M96.7319 18.0124C96.7319 18.0124 96.9239 16.7479 96.338 15.8641L97.2534 15.6558C97.2534 15.6558 97.4247 17.4614 97.9462 17.7549C97.9462 17.7549 97.1421 18.1215 96.7319 18.0124Z" fill="#5AE295"/>
</g>
<path opacity="0.8" d="M98.4459 17.9899C98.3771 17.6898 97.8611 17.5535 97.2926 17.6811C96.7242 17.8088 96.3184 18.159 96.3871 18.4601C96.4558 18.7612 96.9719 18.8965 97.5403 18.7689C98.1087 18.6412 98.5157 18.291 98.4459 17.9899Z" fill="#5AE295"/>
<g style="mix-blend-mode:screen" opacity="0.4">
<path d="M97.5337 18.3953C97.5075 18.2862 97.3155 18.2306 97.0973 18.2786C96.8791 18.3266 96.7296 18.4597 96.7558 18.5732C96.782 18.6866 96.974 18.7379 97.1922 18.6899C97.4104 18.6419 97.5621 18.5088 97.5337 18.3953Z" fill="#5AE295"/>
</g>
</g>
<g opacity="0.8">
<path opacity="0.8" d="M87.0785 11.9441C87.0785 11.9441 88.1346 11.2229 89.1853 11.368L88.9758 10.4526C88.9758 10.4526 87.2771 11.0854 86.785 10.7385C86.785 10.7385 86.8025 11.6222 87.0785 11.9441Z" fill="#5AE295"/>
<g style="mix-blend-mode:multiply" opacity="0.41">
<path d="M87.0785 11.9441C87.0785 11.9441 88.1346 11.2229 89.1853 11.368L88.9758 10.4526C88.9758 10.4526 87.2771 11.0854 86.785 10.7385C86.785 10.7385 86.8025 11.6222 87.0785 11.9441Z" fill="#5AE295"/>
</g>
<path opacity="0.8" d="M86.3552 10.3904C86.6563 10.3217 87.0043 10.7265 87.1342 11.2949C87.264 11.8633 87.1254 12.3804 86.8254 12.4481C86.5254 12.5157 86.1708 12.112 86.0464 11.5436C85.922 10.9752 86.0552 10.4581 86.3552 10.3904Z" fill="#5AE295"/>
<g style="mix-blend-mode:screen" opacity="0.4">
<path d="M86.3846 11.3852C86.4937 11.3591 86.629 11.5118 86.6781 11.7267C86.7272 11.9417 86.6781 12.1359 86.5614 12.1631C86.4446 12.1904 86.3159 12.0355 86.2679 11.8217C86.2199 11.6078 86.2712 11.4114 86.3846 11.3852Z" fill="#5AE295"/>
</g>
</g>
<g opacity="0.8">
<path opacity="0.8" d="M104.009 8.08247C104.009 8.08247 102.744 7.89045 101.862 8.47633L101.653 7.56096C101.653 7.56096 103.458 7.38967 103.752 6.86816C103.752 6.86816 104.119 7.67225 104.009 8.08247Z" fill="#5AE295"/>
<g style="mix-blend-mode:multiply" opacity="0.41">
<path d="M104.009 8.08247C104.009 8.08247 102.744 7.89045 101.862 8.47633L101.653 7.56096C101.653 7.56096 103.458 7.38967 103.752 6.86816C103.752 6.86816 104.119 7.67225 104.009 8.08247Z" fill="#5AE295"/>
</g>
<path opacity="0.8" d="M104.456 8.42458C104.757 8.3561 104.895 7.8396 104.765 7.27094C104.635 6.70227 104.287 6.29679 103.987 6.36527C103.686 6.43375 103.548 6.95025 103.678 7.51892C103.808 8.08758 104.156 8.49306 104.456 8.42458Z" fill="#5AE295"/>
<g style="mix-blend-mode:screen" opacity="0.4">
<path d="M104.393 7.28075C104.284 7.30694 104.227 7.49896 104.276 7.71716C104.325 7.93537 104.456 8.08484 104.57 8.05865C104.683 8.03247 104.735 7.84045 104.686 7.62224C104.637 7.40404 104.506 7.25239 104.393 7.28075Z" fill="#5AE295"/>
</g>
</g>
<g opacity="0.8">
<path opacity="0.8" d="M91.3148 17.0903C91.3148 17.0903 91.5516 15.8335 92.3971 15.193L91.6018 14.6934C91.6018 14.6934 90.8479 16.3419 90.2544 16.4455C90.25 16.4455 90.8872 17.0576 91.3148 17.0903Z" fill="#5AE295"/>
<g style="mix-blend-mode:multiply" opacity="0.41">
<path d="M91.3148 17.0903C91.3148 17.0903 91.5516 15.8335 92.3971 15.193L91.6018 14.6934C91.6018 14.6934 90.8479 16.3419 90.2544 16.4455C90.25 16.4455 90.8872 17.0576 91.3148 17.0903Z" fill="#5AE295"/>
</g>
<path opacity="0.8" d="M89.7001 16.5023C89.8638 16.2416 90.3973 16.2841 90.8904 16.5918C91.3835 16.8995 91.6541 17.3653 91.4883 17.6261C91.3225 17.8869 90.7911 17.8443 90.2969 17.5366C89.8027 17.229 89.5365 16.7631 89.7001 16.5023Z" fill="#5AE295"/>
<g style="mix-blend-mode:screen" opacity="0.4">
<path d="M90.4245 17.1862C90.4856 17.0869 90.6874 17.1021 90.8729 17.22C91.0583 17.3378 91.1609 17.5113 91.0987 17.6095C91.0365 17.7077 90.8358 17.6924 90.6492 17.5756C90.4626 17.4589 90.3623 17.2843 90.4245 17.1862Z" fill="#5AE295"/>
</g>
</g>
<g opacity="0.8">
<path opacity="0.8" d="M100.553 2.38786C100.553 2.38786 99.5216 3.14612 99.3121 4.18477L98.5156 3.68617C98.5156 3.68617 99.6732 2.29076 99.5085 1.71143C99.5107 1.71688 100.34 2.02018 100.553 2.38786Z" fill="#5AE295"/>
<g style="mix-blend-mode:multiply" opacity="0.41">
<path d="M100.553 2.38786C100.553 2.38786 99.5216 3.14612 99.3121 4.18477L98.5156 3.68617C98.5156 3.68617 99.6732 2.29076 99.5085 1.71143C99.5107 1.71688 100.34 2.02018 100.553 2.38786Z" fill="#5AE295"/>
</g>
<path opacity="0.8" d="M99.3241 1.19109C99.1605 1.45293 99.4278 1.91552 99.9209 2.22537C100.414 2.53522 100.948 2.57559 101.112 2.31484C101.277 2.05408 101.009 1.59149 100.514 1.28164C100.02 0.971792 99.4878 0.930333 99.3241 1.19109Z" fill="#5AE295"/>
<g style="mix-blend-mode:screen" opacity="0.4">
<path d="M100.255 1.54765C100.193 1.64584 100.293 1.8204 100.479 1.93714C100.666 2.05388 100.867 2.07025 100.929 1.97096C100.991 1.87168 100.89 1.69821 100.703 1.58147C100.517 1.46473 100.316 1.44946 100.255 1.54765Z" fill="#5AE295"/>
</g>
</g>
<g opacity="0.8">
<path opacity="0.8" d="M103.087 13.4998C103.087 13.4998 101.83 13.263 101.191 12.4175L100.691 13.2128C100.691 13.2128 102.34 13.9667 102.442 14.5602C102.443 14.5646 103.055 13.9275 103.087 13.4998Z" fill="#5AE295"/>
<g style="mix-blend-mode:multiply" opacity="0.41">
<path d="M103.087 13.4998C103.087 13.4998 101.83 13.263 101.191 12.4175L100.691 13.2128C100.691 13.2128 102.34 13.9667 102.442 14.5602C102.443 14.5646 103.055 13.9275 103.087 13.4998Z" fill="#5AE295"/>
</g>
<path opacity="0.8" d="M102.5 15.1144C102.239 14.9507 102.282 14.4172 102.59 13.9241C102.897 13.4309 103.362 13.1604 103.624 13.3262C103.886 13.492 103.842 14.0233 103.533 14.5176C103.225 15.0118 102.761 15.278 102.5 15.1144Z" fill="#5AE295"/>
<g style="mix-blend-mode:screen" opacity="0.4">
<path d="M103.183 14.3902C103.085 14.3291 103.1 14.1273 103.217 13.9418C103.334 13.7563 103.509 13.6538 103.607 13.716C103.706 13.7781 103.69 13.9789 103.574 14.1655C103.457 14.352 103.281 14.4524 103.183 14.3902Z" fill="#5AE295"/>
</g>
</g>
<g opacity="0.8">
<path opacity="0.8" d="M88.3856 4.26172C88.3856 4.26172 89.1427 5.29273 90.1825 5.50221L89.6784 6.29865C89.6784 6.29865 88.2841 5.14108 87.7048 5.30582C87.7146 5.30364 88.0179 4.47447 88.3856 4.26172Z" fill="#5AE295"/>
<g style="mix-blend-mode:multiply" opacity="0.41">
<path d="M88.3856 4.26172C88.3856 4.26172 89.1427 5.29273 90.1825 5.50221L89.6784 6.29865C89.6784 6.29865 88.2841 5.14108 87.7048 5.30582C87.7146 5.30364 88.0179 4.47447 88.3856 4.26172Z" fill="#5AE295"/>
</g>
<path opacity="0.8" d="M87.1887 5.49049C87.4495 5.65414 87.9131 5.38139 88.223 4.8937C88.5328 4.40601 88.5732 3.86705 88.3125 3.70231C88.0517 3.53756 87.5891 3.81141 87.2782 4.30019C86.9672 4.78896 86.9279 5.32683 87.1887 5.49049Z" fill="#5AE295"/>
<g style="mix-blend-mode:screen" opacity="0.4">
<path d="M87.5444 4.55974C87.6437 4.62193 87.8183 4.52155 87.935 4.33499C88.0518 4.14843 88.067 3.94768 87.9688 3.88549C87.8706 3.8233 87.6961 3.92477 87.5783 4.11133C87.4604 4.29789 87.4462 4.49864 87.5444 4.55974Z" fill="#5AE295"/>
</g>
</g>
<g opacity="0.8">
<path opacity="0.8" d="M100.261 15.7453C100.261 15.7453 99.3382 15.1049 99.1288 14.1982L98.4436 14.6554C98.4436 14.6554 99.4943 15.8555 99.3633 16.365C99.3601 16.365 100.08 16.0737 100.261 15.7453Z" fill="#5AE295"/>
<g style="mix-blend-mode:multiply" opacity="0.41">
<path d="M100.261 15.7453C100.261 15.7453 99.3382 15.1049 99.1288 14.1982L98.4436 14.6554C98.4436 14.6554 99.4943 15.8555 99.3633 16.365C99.3601 16.365 100.08 16.0737 100.261 15.7453Z" fill="#5AE295"/>
</g>
<path opacity="0.8" d="M99.2084 16.8253C99.059 16.6005 99.2826 16.187 99.7081 15.9034C100.134 15.6197 100.601 15.576 100.751 15.7942C100.902 16.0125 100.678 16.4325 100.251 16.7172C99.8249 17.002 99.359 17.05 99.2084 16.8253Z" fill="#5AE295"/>
<g style="mix-blend-mode:screen" opacity="0.4">
<path d="M100.017 16.4907C99.9602 16.4056 100.044 16.2496 100.205 16.1427C100.365 16.0358 100.542 16.0172 100.598 16.1023C100.655 16.1874 100.571 16.3435 100.411 16.4504C100.25 16.5573 100.074 16.5758 100.017 16.4907Z" fill="#5AE295"/>
</g>
</g>
<g opacity="0.8">
<path opacity="0.8" d="M96.134 1.81151C96.134 1.81151 96.3522 2.91235 95.8722 3.71097L96.6839 3.85826C96.6839 3.85826 96.7592 2.26755 97.2098 1.98934C97.2065 1.98934 96.4897 1.69913 96.134 1.81151Z" fill="#5AE295"/>
<g style="mix-blend-mode:multiply" opacity="0.41">
<path d="M96.134 1.81151C96.134 1.81151 96.3522 2.91235 95.8722 3.71097L96.6839 3.85826C96.6839 3.85826 96.7592 2.26755 97.2098 1.98934C97.2065 1.98934 96.4897 1.69913 96.134 1.81151Z" fill="#5AE295"/>
</g>
<path opacity="0.8" d="M97.6429 1.76382C97.5949 2.03003 97.1476 2.17077 96.6435 2.08022C96.1395 1.98966 95.7707 1.69836 95.8187 1.43215C95.8667 1.16594 96.314 1.02411 96.8181 1.11576C97.3221 1.2074 97.6865 1.4987 97.6429 1.76382Z" fill="#5AE295"/>
<g style="mix-blend-mode:screen" opacity="0.4">
<path d="M96.8247 1.44301C96.8072 1.54338 96.6381 1.59684 96.4483 1.56302C96.2584 1.5292 96.121 1.41901 96.1362 1.31863C96.1515 1.21826 96.3239 1.1648 96.5137 1.19862C96.7036 1.23244 96.8432 1.34264 96.8247 1.44301Z" fill="#5AE295"/>
</g>
</g>
<g opacity="0.8">
<path opacity="0.8" d="M91.1546 2.76465C91.1546 2.76465 91.3193 3.52836 91.843 3.89603L91.3695 4.21243C91.3695 4.21243 90.884 3.22506 90.5229 3.17269C90.5229 3.17269 90.8982 2.79083 91.1546 2.76465Z" fill="#5AE295"/>
<g style="mix-blend-mode:multiply" opacity="0.41">
<path d="M91.1546 2.76465C91.1546 2.76465 91.3193 3.52836 91.843 3.89603L91.3695 4.21243C91.3695 4.21243 90.884 3.22506 90.5229 3.17269C90.5229 3.17269 90.8982 2.79083 91.1546 2.76465Z" fill="#5AE295"/>
</g>
<path opacity="0.8" d="M90.1879 3.14738C90.2916 3.30231 90.6145 3.26957 90.9091 3.07319C91.2037 2.87681 91.3575 2.59205 91.2527 2.43604C91.148 2.28002 90.8273 2.31384 90.5327 2.51023C90.2381 2.70661 90.0843 2.99246 90.1879 3.14738Z" fill="#5AE295"/>
<g style="mix-blend-mode:screen" opacity="0.4">
<path d="M90.6156 2.72037C90.6549 2.77928 90.7771 2.76619 90.8873 2.692C90.9974 2.61781 91.0564 2.51089 91.0171 2.45198C90.9778 2.39306 90.8567 2.40615 90.7454 2.48034C90.6341 2.55453 90.5763 2.66145 90.6156 2.72037Z" fill="#5AE295"/>
</g>
</g>
<g opacity="0.8">
<path opacity="0.8" d="M88.9856 13.8865C88.9856 13.8865 89.709 13.6072 89.997 13.0322L90.3832 13.4512C90.3832 13.4512 89.4831 14.0829 89.4875 14.4484C89.4875 14.4484 89.0511 14.1363 88.9856 13.8865Z" fill="#5AE295"/>
<g style="mix-blend-mode:multiply" opacity="0.41">
<path d="M88.9856 13.8865C88.9856 13.8865 89.709 13.6072 89.997 13.0322L90.3832 13.4512C90.3832 13.4512 89.4831 14.0829 89.4875 14.4484C89.4875 14.4484 89.0511 14.1363 88.9856 13.8865Z" fill="#5AE295"/>
</g>
<path opacity="0.8" d="M89.5136 14.7824C89.6511 14.6558 89.5682 14.346 89.3293 14.082C89.0903 13.8179 88.7838 13.7143 88.6463 13.8408C88.5088 13.9674 88.5917 14.2773 88.8318 14.5413C89.0718 14.8053 89.3762 14.9089 89.5136 14.7824Z" fill="#5AE295"/>
<g style="mix-blend-mode:screen" opacity="0.4">
<path d="M89.0238 14.4268C89.0762 14.3788 89.0445 14.2598 88.954 14.1627C88.8634 14.0656 88.7489 14.0231 88.6965 14.0711C88.6441 14.1191 88.6758 14.2369 88.7663 14.3351C88.8569 14.4333 88.9747 14.4737 89.0238 14.4268Z" fill="#5AE295"/>
</g>
</g>
<g opacity="0.8">
<path opacity="0.8" d="M102.06 5.20811C102.06 5.20811 101.31 5.4034 100.958 5.94127L100.622 5.48195C100.622 5.48195 101.589 4.95608 101.626 4.59277C101.626 4.59605 102.023 4.95608 102.06 5.20811Z" fill="#5AE295"/>
<g style="mix-blend-mode:multiply" opacity="0.41">
<path d="M102.06 5.20811C102.06 5.20811 101.31 5.4034 100.958 5.94127L100.622 5.48195C100.622 5.48195 101.589 4.95608 101.626 4.59277C101.626 4.59605 102.023 4.95608 102.06 5.20811Z" fill="#5AE295"/>
</g>
<path opacity="0.8" d="M101.637 4.2613C101.486 4.3704 101.533 4.69771 101.746 4.9781C101.959 5.25849 102.246 5.40578 102.401 5.29559C102.556 5.1854 102.51 4.85918 102.297 4.57879C102.084 4.2984 101.789 4.15111 101.637 4.2613Z" fill="#5AE295"/>
<g style="mix-blend-mode:screen" opacity="0.4">
<path d="M102.081 4.67077C102.024 4.71223 102.042 4.83333 102.12 4.94134C102.199 5.04936 102.309 5.10281 102.366 5.06136C102.423 5.0199 102.405 4.89879 102.327 4.79078C102.248 4.68277 102.139 4.62931 102.081 4.67077Z" fill="#5AE295"/>
</g>
</g>
<g opacity="0.8">
<path opacity="0.8" d="M93.893 17.0205C93.893 17.0205 94.2749 16.3451 94.132 15.7178L94.696 15.7963C94.696 15.7963 94.4025 16.8557 94.6371 17.135C94.6371 17.135 94.1025 17.171 93.893 17.0205Z" fill="#5AE295"/>
<g style="mix-blend-mode:multiply" opacity="0.41">
<path d="M93.893 17.0205C93.893 17.0205 94.2749 16.3451 94.132 15.7178L94.696 15.7963C94.696 15.7963 94.4025 16.8557 94.6371 17.135C94.6371 17.135 94.1025 17.171 93.893 17.0205Z" fill="#5AE295"/>
</g>
<path opacity="0.8" d="M94.8706 17.3774C94.8957 17.1919 94.6328 17.0021 94.2825 16.953C93.9323 16.9039 93.6279 17.0152 93.6018 17.1996C93.5756 17.384 93.8396 17.5749 94.1898 17.624C94.54 17.6731 94.8444 17.5618 94.8706 17.3774Z" fill="#5AE295"/>
<g style="mix-blend-mode:screen" opacity="0.4">
<path d="M94.2673 17.4113C94.2771 17.3414 94.1779 17.2705 94.0491 17.252C93.9204 17.2334 93.8015 17.2749 93.7916 17.3447C93.7818 17.4145 93.8811 17.4855 94.0099 17.504C94.1386 17.5226 94.2608 17.4811 94.2673 17.4113Z" fill="#5AE295"/>
</g>
</g>
<g opacity="0.8">
<path opacity="0.8" d="M103.098 11.1119C103.098 11.1119 102.443 10.6951 101.811 10.8042L101.92 10.2456C101.92 10.2456 102.962 10.5958 103.253 10.3754C103.251 10.3754 103.257 10.9111 103.098 11.1119Z" fill="#5AE295"/>
<g style="mix-blend-mode:multiply" opacity="0.41">
<path d="M103.098 11.1119C103.098 11.1119 102.443 10.6951 101.811 10.8042L101.92 10.2456C101.92 10.2456 102.962 10.5958 103.253 10.3754C103.251 10.3754 103.257 10.9111 103.098 11.1119Z" fill="#5AE295"/>
</g>
<path opacity="0.8" d="M103.504 10.1562C103.321 10.1202 103.118 10.3744 103.05 10.7203C102.982 11.0661 103.076 11.3749 103.259 11.4131C103.443 11.4513 103.647 11.1949 103.714 10.849C103.782 10.5032 103.688 10.1922 103.504 10.1562Z" fill="#5AE295"/>
<g style="mix-blend-mode:screen" opacity="0.4">
<path d="M103.506 10.7595C103.437 10.7464 103.361 10.8413 103.335 10.9723C103.309 11.1032 103.345 11.221 103.414 11.2341C103.484 11.2472 103.561 11.1523 103.586 11.0159C103.611 10.8795 103.576 10.7726 103.506 10.7595Z" fill="#5AE295"/>
</g>
</g>
<g opacity="0.8">
<path opacity="0.8" d="M87.6458 8.43265C87.6458 8.43265 88.7368 8.1839 89.5518 8.64212L89.6784 7.82713C89.6784 7.82713 88.0866 7.7944 87.7964 7.35254C87.7953 7.35254 87.5236 8.07916 87.6458 8.43265Z" fill="#5AE295"/>
<g style="mix-blend-mode:multiply" opacity="0.41">
<path d="M87.6458 8.43265C87.6458 8.43265 88.7368 8.1839 89.5518 8.64212L89.6784 7.82713C89.6784 7.82713 88.0866 7.7944 87.7964 7.35254C87.7953 7.35254 87.5236 8.07916 87.6458 8.43265Z" fill="#5AE295"/>
</g>
<path opacity="0.8" d="M87.5575 6.92889C87.8248 6.97035 87.9787 7.4133 87.9012 7.91953C87.8237 8.42576 87.5434 8.80217 87.2761 8.7618C87.0088 8.72143 86.8549 8.2763 86.9324 7.77115C87.0098 7.26601 87.2902 6.88743 87.5575 6.92889Z" fill="#5AE295"/>
<g style="mix-blend-mode:screen" opacity="0.4">
<path d="M87.2595 7.75064C87.3599 7.767 87.4178 7.93393 87.3883 8.12486C87.3588 8.31579 87.2541 8.45762 87.1526 8.44234C87.0512 8.42707 86.9944 8.25905 87.0239 8.06813C87.0534 7.8772 87.1581 7.73536 87.2595 7.75064Z" fill="#5AE295"/>
</g>
</g>
<path opacity="0.8" d="M100.023 14.0393C102.594 11.4684 102.594 7.30015 100.023 4.72925C97.4519 2.15834 93.2836 2.15834 90.7127 4.72925C88.1418 7.30015 88.1418 11.4684 90.7127 14.0393C93.2836 16.6102 97.4519 16.6102 100.023 14.0393Z" fill="#5AE295"/>
<g style="mix-blend-mode:screen" opacity="0.4">
<path d="M99.555 8.2598C100.068 6.59643 98.7962 4.72702 96.7137 4.08436C94.6312 3.4417 92.5268 4.26915 92.0135 5.93253C91.5002 7.5959 92.7723 9.46531 94.8548 10.108C96.9374 10.7506 99.0417 9.92318 99.555 8.2598Z" fill="#5AE295"/>
</g>
<g style="mix-blend-mode:multiply" opacity="0.57">
<path d="M96.53 4.97974C96.5655 5.13543 96.554 5.29814 96.497 5.4473C96.44 5.59647 96.3401 5.72539 96.2099 5.81775C96.0796 5.91012 95.9249 5.96179 95.7653 5.96624C95.6057 5.97068 95.4483 5.92769 95.3131 5.8427C95.178 5.75771 95.071 5.63455 95.0058 5.48878C94.9406 5.34302 94.9201 5.1812 94.9469 5.02378C94.9737 4.86636 95.0466 4.72042 95.1563 4.60442C95.266 4.48841 95.4077 4.40754 95.5633 4.37204C95.7721 4.32474 95.9911 4.36215 96.1723 4.47607C96.3535 4.58999 96.4821 4.77112 96.53 4.97974Z" fill="#5AE295"/>
</g>
<g style="mix-blend-mode:multiply" opacity="0.57">
<path d="M92.8883 10.2121C93.1392 10.3704 93.3377 10.5996 93.4585 10.8706C93.5793 11.1416 93.6171 11.4424 93.5671 11.7349C93.5171 12.0274 93.3815 12.2985 93.1775 12.514C92.9735 12.7294 92.7102 12.8796 92.4209 12.9456C92.1316 13.0115 91.8292 12.9902 91.552 12.8844C91.2747 12.7786 91.0351 12.593 90.8633 12.3511C90.6915 12.1091 90.5952 11.8217 90.5867 11.5251C90.5782 11.2285 90.6577 10.936 90.8153 10.6845C91.0276 10.347 91.3652 10.1076 91.7539 10.019C92.1427 9.93044 92.5507 9.9999 92.8883 10.2121Z" fill="#5AE295"/>
</g>
<g style="mix-blend-mode:multiply" opacity="0.57">
<path d="M96.4318 14.0457C96.4072 13.9381 96.4151 13.8255 96.4545 13.7223C96.4938 13.6191 96.5629 13.5299 96.6529 13.466C96.743 13.402 96.85 13.3662 96.9603 13.363C97.0707 13.3598 97.1796 13.3895 97.2732 13.4481C97.3667 13.5068 97.4408 13.5919 97.486 13.6926C97.5313 13.7934 97.5456 13.9053 97.5273 14.0142C97.5089 14.1231 97.4587 14.2241 97.3829 14.3045C97.3072 14.3849 97.2093 14.441 97.1017 14.4658C96.9572 14.4987 96.8055 14.473 96.6799 14.3943C96.5543 14.3155 96.4651 14.1902 96.4318 14.0457Z" fill="#5AE295"/>
</g>
<g style="mix-blend-mode:multiply" opacity="0.57">
<path d="M92.8282 5.50609C92.839 5.55406 92.8354 5.60418 92.8178 5.6501C92.8002 5.69602 92.7693 5.73568 92.7292 5.76408C92.689 5.79248 92.6413 5.80833 92.5922 5.80965C92.543 5.81096 92.4946 5.79766 92.453 5.77145C92.4113 5.74523 92.3784 5.70726 92.3584 5.66235C92.3383 5.61743 92.3321 5.56758 92.3404 5.5191C92.3486 5.47062 92.3711 5.42568 92.4049 5.38997C92.4387 5.35425 92.4824 5.32936 92.5303 5.31844C92.5622 5.31103 92.5953 5.31002 92.6275 5.31546C92.6598 5.3209 92.6907 5.33268 92.7184 5.35013C92.7461 5.36758 92.7701 5.39035 92.7889 5.41712C92.8077 5.44389 92.8211 5.47413 92.8282 5.50609Z" fill="#5AE295"/>
</g>
<g style="mix-blend-mode:multiply" opacity="0.57">
<path d="M98.8562 9.03571C98.9082 9.26336 98.8915 9.50132 98.8083 9.7195C98.725 9.93767 98.5789 10.1263 98.3885 10.2614C98.1981 10.3965 97.9718 10.4721 97.7384 10.4787C97.505 10.4852 97.2748 10.4224 97.0771 10.2981C96.8794 10.1738 96.723 9.9937 96.6277 9.78053C96.5324 9.56735 96.5024 9.3307 96.5416 9.10049C96.5808 8.87029 96.6874 8.65688 96.8479 8.48727C97.0084 8.31766 97.2156 8.19946 97.4433 8.14762C97.7484 8.07816 98.0686 8.13268 98.3336 8.29921C98.5985 8.46574 98.7865 8.73065 98.8562 9.03571Z" fill="#5AE295"/>
</g>
<g style="mix-blend-mode:multiply" opacity="0.57">
<path d="M94.2642 8.41637C94.497 8.07705 94.4107 7.61319 94.0714 7.38033C93.7321 7.14746 93.2682 7.23377 93.0354 7.5731C92.8025 7.91242 92.8888 8.37627 93.2281 8.60914C93.5675 8.842 94.0313 8.7557 94.2642 8.41637Z" fill="#5AE295"/>
</g>
<g style="mix-blend-mode:multiply" opacity="0.57">
<path d="M99.3798 6.30459C99.4126 6.44827 99.402 6.59844 99.3494 6.73611C99.2968 6.87378 99.2046 6.99277 99.0844 7.07804C98.9642 7.1633 98.8215 7.21101 98.6741 7.21514C98.5268 7.21926 98.3816 7.17961 98.2568 7.10121C98.1321 7.0228 98.0333 6.90916 97.9731 6.77464C97.9129 6.64013 97.894 6.49079 97.9186 6.3455C97.9433 6.20021 98.0105 6.0655 98.1117 5.9584C98.213 5.8513 98.3437 5.77663 98.4874 5.74381C98.5828 5.72201 98.6816 5.71923 98.7781 5.73562C98.8746 5.752 98.9669 5.78724 99.0498 5.83932C99.1326 5.8914 99.2044 5.95929 99.2611 6.03912C99.3177 6.11895 99.358 6.20916 99.3798 6.30459Z" fill="#5AE295"/>
</g>
<g style="mix-blend-mode:multiply" opacity="0.57">
<path d="M99.2435 12.5662C99.4833 12.5662 99.6777 12.3718 99.6777 12.132C99.6777 11.8922 99.4833 11.6978 99.2435 11.6978C99.0036 11.6978 98.8092 11.8922 98.8092 12.132C98.8092 12.3718 99.0036 12.5662 99.2435 12.5662Z" fill="#5AE295"/>
</g>
<g style="mix-blend-mode:multiply" opacity="0.57">
<path d="M90.4498 9.04194C90.4694 9.12616 90.4634 9.21429 90.4328 9.29513C90.4022 9.37598 90.3482 9.44591 90.2778 9.49605C90.2073 9.54618 90.1236 9.57427 90.0372 9.57674C89.9508 9.57921 89.8656 9.55596 89.7924 9.50993C89.7192 9.4639 89.6613 9.39717 89.6261 9.31821C89.5909 9.23924 89.58 9.1516 89.5946 9.0664C89.6093 8.9812 89.649 8.90228 89.7086 8.83965C89.7682 8.77702 89.845 8.73351 89.9294 8.71463C90.0418 8.68949 90.1596 8.70978 90.257 8.77109C90.3545 8.8324 90.4238 8.92976 90.4498 9.04194Z" fill="#5AE295"/>
</g>
<g style="mix-blend-mode:screen" opacity="0.34">
<path d="M96.2681 4.82654C97.3035 5.14621 97.9352 6.07576 97.6799 6.89948C97.4246 7.7232 96.3794 8.13669 95.3441 7.81703C94.3087 7.49736 93.6759 6.5689 93.9312 5.74409C94.1865 4.91928 95.2328 4.50687 96.2681 4.82654Z" fill="#5AE295"/>
</g>
</svg>
