<svg width="408" height="343" viewBox="0 0 408 343" fill="none" xmlns="http://www.w3.org/2000/svg">
<path opacity="0.1" d="M216.841 111.658C192.915 110.824 170.127 103.088 148.368 94.6223C126.608 86.1565 105.055 76.7759 81.7021 72.2912C66.6818 69.4063 49.5025 68.9989 37.4027 77.0648C25.7539 84.8418 21.9905 98.2293 19.9683 110.665C18.4452 120.02 17.5505 129.867 21.7206 138.622C24.6189 144.703 29.7576 149.813 33.3139 155.638C45.6873 175.903 36.9406 200.893 23.5357 220.68C17.2511 229.964 9.94977 238.827 5.09579 248.7C0.241815 258.573 -2.00218 269.901 2.24551 279.982C6.45254 289.981 16.4821 297.476 27.3472 302.754C49.4138 313.475 75.4064 316.541 100.771 318.278C156.9 322.126 213.325 320.459 269.603 318.793C290.431 318.174 311.347 317.548 331.835 314.323C343.214 312.53 354.959 309.69 363.222 302.824C373.706 294.11 376.305 279.356 369.277 268.427C357.492 250.099 324.915 245.548 316.667 225.88C312.135 215.051 316.789 202.993 323.381 192.95C337.518 171.411 361.211 152.513 362.457 127.893C363.314 110.984 351.924 94.0483 334.312 86.0454C315.854 77.661 290.253 78.7127 276.641 92.5966C262.612 106.891 237.968 112.391 216.841 111.658Z" fill="#50D890"/>
<path opacity="0.1" d="M174.207 335.346C244.511 335.346 301.503 327.636 301.503 318.126C301.503 308.616 244.511 300.907 174.207 300.907C103.904 300.907 46.9124 308.616 46.9124 318.126C46.9124 327.636 103.904 335.346 174.207 335.346Z" fill="white"/>
<path d="M111.19 266.861C111.19 266.861 119.984 265.454 125.261 271.668C125.261 271.668 121.391 274.717 113.066 270.496L111.19 266.861Z" fill="#50D890"/>
<path d="M110.252 266.723C110.252 266.723 104.64 273.666 107.392 281.317C107.392 281.317 111.965 279.487 112.463 270.165L110.252 266.723Z" fill="#50D890"/>
<path d="M105.227 255.37C105.227 255.37 108.745 248.921 122.815 257.95C122.815 257.95 120.939 262.288 114.725 261.936C108.51 261.585 106.847 258.771 105.227 255.37Z" fill="#50D890"/>
<path d="M104.301 254.905C104.301 254.905 97.002 254.068 96.2943 270.777C96.2943 270.777 100.922 271.74 104.209 266.451C107.497 261.162 106.136 258.205 104.301 254.905Z" fill="#50D890"/>
<path d="M100.047 241.58C100.047 241.58 104.151 230.203 119.046 238.293C119.046 238.293 115.646 248.733 101.571 245.45L100.047 241.58Z" fill="#50D890"/>
<path d="M95.4735 224.574C95.4735 224.574 103.212 213.083 116.936 223.737C116.936 223.737 112.128 234.524 96.6461 228.661L95.4735 224.574Z" fill="#50D890"/>
<path d="M93.8318 208.393C93.8318 208.393 102.861 197.84 116.446 208.393C116.446 208.393 107.882 217.656 93.8318 211.09V208.393Z" fill="#50D890"/>
<path d="M92.4248 192.681C92.4248 192.681 101.571 181.655 114.591 192.095C114.591 192.095 104.268 201.827 92.4248 195.26V192.681Z" fill="#50D890"/>
<path d="M93.2456 178.724C93.2456 178.724 102.877 164.536 115.06 174.151C115.06 174.151 104.737 186.35 93.2456 181.421V178.724Z" fill="#50D890"/>
<path d="M95.4735 162.426C95.4735 162.426 105.675 148.355 117.522 159.143C117.522 159.143 105.44 171.337 95.4735 165.006V162.426Z" fill="#50D890"/>
<path d="M98.8781 147.857C98.8781 147.857 110.951 134.637 121.492 139.901C121.492 139.901 108.904 153.942 98.3505 151.362L98.8781 147.857Z" fill="#50D890"/>
<path d="M103.095 134.05C103.095 134.05 117.053 117.865 125.144 123.258C125.144 123.258 114.875 135.821 102.111 137.099L103.095 134.05Z" fill="#50D890"/>
<path d="M109.188 118.029C109.188 118.029 121.392 104.804 130.303 108.087C130.303 108.087 119.867 121.81 107.551 122.162L109.188 118.029Z" fill="#50D890"/>
<path d="M114.708 103.045C114.708 103.045 128.192 90.3819 134.055 92.6097C134.055 92.6097 124.323 106.68 114.121 105.859L114.708 103.045Z" fill="#50D890"/>
<path d="M120.102 89.2086C120.102 89.2086 131.71 74.0828 138.042 75.2554C138.042 75.2554 131.007 88.7396 120.102 90.7496V89.2086Z" fill="#50D890"/>
<path d="M125.952 70.5654C125.952 70.5654 136.216 58.9656 141.757 58.9949C141.757 58.9949 133.657 74.4892 125.533 74.3468L125.952 70.5654Z" fill="#50D890"/>
<path d="M129.424 58.1322L139.332 33.9779C139.332 33.9779 139.83 55.8122 128.159 62.613L129.424 58.1322Z" fill="#50D890"/>
<path d="M133.444 31.4944C133.444 31.4944 135.085 11.3267 134.03 9.68518C134.03 9.68518 141.12 26.4357 133.377 40.4057L133.444 31.4944Z" fill="#50D890"/>
<path d="M99.6653 241.308C99.6653 241.308 89.3844 234.939 82.7343 250.521C82.7343 250.521 91.8803 256.593 100.871 245.282L99.6653 241.308Z" fill="#50D890"/>
<path d="M95.1469 223.925C95.1469 223.925 82.5418 218.175 76.4235 234.444C76.4235 234.444 86.1642 241.145 96.2943 228.037L95.1469 223.925Z" fill="#50D890"/>
<path d="M93.2456 209.361C93.2456 209.361 84.2168 198.808 70.6317 209.361C70.6317 209.361 79.1915 218.624 93.2456 212.057V209.361Z" fill="#50D890"/>
<path d="M92.1191 192.681C92.1191 192.681 82.9688 181.655 69.9533 192.095C69.9533 192.095 80.2719 201.827 92.1191 195.26V192.681Z" fill="#50D890"/>
<path d="M93.2456 179.126C93.2456 179.126 86.83 163.234 72.8848 170.068C72.8848 170.068 80.4227 184.164 92.6803 181.764L93.2456 179.126Z" fill="#50D890"/>
<path d="M96.2817 162.346C96.2817 162.346 89.9079 146.178 75.7617 153.674C75.7617 153.674 84.422 168.494 95.6535 164.846L96.2817 162.346Z" fill="#50D890"/>
<path d="M100.235 147.94C100.235 147.94 97.7224 130.21 86.0176 128.623C86.0176 128.623 88.5009 147.316 98.673 151.131L100.235 147.94Z" fill="#50D890"/>
<path d="M103.397 134.08C103.397 134.08 102.413 112.723 92.7179 111.982C92.7179 111.982 93.0445 128.188 102.304 137.107L103.397 134.08Z" fill="#50D890"/>
<path d="M110.198 117.417C110.198 117.417 107.304 99.6612 98.0531 97.4878C98.0531 97.4878 99.2005 114.686 109.28 121.776L110.198 117.417Z" fill="#50D890"/>
<path d="M115.805 103.175C115.805 103.175 115.705 84.6736 110.051 81.9558C110.051 81.9558 106.546 98.7064 114.168 105.536L115.805 103.175Z" fill="#50D890"/>
<path d="M120.533 88.9909C120.533 88.9909 119.737 69.9371 113.887 67.2528C113.887 67.2528 111.881 82.3283 119.654 90.2346L120.533 88.9909Z" fill="#50D890"/>
<path d="M126.773 72.0729C126.773 72.0729 126.735 56.5786 122.556 52.9437C122.556 52.9437 118.401 69.9204 124.591 75.1885L126.773 72.0729Z" fill="#50D890"/>
<path d="M128.929 57.3702L124.867 31.5785C124.867 31.5785 119.339 52.7135 129.122 62.0226L128.929 57.3702Z" fill="#50D890"/>
<path d="M129.725 31.7375C129.725 31.7375 119.285 14.4049 119.503 12.4744C119.503 12.4744 120.608 30.6487 133.741 39.694L129.725 31.7375Z" fill="#50D890"/>
<path d="M130.948 26.6208C130.948 26.6208 121.098 1.99332 116.643 0C116.643 0 130.713 7.15249 131.769 25.9173L130.948 26.6208Z" fill="#50D890"/>
<path d="M125.479 74.4806L124.804 74.2754C133.117 47.1688 135.194 29.8864 130.646 25.5564L131.132 25.0455C135.948 29.6142 133.997 46.6956 125.479 74.4806Z" fill="#444053"/>
<path d="M102.588 137.932L101.596 137.581C102.475 135.097 103.426 132.576 104.423 130.089C113.1 108.464 120.487 88.3507 125.223 72.9067L126.09 72.4879C121.345 87.9612 114.092 108.849 105.403 130.499C104.41 132.962 103.464 135.474 102.588 137.932Z" fill="#444053"/>
<path d="M123.565 287.15C123.431 287 109.955 271.832 100.566 245.927C95.0603 230.766 91.9931 214.829 91.4784 198.707C90.8334 178.552 95.0631 156.048 102.308 135.608L103.095 136.529C86.8341 182.409 93.2958 221.727 101.864 245.408C111.161 271.074 124.478 286.082 124.612 286.229L123.565 287.15Z" fill="#444053"/>
<path opacity="0.1" d="M151.43 302.917C151.43 302.917 151.43 304.696 154.726 307.314Z" fill="black"/>
<g opacity="0.1">
<path opacity="0.1" d="M170.066 173.083C170.066 172.794 170.015 172.497 169.99 172.204C169.937 172.843 169.957 173.487 170.049 174.122C170.078 173.776 170.083 173.429 170.066 173.083Z" fill="black"/>
<path opacity="0.1" d="M169.4 184.783C169.463 183.569 168.407 182.593 168.102 181.433C168.086 181.377 168.075 181.319 168.068 181.261C167.973 181.734 167.984 182.222 168.102 182.689C168.349 183.648 169.094 184.469 169.329 185.399C169.35 185.181 169.391 184.984 169.4 184.783Z" fill="black"/>
<path opacity="0.1" d="M198.689 179.553C198.328 180.266 197.818 180.893 197.194 181.391C196.218 182.292 195.008 183.259 193.714 182.966C191.792 182.547 191.13 179.616 189.17 179.415C187.21 179.214 185.908 181.927 183.927 181.873C183.09 181.852 182.336 181.304 181.565 180.922C180.217 180.257 178.001 179.85 176.54 180.353C174.35 181.103 173.609 183.129 172.201 184.742C171.676 185.342 171.053 185.849 170.359 186.241C170.218 186.334 170.054 186.384 169.886 186.387C169.781 186.373 169.681 186.331 169.599 186.264C169.516 186.198 169.453 186.11 169.417 186.01V186.04C169.367 186.35 169.341 186.664 169.337 186.978C169.339 187.135 169.395 187.286 169.495 187.407C169.594 187.528 169.732 187.611 169.886 187.644C170.054 187.641 170.218 187.59 170.359 187.497C171.053 187.105 171.676 186.598 172.201 185.998C173.617 184.386 174.35 182.359 176.54 181.609C178.018 181.107 180.234 181.513 181.565 182.179C182.336 182.56 183.073 183.108 183.927 183.129C185.908 183.18 187.202 180.453 189.17 180.671C191.138 180.889 191.792 183.787 193.714 184.222C195.008 184.515 196.227 183.548 197.194 182.648C197.818 182.149 198.328 181.522 198.689 180.809C198.922 180.204 198.985 179.546 198.869 178.908C198.834 179.129 198.773 179.346 198.689 179.553V179.553Z" fill="black"/>
</g>
<path opacity="0.1" d="M333.627 316.828C339.855 316.828 344.904 315.975 344.904 314.923C344.904 313.87 339.855 313.017 333.627 313.017C327.398 313.017 322.349 313.87 322.349 314.923C322.349 315.975 327.398 316.828 333.627 316.828Z" fill="#5AE295"/>
<path opacity="0.1" d="M53.5039 342.686C59.7323 342.686 64.7815 341.833 64.7815 340.781C64.7815 339.729 59.7323 338.875 53.5039 338.875C47.2754 338.875 42.2263 339.729 42.2263 340.781C42.2263 341.833 47.2754 342.686 53.5039 342.686Z" fill="#5AE295"/>
<path d="M308.94 338.189C318.24 338.189 325.779 336.914 325.779 335.341C325.779 333.769 318.24 332.494 308.94 332.494C299.64 332.494 292.101 333.769 292.101 335.341C292.101 336.914 299.64 338.189 308.94 338.189Z" fill="#50D890"/>
<path d="M315.904 330.685C316.672 330.057 317.231 329.212 317.508 328.26C317.718 327.301 317.307 326.166 316.386 325.794C315.356 325.4 314.254 326.116 313.421 326.836C312.588 327.557 311.629 328.382 310.536 328.227C311.098 327.718 311.519 327.072 311.758 326.352C311.996 325.632 312.044 324.863 311.897 324.119C311.848 323.81 311.716 323.521 311.515 323.281C310.946 322.67 309.907 322.929 309.225 323.415C307.047 324.944 306.44 327.904 306.427 330.563C306.205 329.604 306.394 328.604 306.385 327.632C306.377 326.66 306.113 325.538 305.28 325.023C304.766 324.747 304.188 324.611 303.605 324.629C302.625 324.592 301.536 324.692 300.866 325.408C300.028 326.296 300.255 327.787 300.975 328.758C301.695 329.73 302.797 330.354 303.81 331.028C304.621 331.512 305.312 332.171 305.833 332.959C305.895 333.069 305.946 333.185 305.983 333.306H312.102C313.481 332.607 314.76 331.726 315.904 330.685Z" fill="#50D890"/>
<path d="M54.086 293.955C54.086 293.955 56.3892 296.966 53.0265 301.493C49.6637 306.02 46.8914 309.868 48.0012 312.703C48.0012 312.703 53.0767 304.265 57.2142 304.148C61.3517 304.031 58.6297 299.031 54.086 293.955Z" fill="#50D890"/>
<path opacity="0.1" d="M54.0859 293.955C54.2868 294.247 54.4447 294.566 54.555 294.902C58.5836 299.634 60.7319 304.052 56.8582 304.161C53.2526 304.265 48.9266 310.714 47.8881 312.343C47.9216 312.469 47.9634 312.59 48.0095 312.716C48.0095 312.716 53.0851 304.278 57.2226 304.161C61.3601 304.043 58.6297 299.031 54.0859 293.955Z" fill="black"/>
<path d="M58.3617 297.791C58.3617 298.85 58.2444 299.709 58.0979 299.709C57.9513 299.709 57.834 298.85 57.834 297.791C57.834 296.731 57.9806 297.23 58.1272 297.23C58.2738 297.23 58.3617 296.731 58.3617 297.791Z" fill="#FFD037"/>
<path d="M59.8315 299.056C58.9019 299.563 58.0894 299.868 58.0224 299.739C57.9554 299.609 58.6464 299.094 59.5761 298.587C60.5058 298.08 60.1414 298.449 60.2084 298.587C60.2754 298.725 60.7612 298.549 59.8315 299.056Z" fill="#FFD037"/>
<path d="M41.9373 293.955C41.9373 293.955 39.634 296.966 42.9968 301.493C46.3595 306.02 49.1318 309.868 48.0221 312.703C48.0221 312.703 42.9507 304.265 38.809 304.148C34.6673 304.031 37.3852 299.031 41.9373 293.955Z" fill="#50D890"/>
<path opacity="0.1" d="M41.9373 293.955C41.7358 294.247 41.5765 294.566 41.4641 294.902C37.4354 299.634 35.2913 304.052 39.1608 304.161C42.7706 304.265 47.0966 310.714 48.1352 312.343C48.1008 312.47 48.0589 312.594 48.0095 312.716C48.0095 312.716 42.9382 304.278 38.7965 304.161C34.6548 304.043 37.3852 299.031 41.9373 293.955Z" fill="black"/>
<path d="M37.6573 297.791C37.6573 298.85 37.7788 299.709 37.9254 299.709C38.0719 299.709 38.1892 298.85 38.1892 297.791C38.1892 296.731 38.0426 297.23 37.8961 297.23C37.7495 297.23 37.6573 296.731 37.6573 297.791Z" fill="#FFD037"/>
<path d="M36.1917 299.056C37.1214 299.563 37.9296 299.868 38.0008 299.739C38.072 299.609 37.3727 299.094 36.443 298.587C35.5133 298.08 35.8818 298.449 35.8106 298.587C35.7394 298.725 35.262 298.549 36.1917 299.056Z" fill="#FFD037"/>
<path d="M38.3902 312.322C38.3902 312.322 44.8226 312.121 46.7657 310.743C48.7088 309.366 56.6614 307.712 57.1388 309.927C57.6162 312.142 66.8083 320.936 59.5467 320.995C52.2852 321.053 42.6701 319.864 40.7353 318.687C38.8006 317.511 38.3902 312.322 38.3902 312.322Z" fill="#A8A8A8"/>
<path opacity="0.2" d="M59.6724 320.224C52.4108 320.283 42.7957 319.093 40.861 317.917C39.3911 317.016 38.8006 313.796 38.6038 312.313H38.3902C38.3902 312.313 38.809 317.498 40.7311 318.679C42.6533 319.86 52.281 321.045 59.5425 320.986C61.6364 320.986 62.3609 320.224 62.3232 319.118C62.0301 319.797 61.2302 320.211 59.6724 320.224Z" fill="black"/>
<path d="M115.928 279.474C111.991 279.48 107.963 278.879 104.159 279.904C101.302 280.675 98.7662 282.313 96.3093 283.969C92.6453 286.438 89.0359 288.998 85.4871 291.643C84.8441 292.122 84.1464 292.722 84.1404 293.523C84.1404 294.105 84.5226 294.615 84.9411 295.021C88.4656 298.473 95.5753 298.297 96.7886 303.077C97.0798 304.23 96.916 305.449 96.922 306.638C96.9584 313.718 103.267 319.45 110.043 321.507C116.819 323.563 124.069 322.872 131.148 322.763C144.664 322.55 158.216 324.546 171.094 328.647C180.418 331.613 190.422 335.702 199.624 332.365C203.567 330.934 206.922 328.246 210.744 326.524C217.738 323.363 225.721 323.636 233.395 323.4C241.069 323.163 249.277 322.126 255.046 317.06C256.853 315.477 258.334 313.554 259.699 311.582C260.22 310.824 260.748 310.011 260.827 309.089C260.997 307.105 259.11 305.619 257.43 304.539C250.447 300.044 243.465 295.549 236.483 291.054C234.53 289.792 232.558 288.531 230.392 287.675C227.76 286.638 224.927 286.237 222.118 285.874C204.047 283.532 185.836 282.258 167.612 282.07C159.848 281.991 151.682 282.009 144.882 278.254C140.26 275.7 137.414 273.037 132.41 275.634C127.411 278.218 121.539 279.461 115.928 279.474Z" fill="#826E5F"/>
<path d="M124.93 294.221C125.161 294.045 125.415 293.869 125.7 293.863C126.089 293.851 126.416 294.154 126.623 294.482C126.829 294.809 126.968 295.185 127.223 295.477C126.95 295.167 123.553 296.15 123.007 296.174C122.934 295.477 124.402 294.621 124.93 294.221Z" fill="#38322D"/>
<path d="M111.099 296.259C111.148 296.32 111.196 296.387 111.202 296.465C111.214 296.672 110.935 296.751 110.723 296.751C109.394 296.757 104.644 297.309 106.343 294.658C107.878 292.274 110.134 295.04 111.099 296.259Z" fill="#38322D"/>
<path d="M118.864 301.956C119.543 302.52 120.113 303.205 120.55 303.97C120.574 304.006 120.593 304.054 120.581 304.097C120.568 304.133 120.526 304.152 120.49 304.164C120.065 304.309 119.592 304.152 119.149 304.249C118.239 304.449 116.722 304.922 116.595 303.454C116.486 302.198 117.808 301.082 118.864 301.956Z" fill="#38322D"/>
<path d="M221.585 202.911C221.585 202.911 220.321 221.218 220.321 227.213C220.321 233.209 218.281 246.977 219.123 251.532C219.965 256.086 220.528 241.771 221.941 239.326C223.354 236.881 225.086 217.938 225.086 212.793C225.086 207.647 224.042 204.061 224.042 204.061L221.585 202.911Z" fill="#DD9A6C"/>
<path d="M223.71 307.569C223.71 307.569 223.54 308.359 222.123 309.225C221.435 309.646 219.824 310.529 218.771 310.772C218.139 310.917 218.099 311.832 219.018 312.172C222.726 313.541 225.738 311.978 227.232 311.051C228.459 310.245 227.588 307.743 227.588 307.743L227.941 305.068L223.714 305.157L223.71 307.569Z" fill="#F6B684"/>
<path d="M221.714 309.262C221.714 309.262 218.042 310.411 217.864 310.982C217.641 311.703 217.783 312.019 219.698 312.5C222.216 313.136 224.771 312.852 227.232 311.047C227.232 311.047 228.252 310.772 227.766 308.415C227.766 308.415 224.694 310.715 223.151 310.043C222.775 309.877 221.993 309.343 223.176 308.403L221.714 309.262Z" fill="#2D2429"/>
<path d="M241.526 306.497C241.526 306.497 241.603 307.298 242.915 308.322C243.551 308.82 245.053 309.881 246.069 310.241C246.676 310.456 246.615 311.371 245.664 311.606C241.822 312.541 239.008 310.646 237.632 309.553C236.506 308.614 237.656 306.229 237.656 306.229L237.612 303.529L241.802 304.096L241.526 306.497Z" fill="#F6B684"/>
<path d="M243.316 308.403C243.316 308.403 246.834 309.966 246.944 310.553C247.081 311.294 246.907 311.589 244.948 311.853C242.377 312.197 239.867 311.626 237.628 309.549C237.628 309.549 236.649 309.16 237.398 306.877C237.398 306.877 240.187 309.513 241.798 309.019C242.191 308.897 243.029 308.456 241.96 307.387L243.316 308.403Z" fill="#2D2429"/>
<path d="M233.653 262.556C233.653 262.556 229.09 281.324 229.357 287.085C229.746 295.481 228.859 306.877 228.859 306.877C228.859 306.877 223.657 307.893 222.58 306.816C220.844 301.817 218.872 287.485 217.342 279.721C214.69 266.24 223.192 231.654 223.192 231.654C223.192 231.654 242.624 234.221 249.239 232.517C249.239 232.517 248.676 231.266 250.729 244.423C252.17 253.649 251.449 270.6 250.955 277.781C250.146 289.611 247.741 296.542 245.174 306.877C242.571 306.792 237.11 305.068 237.11 305.068C237.802 293.959 235.317 264.523 233.653 262.556Z" fill="#443940"/>
<path d="M242.855 248.39C242.855 248.39 246.215 251.236 250.089 252.143" stroke="#352D33" stroke-width="0.9572" stroke-miterlimit="10" stroke-linecap="round" stroke-linejoin="round"/>
<path d="M222.002 247.556C222.002 247.556 221.394 250.018 219.269 252.143" stroke="#352D33" stroke-width="0.9572" stroke-miterlimit="10" stroke-linecap="round" stroke-linejoin="round"/>
<path d="M233.896 247.787C233.896 248.374 233.523 248.848 233.062 248.848C232.6 248.848 232.228 248.374 232.228 247.787C232.228 247.2 232.6 246.726 233.062 246.726C233.523 246.726 233.896 247.2 233.896 247.787Z" fill="#2D2429"/>
<path d="M249.62 208.388C250.101 213.254 227.576 208.615 227.702 204.534C227.819 200.688 229.94 192.349 230.151 189.191C230.657 181.556 239.402 188.539 244.782 187.814C245.332 193.247 246.907 196.381 249.62 208.388Z" fill="#EEA792"/>
<path d="M251.737 244.156C251.737 244.156 256.684 212.319 256.461 203.971C256.401 201.688 255.457 195.931 252.368 193.608C248.401 190.62 247.049 191.138 245.041 189.814C243.393 190.766 241.304 193.154 235.118 193.563C231.831 193.628 229.843 192.652 229.843 191.507C227.098 192.551 224.107 194.721 222.39 198.389C221.265 200.794 220.73 203.676 220.597 205.113C222.248 206.328 222.993 206.206 222.993 206.206L220.394 241.686C220.394 241.686 223.358 244.192 232.175 245.755C240.988 247.317 251.737 244.156 251.737 244.156Z" fill="#D84444"/>
<path opacity="0.07" d="M231.471 189.191L231.378 190.106C231.378 190.106 237.414 191.219 241.826 188.948C241.826 188.948 234.863 190.041 231.471 189.191Z" fill="#070707"/>
<path d="M242.251 153.14C242.251 153.14 245.676 153.954 249.267 156.051C252.951 158.201 256.805 161.698 257.328 167.042C257.627 170.119 257.364 173.099 256.546 175.823C254.563 182.45 249.32 187.604 240.988 189.171C235.106 190.276 228.738 189.466 224.001 185.989C219.265 182.511 216.431 175.127 217.605 168.977C218.783 162.828 221.609 159.565 225.973 156.719C230.341 153.877 235.981 152.683 242.251 153.14Z" fill="#FFB39C"/>
<path opacity="0.21" d="M232.843 175.382C232.831 175.382 232.819 175.382 232.807 175.382C232.75 175.378 232.252 175.333 231.928 175.24C231.151 175.017 230.871 174.605 230.774 174.297C230.677 173.981 230.673 173.459 231.22 172.787C231.705 172.192 231.79 170.981 231.782 170.564C231.778 170.346 231.952 170.163 232.171 170.159C232.175 170.159 232.175 170.159 232.179 170.159C232.394 170.159 232.572 170.334 232.576 170.548C232.576 170.621 232.608 172.341 231.835 173.289C231.584 173.596 231.475 173.876 231.531 174.058C231.584 174.228 231.803 174.374 232.143 174.475C232.353 174.536 232.738 174.58 232.867 174.588C233.086 174.609 233.248 174.799 233.228 175.022C233.22 175.228 233.045 175.382 232.843 175.382Z" fill="#070707"/>
<path d="M224.321 171.321C224.293 172.135 224.734 172.811 225.309 172.831C225.884 172.852 226.374 172.212 226.402 171.398C226.43 170.584 225.989 169.908 225.414 169.888C224.843 169.868 224.354 170.508 224.321 171.321Z" fill="#0E251F"/>
<path d="M240.369 171.941C240.341 172.755 240.782 173.431 241.357 173.451C241.932 173.471 242.421 172.831 242.45 172.018C242.478 171.204 242.037 170.528 241.462 170.508C240.887 170.487 240.397 171.127 240.369 171.941Z" fill="#0E251F"/>
<path opacity="0.07" d="M241.612 177.345C241.648 179.333 243.288 180.916 245.276 180.88C247.263 180.843 248.846 179.204 248.81 177.216C248.773 175.228 247.134 173.645 245.146 173.682C243.154 173.718 241.575 175.362 241.612 177.345Z" fill="#070707"/>
<path opacity="0.07" d="M219.297 179.446C219.609 179.527 219.937 179.568 220.277 179.564C222.265 179.527 223.848 177.888 223.811 175.9C223.775 173.912 222.135 172.329 220.147 172.366C219.69 172.374 219.253 172.467 218.852 172.633C218.852 172.633 218.649 175.009 218.868 176.677C219.087 178.341 219.297 179.446 219.297 179.446Z" fill="#070707"/>
<path d="M230.313 177.232C230.56 178.24 231.317 179.07 232.369 179.252C233.572 179.459 234.632 178.774 235.357 177.876C235.742 177.394 230.167 176.629 230.313 177.232Z" fill="#FDFEFF"/>
<path d="M225.362 153.314C225.609 153.067 226.058 153.391 226.406 153.391C230.604 153.391 241.766 150.428 248.344 153.051C254.923 155.674 259.194 162.65 259.194 169.277C259.194 175.904 254.745 181.823 253.028 182.454C254.623 179.693 255.809 176.9 253.996 176.511C251.47 175.969 250.951 182.037 250.951 182.037C250.951 182.037 247.077 181.714 248.344 180.442C249.615 179.171 251.178 170.054 247.34 169.087C237.098 166.508 227.434 157.439 221.285 165.641C216.241 172.366 219.973 181.394 219.973 181.394C214.148 175.212 218.763 163.974 218.763 163.974C218.763 163.974 221.576 157.099 225.362 153.314Z" fill="#0E251F"/>
<path d="M259.194 166.654C259.194 166.654 262.064 163.362 260.323 160.346C258.583 157.334 255.097 158.099 255.097 158.099C255.097 158.099 256.826 155.132 254.344 152.65C251.862 150.169 248.344 153.047 248.344 153.047C248.344 153.047 249.089 149.217 245.207 146.974C242.215 145.246 238.648 147.335 237.167 148.383C235.313 147.023 233.187 145.902 231.224 145.902C226.232 145.902 225.362 150.173 225.362 150.173C219.463 150.173 218.755 154.95 219.39 157.747C218.985 157.937 218.544 158.192 218.066 158.553C215.888 160.192 214.723 163.917 216.52 167.03C218.317 170.143 218.759 168.439 218.759 168.439L225.702 158.889L225.487 158.804L240.612 153.695L247.057 161.115L256.307 175.022C256.307 175.022 260.441 174.07 260.801 170.508C261.101 167.581 259.194 166.654 259.194 166.654Z" fill="#0E251F"/>
<path d="M235.252 171.819C232.989 170.394 230.912 171.67 229.641 172.402C228.374 173.135 225.641 174.625 224.317 174.625C224.317 174.625 223.261 181.11 223.261 184.685C223.261 184.685 228.487 190.264 235.373 189.515C241.847 188.806 244.778 186.236 244.778 186.236C244.778 186.236 243.215 177.645 243.215 175.439C243.215 175.439 238.082 173.601 235.252 171.819Z" fill="#FDEEEB"/>
<path d="M243.988 186.393C243.988 186.393 248.591 183.499 251.555 182.264C252.628 181.819 254.376 180.997 254.826 179.928C255.498 178.329 254.891 177.021 254 176.507C252.814 175.823 246.842 174.576 238.268 176.281C228.135 178.297 217.034 171.475 217.034 171.475" stroke="#FDEEEB" stroke-width="0.7179" stroke-miterlimit="10" stroke-linecap="round" stroke-linejoin="round"/>
<path d="M224.038 185.074C224.038 185.074 220.917 182.912 220.447 182.151" stroke="#FDEEEB" stroke-width="0.7179" stroke-miterlimit="10" stroke-linecap="round" stroke-linejoin="round"/>
<path d="M252.49 175.767C252.664 175.73 252.846 175.71 253.028 175.71C254.457 175.71 255.615 176.868 255.615 178.297C255.615 179.726 254.457 180.884 253.028 180.884C252.478 180.884 251.972 180.714 251.551 180.422" fill="#DD9A6C"/>
<g opacity="0.37">
<path opacity="0.37" d="M254.308 178.839C254.121 178.839 253.955 178.706 253.927 178.515C253.753 177.443 252.753 177.293 252.709 177.289C252.498 177.26 252.348 177.066 252.377 176.856C252.405 176.645 252.595 176.495 252.806 176.52C253.364 176.588 254.478 177.066 254.692 178.394C254.729 178.604 254.583 178.803 254.372 178.839C254.348 178.839 254.328 178.839 254.308 178.839Z" fill="#21252C"/>
</g>
<path opacity="0.07" d="M223.099 201.733L222.447 206.121L222.997 206.206L223.099 201.733Z" fill="#070707"/>
<path d="M253.259 228.889C253.538 227.092 255.388 209.364 255.129 205.567C254.866 201.769 253.13 197.81 249.802 198.037C246.478 198.267 245.859 204.498 245.859 204.498C245.587 206.32 246.191 217.06 246.012 226.088C245.96 228.804 245.846 231.509 245.664 233.95C244.96 237.804 244.215 241.597 243.839 243.285C243.721 243.824 243.223 244.678 243.114 244.803C242.231 245.836 241.818 246.508 241.745 247.305C241.717 247.609 242.11 248.03 242.324 247.868C242.972 247.382 243.883 246.022 243.871 246.224C243.519 247.654 242.818 249.828 242.624 250.661C242.454 251.39 243.247 251.694 243.567 251.253C243.936 250.751 244.668 248.884 245.033 247.929L245.122 247.84C244.887 248.763 244.405 250.775 244.316 251.953C244.292 252.281 244.442 252.625 244.834 252.714C245.081 252.73 245.373 252.548 245.486 252.163C245.778 251.176 246.077 249.84 246.276 248.904C246.029 250.22 245.737 252.265 246.259 252.479C246.644 252.548 246.988 252.082 247.146 251.597C247.304 251.111 247.964 248.39 247.964 248.39C247.964 248.39 247.834 250.702 248.146 251.147C248.547 251.722 249.029 251.475 249.154 250.767C249.446 249.147 249.413 246.111 249.36 245.763C249.312 245.443 249.312 244.982 249.344 244.484C250.336 240.366 253.259 228.889 253.259 228.889Z" fill="#F6B684"/>
<path d="M242.968 247.556C242.968 247.556 247.057 248.228 249.195 248.848C250.203 249.139 250.551 249.508 250.551 249.508L250.526 252.143L249.713 253.382L243.292 253.989L242.183 248.848L242.968 247.556Z" fill="#443940"/>
<path d="M244.778 208.162L256.239 208.04C256.239 208.04 256.486 200.984 253.534 198.029C250.887 195.381 248.429 195.895 246.296 198.029C244.166 200.162 244.778 208.162 244.778 208.162Z" fill="#D84444"/>
<path opacity="0.07" d="M244.081 203.972V208.162H245.802V209.591L242.855 209.186L244.081 203.972Z" fill="#070707"/>
<path opacity="0.07" d="M255.089 208.081L256.247 208L256.401 205.502V208.708L255.04 209.048L255.089 208.081Z" fill="#070707"/>
<path d="M175.186 146.763C175.186 146.763 174.276 150.4 174.66 155.992C174.863 158.926 177.673 166.575 167.076 170.147C160.278 172.44 156.719 167.989 153.369 164.639C150.018 161.288 153.221 169.218 156.853 155.613C160.486 142.003 165.944 136.799 165.944 136.799L175.186 146.763Z" fill="#2D2429"/>
<path d="M180.556 224.343C180.556 224.343 179.914 230.226 177.284 233.651C177.284 233.651 175.422 227.407 176.088 224.343C176.753 221.279 178.639 221.094 178.639 221.094C178.639 221.094 180.298 220.429 180.556 224.343Z" fill="#FFB39C"/>
<path d="M175.297 181.442L181.194 226.266L176.855 226.876C176.855 226.876 160.402 167.527 163.434 168.262C167.653 169.283 173.971 175.883 175.297 181.442Z" fill="#FDEEEB"/>
<path opacity="0.07" d="M172.464 184.668L176.906 222.86L177.285 226.876L174.11 188.411L172.464 184.668Z" fill="#070707"/>
<path d="M168.023 301.369C168.023 301.369 168.887 303.301 170.791 304.475C171.716 305.048 173.49 305.297 174.904 305.63C175.75 305.829 175.954 307.437 174.641 307.59C171.642 307.941 164.636 307.673 162.634 306.42C160.989 305.334 162.81 301.586 162.81 301.586L168.023 301.369Z" fill="#FAC9A9"/>
<path d="M148.969 228.332C148.969 228.332 147.841 245.704 159.409 276.044C159.409 276.044 158.697 294.049 160.92 302.862L170.2 302.612C170.2 302.612 174.858 280.716 175.163 276.621C175.468 272.527 176.374 239.816 168.758 226.104L148.969 228.332Z" fill="#04ABBC"/>
<path d="M171.138 303.486C170.805 303.504 170.482 303.611 170.204 303.8C169.821 304.068 169.294 304.53 168.961 305.237C168.661 305.875 168.425 306.652 168.425 306.652C168.425 306.652 164.682 306.185 162.297 304.743C160.855 303.874 160.62 305.589 161.128 306.018C161.636 306.448 164.28 307.613 165.962 308.015C167.469 308.38 171.12 309.471 174.1 308.394C177.081 307.317 176.268 304.553 174.868 303.897C173.818 303.407 171.979 303.44 171.138 303.486Z" fill="#FDEEEB"/>
<path d="M149.62 302.432C149.62 302.432 150.485 304.364 152.389 305.538C153.313 306.111 155.088 306.36 156.502 306.693C157.347 306.892 157.551 308.5 156.238 308.653C153.239 309.004 146.233 308.736 144.232 307.483C142.587 306.397 144.407 302.649 144.407 302.649L149.62 302.432Z" fill="#FAC9A9"/>
<path d="M130.566 229.395C130.566 229.395 129.439 246.767 141.006 277.107C141.006 277.107 140.294 295.112 142.517 303.925L151.797 303.675C151.797 303.675 156.456 281.779 156.761 277.684C157.066 273.59 157.971 242.968 150.355 229.256L130.566 229.395Z" fill="#04ABBC"/>
<path d="M152.735 304.549C152.403 304.567 152.079 304.674 151.802 304.863C151.418 305.131 150.891 305.593 150.559 306.3C150.258 306.938 150.023 307.715 150.023 307.715C150.023 307.715 146.279 307.248 143.894 305.806C142.453 304.937 142.217 306.652 142.725 307.081C143.234 307.511 145.877 308.676 147.559 309.078C149.066 309.443 152.717 310.534 155.698 309.457C158.679 308.38 157.865 305.616 156.465 304.96C155.416 304.47 153.576 304.503 152.735 304.549Z" fill="#FDEEEB"/>
<path opacity="0.07" d="M136.223 228.942C136.223 228.942 163.753 232.306 171.295 228.461L170.015 218.807H137.817L136.223 228.942Z" fill="#070707"/>
<path d="M136.117 186.17C135.567 191.725 161.28 186.429 161.137 181.77C161.003 177.38 159.732 169.514 158.887 166.547C156.493 158.145 150.06 165.207 143.918 164.384C142.286 169.486 139.213 172.463 136.117 186.17Z" fill="#FFB39C"/>
<path d="M137.05 204.254C136.551 203.108 136.061 201.851 135.604 200.524C132.322 191.064 132.147 181.521 134.139 175.892C135.433 172.245 138.155 171.349 141.196 168.308C142.027 167.476 142.734 167.384 142.734 167.384C142.734 167.384 151.723 172.31 159.168 167.55C159.168 167.55 158.836 166.764 164.76 169.847C167.63 171.34 169.973 188 170.218 191.203C170.468 194.502 170.357 200.908 170.838 208.085C171.004 210.553 177.876 223.974 172.173 227.209C166.47 230.444 137.484 227.412 137.484 227.412C137.484 227.412 141.699 214.874 137.05 204.254Z" fill="#04ABBC"/>
<path d="M132.161 181.475C132.161 181.475 131.925 189.613 131.925 204.878C131.925 220.142 127.128 248.638 126.213 259.037C125.302 269.435 125.302 269.435 125.302 269.435C125.302 269.435 140.331 273.922 157.32 272.388C157.32 272.388 159.464 247.469 159.464 235.49C159.464 223.511 156.534 194.697 155.855 190.57C154.316 181.234 152.652 173.586 152.652 173.586C152.652 173.586 146.746 173.23 142.735 167.393C142.735 167.388 133.455 171.224 132.161 181.475Z" fill="#FDEEEB"/>
<path opacity="0.07" d="M158.863 166.362C158.863 166.362 150.194 167.342 147.532 166.113C147.532 166.113 150.674 168.558 159.085 167.61L158.863 166.362Z" fill="#070707"/>
<path d="M146.492 126.974C146.492 126.974 142.744 127.866 138.82 130.162C134.795 132.515 130.575 136.341 130.012 142.192C129.688 145.561 129.979 148.815 130.871 151.795C133.043 159.042 138.779 164.676 147.897 166.385C154.33 167.592 161.294 166.704 166.47 162.896C171.646 159.088 174.747 151.014 173.453 144.29C172.164 137.566 169.072 133.998 164.294 130.888C159.515 127.773 153.345 126.47 146.492 126.974Z" fill="#FFB39C"/>
<path d="M154.547 153.778C155.582 155.067 157.81 155.47 158.304 153.45C158.471 152.775 159.534 152.983 159.367 153.663C159.09 154.804 158.23 155.747 157.038 155.95C155.679 156.186 154.473 155.409 153.655 154.393C153.216 153.847 154.113 153.237 154.547 153.778Z" fill="#824737"/>
<path d="M156.793 151.296C156.807 151.296 156.821 151.296 156.83 151.296C156.89 151.292 157.435 151.241 157.787 151.139C158.637 150.894 158.942 150.441 159.044 150.109C159.15 149.762 159.155 149.194 158.554 148.459C158.022 147.807 157.93 146.485 157.939 146.028C157.944 145.788 157.754 145.589 157.514 145.584C157.509 145.584 157.509 145.584 157.505 145.584C157.269 145.584 157.075 145.774 157.07 146.009C157.07 146.088 157.038 147.974 157.884 149.009C158.156 149.346 158.277 149.651 158.216 149.85C158.156 150.035 157.921 150.196 157.546 150.303C157.315 150.367 156.895 150.418 156.751 150.428C156.511 150.451 156.336 150.659 156.354 150.899C156.377 151.125 156.571 151.296 156.793 151.296Z" fill="#824737"/>
<path d="M144.537 146.804C144.565 147.761 145.138 148.519 145.817 148.496C146.492 148.473 147.019 147.682 146.986 146.726C146.959 145.769 146.386 145.011 145.706 145.034C145.031 145.053 144.505 145.848 144.537 146.804Z" fill="#2D2429"/>
<path d="M163.319 146.153C163.346 147.109 163.919 147.867 164.599 147.844C165.273 147.821 165.8 147.031 165.768 146.074C165.74 145.117 165.167 144.359 164.488 144.383C163.813 144.401 163.291 145.196 163.319 146.153Z" fill="#2D2429"/>
<path opacity="0.07" d="M135.095 152.632C135.095 155.275 137.235 157.415 139.878 157.415C142.522 157.415 144.662 155.275 144.662 152.632C144.662 149.988 142.517 147.849 139.878 147.849C137.235 147.849 135.095 149.988 135.095 152.632Z" fill="#070707"/>
<path opacity="0.07" d="M173.024 147.128C172.307 146.643 171.443 146.361 170.514 146.361C168.037 146.361 166.031 148.371 166.031 150.843C166.031 153.321 168.037 155.326 170.514 155.326C171.24 155.326 171.924 155.155 172.529 154.85" fill="#070707"/>
<path d="M171.388 157.045C178.689 146.763 174.978 133.226 167.099 125.347C159.219 117.467 142.896 120.203 142.896 120.203C127.927 123.318 123.024 132.006 123.024 145.566C123.024 154.259 123.773 166.871 130.053 170.101C136.292 173.308 149.117 170.323 144.163 165.577C138.876 160.512 138.524 154.139 139.601 149.3C140.1 147.054 140.678 144.457 140.678 144.457C154.704 143.828 167.857 133.629 167.857 133.629C171.933 137.612 172.774 151.07 171.864 155.534C171.757 156.107 171.545 156.68 171.388 157.045Z" fill="#2D2429"/>
<path d="M172.917 188.55C172.917 188.55 175.843 211.801 176.906 222.86C177.968 233.919 180.21 258.251 180.21 261.347C180.21 268.94 178.957 274.546 178.957 274.546C178.957 274.546 169.063 276.034 167.131 274.103C167.131 274.103 168.702 238.526 168.702 224.043C168.702 204.378 162.533 174.251 162.533 172.8C163.323 169.565 160.227 167.776 160.227 167.776C160.227 167.776 164.797 167.86 167.085 170.147" fill="#FDEEEB"/>
<path opacity="0.13" d="M143.211 155.864C145.096 153.98 145.096 150.925 143.211 149.041C141.327 147.156 138.272 147.156 136.388 149.041C134.504 150.925 134.504 153.98 136.388 155.864C138.272 157.748 141.327 157.748 143.211 155.864Z" fill="#21252C" fill-opacity="0.2"/>
<path d="M154.505 146.892C157.089 145.265 159.459 146.721 160.911 147.558C162.357 148.394 165.477 150.095 166.988 150.095C166.988 150.095 168.194 157.498 168.194 161.579C168.194 161.579 162.228 167.948 154.367 167.093C146.977 166.284 143.631 163.349 143.631 163.349C143.631 163.349 145.415 153.542 145.415 151.024C145.415 151.024 151.275 148.93 154.505 146.892Z" fill="#FDEEEB"/>
<path d="M139.379 150.344C142.522 150.566 146.543 151.088 151.067 151.99C162.634 154.287 172.113 148.191 172.113 148.191" stroke="#FDEEEB" stroke-width="0.7179" stroke-miterlimit="10" stroke-linecap="round" stroke-linejoin="round"/>
<path d="M144.532 163.534C144.532 163.534 143.1 162.85 141.196 161.801" stroke="#FDEEEB" stroke-width="0.7179" stroke-miterlimit="10" stroke-linecap="round" stroke-linejoin="round"/>
<path opacity="0.07" d="M134.98 224.075C134.98 224.075 149.667 222.86 151.816 222.86V225.665L135.063 226.705L134.98 224.075Z" fill="#070707"/>
<path d="M135.941 212.461C135.941 212.461 139.952 224.084 141.191 228.091C141.482 229.177 141.722 230.684 141.658 231.465C141.625 231.867 141.824 235.328 142.286 237.149C142.485 237.944 143.053 238.194 143.465 237.505C143.784 236.969 143.395 233.794 143.395 233.794C143.395 233.794 144.421 237.394 144.639 237.935C144.856 238.476 145.286 238.979 145.72 238.869C146.298 238.587 145.803 236.276 145.424 234.802C145.725 235.851 146.173 237.348 146.58 238.448C146.737 238.878 147.088 239.058 147.365 239.026C147.804 238.892 147.947 238.49 147.892 238.12C147.698 236.789 146.986 234.529 146.649 233.498L146.76 233.591C147.25 234.654 148.229 236.72 148.687 237.265C149.089 237.741 149.962 237.334 149.718 236.516C149.431 235.583 148.465 233.156 147.952 231.562C147.924 231.331 149.066 232.814 149.842 233.314C150.101 233.48 150.512 232.972 150.457 232.63C150.314 231.728 149.791 230.994 148.705 229.889C148.571 229.755 147.938 228.817 147.763 228.216C146.792 224.958 144.098 214.62 142.836 209.065" fill="#FFB39C"/>
<g opacity="0.07">
<path opacity="0.07" d="M132.318 206.597C132.479 207.9 132.789 209.494 133.247 211.523C133.247 211.523 138.252 227.731 139.49 231.738L149.787 228.313C149.523 226.28 146.164 215.835 145.383 207.003C144.472 196.735 142.868 186.253 142.416 184.197C142.416 184.197 141.223 177.149 137.415 177.149C133.612 177.149 131.939 181.798 131.939 186.142C131.939 190.486 132.318 206.597 132.318 206.597Z" fill="#070707"/>
</g>
<path d="M133.131 206.893C133.293 208.196 133.602 209.79 134.06 211.819C134.06 211.819 139.005 226.243 140.243 230.249L148.548 227.763C148.285 225.73 145.549 216.191 144.768 207.359C143.857 197.09 142.864 186.253 142.411 184.201C142.411 184.201 141.219 177.153 137.411 177.153C133.607 177.153 131.934 181.803 131.934 186.147C131.939 190.486 133.131 206.893 133.131 206.893Z" fill="#FDEEEB"/>
<g filter="url(#filter0_d)">
<rect x="259.464" y="74.6428" width="125.536" height="55.9821" rx="10" fill="white"/>
<path d="M259.978 145.045C259.978 145.045 266.817 136.495 269.732 130.201C272.286 124.687 274.397 115.357 274.397 115.357H296.015C296.015 115.357 288.364 128.095 281.183 134.018C273.982 139.957 259.978 145.045 259.978 145.045Z" fill="white"/>
</g>
<path d="M89.1361 288.045C89.0492 287.951 82.1191 280.043 75.0225 267.776L74.9646 267.682C76.1304 266.74 80.5405 262.685 77.6656 257.022L77.4846 256.668L77.1515 256.885C73.5018 259.202 73.1325 262.598 73.4366 264.973C72.4228 263.127 71.409 261.193 70.4314 259.188C69.9534 258.217 69.4827 257.211 69.0121 256.182L69.0627 256.168L69.0193 256.066C70.2793 255.263 75.1094 251.707 72.8718 245.769L72.7342 245.393L72.3793 245.566C68.3748 247.529 67.7158 251.019 67.8027 253.431C66.6586 250.758 65.5579 247.927 64.5513 244.958C65.9634 244.314 71.1555 241.475 69.8014 235.327L69.7145 234.936L69.3379 235.059C65.0437 236.449 63.9213 239.875 63.6823 242.271C62.8206 239.491 62.0602 236.609 61.4302 233.647C62.893 233.096 68.2589 230.642 67.3465 224.414L67.2886 224.023L66.9048 224.117C62.7554 225.138 61.3071 228.194 60.8219 230.533C60.315 227.658 59.9457 224.711 59.7502 221.72C61.2999 221.438 66.9989 219.975 67.2162 213.697L67.2306 213.298L66.8324 213.32C62.4223 213.595 60.4671 216.513 59.6126 218.766C59.504 214.949 59.6923 211.075 60.2426 207.165C61.7344 207.136 67.7013 206.607 68.8817 200.365L68.9541 199.974L68.5558 199.938C64.3847 199.561 62.0385 201.871 60.793 203.899C61.2564 201.516 61.8575 199.127 62.6178 196.737C63.4796 196.15 68.7514 192.24 66.0503 186.121L65.891 185.759L65.5434 185.954C59.6923 189.249 61.604 195.571 61.9299 196.52C61.1478 198.953 60.5395 201.393 60.0688 203.826C59.5836 201.495 58.1571 198.489 54.0656 197.439L53.6818 197.338L53.6239 197.729C52.6463 204.007 58.0919 206.499 59.4895 207.034L59.4678 207.143H59.5185C59.0043 210.807 58.8088 214.442 58.874 218.027C57.9688 215.883 56.086 213.429 52.1394 213.038L51.7411 213.001V213.4C51.7266 219.75 57.4909 221.394 58.9536 221.706L58.9464 221.814L59.0405 221.807C59.236 224.733 59.5909 227.607 60.0833 230.424C58.845 228.411 56.5277 226.152 52.4073 226.471L52.0091 226.499L52.0815 226.891C53.2039 233.147 59.1709 233.726 60.6626 233.77L60.6771 233.879L60.7568 233.857C61.3144 236.449 61.9661 238.984 62.6975 241.439C61.2709 239.636 58.8595 237.847 55.0505 238.433L54.6594 238.491L54.7608 238.875C56.2164 244.596 61.4882 245.132 63.4289 245.132C63.5809 245.132 63.704 245.132 63.8127 245.125L63.8344 245.233L63.914 245.204C64.8265 247.898 65.8186 250.491 66.8469 252.945C65.1886 251.316 62.5092 249.795 58.7291 250.939L58.3453 251.055L58.4974 251.425C60.2716 255.726 63.943 256.501 66.3617 256.501C67.2306 256.501 67.9331 256.4 68.3314 256.327C68.8238 257.413 69.3307 258.471 69.8303 259.499C70.7572 261.389 71.7059 263.214 72.6618 264.966C70.8441 263.467 67.9476 262.113 64.1892 263.721L63.8199 263.88L64.0082 264.228C65.9055 267.689 68.8745 268.478 71.199 268.478C72.6183 268.478 73.7914 268.181 74.3345 268.022L74.378 268.124L74.4142 268.102C81.5543 280.456 88.5423 288.421 88.6292 288.516C88.7016 288.595 88.803 288.639 88.8972 288.639C88.9841 288.639 89.071 288.61 89.1361 288.545C89.2592 288.421 89.2737 288.19 89.1361 288.045ZM69.1714 235.877C70.0983 241.149 65.7824 243.597 64.3775 244.241C64.2254 242.699 64.153 237.738 69.1714 235.877ZM66.6803 224.921C67.2234 230.243 62.7482 232.38 61.2999 232.923C61.2637 231.373 61.5461 226.427 66.6803 224.921ZM66.4631 214.066C66.0503 219.396 61.2709 220.699 59.743 220.974C59.9964 219.461 61.2057 214.631 66.4631 214.066ZM67.6579 200.618C67.7955 200.618 67.9331 200.618 68.0779 200.626C66.8613 205.84 61.9299 206.397 60.3802 206.441C60.8364 205 62.6323 200.618 67.6579 200.618ZM72.3359 246.399C74.0014 251.483 70.091 254.517 68.7876 255.357C68.4327 253.858 67.6941 248.934 72.3359 246.399ZM65.5434 186.787C67.4913 191.777 63.7475 195.021 62.502 195.94C62.0385 194.456 60.9885 189.611 65.5434 186.787ZM54.2756 198.243C59.4026 199.793 59.6343 204.746 59.5764 206.296C58.1353 205.738 53.6818 203.566 54.2756 198.243ZM52.458 213.805C57.7515 214.566 58.7364 219.41 58.9174 220.96C57.4184 220.612 52.6825 219.091 52.458 213.805ZM52.8563 227.166C58.1933 226.963 60.0399 231.561 60.4961 233.046C58.9536 232.973 54.0222 232.322 52.8563 227.166ZM55.5429 239.107C60.8654 238.528 63.0233 242.988 63.5809 244.429C62.0313 244.48 57.0853 244.227 55.5429 239.107ZM59.3012 251.533C64.2978 250.244 67.0496 254.017 67.9186 255.502C67.9403 255.552 67.9693 255.61 67.991 255.661C66.4558 255.914 61.5244 256.305 59.3012 251.533ZM77.2094 257.71C79.4181 262.577 75.8625 266.024 74.6604 267.008C74.1463 265.553 72.879 260.737 77.2094 257.71ZM64.8192 264.242C69.8231 262.345 73.0311 266.125 73.9363 267.392C72.4518 267.827 67.5927 268.826 64.8192 264.242Z" fill="white"/>
<path d="M308.682 166.385C309.29 163.814 309.696 161.265 309.833 158.774L309.935 158.781L309.92 158.673C311.376 158.318 317.089 156.515 316.894 150.171L316.879 149.773L316.481 149.824C312.44 150.338 310.63 152.966 309.819 155.175C309.703 153.147 309.391 151.163 308.848 149.237C309.239 148.296 311.528 142.119 305.894 138.476L305.561 138.259L305.38 138.614C302.302 144.566 307.335 148.795 308.153 149.425C308.725 151.438 309.037 153.524 309.131 155.66C308.197 153.452 306.155 150.664 301.802 150.519L301.404 150.504L301.426 150.903C301.817 157.166 307.538 158.47 309.109 158.709C308.971 161.374 308.515 164.104 307.827 166.863C307.509 164.48 306.285 161.2 302.063 159.918L301.679 159.802L301.6 160.193C300.354 166.37 305.604 169.108 307.023 169.73C306.169 172.526 305.105 175.335 303.881 178.152C303.852 175.741 303.041 172.033 298.674 170.317L298.305 170.172L298.196 170.556C296.473 176.603 301.462 179.745 302.838 180.484C301.744 182.845 300.564 185.191 299.326 187.508C299.586 185.119 299.246 181.223 294.981 179.007L294.626 178.826L294.474 179.195C292.106 185.09 296.849 188.747 298.088 189.579L298.037 189.673L298.131 189.702C296.748 192.215 295.321 194.692 293.902 197.103C294.163 194.706 293.793 190.919 289.651 188.696L289.296 188.508L289.144 188.877C286.711 194.706 291.346 198.421 292.606 199.297C291.954 200.391 291.309 201.477 290.672 202.542C289.948 203.751 289.231 204.946 288.529 206.133C288.869 203.751 288.572 200.26 284.857 197.893L284.524 197.675L284.343 198.03C281.454 203.686 285.849 207.755 287.015 208.697L286.957 208.791H286.965C283.959 213.947 281.381 218.726 279.998 222.687C273.937 240.125 285.256 280.518 285.371 280.923C285.415 281.083 285.56 281.184 285.719 281.184C285.748 281.184 285.784 281.177 285.82 281.17C286.016 281.112 286.125 280.916 286.067 280.721C285.951 280.315 274.698 240.147 280.686 222.926C282.048 219.016 284.611 214.266 287.609 209.124L287.638 209.146L287.681 209.044C288.225 209.211 289.412 209.515 290.846 209.515C293.163 209.515 296.118 208.726 298.015 205.286L298.211 204.938L297.841 204.779C294.192 203.201 291.346 204.439 289.514 205.88C290.1 204.902 290.687 203.91 291.288 202.911C291.925 201.846 292.569 200.775 293.214 199.681L293.272 199.717L293.308 199.616C293.75 199.717 294.612 199.869 295.683 199.869C298.088 199.869 301.498 199.08 303.323 195.068L303.49 194.706L303.113 194.576C299.76 193.425 297.219 194.453 295.488 195.814C296.617 193.873 297.747 191.897 298.841 189.898C299.282 189.985 300.057 190.108 301.006 190.108C303.417 190.108 306.915 189.319 308.725 185.213L308.885 184.851L308.508 184.728C305.126 183.612 302.592 184.691 300.883 186.074C301.788 184.329 302.65 182.57 303.468 180.803L303.555 180.839L303.584 180.73C303.83 180.752 304.192 180.781 304.641 180.781C306.929 180.781 311.383 180.1 312.998 175.038L313.121 174.662L312.73 174.575C309.225 173.815 306.799 175.176 305.249 176.747C306.176 174.488 307.002 172.229 307.69 169.984L307.769 170.013L307.784 169.904C307.842 169.904 307.907 169.904 307.979 169.904C309.739 169.904 315.322 169.426 316.72 163.481L316.814 163.09L316.416 163.039C312.455 162.503 310.043 164.488 308.682 166.385ZM316.177 150.598C316.112 155.95 311.419 157.557 309.92 157.934C310.05 156.392 310.898 151.504 316.177 150.598ZM305.843 139.309C310.21 142.408 308.863 147.18 308.32 148.629C307.125 147.637 303.591 144.161 305.843 139.309ZM302.186 151.25C307.516 151.663 308.819 156.435 309.102 157.963C307.581 157.717 302.751 156.507 302.186 151.25ZM287.341 208.016C286.146 207.031 282.591 203.577 284.814 198.711C289.195 201.788 287.877 206.568 287.341 208.016ZM297.182 205.279C294.394 209.855 289.543 208.842 288.058 208.4C288.963 207.147 292.178 203.374 297.182 205.279ZM292.903 198.609C291.65 197.711 287.848 194.496 289.666 189.529C294.271 192.251 293.323 197.11 292.903 198.609ZM302.505 195.126C300.086 199.891 295.184 199.268 293.656 198.943C293.714 198.848 293.772 198.747 293.83 198.653C294.836 197.118 297.704 193.707 302.505 195.126ZM298.348 188.877C297.081 187.993 293.243 184.822 294.995 179.84C299.637 182.504 298.754 187.378 298.348 188.877ZM307.914 185.271C305.604 189.963 300.854 189.529 299.224 189.217C299.405 188.891 299.579 188.558 299.76 188.232C301.028 186.56 303.707 184.09 307.914 185.271ZM303.055 179.782C301.694 179.05 297.537 176.342 298.783 171.135C303.678 173.308 303.301 178.254 303.055 179.782ZM312.194 175.19C310.347 180.216 305.387 180.165 303.844 180.013C304.482 178.608 306.915 174.285 312.194 175.19ZM307.183 169.006C305.763 168.383 301.404 166.016 302.237 160.729C307.284 162.503 307.306 167.464 307.183 169.006ZM307.987 169.18C308.53 167.739 310.651 163.235 315.923 163.705C314.482 168.854 309.522 169.209 307.987 169.18Z" fill="white"/>
<path d="M269.055 96.375C269.176 96.4097 269.332 96.4357 269.523 96.453C269.714 96.4617 269.896 96.466 270.069 96.466C270.416 96.466 270.702 96.3967 270.927 96.258C271.161 96.1107 271.278 95.8853 271.278 95.582C271.278 95.296 271.183 95.0923 270.992 94.971C270.801 94.8497 270.511 94.789 270.121 94.789H269.055V96.375ZM269.055 93.203H270.004C270.377 93.203 270.645 93.1337 270.81 92.995C270.983 92.8563 271.07 92.6527 271.07 92.384C271.07 92.15 270.97 91.9637 270.771 91.825C270.58 91.6863 270.29 91.617 269.9 91.617C269.77 91.617 269.618 91.6213 269.445 91.63C269.28 91.6387 269.15 91.6517 269.055 91.669V93.203ZM269.9 98.208C269.753 98.208 269.579 98.2037 269.38 98.195C269.181 98.1863 268.973 98.169 268.756 98.143C268.548 98.117 268.34 98.0823 268.132 98.039C267.924 98.0043 267.733 97.9523 267.56 97.883C267.083 97.701 266.845 97.3847 266.845 96.934V90.863C266.845 90.681 266.893 90.5423 266.988 90.447C267.092 90.343 267.231 90.2607 267.404 90.2C267.699 90.096 268.067 90.0223 268.509 89.979C268.951 89.927 269.406 89.901 269.874 89.901C270.983 89.901 271.837 90.0873 272.435 90.46C273.033 90.8327 273.332 91.409 273.332 92.189C273.332 92.579 273.219 92.917 272.994 93.203C272.769 93.4803 272.465 93.684 272.084 93.814C272.517 93.9353 272.877 94.1563 273.163 94.477C273.458 94.7977 273.605 95.2007 273.605 95.686C273.605 96.544 273.284 97.181 272.643 97.597C272.01 98.0043 271.096 98.208 269.9 98.208ZM277.429 96.596C277.576 96.596 277.736 96.583 277.91 96.557C278.092 96.5223 278.226 96.479 278.313 96.427V95.387L277.377 95.465C277.134 95.4823 276.935 95.5343 276.779 95.621C276.623 95.7077 276.545 95.8377 276.545 96.011C276.545 96.1843 276.61 96.3273 276.74 96.44C276.878 96.544 277.108 96.596 277.429 96.596ZM277.325 91.487C277.793 91.487 278.217 91.5347 278.599 91.63C278.989 91.7253 279.318 91.8727 279.587 92.072C279.864 92.2627 280.076 92.5097 280.224 92.813C280.371 93.1077 280.445 93.4587 280.445 93.866V96.778C280.445 97.0033 280.38 97.1897 280.25 97.337C280.128 97.4757 279.981 97.597 279.808 97.701C279.244 98.039 278.451 98.208 277.429 98.208C276.969 98.208 276.553 98.1647 276.181 98.078C275.817 97.9913 275.5 97.8613 275.232 97.688C274.972 97.5147 274.768 97.2937 274.621 97.025C274.482 96.7563 274.413 96.4443 274.413 96.089C274.413 95.491 274.59 95.0317 274.946 94.711C275.301 94.3903 275.851 94.191 276.597 94.113L278.3 93.931V93.84C278.3 93.5887 278.187 93.411 277.962 93.307C277.745 93.1943 277.429 93.138 277.013 93.138C276.683 93.138 276.363 93.1727 276.051 93.242C275.739 93.3113 275.457 93.398 275.206 93.502C275.093 93.424 274.998 93.307 274.92 93.151C274.842 92.9863 274.803 92.8173 274.803 92.644C274.803 92.4187 274.855 92.241 274.959 92.111C275.071 91.9723 275.24 91.8553 275.466 91.76C275.717 91.6647 276.012 91.5953 276.35 91.552C276.696 91.5087 277.021 91.487 277.325 91.487ZM284.877 91.487C285.371 91.487 285.817 91.552 286.216 91.682C286.623 91.8033 286.966 91.9637 287.243 92.163C287.416 92.2843 287.551 92.4187 287.646 92.566C287.75 92.7133 287.802 92.904 287.802 93.138V97.688C287.802 98.1473 287.715 98.5417 287.542 98.871C287.369 99.209 287.13 99.4863 286.827 99.703C286.532 99.9283 286.181 100.093 285.774 100.197C285.375 100.301 284.946 100.353 284.487 100.353C283.698 100.353 283.079 100.245 282.628 100.028C282.177 99.82 281.952 99.4777 281.952 99.001C281.952 98.8017 281.991 98.624 282.069 98.468C282.156 98.3207 282.251 98.208 282.355 98.13C282.606 98.2687 282.888 98.3857 283.2 98.481C283.521 98.5763 283.85 98.624 284.188 98.624C284.656 98.624 285.029 98.546 285.306 98.39C285.583 98.234 285.722 97.9827 285.722 97.636V97.428C285.367 97.584 284.933 97.662 284.422 97.662C284.032 97.662 283.659 97.6057 283.304 97.493C282.957 97.3717 282.65 97.1897 282.381 96.947C282.121 96.6957 281.909 96.375 281.744 95.985C281.588 95.595 281.51 95.1313 281.51 94.594C281.51 94.0653 281.592 93.606 281.757 93.216C281.93 92.826 282.164 92.5053 282.459 92.254C282.762 91.994 283.118 91.8033 283.525 91.682C283.941 91.552 284.392 91.487 284.877 91.487ZM285.683 93.372C285.622 93.3373 285.531 93.3027 285.41 93.268C285.297 93.2333 285.154 93.216 284.981 93.216C284.556 93.216 284.236 93.3373 284.019 93.58C283.811 93.814 283.707 94.152 283.707 94.594C283.707 95.0967 283.811 95.4607 284.019 95.686C284.236 95.9027 284.509 96.011 284.838 96.011C285.193 96.011 285.475 95.9287 285.683 95.764V93.372ZM291.876 96.596C292.023 96.596 292.184 96.583 292.357 96.557C292.539 96.5223 292.673 96.479 292.76 96.427V95.387L291.824 95.465C291.581 95.4823 291.382 95.5343 291.226 95.621C291.07 95.7077 290.992 95.8377 290.992 96.011C290.992 96.1843 291.057 96.3273 291.187 96.44C291.326 96.544 291.555 96.596 291.876 96.596ZM291.772 91.487C292.24 91.487 292.665 91.5347 293.046 91.63C293.436 91.7253 293.765 91.8727 294.034 92.072C294.311 92.2627 294.524 92.5097 294.671 92.813C294.818 93.1077 294.892 93.4587 294.892 93.866V96.778C294.892 97.0033 294.827 97.1897 294.697 97.337C294.576 97.4757 294.428 97.597 294.255 97.701C293.692 98.039 292.899 98.208 291.876 98.208C291.417 98.208 291.001 98.1647 290.628 98.078C290.264 97.9913 289.948 97.8613 289.679 97.688C289.419 97.5147 289.215 97.2937 289.068 97.025C288.929 96.7563 288.86 96.4443 288.86 96.089C288.86 95.491 289.038 95.0317 289.393 94.711C289.748 94.3903 290.299 94.191 291.044 94.113L292.747 93.931V93.84C292.747 93.5887 292.634 93.411 292.409 93.307C292.192 93.1943 291.876 93.138 291.46 93.138C291.131 93.138 290.81 93.1727 290.498 93.242C290.186 93.3113 289.904 93.398 289.653 93.502C289.54 93.424 289.445 93.307 289.367 93.151C289.289 92.9863 289.25 92.8173 289.25 92.644C289.25 92.4187 289.302 92.241 289.406 92.111C289.519 91.9723 289.688 91.8553 289.913 91.76C290.164 91.6647 290.459 91.5953 290.797 91.552C291.144 91.5087 291.469 91.487 291.772 91.487ZM296.191 89.927C296.191 89.5977 296.3 89.3203 296.516 89.095C296.742 88.8697 297.036 88.757 297.4 88.757C297.764 88.757 298.055 88.8697 298.271 89.095C298.497 89.3203 298.609 89.5977 298.609 89.927C298.609 90.2563 298.497 90.5337 298.271 90.759C298.055 90.9843 297.764 91.097 297.4 91.097C297.036 91.097 296.742 90.9843 296.516 90.759C296.3 90.5337 296.191 90.2563 296.191 89.927ZM298.505 97.987C298.41 98.0043 298.267 98.026 298.076 98.052C297.894 98.0867 297.708 98.104 297.517 98.104C297.327 98.104 297.153 98.091 296.997 98.065C296.85 98.039 296.724 97.987 296.62 97.909C296.516 97.831 296.434 97.727 296.373 97.597C296.321 97.4583 296.295 97.2807 296.295 97.064V91.773C296.391 91.7557 296.529 91.734 296.711 91.708C296.902 91.6733 297.093 91.656 297.283 91.656C297.474 91.656 297.643 91.669 297.79 91.695C297.946 91.721 298.076 91.773 298.18 91.851C298.284 91.929 298.362 92.0373 298.414 92.176C298.475 92.306 298.505 92.4793 298.505 92.696V97.987ZM302.941 91.487C303.297 91.487 303.643 91.539 303.981 91.643C304.328 91.7383 304.627 91.8857 304.878 92.085C305.138 91.9117 305.429 91.7687 305.749 91.656C306.079 91.5433 306.473 91.487 306.932 91.487C307.262 91.487 307.582 91.5303 307.894 91.617C308.215 91.7037 308.497 91.8423 308.739 92.033C308.991 92.215 309.19 92.462 309.337 92.774C309.485 93.0773 309.558 93.45 309.558 93.892V97.987C309.472 98.013 309.333 98.039 309.142 98.065C308.96 98.091 308.77 98.104 308.57 98.104C308.38 98.104 308.206 98.091 308.05 98.065C307.903 98.039 307.777 97.987 307.673 97.909C307.569 97.831 307.487 97.727 307.426 97.597C307.374 97.4583 307.348 97.2807 307.348 97.064V93.957C307.348 93.697 307.275 93.5107 307.127 93.398C306.98 93.2767 306.781 93.216 306.529 93.216C306.408 93.216 306.278 93.2463 306.139 93.307C306.001 93.359 305.897 93.4153 305.827 93.476C305.836 93.5107 305.84 93.5453 305.84 93.58C305.84 93.606 305.84 93.632 305.84 93.658V97.987C305.745 98.013 305.602 98.039 305.411 98.065C305.229 98.091 305.043 98.104 304.852 98.104C304.662 98.104 304.488 98.091 304.332 98.065C304.185 98.039 304.059 97.987 303.955 97.909C303.851 97.831 303.769 97.727 303.708 97.597C303.656 97.4583 303.63 97.2807 303.63 97.064V93.957C303.63 93.697 303.548 93.5107 303.383 93.398C303.227 93.2767 303.037 93.216 302.811 93.216C302.655 93.216 302.521 93.242 302.408 93.294C302.296 93.3373 302.2 93.3807 302.122 93.424V97.987C302.036 98.013 301.897 98.039 301.706 98.065C301.524 98.091 301.334 98.104 301.134 98.104C300.944 98.104 300.77 98.091 300.614 98.065C300.467 98.039 300.341 97.987 300.237 97.909C300.133 97.831 300.051 97.727 299.99 97.597C299.938 97.4583 299.912 97.2807 299.912 97.064V93.138C299.912 92.904 299.96 92.7177 300.055 92.579C300.159 92.4403 300.298 92.3103 300.471 92.189C300.766 91.981 301.13 91.812 301.563 91.682C302.005 91.552 302.465 91.487 302.941 91.487ZM313.61 96.596C313.758 96.596 313.918 96.583 314.091 96.557C314.273 96.5223 314.408 96.479 314.494 96.427V95.387L313.558 95.465C313.316 95.4823 313.116 95.5343 312.96 95.621C312.804 95.7077 312.726 95.8377 312.726 96.011C312.726 96.1843 312.791 96.3273 312.921 96.44C313.06 96.544 313.29 96.596 313.61 96.596ZM313.506 91.487C313.974 91.487 314.399 91.5347 314.78 91.63C315.17 91.7253 315.5 91.8727 315.768 92.072C316.046 92.2627 316.258 92.5097 316.405 92.813C316.553 93.1077 316.626 93.4587 316.626 93.866V96.778C316.626 97.0033 316.561 97.1897 316.431 97.337C316.31 97.4757 316.163 97.597 315.989 97.701C315.426 98.039 314.633 98.208 313.61 98.208C313.151 98.208 312.735 98.1647 312.362 98.078C311.998 97.9913 311.682 97.8613 311.413 97.688C311.153 97.5147 310.95 97.2937 310.802 97.025C310.664 96.7563 310.594 96.4443 310.594 96.089C310.594 95.491 310.772 95.0317 311.127 94.711C311.483 94.3903 312.033 94.191 312.778 94.113L314.481 93.931V93.84C314.481 93.5887 314.369 93.411 314.143 93.307C313.927 93.1943 313.61 93.138 313.194 93.138C312.865 93.138 312.544 93.1727 312.232 93.242C311.92 93.3113 311.639 93.398 311.387 93.502C311.275 93.424 311.179 93.307 311.101 93.151C311.023 92.9863 310.984 92.8173 310.984 92.644C310.984 92.4187 311.036 92.241 311.14 92.111C311.253 91.9723 311.422 91.8553 311.647 91.76C311.899 91.6647 312.193 91.5953 312.531 91.552C312.878 91.5087 313.203 91.487 313.506 91.487ZM321.982 93.996C321.982 93.7273 321.904 93.5323 321.748 93.411C321.6 93.281 321.397 93.216 321.137 93.216C320.963 93.216 320.79 93.2377 320.617 93.281C320.452 93.3243 320.309 93.3893 320.188 93.476V97.987C320.101 98.013 319.962 98.039 319.772 98.065C319.59 98.091 319.399 98.104 319.2 98.104C319.009 98.104 318.836 98.091 318.68 98.065C318.532 98.039 318.407 97.987 318.303 97.909C318.199 97.831 318.116 97.727 318.056 97.597C318.004 97.4583 317.978 97.2807 317.978 97.064V93.164C317.978 92.93 318.025 92.7393 318.121 92.592C318.225 92.4447 318.363 92.3103 318.537 92.189C318.831 91.981 319.2 91.812 319.642 91.682C320.092 91.552 320.591 91.487 321.137 91.487C322.116 91.487 322.87 91.7037 323.399 92.137C323.927 92.5617 324.192 93.1553 324.192 93.918V97.987C324.105 98.013 323.966 98.039 323.776 98.065C323.594 98.091 323.403 98.104 323.204 98.104C323.013 98.104 322.84 98.091 322.684 98.065C322.536 98.039 322.411 97.987 322.307 97.909C322.203 97.831 322.12 97.727 322.06 97.597C322.008 97.4583 321.982 97.2807 321.982 97.064V93.996ZM328.261 96.596C328.408 96.596 328.569 96.583 328.742 96.557C328.924 96.5223 329.058 96.479 329.145 96.427V95.387L328.209 95.465C327.966 95.4823 327.767 95.5343 327.611 95.621C327.455 95.7077 327.377 95.8377 327.377 96.011C327.377 96.1843 327.442 96.3273 327.572 96.44C327.711 96.544 327.94 96.596 328.261 96.596ZM328.157 91.487C328.625 91.487 329.05 91.5347 329.431 91.63C329.821 91.7253 330.15 91.8727 330.419 92.072C330.696 92.2627 330.909 92.5097 331.056 92.813C331.203 93.1077 331.277 93.4587 331.277 93.866V96.778C331.277 97.0033 331.212 97.1897 331.082 97.337C330.961 97.4757 330.813 97.597 330.64 97.701C330.077 98.039 329.284 98.208 328.261 98.208C327.802 98.208 327.386 98.1647 327.013 98.078C326.649 97.9913 326.333 97.8613 326.064 97.688C325.804 97.5147 325.6 97.2937 325.453 97.025C325.314 96.7563 325.245 96.4443 325.245 96.089C325.245 95.491 325.423 95.0317 325.778 94.711C326.133 94.3903 326.684 94.191 327.429 94.113L329.132 93.931V93.84C329.132 93.5887 329.019 93.411 328.794 93.307C328.577 93.1943 328.261 93.138 327.845 93.138C327.516 93.138 327.195 93.1727 326.883 93.242C326.571 93.3113 326.289 93.398 326.038 93.502C325.925 93.424 325.83 93.307 325.752 93.151C325.674 92.9863 325.635 92.8173 325.635 92.644C325.635 92.4187 325.687 92.241 325.791 92.111C325.904 91.9723 326.073 91.8553 326.298 91.76C326.549 91.6647 326.844 91.5953 327.182 91.552C327.529 91.5087 327.854 91.487 328.157 91.487ZM338.793 93.229C338.576 93.229 338.368 93.2637 338.169 93.333C337.978 93.4023 337.809 93.5063 337.662 93.645C337.523 93.775 337.41 93.9397 337.324 94.139C337.237 94.3383 337.194 94.5723 337.194 94.841C337.194 95.3783 337.345 95.7813 337.649 96.05C337.961 96.3187 338.338 96.453 338.78 96.453C339.04 96.453 339.265 96.4227 339.456 96.362C339.646 96.3013 339.815 96.2363 339.963 96.167C340.136 96.2883 340.266 96.4227 340.353 96.57C340.439 96.7087 340.483 96.8777 340.483 97.077C340.483 97.4323 340.314 97.7097 339.976 97.909C339.638 98.0997 339.17 98.195 338.572 98.195C338.026 98.195 337.532 98.117 337.09 97.961C336.648 97.7963 336.266 97.571 335.946 97.285C335.634 96.9903 335.391 96.6393 335.218 96.232C335.044 95.8247 334.958 95.374 334.958 94.88C334.958 94.308 335.049 93.8097 335.231 93.385C335.421 92.9517 335.677 92.5963 335.998 92.319C336.318 92.0417 336.687 91.8337 337.103 91.695C337.527 91.5563 337.974 91.487 338.442 91.487C339.066 91.487 339.547 91.5997 339.885 91.825C340.223 92.0503 340.392 92.3407 340.392 92.696C340.392 92.8607 340.353 93.0167 340.275 93.164C340.197 93.3027 340.106 93.424 340.002 93.528C339.854 93.4587 339.677 93.3937 339.469 93.333C339.261 93.2637 339.035 93.229 338.793 93.229ZM344.295 96.596C344.442 96.596 344.603 96.583 344.776 96.557C344.958 96.5223 345.092 96.479 345.179 96.427V95.387L344.243 95.465C344 95.4823 343.801 95.5343 343.645 95.621C343.489 95.7077 343.411 95.8377 343.411 96.011C343.411 96.1843 343.476 96.3273 343.606 96.44C343.745 96.544 343.974 96.596 344.295 96.596ZM344.191 91.487C344.659 91.487 345.084 91.5347 345.465 91.63C345.855 91.7253 346.184 91.8727 346.453 92.072C346.73 92.2627 346.943 92.5097 347.09 92.813C347.237 93.1077 347.311 93.4587 347.311 93.866V96.778C347.311 97.0033 347.246 97.1897 347.116 97.337C346.995 97.4757 346.847 97.597 346.674 97.701C346.111 98.039 345.318 98.208 344.295 98.208C343.836 98.208 343.42 98.1647 343.047 98.078C342.683 97.9913 342.367 97.8613 342.098 97.688C341.838 97.5147 341.634 97.2937 341.487 97.025C341.348 96.7563 341.279 96.4443 341.279 96.089C341.279 95.491 341.457 95.0317 341.812 94.711C342.167 94.3903 342.718 94.191 343.463 94.113L345.166 93.931V93.84C345.166 93.5887 345.053 93.411 344.828 93.307C344.611 93.1943 344.295 93.138 343.879 93.138C343.55 93.138 343.229 93.1727 342.917 93.242C342.605 93.3113 342.323 93.398 342.072 93.502C341.959 93.424 341.864 93.307 341.786 93.151C341.708 92.9863 341.669 92.8173 341.669 92.644C341.669 92.4187 341.721 92.241 341.825 92.111C341.938 91.9723 342.107 91.8553 342.332 91.76C342.583 91.6647 342.878 91.5953 343.216 91.552C343.563 91.5087 343.888 91.487 344.191 91.487ZM350.872 97.987C350.786 98.013 350.647 98.039 350.456 98.065C350.274 98.091 350.084 98.104 349.884 98.104C349.694 98.104 349.52 98.091 349.364 98.065C349.217 98.039 349.091 97.987 348.987 97.909C348.883 97.831 348.801 97.727 348.74 97.597C348.688 97.4583 348.662 97.2807 348.662 97.064V93.164C348.662 92.9647 348.697 92.7957 348.766 92.657C348.844 92.5097 348.953 92.3797 349.091 92.267C349.23 92.1543 349.399 92.0547 349.598 91.968C349.806 91.8727 350.027 91.7903 350.261 91.721C350.495 91.6517 350.738 91.5997 350.989 91.565C351.241 91.5217 351.492 91.5 351.743 91.5C352.159 91.5 352.489 91.5823 352.731 91.747C352.974 91.903 353.095 92.163 353.095 92.527C353.095 92.6483 353.078 92.7697 353.043 92.891C353.009 93.0037 352.965 93.1077 352.913 93.203C352.731 93.203 352.545 93.2117 352.354 93.229C352.164 93.2463 351.977 93.2723 351.795 93.307C351.613 93.3417 351.44 93.3807 351.275 93.424C351.119 93.4587 350.985 93.502 350.872 93.554V97.987ZM356.521 96.596C356.668 96.596 356.828 96.583 357.002 96.557C357.184 96.5223 357.318 96.479 357.405 96.427V95.387L356.469 95.465C356.226 95.4823 356.027 95.5343 355.871 95.621C355.715 95.7077 355.637 95.8377 355.637 96.011C355.637 96.1843 355.702 96.3273 355.832 96.44C355.97 96.544 356.2 96.596 356.521 96.596ZM356.417 91.487C356.885 91.487 357.309 91.5347 357.691 91.63C358.081 91.7253 358.41 91.8727 358.679 92.072C358.956 92.2627 359.168 92.5097 359.316 92.813C359.463 93.1077 359.537 93.4587 359.537 93.866V96.778C359.537 97.0033 359.472 97.1897 359.342 97.337C359.22 97.4757 359.073 97.597 358.9 97.701C358.336 98.039 357.543 98.208 356.521 98.208C356.061 98.208 355.645 98.1647 355.273 98.078C354.909 97.9913 354.592 97.8613 354.324 97.688C354.064 97.5147 353.86 97.2937 353.713 97.025C353.574 96.7563 353.505 96.4443 353.505 96.089C353.505 95.491 353.682 95.0317 354.038 94.711C354.393 94.3903 354.943 94.191 355.689 94.113L357.392 93.931V93.84C357.392 93.5887 357.279 93.411 357.054 93.307C356.837 93.1943 356.521 93.138 356.105 93.138C355.775 93.138 355.455 93.1727 355.143 93.242C354.831 93.3113 354.549 93.398 354.298 93.502C354.185 93.424 354.09 93.307 354.012 93.151C353.934 92.9863 353.895 92.8173 353.895 92.644C353.895 92.4187 353.947 92.241 354.051 92.111C354.163 91.9723 354.332 91.8553 354.558 91.76C354.809 91.6647 355.104 91.5953 355.442 91.552C355.788 91.5087 356.113 91.487 356.417 91.487ZM269.705 110.487C270.06 110.487 270.407 110.539 270.745 110.643C271.092 110.738 271.391 110.886 271.642 111.085C271.902 110.912 272.192 110.769 272.513 110.656C272.842 110.543 273.237 110.487 273.696 110.487C274.025 110.487 274.346 110.53 274.658 110.617C274.979 110.704 275.26 110.842 275.503 111.033C275.754 111.215 275.954 111.462 276.101 111.774C276.248 112.077 276.322 112.45 276.322 112.892V116.987C276.235 117.013 276.097 117.039 275.906 117.065C275.724 117.091 275.533 117.104 275.334 117.104C275.143 117.104 274.97 117.091 274.814 117.065C274.667 117.039 274.541 116.987 274.437 116.909C274.333 116.831 274.251 116.727 274.19 116.597C274.138 116.458 274.112 116.281 274.112 116.064V112.957C274.112 112.697 274.038 112.511 273.891 112.398C273.744 112.277 273.544 112.216 273.293 112.216C273.172 112.216 273.042 112.246 272.903 112.307C272.764 112.359 272.66 112.415 272.591 112.476C272.6 112.511 272.604 112.545 272.604 112.58C272.604 112.606 272.604 112.632 272.604 112.658V116.987C272.509 117.013 272.366 117.039 272.175 117.065C271.993 117.091 271.807 117.104 271.616 117.104C271.425 117.104 271.252 117.091 271.096 117.065C270.949 117.039 270.823 116.987 270.719 116.909C270.615 116.831 270.533 116.727 270.472 116.597C270.42 116.458 270.394 116.281 270.394 116.064V112.957C270.394 112.697 270.312 112.511 270.147 112.398C269.991 112.277 269.8 112.216 269.575 112.216C269.419 112.216 269.285 112.242 269.172 112.294C269.059 112.337 268.964 112.381 268.886 112.424V116.987C268.799 117.013 268.661 117.039 268.47 117.065C268.288 117.091 268.097 117.104 267.898 117.104C267.707 117.104 267.534 117.091 267.378 117.065C267.231 117.039 267.105 116.987 267.001 116.909C266.897 116.831 266.815 116.727 266.754 116.597C266.702 116.458 266.676 116.281 266.676 116.064V112.138C266.676 111.904 266.724 111.718 266.819 111.579C266.923 111.44 267.062 111.31 267.235 111.189C267.53 110.981 267.894 110.812 268.327 110.682C268.769 110.552 269.228 110.487 269.705 110.487ZM281.011 117.208C280.5 117.208 280.023 117.139 279.581 117C279.148 116.853 278.766 116.636 278.437 116.35C278.116 116.064 277.861 115.704 277.67 115.271C277.488 114.838 277.397 114.331 277.397 113.75C277.397 113.178 277.488 112.688 277.67 112.281C277.861 111.865 278.108 111.527 278.411 111.267C278.714 110.998 279.061 110.803 279.451 110.682C279.841 110.552 280.24 110.487 280.647 110.487C281.106 110.487 281.522 110.556 281.895 110.695C282.276 110.834 282.601 111.024 282.87 111.267C283.147 111.51 283.36 111.8 283.507 112.138C283.663 112.476 283.741 112.844 283.741 113.243C283.741 113.538 283.659 113.763 283.494 113.919C283.329 114.075 283.1 114.175 282.805 114.218L279.594 114.699C279.689 114.985 279.884 115.202 280.179 115.349C280.474 115.488 280.812 115.557 281.193 115.557C281.548 115.557 281.882 115.514 282.194 115.427C282.515 115.332 282.775 115.223 282.974 115.102C283.113 115.189 283.23 115.31 283.325 115.466C283.42 115.622 283.468 115.787 283.468 115.96C283.468 116.35 283.286 116.64 282.922 116.831C282.645 116.978 282.333 117.078 281.986 117.13C281.639 117.182 281.314 117.208 281.011 117.208ZM280.647 112.099C280.439 112.099 280.257 112.134 280.101 112.203C279.954 112.272 279.832 112.363 279.737 112.476C279.642 112.58 279.568 112.701 279.516 112.84C279.473 112.97 279.447 113.104 279.438 113.243L281.661 112.879C281.635 112.706 281.54 112.532 281.375 112.359C281.21 112.186 280.968 112.099 280.647 112.099ZM288.809 112.996C288.809 112.727 288.731 112.532 288.575 112.411C288.428 112.281 288.224 112.216 287.964 112.216C287.791 112.216 287.617 112.238 287.444 112.281C287.279 112.324 287.136 112.389 287.015 112.476V116.987C286.928 117.013 286.79 117.039 286.599 117.065C286.417 117.091 286.226 117.104 286.027 117.104C285.836 117.104 285.663 117.091 285.507 117.065C285.36 117.039 285.234 116.987 285.13 116.909C285.026 116.831 284.944 116.727 284.883 116.597C284.831 116.458 284.805 116.281 284.805 116.064V112.164C284.805 111.93 284.853 111.739 284.948 111.592C285.052 111.445 285.191 111.31 285.364 111.189C285.659 110.981 286.027 110.812 286.469 110.682C286.92 110.552 287.418 110.487 287.964 110.487C288.943 110.487 289.697 110.704 290.226 111.137C290.755 111.562 291.019 112.155 291.019 112.918V116.987C290.932 117.013 290.794 117.039 290.603 117.065C290.421 117.091 290.23 117.104 290.031 117.104C289.84 117.104 289.667 117.091 289.511 117.065C289.364 117.039 289.238 116.987 289.134 116.909C289.03 116.831 288.948 116.727 288.887 116.597C288.835 116.458 288.809 116.281 288.809 116.064V112.996ZM295.946 112.229C295.729 112.229 295.521 112.264 295.322 112.333C295.131 112.402 294.962 112.506 294.815 112.645C294.676 112.775 294.564 112.94 294.477 113.139C294.39 113.338 294.347 113.572 294.347 113.841C294.347 114.378 294.499 114.781 294.802 115.05C295.114 115.319 295.491 115.453 295.933 115.453C296.193 115.453 296.418 115.423 296.609 115.362C296.8 115.301 296.969 115.236 297.116 115.167C297.289 115.288 297.419 115.423 297.506 115.57C297.593 115.709 297.636 115.878 297.636 116.077C297.636 116.432 297.467 116.71 297.129 116.909C296.791 117.1 296.323 117.195 295.725 117.195C295.179 117.195 294.685 117.117 294.243 116.961C293.801 116.796 293.42 116.571 293.099 116.285C292.787 115.99 292.544 115.639 292.371 115.232C292.198 114.825 292.111 114.374 292.111 113.88C292.111 113.308 292.202 112.81 292.384 112.385C292.575 111.952 292.83 111.596 293.151 111.319C293.472 111.042 293.84 110.834 294.256 110.695C294.681 110.556 295.127 110.487 295.595 110.487C296.219 110.487 296.7 110.6 297.038 110.825C297.376 111.05 297.545 111.341 297.545 111.696C297.545 111.861 297.506 112.017 297.428 112.164C297.35 112.303 297.259 112.424 297.155 112.528C297.008 112.459 296.83 112.394 296.622 112.333C296.414 112.264 296.189 112.229 295.946 112.229ZM301.895 117.208C301.384 117.208 300.907 117.139 300.465 117C300.032 116.853 299.65 116.636 299.321 116.35C299 116.064 298.745 115.704 298.554 115.271C298.372 114.838 298.281 114.331 298.281 113.75C298.281 113.178 298.372 112.688 298.554 112.281C298.745 111.865 298.992 111.527 299.295 111.267C299.598 110.998 299.945 110.803 300.335 110.682C300.725 110.552 301.124 110.487 301.531 110.487C301.99 110.487 302.406 110.556 302.779 110.695C303.16 110.834 303.485 111.024 303.754 111.267C304.031 111.51 304.244 111.8 304.391 112.138C304.547 112.476 304.625 112.844 304.625 113.243C304.625 113.538 304.543 113.763 304.378 113.919C304.213 114.075 303.984 114.175 303.689 114.218L300.478 114.699C300.573 114.985 300.768 115.202 301.063 115.349C301.358 115.488 301.696 115.557 302.077 115.557C302.432 115.557 302.766 115.514 303.078 115.427C303.399 115.332 303.659 115.223 303.858 115.102C303.997 115.189 304.114 115.31 304.209 115.466C304.304 115.622 304.352 115.787 304.352 115.96C304.352 116.35 304.17 116.64 303.806 116.831C303.529 116.978 303.217 117.078 302.87 117.13C302.523 117.182 302.198 117.208 301.895 117.208ZM301.531 112.099C301.323 112.099 301.141 112.134 300.985 112.203C300.838 112.272 300.716 112.363 300.621 112.476C300.526 112.58 300.452 112.701 300.4 112.84C300.357 112.97 300.331 113.104 300.322 113.243L302.545 112.879C302.519 112.706 302.424 112.532 302.259 112.359C302.094 112.186 301.852 112.099 301.531 112.099ZM308.77 110.487C309.264 110.487 309.71 110.552 310.109 110.682C310.516 110.803 310.858 110.964 311.136 111.163C311.309 111.284 311.443 111.419 311.539 111.566C311.643 111.713 311.695 111.904 311.695 112.138V116.688C311.695 117.147 311.608 117.542 311.435 117.871C311.261 118.209 311.023 118.486 310.72 118.703C310.425 118.928 310.074 119.093 309.667 119.197C309.268 119.301 308.839 119.353 308.38 119.353C307.591 119.353 306.971 119.245 306.521 119.028C306.07 118.82 305.845 118.478 305.845 118.001C305.845 117.802 305.884 117.624 305.962 117.468C306.048 117.321 306.144 117.208 306.248 117.13C306.499 117.269 306.781 117.386 307.093 117.481C307.413 117.576 307.743 117.624 308.081 117.624C308.549 117.624 308.921 117.546 309.199 117.39C309.476 117.234 309.615 116.983 309.615 116.636V116.428C309.259 116.584 308.826 116.662 308.315 116.662C307.925 116.662 307.552 116.606 307.197 116.493C306.85 116.372 306.542 116.19 306.274 115.947C306.014 115.696 305.801 115.375 305.637 114.985C305.481 114.595 305.403 114.131 305.403 113.594C305.403 113.065 305.485 112.606 305.65 112.216C305.823 111.826 306.057 111.505 306.352 111.254C306.655 110.994 307.01 110.803 307.418 110.682C307.834 110.552 308.284 110.487 308.77 110.487ZM309.576 112.372C309.515 112.337 309.424 112.303 309.303 112.268C309.19 112.233 309.047 112.216 308.874 112.216C308.449 112.216 308.128 112.337 307.912 112.58C307.704 112.814 307.6 113.152 307.6 113.594C307.6 114.097 307.704 114.461 307.912 114.686C308.128 114.903 308.401 115.011 308.731 115.011C309.086 115.011 309.368 114.929 309.576 114.764V112.372ZM315.769 115.596C315.916 115.596 316.076 115.583 316.25 115.557C316.432 115.522 316.566 115.479 316.653 115.427V114.387L315.717 114.465C315.474 114.482 315.275 114.534 315.119 114.621C314.963 114.708 314.885 114.838 314.885 115.011C314.885 115.184 314.95 115.327 315.08 115.44C315.218 115.544 315.448 115.596 315.769 115.596ZM315.665 110.487C316.133 110.487 316.557 110.535 316.939 110.63C317.329 110.725 317.658 110.873 317.927 111.072C318.204 111.263 318.416 111.51 318.564 111.813C318.711 112.108 318.785 112.459 318.785 112.866V115.778C318.785 116.003 318.72 116.19 318.59 116.337C318.468 116.476 318.321 116.597 318.148 116.701C317.584 117.039 316.791 117.208 315.769 117.208C315.309 117.208 314.893 117.165 314.521 117.078C314.157 116.991 313.84 116.861 313.572 116.688C313.312 116.515 313.108 116.294 312.961 116.025C312.822 115.756 312.753 115.444 312.753 115.089C312.753 114.491 312.93 114.032 313.286 113.711C313.641 113.39 314.191 113.191 314.937 113.113L316.64 112.931V112.84C316.64 112.589 316.527 112.411 316.302 112.307C316.085 112.194 315.769 112.138 315.353 112.138C315.023 112.138 314.703 112.173 314.391 112.242C314.079 112.311 313.797 112.398 313.546 112.502C313.433 112.424 313.338 112.307 313.26 112.151C313.182 111.986 313.143 111.817 313.143 111.644C313.143 111.419 313.195 111.241 313.299 111.111C313.411 110.972 313.58 110.855 313.806 110.76C314.057 110.665 314.352 110.595 314.69 110.552C315.036 110.509 315.361 110.487 315.665 110.487ZM326.376 116.987C326.289 117.013 326.151 117.039 325.96 117.065C325.778 117.091 325.587 117.104 325.388 117.104C325.197 117.104 325.024 117.091 324.868 117.065C324.721 117.039 324.595 116.987 324.491 116.909C324.387 116.831 324.305 116.727 324.244 116.597C324.192 116.458 324.166 116.281 324.166 116.064V113.178C324.166 112.823 324.075 112.576 323.893 112.437C323.72 112.29 323.503 112.216 323.243 112.216C323.07 112.216 322.905 112.238 322.749 112.281C322.593 112.324 322.467 112.376 322.372 112.437V116.987C322.285 117.013 322.147 117.039 321.956 117.065C321.774 117.091 321.583 117.104 321.384 117.104C321.193 117.104 321.02 117.091 320.864 117.065C320.717 117.039 320.591 116.987 320.487 116.909C320.383 116.831 320.301 116.727 320.24 116.597C320.188 116.458 320.162 116.281 320.162 116.064V108.524C320.257 108.507 320.396 108.485 320.578 108.459C320.769 108.424 320.959 108.407 321.15 108.407C321.341 108.407 321.51 108.42 321.657 108.446C321.813 108.472 321.943 108.524 322.047 108.602C322.151 108.68 322.229 108.788 322.281 108.927C322.342 109.057 322.372 109.23 322.372 109.447V110.721C322.485 110.678 322.654 110.63 322.879 110.578C323.113 110.517 323.369 110.487 323.646 110.487C324.504 110.487 325.171 110.704 325.648 111.137C326.133 111.562 326.376 112.199 326.376 113.048V116.987ZM331.744 112.996C331.744 112.727 331.666 112.532 331.51 112.411C331.363 112.281 331.159 112.216 330.899 112.216C330.726 112.216 330.553 112.238 330.379 112.281C330.215 112.324 330.072 112.389 329.95 112.476V116.987C329.864 117.013 329.725 117.039 329.534 117.065C329.352 117.091 329.162 117.104 328.962 117.104C328.772 117.104 328.598 117.091 328.442 117.065C328.295 117.039 328.169 116.987 328.065 116.909C327.961 116.831 327.879 116.727 327.818 116.597C327.766 116.458 327.74 116.281 327.74 116.064V112.164C327.74 111.93 327.788 111.739 327.883 111.592C327.987 111.445 328.126 111.31 328.299 111.189C328.594 110.981 328.962 110.812 329.404 110.682C329.855 110.552 330.353 110.487 330.899 110.487C331.879 110.487 332.633 110.704 333.161 111.137C333.69 111.562 333.954 112.155 333.954 112.918V116.987C333.868 117.013 333.729 117.039 333.538 117.065C333.356 117.091 333.166 117.104 332.966 117.104C332.776 117.104 332.602 117.091 332.446 117.065C332.299 117.039 332.173 116.987 332.069 116.909C331.965 116.831 331.883 116.727 331.822 116.597C331.77 116.458 331.744 116.281 331.744 116.064V112.996ZM336.143 115.388C336.047 115.171 335.943 114.929 335.831 114.66C335.727 114.391 335.614 114.084 335.493 113.737C335.38 113.39 335.259 112.996 335.129 112.554C335.007 112.103 334.877 111.588 334.739 111.007C334.86 110.886 335.02 110.782 335.22 110.695C335.428 110.6 335.653 110.552 335.896 110.552C336.199 110.552 336.45 110.617 336.65 110.747C336.849 110.868 336.996 111.102 337.092 111.449L338.119 115.024H338.171C338.275 114.729 338.374 114.409 338.47 114.062C338.574 113.715 338.673 113.36 338.769 112.996C338.864 112.623 338.951 112.255 339.029 111.891C339.115 111.518 339.189 111.154 339.25 110.799C339.562 110.634 339.904 110.552 340.277 110.552C340.58 110.552 340.831 110.617 341.031 110.747C341.23 110.877 341.33 111.102 341.33 111.423C341.33 111.657 341.299 111.93 341.239 112.242C341.178 112.545 341.096 112.87 340.992 113.217C340.896 113.564 340.779 113.923 340.641 114.296C340.511 114.66 340.372 115.02 340.225 115.375C340.077 115.73 339.926 116.068 339.77 116.389C339.614 116.701 339.462 116.983 339.315 117.234C339.072 117.659 338.847 118.005 338.639 118.274C338.431 118.543 338.231 118.751 338.041 118.898C337.85 119.054 337.659 119.158 337.469 119.21C337.278 119.271 337.079 119.301 336.871 119.301C336.507 119.301 336.212 119.193 335.987 118.976C335.761 118.759 335.627 118.478 335.584 118.131C335.861 117.914 336.138 117.672 336.416 117.403C336.693 117.143 336.944 116.874 337.17 116.597C337.022 116.554 336.862 116.454 336.689 116.298C336.524 116.133 336.342 115.83 336.143 115.388ZM344.892 115.596C345.039 115.596 345.199 115.583 345.373 115.557C345.555 115.522 345.689 115.479 345.776 115.427V114.387L344.84 114.465C344.597 114.482 344.398 114.534 344.242 114.621C344.086 114.708 344.008 114.838 344.008 115.011C344.008 115.184 344.073 115.327 344.203 115.44C344.341 115.544 344.571 115.596 344.892 115.596ZM344.788 110.487C345.256 110.487 345.68 110.535 346.062 110.63C346.452 110.725 346.781 110.873 347.05 111.072C347.327 111.263 347.539 111.51 347.687 111.813C347.834 112.108 347.908 112.459 347.908 112.866V115.778C347.908 116.003 347.843 116.19 347.713 116.337C347.591 116.476 347.444 116.597 347.271 116.701C346.707 117.039 345.914 117.208 344.892 117.208C344.432 117.208 344.016 117.165 343.644 117.078C343.28 116.991 342.963 116.861 342.695 116.688C342.435 116.515 342.231 116.294 342.084 116.025C341.945 115.756 341.876 115.444 341.876 115.089C341.876 114.491 342.053 114.032 342.409 113.711C342.764 113.39 343.314 113.191 344.06 113.113L345.763 112.931V112.84C345.763 112.589 345.65 112.411 345.425 112.307C345.208 112.194 344.892 112.138 344.476 112.138C344.146 112.138 343.826 112.173 343.514 112.242C343.202 112.311 342.92 112.398 342.669 112.502C342.556 112.424 342.461 112.307 342.383 112.151C342.305 111.986 342.266 111.817 342.266 111.644C342.266 111.419 342.318 111.241 342.422 111.111C342.534 110.972 342.703 110.855 342.929 110.76C343.18 110.665 343.475 110.595 343.813 110.552C344.159 110.509 344.484 110.487 344.788 110.487ZM354.293 115.31C354.388 115.327 354.505 115.345 354.644 115.362C354.782 115.371 354.912 115.375 355.034 115.375C355.328 115.375 355.597 115.332 355.84 115.245C356.091 115.158 356.303 115.024 356.477 114.842C356.659 114.66 356.797 114.426 356.893 114.14C356.997 113.845 357.049 113.494 357.049 113.087C357.049 112.307 356.867 111.722 356.503 111.332C356.139 110.933 355.653 110.734 355.047 110.734C354.925 110.734 354.8 110.738 354.67 110.747C354.548 110.756 354.423 110.769 354.293 110.786V115.31ZM355.021 117.208C354.873 117.208 354.704 117.204 354.514 117.195C354.323 117.186 354.124 117.169 353.916 117.143C353.716 117.117 353.513 117.082 353.305 117.039C353.105 117.004 352.919 116.952 352.746 116.883C352.269 116.701 352.031 116.385 352.031 115.934V109.863C352.031 109.681 352.078 109.542 352.174 109.447C352.278 109.343 352.416 109.261 352.59 109.2C352.962 109.079 353.357 109.001 353.773 108.966C354.189 108.923 354.561 108.901 354.891 108.901C355.567 108.901 356.178 108.983 356.724 109.148C357.278 109.313 357.751 109.568 358.141 109.915C358.539 110.253 358.847 110.682 359.064 111.202C359.28 111.722 359.389 112.337 359.389 113.048C359.389 113.741 359.285 114.348 359.077 114.868C358.869 115.379 358.57 115.813 358.18 116.168C357.798 116.515 357.339 116.775 356.802 116.948C356.264 117.121 355.671 117.208 355.021 117.208ZM367.059 113.841C367.059 114.378 366.976 114.859 366.812 115.284C366.647 115.7 366.413 116.051 366.11 116.337C365.815 116.623 365.46 116.84 365.044 116.987C364.628 117.134 364.164 117.208 363.653 117.208C363.141 117.208 362.678 117.13 362.262 116.974C361.846 116.818 361.486 116.597 361.183 116.311C360.888 116.016 360.658 115.661 360.494 115.245C360.329 114.829 360.247 114.361 360.247 113.841C360.247 113.33 360.329 112.866 360.494 112.45C360.658 112.034 360.888 111.683 361.183 111.397C361.486 111.102 361.846 110.877 362.262 110.721C362.678 110.565 363.141 110.487 363.653 110.487C364.164 110.487 364.628 110.569 365.044 110.734C365.46 110.89 365.815 111.115 366.11 111.41C366.413 111.696 366.647 112.047 366.812 112.463C366.976 112.879 367.059 113.338 367.059 113.841ZM362.509 113.841C362.509 114.37 362.608 114.777 362.808 115.063C363.016 115.34 363.302 115.479 363.666 115.479C364.03 115.479 364.307 115.336 364.498 115.05C364.697 114.764 364.797 114.361 364.797 113.841C364.797 113.321 364.697 112.922 364.498 112.645C364.298 112.359 364.017 112.216 363.653 112.216C363.289 112.216 363.007 112.359 362.808 112.645C362.608 112.922 362.509 113.321 362.509 113.841ZM374.312 115.856C374.269 116.263 374.147 116.575 373.948 116.792C373.757 117.009 373.476 117.117 373.103 117.117C372.826 117.117 372.579 117.052 372.362 116.922C372.145 116.783 371.911 116.554 371.66 116.233L370.373 114.621V116.987C370.278 117.004 370.135 117.026 369.944 117.052C369.762 117.087 369.576 117.104 369.385 117.104C369.194 117.104 369.021 117.091 368.865 117.065C368.718 117.039 368.592 116.987 368.488 116.909C368.384 116.831 368.302 116.727 368.241 116.597C368.189 116.458 368.163 116.281 368.163 116.064V108.537C368.258 108.511 368.397 108.485 368.579 108.459C368.77 108.424 368.96 108.407 369.151 108.407C369.342 108.407 369.511 108.42 369.658 108.446C369.814 108.472 369.944 108.524 370.048 108.602C370.152 108.68 370.23 108.788 370.282 108.927C370.343 109.057 370.373 109.23 370.373 109.447V112.879L372.609 110.591C373.06 110.591 373.419 110.691 373.688 110.89C373.965 111.089 374.104 111.341 374.104 111.644C374.104 111.774 374.082 111.895 374.039 112.008C373.996 112.112 373.926 112.22 373.831 112.333C373.744 112.446 373.627 112.567 373.48 112.697C373.341 112.818 373.177 112.961 372.986 113.126L372.232 113.776L374.312 115.856ZM375.884 115.999C375.884 115.644 375.992 115.353 376.209 115.128C376.434 114.894 376.742 114.777 377.132 114.777C377.522 114.777 377.825 114.894 378.042 115.128C378.267 115.353 378.38 115.644 378.38 115.999C378.38 116.354 378.267 116.649 378.042 116.883C377.825 117.108 377.522 117.221 377.132 117.221C376.742 117.221 376.434 117.108 376.209 116.883C375.992 116.649 375.884 116.354 375.884 115.999ZM376.313 114.296C376.166 114.218 376.027 114.079 375.897 113.88C375.767 113.672 375.702 113.429 375.702 113.152C375.702 112.883 375.771 112.684 375.91 112.554C376.057 112.415 376.27 112.311 376.547 112.242L377.561 111.995C377.994 111.882 378.211 111.674 378.211 111.371C378.211 111.206 378.129 111.063 377.964 110.942C377.808 110.821 377.535 110.76 377.145 110.76C376.79 110.76 376.456 110.808 376.144 110.903C375.832 110.99 375.581 111.094 375.39 111.215C375.243 111.102 375.117 110.968 375.013 110.812C374.909 110.647 374.857 110.452 374.857 110.227C374.857 110.002 374.922 109.807 375.052 109.642C375.182 109.469 375.36 109.33 375.585 109.226C375.819 109.113 376.092 109.031 376.404 108.979C376.725 108.927 377.076 108.901 377.457 108.901C378.48 108.901 379.251 109.131 379.771 109.59C380.3 110.041 380.564 110.634 380.564 111.371C380.564 112.758 379.585 113.646 377.626 114.036L376.313 114.296Z" fill="#50D890"/>
<defs>
<filter id="filter0_d" x="255.464" y="74.6428" width="133.536" height="78.4019" filterUnits="userSpaceOnUse" color-interpolation-filters="sRGB">
<feFlood flood-opacity="0" result="BackgroundImageFix"/>
<feColorMatrix in="SourceAlpha" type="matrix" values="0 0 0 0 0 0 0 0 0 0 0 0 0 0 0 0 0 0 127 0"/>
<feOffset dy="4"/>
<feGaussianBlur stdDeviation="2"/>
<feColorMatrix type="matrix" values="0 0 0 0 0 0 0 0 0 0 0 0 0 0 0 0 0 0 0.25 0"/>
<feBlend mode="normal" in2="BackgroundImageFix" result="effect1_dropShadow"/>
<feBlend mode="normal" in="SourceGraphic" in2="effect1_dropShadow" result="shape"/>
</filter>
</defs>
</svg>
