<svg width="387" height="393" viewBox="0 0 387 393" fill="none" xmlns="http://www.w3.org/2000/svg">
<g opacity="0.8">
<path opacity="0.8" d="M99.4446 73.6562C99.4446 73.6562 109.883 88.9263 107.782 104.133L121.031 101.117C121.031 101.117 111.872 76.5144 116.894 69.3926C116.894 69.3926 104.103 69.6452 99.4446 73.6562Z" fill="#5AE295"/>
<g style="mix-blend-mode:multiply" opacity="0.41">
<path d="M99.4446 73.6562C99.4446 73.6562 109.883 88.9263 107.782 104.133L121.031 101.117C121.031 101.117 111.872 76.5144 116.894 69.3926C116.894 69.3926 104.103 69.6452 99.4446 73.6562Z" fill="#5AE295"/>
</g>
<path opacity="0.8" d="M121.933 63.1898C122.928 67.5324 117.069 72.5698 108.842 74.4489C100.615 76.3281 93.1299 74.3226 92.1509 69.9801C91.1718 65.6375 97.0145 60.5843 105.242 58.7052C113.469 56.826 120.954 58.8315 121.933 63.1898Z" fill="#5AE295"/>
<g style="mix-blend-mode:screen" opacity="0.4">
<path d="M107.53 63.6034C107.909 65.1826 105.698 67.1407 102.588 67.8513C99.4768 68.5619 96.6659 67.8513 96.2712 66.1616C95.8764 64.4719 98.1187 62.6244 101.214 61.9138C104.309 61.2032 107.151 61.9612 107.53 63.6034Z" fill="#5AE295"/>
</g>
</g>
<g opacity="0.8">
<path opacity="0.8" d="M155.331 318.707C155.331 318.707 158.11 300.405 149.63 287.614L162.879 284.598C162.879 284.598 165.358 310.732 172.907 314.98C172.907 314.98 161.268 320.286 155.331 318.707Z" fill="#5AE295"/>
<g style="mix-blend-mode:multiply" opacity="0.41">
<path d="M155.331 318.707C155.331 318.707 158.11 300.405 149.63 287.614L162.879 284.598C162.879 284.598 165.358 310.732 172.907 314.98C172.907 314.98 161.268 320.286 155.331 318.707Z" fill="#5AE295"/>
</g>
<path opacity="0.8" d="M180.139 318.381C179.144 314.039 171.674 312.065 163.447 313.912C155.22 315.76 149.346 320.829 150.341 325.187C151.335 329.545 158.805 331.504 167.032 329.656C175.259 327.808 181.149 322.739 180.139 318.381Z" fill="#5AE295"/>
<g style="mix-blend-mode:screen" opacity="0.4">
<path d="M166.936 324.25C166.557 322.671 163.778 321.866 160.62 322.56C157.462 323.255 155.298 325.182 155.677 326.824C156.056 328.466 158.835 329.208 161.994 328.514C165.152 327.819 167.347 325.892 166.936 324.25Z" fill="#5AE295"/>
</g>
</g>
<g opacity="0.8">
<path opacity="0.8" d="M15.6104 230.876C15.6104 230.876 30.8962 220.438 46.1031 222.538L43.0712 209.29C43.0712 209.29 18.4843 218.448 11.3625 213.427C11.3625 213.427 11.6152 226.218 15.6104 230.876Z" fill="#5AE295"/>
<g style="mix-blend-mode:multiply" opacity="0.41">
<path d="M15.6104 230.876C15.6104 230.876 30.8962 220.438 46.1031 222.538L43.0712 209.29C43.0712 209.29 18.4843 218.448 11.3625 213.427C11.3625 213.427 11.6152 226.218 15.6104 230.876Z" fill="#5AE295"/>
</g>
<path opacity="0.8" d="M5.14087 208.389C9.49923 207.394 14.5366 213.253 16.4157 221.48C18.2949 229.707 16.2894 237.192 11.9469 238.171C7.60429 239.15 2.47213 233.307 0.671938 225.08C-1.12826 216.853 0.798295 209.368 5.14087 208.389Z" fill="#5AE295"/>
<g style="mix-blend-mode:screen" opacity="0.4">
<path d="M5.56724 222.788C7.14635 222.409 9.10446 224.62 9.81507 227.731C10.5257 230.841 9.81505 233.652 8.1254 234.047C6.43574 234.442 4.57238 232.199 3.87757 229.104C3.18276 226.009 3.92495 223.167 5.56724 222.788Z" fill="#5AE295"/>
</g>
</g>
<g opacity="0.8">
<path opacity="0.8" d="M260.656 174.984C260.656 174.984 242.354 172.205 229.579 180.685L226.563 167.436C226.563 167.436 252.682 164.957 256.945 157.409C256.945 157.409 262.251 169.047 260.656 174.984Z" fill="#5AE295"/>
<g style="mix-blend-mode:multiply" opacity="0.41">
<path d="M260.656 174.984C260.656 174.984 242.354 172.205 229.579 180.685L226.563 167.436C226.563 167.436 252.682 164.957 256.945 157.409C256.945 157.409 262.251 169.047 260.656 174.984Z" fill="#5AE295"/>
</g>
<path opacity="0.8" d="M267.133 179.936C271.478 178.945 273.478 171.469 271.601 163.238C269.723 155.007 264.679 149.139 260.334 150.13C255.989 151.121 253.989 158.597 255.866 166.827C257.744 175.058 262.788 180.927 267.133 179.936Z" fill="#5AE295"/>
<g style="mix-blend-mode:screen" opacity="0.4">
<path d="M266.214 163.38C264.635 163.759 263.814 166.538 264.525 169.696C265.235 172.855 267.13 175.018 268.773 174.639C270.415 174.26 271.173 171.481 270.462 168.323C269.752 165.164 267.857 162.969 266.214 163.38Z" fill="#5AE295"/>
</g>
</g>
<g opacity="0.8">
<path opacity="0.8" d="M76.926 305.362C76.926 305.362 80.3527 287.17 92.5908 277.901L81.0791 270.668C81.0791 270.668 70.1674 294.529 61.577 296.029C61.5138 296.029 70.7358 304.888 76.926 305.362Z" fill="#5AE295"/>
<g style="mix-blend-mode:multiply" opacity="0.41">
<path d="M76.926 305.362C76.926 305.362 80.3527 287.17 92.5908 277.901L81.0791 270.668C81.0791 270.668 70.1674 294.529 61.577 296.029C61.5138 296.029 70.7358 304.888 76.926 305.362Z" fill="#5AE295"/>
</g>
<path opacity="0.8" d="M53.5546 296.851C55.9233 293.077 63.6451 293.693 70.7827 298.146C77.9203 302.599 81.8365 309.342 79.4363 313.116C77.036 316.89 69.3458 316.274 62.1923 311.821C55.0389 307.368 51.1859 300.625 53.5546 296.851Z" fill="#5AE295"/>
<g style="mix-blend-mode:screen" opacity="0.4">
<path d="M64.0387 306.749C64.923 305.312 67.8444 305.533 70.5289 307.239C73.2134 308.944 74.6977 311.455 73.7976 312.876C72.8975 314.297 69.992 314.076 67.2917 312.386C64.5914 310.697 63.1386 308.17 64.0387 306.749Z" fill="#5AE295"/>
</g>
</g>
<g opacity="0.8">
<path opacity="0.8" d="M210.631 92.561C210.631 92.561 195.708 103.536 192.676 118.569L181.149 111.353C181.149 111.353 197.903 91.1556 195.519 82.7705C195.55 82.8495 207.552 87.2394 210.631 92.561Z" fill="#5AE295"/>
<g style="mix-blend-mode:multiply" opacity="0.41">
<path d="M210.631 92.561C210.631 92.561 195.708 103.536 192.676 118.569L181.149 111.353C181.149 111.353 197.903 91.1556 195.519 82.7705C195.55 82.8495 207.552 87.2394 210.631 92.561Z" fill="#5AE295"/>
</g>
<path opacity="0.8" d="M192.851 75.2394C190.482 79.0293 194.351 85.7248 201.488 90.2095C208.626 94.6941 216.348 95.2784 218.732 91.5043C221.117 87.7302 217.232 81.0348 210.079 76.5501C202.925 72.0654 195.219 71.4653 192.851 75.2394Z" fill="#5AE295"/>
<g style="mix-blend-mode:screen" opacity="0.4">
<path d="M206.32 80.3999C205.42 81.8211 206.873 84.3477 209.573 86.0373C212.273 87.727 215.179 87.9639 216.079 86.5269C216.979 85.0899 215.51 82.5791 212.81 80.8894C210.11 79.1998 207.204 78.9787 206.32 80.3999Z" fill="#5AE295"/>
</g>
</g>
<g opacity="0.8">
<path opacity="0.8" d="M247.314 253.393C247.314 253.393 229.122 249.966 219.869 237.728L212.636 249.24C212.636 249.24 236.497 260.152 237.981 268.742C237.997 268.805 246.856 259.583 247.314 253.393Z" fill="#5AE295"/>
<g style="mix-blend-mode:multiply" opacity="0.41">
<path d="M247.314 253.393C247.314 253.393 229.122 249.966 219.869 237.728L212.636 249.24C212.636 249.24 236.497 260.152 237.981 268.742C237.997 268.805 246.856 259.583 247.314 253.393Z" fill="#5AE295"/>
</g>
<path opacity="0.8" d="M238.82 276.762C235.045 274.393 235.661 266.671 240.114 259.534C244.568 252.396 251.295 248.48 255.085 250.88C258.874 253.281 258.243 260.971 253.774 268.124C249.305 275.278 242.594 279.131 238.82 276.762Z" fill="#5AE295"/>
<g style="mix-blend-mode:screen" opacity="0.4">
<path d="M248.703 266.281C247.282 265.397 247.503 262.475 249.193 259.791C250.882 257.106 253.425 255.622 254.846 256.522C256.267 257.422 256.046 260.328 254.356 263.028C252.667 265.728 250.124 267.181 248.703 266.281Z" fill="#5AE295"/>
</g>
</g>
<g opacity="0.8">
<path opacity="0.8" d="M34.5283 119.683C34.5283 119.683 45.4874 134.606 60.5364 137.638L53.2408 149.165C53.2408 149.165 33.0597 132.411 24.6746 134.795C24.8167 134.764 29.2067 122.762 34.5283 119.683Z" fill="#5AE295"/>
<g style="mix-blend-mode:multiply" opacity="0.41">
<path d="M34.5283 119.683C34.5283 119.683 45.4874 134.606 60.5364 137.638L53.2408 149.165C53.2408 149.165 33.0597 132.411 24.6746 134.795C24.8167 134.764 29.2067 122.762 34.5283 119.683Z" fill="#5AE295"/>
</g>
<path opacity="0.8" d="M17.205 137.468C20.9791 139.836 27.6903 135.889 32.175 128.83C36.6597 121.771 37.244 113.97 33.4699 111.586C29.6958 109.202 23.0004 113.165 18.4999 120.24C13.9994 127.314 13.4309 135.099 17.205 137.468Z" fill="#5AE295"/>
<g style="mix-blend-mode:screen" opacity="0.4">
<path d="M22.3538 123.997C23.7908 124.897 26.3174 123.444 28.007 120.744C29.6967 118.043 29.9178 115.138 28.4966 114.238C27.0754 113.337 24.5488 114.806 22.8434 117.506C21.1379 120.207 20.9326 123.112 22.3538 123.997Z" fill="#5AE295"/>
</g>
</g>
<g opacity="0.8">
<path opacity="0.8" d="M206.414 285.894C206.414 285.894 193.055 276.624 190.023 263.502L180.106 270.118C180.106 270.118 195.313 287.489 193.418 294.863C193.371 294.863 203.793 290.647 206.414 285.894Z" fill="#5AE295"/>
<g style="mix-blend-mode:multiply" opacity="0.41">
<path d="M206.414 285.894C206.414 285.894 193.055 276.624 190.023 263.502L180.106 270.118C180.106 270.118 195.313 287.489 193.418 294.863C193.371 294.863 203.793 290.647 206.414 285.894Z" fill="#5AE295"/>
</g>
<path opacity="0.8" d="M191.176 301.525C189.013 298.272 192.25 292.287 198.408 288.181C204.567 284.075 211.326 283.444 213.505 286.602C215.684 289.76 212.447 295.84 206.272 299.961C200.098 304.083 193.355 304.778 191.176 301.525Z" fill="#5AE295"/>
<g style="mix-blend-mode:screen" opacity="0.4">
<path d="M202.878 296.683C202.057 295.452 203.273 293.193 205.595 291.646C207.916 290.098 210.474 289.83 211.295 291.062C212.116 292.293 210.9 294.551 208.579 296.099C206.258 297.647 203.7 297.915 202.878 296.683Z" fill="#5AE295"/>
</g>
</g>
<g opacity="0.8">
<path opacity="0.8" d="M146.678 84.22C146.678 84.22 149.836 100.153 142.888 111.712L154.636 113.844C154.636 113.844 155.726 90.8208 162.248 86.794C162.2 86.794 151.825 82.5936 146.678 84.22Z" fill="#5AE295"/>
<g style="mix-blend-mode:multiply" opacity="0.41">
<path d="M146.678 84.22C146.678 84.22 149.836 100.153 142.888 111.712L154.636 113.844C154.636 113.844 155.726 90.8208 162.248 86.794C162.2 86.794 151.825 82.5936 146.678 84.22Z" fill="#5AE295"/>
</g>
<path opacity="0.8" d="M168.517 83.5289C167.822 87.3819 161.348 89.419 154.052 88.1083C146.756 86.7977 141.419 82.5814 142.114 78.7284C142.809 74.8753 149.283 72.8225 156.579 74.1489C163.874 75.4754 169.148 79.6916 168.517 83.5289Z" fill="#5AE295"/>
<g style="mix-blend-mode:screen" opacity="0.4">
<path d="M156.674 78.8862C156.421 80.339 153.974 81.1128 151.226 80.6232C148.478 80.1337 146.489 78.5388 146.71 77.086C146.931 75.6332 149.426 74.8595 152.174 75.349C154.921 75.8385 156.942 77.4334 156.674 78.8862Z" fill="#5AE295"/>
</g>
</g>
<g opacity="0.8">
<path opacity="0.8" d="M74.6059 98.0151C74.6059 98.0151 76.9903 109.069 84.5701 114.391L77.7167 118.97C77.7167 118.97 70.6896 104.679 65.4627 103.921C65.4627 103.921 70.8949 98.3941 74.6059 98.0151Z" fill="#5AE295"/>
<g style="mix-blend-mode:multiply" opacity="0.41">
<path d="M74.6059 98.0151C74.6059 98.0151 76.9903 109.069 84.5701 114.391L77.7167 118.97C77.7167 118.97 70.6896 104.679 65.4627 103.921C65.4627 103.921 70.8949 98.3941 74.6059 98.0151Z" fill="#5AE295"/>
</g>
<path opacity="0.8" d="M60.615 103.555C62.1152 105.797 66.7893 105.323 71.0529 102.481C75.3166 99.6386 77.5431 95.5171 76.0272 93.2589C74.5112 91.0008 69.8686 91.4903 65.605 94.3327C61.3414 97.1751 59.1148 101.312 60.615 103.555Z" fill="#5AE295"/>
<g style="mix-blend-mode:screen" opacity="0.4">
<path d="M66.8051 97.3738C67.3735 98.2265 69.1421 98.0371 70.737 96.9633C72.3319 95.8895 73.1847 94.3419 72.6162 93.4892C72.0477 92.6365 70.2949 92.826 68.6842 93.8998C67.0735 94.9736 66.2366 96.5211 66.8051 97.3738Z" fill="#5AE295"/>
</g>
</g>
<g opacity="0.8">
<path opacity="0.8" d="M43.2132 258.99C43.2132 258.99 53.6828 254.948 57.8516 246.626L63.4417 252.69C63.4417 252.69 50.414 261.833 50.4771 267.123C50.4771 267.123 44.1607 262.607 43.2132 258.99Z" fill="#5AE295"/>
<g style="mix-blend-mode:multiply" opacity="0.41">
<path d="M43.2132 258.99C43.2132 258.99 53.6828 254.948 57.8516 246.626L63.4417 252.69C63.4417 252.69 50.414 261.833 50.4771 267.123C50.4771 267.123 44.1607 262.607 43.2132 258.99Z" fill="#5AE295"/>
</g>
<path opacity="0.8" d="M50.8558 271.958C52.8455 270.126 51.6453 265.641 48.1871 261.82C44.7288 257.998 40.2915 256.498 38.3018 258.33C36.3121 260.162 37.5122 264.646 40.9863 268.468C44.4604 272.289 48.8661 273.79 50.8558 271.958Z" fill="#5AE295"/>
<g style="mix-blend-mode:screen" opacity="0.4">
<path d="M43.766 266.81C44.524 266.115 44.066 264.394 42.7553 262.989C41.4447 261.583 39.7866 260.967 39.0286 261.662C38.2707 262.357 38.7286 264.063 40.0393 265.484C41.35 266.905 43.0554 267.489 43.766 266.81Z" fill="#5AE295"/>
</g>
</g>
<g opacity="0.8">
<path opacity="0.8" d="M232.454 133.382C232.454 133.382 221.589 136.208 216.504 143.993L211.641 137.345C211.641 137.345 225.632 129.734 226.169 124.476C226.169 124.523 231.917 129.734 232.454 133.382Z" fill="#5AE295"/>
<g style="mix-blend-mode:multiply" opacity="0.41">
<path d="M232.454 133.382C232.454 133.382 221.589 136.208 216.504 143.993L211.641 137.345C211.641 137.345 225.632 129.734 226.169 124.476C226.169 124.523 231.917 129.734 232.454 133.382Z" fill="#5AE295"/>
</g>
<path opacity="0.8" d="M226.327 119.678C224.147 121.257 224.826 125.994 227.906 130.052C230.985 134.111 235.138 136.243 237.38 134.648C239.623 133.053 238.959 128.331 235.88 124.273C232.801 120.214 228.521 118.083 226.327 119.678Z" fill="#5AE295"/>
<g style="mix-blend-mode:screen" opacity="0.4">
<path d="M232.753 125.604C231.932 126.205 232.185 127.957 233.322 129.521C234.459 131.084 236.054 131.858 236.875 131.258C237.696 130.658 237.443 128.905 236.306 127.342C235.169 125.778 233.59 125.004 232.753 125.604Z" fill="#5AE295"/>
</g>
</g>
<g opacity="0.8">
<path opacity="0.8" d="M114.242 304.351C114.242 304.351 119.769 294.576 117.7 285.496L125.864 286.633C125.864 286.633 121.616 301.966 125.012 306.009C125.012 306.009 117.274 306.53 114.242 304.351Z" fill="#5AE295"/>
<g style="mix-blend-mode:multiply" opacity="0.41">
<path d="M114.242 304.351C114.242 304.351 119.769 294.576 117.7 285.496L125.864 286.633C125.864 286.633 121.616 301.966 125.012 306.009C125.012 306.009 117.274 306.53 114.242 304.351Z" fill="#5AE295"/>
</g>
<path opacity="0.8" d="M128.391 309.517C128.754 306.833 124.949 304.085 119.88 303.375C114.811 302.664 110.405 304.275 110.026 306.943C109.647 309.612 113.469 312.375 118.538 313.086C123.607 313.797 128.012 312.186 128.391 309.517Z" fill="#5AE295"/>
<g style="mix-blend-mode:screen" opacity="0.4">
<path d="M119.66 310.007C119.802 308.997 118.365 307.97 116.501 307.702C114.638 307.433 112.917 308.033 112.775 309.044C112.632 310.055 114.069 311.081 115.933 311.349C117.796 311.618 119.565 311.018 119.66 310.007Z" fill="#5AE295"/>
</g>
</g>
<g opacity="0.8">
<path opacity="0.8" d="M247.473 218.831C247.473 218.831 237.998 212.799 228.839 214.378L230.418 206.293C230.418 206.293 245.499 211.362 249.715 208.172C249.684 208.172 249.778 215.926 247.473 218.831Z" fill="#5AE295"/>
<g style="mix-blend-mode:multiply" opacity="0.41">
<path d="M247.473 218.831C247.473 218.831 237.998 212.799 228.839 214.378L230.418 206.293C230.418 206.293 245.499 211.362 249.715 208.172C249.684 208.172 249.778 215.926 247.473 218.831Z" fill="#5AE295"/>
</g>
<path opacity="0.8" d="M253.346 204.999C250.694 204.478 247.756 208.158 246.777 213.163C245.798 218.169 247.156 222.638 249.809 223.191C252.462 223.743 255.415 220.033 256.394 215.027C257.373 210.021 256.015 205.52 253.346 204.999Z" fill="#5AE295"/>
<g style="mix-blend-mode:screen" opacity="0.4">
<path d="M253.378 213.731C252.383 213.541 251.278 214.915 250.899 216.81C250.52 218.705 251.041 220.411 252.052 220.6C253.062 220.79 254.168 219.416 254.531 217.442C254.894 215.468 254.389 213.92 253.378 213.731Z" fill="#5AE295"/>
</g>
</g>
<g opacity="0.8">
<path opacity="0.8" d="M23.8213 180.053C23.8213 180.053 39.6124 176.452 51.4084 183.085L53.2402 171.289C53.2402 171.289 30.2009 170.815 26.0005 164.419C25.9847 164.419 22.0527 174.936 23.8213 180.053Z" fill="#5AE295"/>
<g style="mix-blend-mode:multiply" opacity="0.41">
<path d="M23.8213 180.053C23.8213 180.053 39.6124 176.452 51.4084 183.085L53.2402 171.289C53.2402 171.289 30.2009 170.815 26.0005 164.419C25.9847 164.419 22.0527 174.936 23.8213 180.053Z" fill="#5AE295"/>
</g>
<path opacity="0.8" d="M22.5434 158.287C26.4123 158.887 28.6388 165.298 27.5176 172.626C26.3964 179.953 22.3381 185.401 18.4693 184.816C14.6005 184.232 12.3739 177.789 13.4951 170.478C14.6162 163.167 18.6746 157.687 22.5434 158.287Z" fill="#5AE295"/>
<g style="mix-blend-mode:screen" opacity="0.4">
<path d="M18.2304 170.181C19.6832 170.418 20.5202 172.834 20.0938 175.598C19.6675 178.361 18.1515 180.414 16.6829 180.193C15.2144 179.972 14.3932 177.54 14.8196 174.777C15.246 172.013 16.7619 169.96 18.2304 170.181Z" fill="#5AE295"/>
</g>
</g>
<path opacity="0.8" d="M202.963 261.202C240.174 223.991 240.174 163.66 202.963 126.45C165.752 89.2391 105.422 89.2391 68.2112 126.45C31.0005 163.66 31.0005 223.991 68.2112 261.202C105.422 298.412 165.752 298.412 202.963 261.202Z" fill="#5AE295"/>
<g style="mix-blend-mode:screen" opacity="0.4">
<path d="M196.192 177.551C203.622 153.475 185.21 126.418 155.068 117.116C124.926 107.815 94.4677 119.791 87.0382 143.866C79.6086 167.942 98.0208 194.999 128.163 204.301C158.305 213.602 188.763 201.626 196.192 177.551Z" fill="#5AE295"/>
</g>
<g style="mix-blend-mode:multiply" opacity="0.57">
<path d="M152.409 130.076C152.922 132.329 152.756 134.684 151.932 136.843C151.107 139.002 149.661 140.868 147.775 142.205C145.89 143.542 143.651 144.29 141.341 144.354C139.03 144.418 136.753 143.796 134.796 142.566C132.84 141.336 131.292 139.553 130.348 137.444C129.405 135.334 129.108 132.992 129.496 130.713C129.883 128.435 130.938 126.322 132.526 124.643C134.114 122.964 136.165 121.794 138.418 121.28C141.439 120.595 144.609 121.137 147.232 122.786C149.854 124.435 151.716 127.056 152.409 130.076Z" fill="#5AE295"/>
</g>
<g style="mix-blend-mode:multiply" opacity="0.57">
<path d="M99.6991 205.809C103.332 208.1 106.204 211.416 107.952 215.339C109.701 219.262 110.248 223.615 109.524 227.848C108.801 232.082 106.838 236.006 103.886 239.125C100.933 242.244 97.1221 244.418 92.9346 245.372C88.7471 246.326 84.3706 246.018 80.3581 244.487C76.3456 242.955 72.8769 240.269 70.3903 236.767C67.9036 233.265 66.5105 229.105 66.3869 224.812C66.2633 220.519 67.4148 216.285 69.6958 212.646C72.7679 207.761 77.6548 204.296 83.2814 203.014C88.908 201.731 94.8136 202.737 99.6991 205.809Z" fill="#5AE295"/>
</g>
<g style="mix-blend-mode:multiply" opacity="0.57">
<path d="M150.988 261.295C150.632 259.736 150.746 258.107 151.316 256.614C151.886 255.12 152.885 253.829 154.188 252.904C155.492 251.978 157.04 251.459 158.638 251.414C160.235 251.368 161.811 251.796 163.165 252.645C164.52 253.495 165.592 254.726 166.246 256.184C166.901 257.643 167.108 259.262 166.843 260.839C166.577 262.415 165.85 263.877 164.754 265.04C163.658 266.204 162.241 267.016 160.684 267.374C158.592 267.851 156.396 267.479 154.579 266.34C152.761 265.2 151.469 263.385 150.988 261.295Z" fill="#5AE295"/>
</g>
<g style="mix-blend-mode:multiply" opacity="0.57">
<path d="M98.8295 137.694C98.9866 138.389 98.9343 139.114 98.6793 139.779C98.4243 140.443 97.9779 141.017 97.3967 141.428C96.8155 141.839 96.1254 142.069 95.4138 142.088C94.7022 142.107 94.0009 141.914 93.3986 141.535C92.7963 141.156 92.32 140.606 92.03 139.956C91.7399 139.306 91.649 138.584 91.7689 137.883C91.8887 137.181 92.2139 136.53 92.7033 136.014C93.1927 135.497 93.8244 135.136 94.5185 134.978C94.9801 134.871 95.4582 134.856 95.9255 134.935C96.3927 135.014 96.8397 135.184 97.2406 135.437C97.6415 135.69 97.9883 136.019 98.2611 136.407C98.5338 136.794 98.727 137.232 98.8295 137.694Z" fill="#5AE295"/>
</g>
<g style="mix-blend-mode:multiply" opacity="0.57">
<path d="M186.078 188.781C186.83 192.076 186.589 195.52 185.384 198.678C184.179 201.836 182.065 204.565 179.308 206.521C176.552 208.477 173.277 209.571 169.899 209.666C166.52 209.761 163.19 208.851 160.328 207.052C157.467 205.254 155.203 202.647 153.823 199.561C152.443 196.476 152.01 193.05 152.577 189.719C153.145 186.387 154.687 183.298 157.01 180.843C159.333 178.388 162.332 176.677 165.628 175.927C170.044 174.921 174.679 175.711 178.513 178.121C182.348 180.531 185.069 184.365 186.078 188.781Z" fill="#5AE295"/>
</g>
<g style="mix-blend-mode:multiply" opacity="0.57">
<path d="M119.614 179.817C122.984 174.905 121.735 168.191 116.824 164.821C111.913 161.451 105.199 162.7 101.828 167.611C98.458 172.522 99.7071 179.236 104.618 182.607C109.53 185.977 116.244 184.728 119.614 179.817Z" fill="#5AE295"/>
</g>
<g style="mix-blend-mode:multiply" opacity="0.57">
<path d="M193.656 149.252C194.131 151.331 193.978 153.505 193.217 155.497C192.456 157.49 191.121 159.212 189.381 160.446C187.642 161.681 185.575 162.371 183.443 162.431C181.311 162.49 179.209 161.917 177.403 160.782C175.597 159.647 174.168 158.002 173.296 156.055C172.425 154.108 172.151 151.947 172.508 149.844C172.865 147.741 173.838 145.791 175.303 144.241C176.768 142.691 178.66 141.61 180.739 141.135C182.12 140.82 183.55 140.779 184.947 141.017C186.343 141.254 187.68 141.764 188.879 142.517C190.079 143.271 191.118 144.254 191.938 145.409C192.757 146.565 193.342 147.871 193.656 149.252Z" fill="#5AE295"/>
</g>
<g style="mix-blend-mode:multiply" opacity="0.57">
<path d="M191.683 239.88C195.154 239.88 197.968 237.066 197.968 233.595C197.968 230.124 195.154 227.311 191.683 227.311C188.212 227.311 185.398 230.124 185.398 233.595C185.398 237.066 188.212 239.88 191.683 239.88Z" fill="#5AE295"/>
</g>
<g style="mix-blend-mode:multiply" opacity="0.57">
<path d="M64.4059 188.871C64.6886 190.09 64.6027 191.365 64.1594 192.535C63.716 193.706 62.9351 194.718 61.9156 195.443C60.8961 196.169 59.6841 196.576 58.4332 196.611C57.1824 196.647 55.9491 196.311 54.8899 195.644C53.8306 194.978 52.9931 194.012 52.4836 192.869C51.974 191.726 51.8154 190.458 52.028 189.225C52.2405 187.992 52.8145 186.849 53.6772 185.943C54.5399 185.036 55.6523 184.407 56.8735 184.133C58.5001 183.769 60.2045 184.063 61.6155 184.951C63.0264 185.838 64.0294 187.247 64.4059 188.871Z" fill="#5AE295"/>
</g>
<g style="mix-blend-mode:screen" opacity="0.34">
<path d="M148.619 127.858C163.605 132.485 172.748 145.939 169.053 157.861C165.358 169.784 150.23 175.769 135.244 171.142C120.258 166.515 111.099 153.077 114.794 141.139C118.489 129.201 133.633 123.231 148.619 127.858Z" fill="#5AE295"/>
</g>
<g opacity="0.8">
<path opacity="0.8" d="M278.715 302.465C278.715 302.465 282.359 307.796 281.626 313.105L286.251 312.052C286.251 312.052 283.054 303.463 284.807 300.977C284.807 300.977 280.341 301.065 278.715 302.465Z" fill="#5AE295"/>
<g style="mix-blend-mode:multiply" opacity="0.41">
<path d="M278.715 302.465C278.715 302.465 282.359 307.796 281.626 313.105L286.251 312.052C286.251 312.052 283.054 303.463 284.807 300.977C284.807 300.977 280.341 301.065 278.715 302.465Z" fill="#5AE295"/>
</g>
<path opacity="0.8" d="M286.566 298.812C286.913 300.328 284.868 302.086 281.996 302.742C279.124 303.398 276.511 302.698 276.169 301.182C275.827 299.666 277.867 297.902 280.739 297.246C283.611 296.59 286.224 297.29 286.566 298.812Z" fill="#5AE295"/>
<g style="mix-blend-mode:screen" opacity="0.4">
<path d="M281.538 298.956C281.67 299.507 280.898 300.191 279.812 300.439C278.726 300.687 277.745 300.439 277.607 299.849C277.47 299.259 278.252 298.614 279.333 298.366C280.413 298.118 281.406 298.383 281.538 298.956Z" fill="#5AE295"/>
</g>
</g>
<g opacity="0.8">
<path opacity="0.8" d="M298.225 388.01C298.225 388.01 299.195 381.621 296.235 377.156L300.86 376.103C300.86 376.103 301.725 385.227 304.36 386.709C304.36 386.709 300.297 388.562 298.225 388.01Z" fill="#5AE295"/>
<g style="mix-blend-mode:multiply" opacity="0.41">
<path d="M298.225 388.01C298.225 388.01 299.195 381.621 296.235 377.156L300.86 376.103C300.86 376.103 301.725 385.227 304.36 386.709C304.36 386.709 300.297 388.562 298.225 388.01Z" fill="#5AE295"/>
</g>
<path opacity="0.8" d="M306.885 387.897C306.537 386.381 303.93 385.692 301.058 386.337C298.186 386.982 296.135 388.751 296.483 390.273C296.83 391.794 299.437 392.478 302.309 391.833C305.181 391.188 307.238 389.418 306.885 387.897Z" fill="#5AE295"/>
<g style="mix-blend-mode:screen" opacity="0.4">
<path d="M302.276 389.945C302.144 389.394 301.173 389.113 300.071 389.356C298.968 389.598 298.213 390.271 298.345 390.844C298.478 391.417 299.448 391.676 300.551 391.434C301.653 391.191 302.419 390.519 302.276 389.945Z" fill="#5AE295"/>
</g>
</g>
<g opacity="0.8">
<path opacity="0.8" d="M249.449 357.349C249.449 357.349 254.786 353.706 260.094 354.439L259.036 349.814C259.036 349.814 250.453 353.011 247.967 351.258C247.967 351.258 248.055 355.723 249.449 357.349Z" fill="#5AE295"/>
<g style="mix-blend-mode:multiply" opacity="0.41">
<path d="M249.449 357.349C249.449 357.349 254.786 353.706 260.094 354.439L259.036 349.814C259.036 349.814 250.453 353.011 247.967 351.258C247.967 351.258 248.055 355.723 249.449 357.349Z" fill="#5AE295"/>
</g>
<path opacity="0.8" d="M245.795 349.499C247.316 349.152 249.075 351.197 249.731 354.069C250.387 356.941 249.686 359.554 248.171 359.896C246.655 360.238 244.863 358.198 244.235 355.326C243.606 352.454 244.279 349.841 245.795 349.499Z" fill="#5AE295"/>
<g style="mix-blend-mode:screen" opacity="0.4">
<path d="M245.943 354.526C246.495 354.393 247.178 355.165 247.426 356.251C247.674 357.337 247.426 358.318 246.836 358.456C246.247 358.594 245.596 357.811 245.354 356.731C245.111 355.65 245.37 354.658 245.943 354.526Z" fill="#5AE295"/>
</g>
</g>
<g opacity="0.8">
<path opacity="0.8" d="M334.993 337.838C334.993 337.838 328.604 336.868 324.144 339.828L323.091 335.203C323.091 335.203 332.209 334.337 333.697 331.702C333.697 331.702 335.549 335.765 334.993 337.838Z" fill="#5AE295"/>
<g style="mix-blend-mode:multiply" opacity="0.41">
<path d="M334.993 337.838C334.993 337.838 328.604 336.868 324.144 339.828L323.091 335.203C323.091 335.203 332.209 334.337 333.697 331.702C333.697 331.702 335.549 335.765 334.993 337.838Z" fill="#5AE295"/>
</g>
<path opacity="0.8" d="M337.254 339.566C338.77 339.22 339.469 336.611 338.813 333.737C338.158 330.864 336.397 328.815 334.88 329.161C333.363 329.507 332.665 332.117 333.321 334.99C333.976 337.864 335.737 339.912 337.254 339.566Z" fill="#5AE295"/>
<g style="mix-blend-mode:screen" opacity="0.4">
<path d="M336.933 333.787C336.382 333.919 336.095 334.89 336.343 335.992C336.591 337.095 337.253 337.85 337.826 337.717C338.399 337.585 338.664 336.615 338.416 335.512C338.168 334.41 337.506 333.644 336.933 333.787Z" fill="#5AE295"/>
</g>
</g>
<g opacity="0.8">
<path opacity="0.8" d="M270.854 383.352C270.854 383.352 272.05 377.002 276.323 373.766L272.304 371.241C272.304 371.241 268.495 379.571 265.496 380.094C265.474 380.094 268.693 383.187 270.854 383.352Z" fill="#5AE295"/>
<g style="mix-blend-mode:multiply" opacity="0.41">
<path d="M270.854 383.352C270.854 383.352 272.05 377.002 276.323 373.766L272.304 371.241C272.304 371.241 268.495 379.571 265.496 380.094C265.474 380.094 268.693 383.187 270.854 383.352Z" fill="#5AE295"/>
</g>
<path opacity="0.8" d="M262.695 380.381C263.522 379.064 266.218 379.279 268.71 380.833C271.201 382.388 272.568 384.742 271.73 386.059C270.893 387.377 268.208 387.162 265.711 385.607C263.214 384.053 261.869 381.699 262.695 380.381Z" fill="#5AE295"/>
<g style="mix-blend-mode:screen" opacity="0.4">
<path d="M266.355 383.837C266.664 383.335 267.684 383.412 268.621 384.007C269.558 384.603 270.076 385.479 269.762 385.975C269.448 386.472 268.434 386.394 267.491 385.805C266.548 385.215 266.041 384.333 266.355 383.837Z" fill="#5AE295"/>
</g>
</g>
<g opacity="0.8">
<path opacity="0.8" d="M317.529 309.065C317.529 309.065 312.32 312.896 311.262 318.144L307.237 315.625C307.237 315.625 313.086 308.574 312.254 305.647C312.265 305.675 316.454 307.207 317.529 309.065Z" fill="#5AE295"/>
<g style="mix-blend-mode:multiply" opacity="0.41">
<path d="M317.529 309.065C317.529 309.065 312.32 312.896 311.262 318.144L307.237 315.625C307.237 315.625 313.086 308.574 312.254 305.647C312.265 305.675 316.454 307.207 317.529 309.065Z" fill="#5AE295"/>
</g>
<path opacity="0.8" d="M311.322 303.018C310.495 304.341 311.846 306.679 314.338 308.244C316.829 309.81 319.525 310.014 320.357 308.696C321.19 307.379 319.834 305.041 317.337 303.476C314.839 301.91 312.149 301.701 311.322 303.018Z" fill="#5AE295"/>
<g style="mix-blend-mode:screen" opacity="0.4">
<path d="M316.024 304.82C315.71 305.316 316.217 306.198 317.16 306.788C318.103 307.378 319.117 307.46 319.431 306.959C319.745 306.457 319.233 305.581 318.29 304.991C317.347 304.401 316.333 304.324 316.024 304.82Z" fill="#5AE295"/>
</g>
</g>
<g opacity="0.8">
<path opacity="0.8" d="M330.335 365.21C330.335 365.21 323.985 364.014 320.754 359.741L318.229 363.76C318.229 363.76 326.559 367.569 327.077 370.568C327.083 370.59 330.175 367.371 330.335 365.21Z" fill="#5AE295"/>
<g style="mix-blend-mode:multiply" opacity="0.41">
<path d="M330.335 365.21C330.335 365.21 323.985 364.014 320.754 359.741L318.229 363.76C318.229 363.76 326.559 367.569 327.077 370.568C327.083 370.59 330.175 367.371 330.335 365.21Z" fill="#5AE295"/>
</g>
<path opacity="0.8" d="M327.37 373.368C326.052 372.541 326.267 369.845 327.822 367.353C329.376 364.862 331.725 363.495 333.048 364.332C334.371 365.17 334.15 367.855 332.59 370.352C331.03 372.849 328.687 374.194 327.37 373.368Z" fill="#5AE295"/>
<g style="mix-blend-mode:screen" opacity="0.4">
<path d="M330.82 369.709C330.324 369.4 330.401 368.38 330.991 367.443C331.581 366.506 332.468 365.988 332.964 366.302C333.46 366.616 333.383 367.63 332.793 368.573C332.204 369.516 331.316 370.023 330.82 369.709Z" fill="#5AE295"/>
</g>
</g>
<g opacity="0.8">
<path opacity="0.8" d="M256.054 318.533C256.054 318.533 259.879 323.743 265.133 324.801L262.586 328.825C262.586 328.825 255.541 322.976 252.614 323.809C252.663 323.798 254.196 319.608 256.054 318.533Z" fill="#5AE295"/>
<g style="mix-blend-mode:multiply" opacity="0.41">
<path d="M256.054 318.533C256.054 318.533 259.879 323.743 265.133 324.801L262.586 328.825C262.586 328.825 255.541 322.976 252.614 323.809C252.663 323.798 254.196 319.608 256.054 318.533Z" fill="#5AE295"/>
</g>
<path opacity="0.8" d="M250.006 324.742C251.324 325.568 253.666 324.19 255.232 321.726C256.798 319.262 257.002 316.539 255.684 315.706C254.367 314.874 252.029 316.258 250.458 318.727C248.887 321.197 248.689 323.915 250.006 324.742Z" fill="#5AE295"/>
<g style="mix-blend-mode:screen" opacity="0.4">
<path d="M251.804 320.039C252.305 320.353 253.187 319.846 253.777 318.903C254.367 317.961 254.444 316.946 253.948 316.632C253.452 316.318 252.57 316.83 251.974 317.773C251.379 318.716 251.307 319.73 251.804 320.039Z" fill="#5AE295"/>
</g>
</g>
<g opacity="0.8">
<path opacity="0.8" d="M316.057 376.556C316.057 376.556 311.394 373.32 310.335 368.739L306.873 371.049C306.873 371.049 312.182 377.113 311.52 379.687C311.504 379.687 315.142 378.215 316.057 376.556Z" fill="#5AE295"/>
<g style="mix-blend-mode:multiply" opacity="0.41">
<path d="M316.057 376.556C316.057 376.556 311.394 373.32 310.335 368.739L306.873 371.049C306.873 371.049 312.182 377.113 311.52 379.687C311.504 379.687 315.142 378.215 316.057 376.556Z" fill="#5AE295"/>
</g>
<path opacity="0.8" d="M310.738 382.012C309.983 380.877 311.113 378.787 313.263 377.354C315.412 375.921 317.772 375.7 318.533 376.803C319.293 377.905 318.163 380.028 316.008 381.466C313.852 382.905 311.499 383.148 310.738 382.012Z" fill="#5AE295"/>
<g style="mix-blend-mode:screen" opacity="0.4">
<path d="M314.823 380.322C314.536 379.892 314.961 379.104 315.771 378.563C316.582 378.023 317.475 377.93 317.761 378.359C318.048 378.789 317.623 379.578 316.813 380.118C316.003 380.658 315.11 380.752 314.823 380.322Z" fill="#5AE295"/>
</g>
</g>
<g opacity="0.8">
<path opacity="0.8" d="M295.204 306.153C295.204 306.153 296.306 311.715 293.881 315.751L297.982 316.495C297.982 316.495 298.362 308.457 300.639 307.052C300.623 307.052 297.001 305.585 295.204 306.153Z" fill="#5AE295"/>
<g style="mix-blend-mode:multiply" opacity="0.41">
<path d="M295.204 306.153C295.204 306.153 296.306 311.715 293.881 315.751L297.982 316.495C297.982 316.495 298.362 308.457 300.639 307.052C300.623 307.052 297.001 305.585 295.204 306.153Z" fill="#5AE295"/>
</g>
<path opacity="0.8" d="M302.828 305.912C302.585 307.257 300.325 307.968 297.778 307.51C295.231 307.053 293.368 305.581 293.611 304.236C293.853 302.891 296.113 302.174 298.66 302.637C301.207 303.1 303.048 304.572 302.828 305.912Z" fill="#5AE295"/>
<g style="mix-blend-mode:screen" opacity="0.4">
<path d="M298.693 304.291C298.605 304.799 297.751 305.069 296.792 304.898C295.832 304.727 295.138 304.17 295.215 303.663C295.292 303.156 296.163 302.886 297.122 303.057C298.082 303.228 298.787 303.784 298.693 304.291Z" fill="#5AE295"/>
</g>
</g>
<g opacity="0.8">
<path opacity="0.8" d="M270.044 310.969C270.044 310.969 270.877 314.828 273.523 316.685L271.13 318.284C271.13 318.284 268.677 313.295 266.852 313.03C266.852 313.03 268.749 311.101 270.044 310.969Z" fill="#5AE295"/>
<g style="mix-blend-mode:multiply" opacity="0.41">
<path d="M270.044 310.969C270.044 310.969 270.877 314.828 273.523 316.685L271.13 318.284C271.13 318.284 268.677 313.295 266.852 313.03C266.852 313.03 268.749 311.101 270.044 310.969Z" fill="#5AE295"/>
</g>
<path opacity="0.8" d="M265.16 312.903C265.684 313.685 267.316 313.52 268.804 312.528C270.292 311.535 271.07 310.097 270.54 309.308C270.011 308.52 268.39 308.691 266.902 309.683C265.414 310.676 264.636 312.12 265.16 312.903Z" fill="#5AE295"/>
<g style="mix-blend-mode:screen" opacity="0.4">
<path d="M267.321 310.745C267.519 311.043 268.137 310.976 268.694 310.602C269.25 310.227 269.548 309.686 269.35 309.389C269.151 309.091 268.539 309.157 267.977 309.532C267.415 309.907 267.123 310.447 267.321 310.745Z" fill="#5AE295"/>
</g>
</g>
<g opacity="0.8">
<path opacity="0.8" d="M259.085 367.164C259.085 367.164 262.74 365.753 264.195 362.847L266.147 364.964C266.147 364.964 261.599 368.156 261.621 370.003C261.621 370.003 259.416 368.426 259.085 367.164Z" fill="#5AE295"/>
<g style="mix-blend-mode:multiply" opacity="0.41">
<path d="M259.085 367.164C259.085 367.164 262.74 365.753 264.195 362.847L266.147 364.964C266.147 364.964 261.599 368.156 261.621 370.003C261.621 370.003 259.416 368.426 259.085 367.164Z" fill="#5AE295"/>
</g>
<path opacity="0.8" d="M261.753 371.691C262.448 371.051 262.029 369.486 260.822 368.152C259.614 366.818 258.065 366.294 257.371 366.933C256.676 367.573 257.095 369.138 258.308 370.472C259.521 371.806 261.059 372.33 261.753 371.691Z" fill="#5AE295"/>
<g style="mix-blend-mode:screen" opacity="0.4">
<path d="M259.278 369.894C259.543 369.651 259.383 369.05 258.925 368.56C258.468 368.069 257.889 367.854 257.625 368.096C257.36 368.339 257.52 368.934 257.977 369.43C258.435 369.927 259.03 370.131 259.278 369.894Z" fill="#5AE295"/>
</g>
</g>
<g opacity="0.8">
<path opacity="0.8" d="M325.147 323.315C325.147 323.315 321.355 324.302 319.58 327.02L317.882 324.699C317.882 324.699 322.766 322.042 322.953 320.206C322.953 320.223 324.96 322.042 325.147 323.315Z" fill="#5AE295"/>
<g style="mix-blend-mode:multiply" opacity="0.41">
<path d="M325.147 323.315C325.147 323.315 321.355 324.302 319.58 327.02L317.882 324.699C317.882 324.699 322.766 322.042 322.953 320.206C322.953 320.223 324.96 322.042 325.147 323.315Z" fill="#5AE295"/>
</g>
<path opacity="0.8" d="M323.009 318.531C322.248 319.082 322.485 320.736 323.56 322.153C324.635 323.57 326.085 324.314 326.867 323.757C327.65 323.2 327.419 321.552 326.344 320.135C325.269 318.719 323.775 317.974 323.009 318.531Z" fill="#5AE295"/>
<g style="mix-blend-mode:screen" opacity="0.4">
<path d="M325.252 320.6C324.965 320.81 325.054 321.422 325.451 321.967C325.847 322.513 326.404 322.783 326.691 322.574C326.978 322.364 326.889 321.752 326.492 321.207C326.096 320.661 325.544 320.391 325.252 320.6Z" fill="#5AE295"/>
</g>
</g>
<g opacity="0.8">
<path opacity="0.8" d="M283.881 382.998C283.881 382.998 285.81 379.586 285.088 376.417L287.938 376.813C287.938 376.813 286.455 382.166 287.64 383.577C287.64 383.577 284.939 383.759 283.881 382.998Z" fill="#5AE295"/>
<g style="mix-blend-mode:multiply" opacity="0.41">
<path d="M283.881 382.998C283.881 382.998 285.81 379.586 285.088 376.417L287.938 376.813C287.938 376.813 286.455 382.166 287.64 383.577C287.64 383.577 284.939 383.759 283.881 382.998Z" fill="#5AE295"/>
</g>
<path opacity="0.8" d="M288.82 384.802C288.947 383.865 287.618 382.906 285.849 382.658C284.079 382.41 282.541 382.972 282.409 383.904C282.277 384.835 283.611 385.8 285.38 386.048C287.15 386.296 288.688 385.734 288.82 384.802Z" fill="#5AE295"/>
<g style="mix-blend-mode:screen" opacity="0.4">
<path d="M285.772 384.973C285.822 384.62 285.32 384.262 284.67 384.168C284.019 384.075 283.418 384.284 283.369 384.637C283.319 384.99 283.821 385.348 284.471 385.442C285.122 385.535 285.739 385.326 285.772 384.973Z" fill="#5AE295"/>
</g>
</g>
<g opacity="0.8">
<path opacity="0.8" d="M330.391 353.145C330.391 353.145 327.083 351.039 323.886 351.59L324.437 348.768C324.437 348.768 329.701 350.537 331.173 349.424C331.162 349.424 331.195 352.13 330.391 353.145Z" fill="#5AE295"/>
<g style="mix-blend-mode:multiply" opacity="0.41">
<path d="M330.391 353.145C330.391 353.145 327.083 351.039 323.886 351.59L324.437 348.768C324.437 348.768 329.701 350.537 331.173 349.424C331.162 349.424 331.195 352.13 330.391 353.145Z" fill="#5AE295"/>
</g>
<path opacity="0.8" d="M332.441 348.316C331.515 348.134 330.489 349.419 330.148 351.166C329.806 352.913 330.28 354.474 331.206 354.666C332.132 354.859 333.163 353.564 333.505 351.816C333.847 350.069 333.373 348.498 332.441 348.316Z" fill="#5AE295"/>
<g style="mix-blend-mode:screen" opacity="0.4">
<path d="M332.452 351.364C332.105 351.298 331.719 351.777 331.587 352.439C331.454 353.1 331.636 353.696 331.989 353.762C332.342 353.828 332.728 353.349 332.854 352.659C332.981 351.97 332.805 351.43 332.452 351.364Z" fill="#5AE295"/>
</g>
</g>
<g opacity="0.8">
<path opacity="0.8" d="M252.316 339.607C252.316 339.607 257.828 338.35 261.946 340.666L262.586 336.548C262.586 336.548 254.543 336.382 253.077 334.15C253.071 334.15 251.698 337.821 252.316 339.607Z" fill="#5AE295"/>
<g style="mix-blend-mode:multiply" opacity="0.41">
<path d="M252.316 339.607C252.316 339.607 257.828 338.35 261.946 340.666L262.586 336.548C262.586 336.548 254.543 336.382 253.077 334.15C253.071 334.15 251.698 337.821 252.316 339.607Z" fill="#5AE295"/>
</g>
<path opacity="0.8" d="M251.87 332.009C253.22 332.219 253.998 334.457 253.606 337.015C253.215 339.573 251.798 341.474 250.447 341.27C249.097 341.066 248.32 338.817 248.711 336.265C249.102 333.713 250.519 331.8 251.87 332.009Z" fill="#5AE295"/>
<g style="mix-blend-mode:screen" opacity="0.4">
<path d="M250.364 336.161C250.871 336.244 251.163 337.088 251.015 338.052C250.866 339.017 250.337 339.734 249.824 339.656C249.311 339.579 249.025 338.73 249.173 337.766C249.322 336.801 249.851 336.084 250.364 336.161Z" fill="#5AE295"/>
</g>
</g>
<path opacity="0.8" d="M314.853 367.936C327.842 354.946 327.842 333.885 314.853 320.895C301.863 307.905 280.802 307.905 267.812 320.895C254.822 333.885 254.822 354.946 267.812 367.936C280.802 380.926 301.863 380.926 314.853 367.936Z" fill="#5AE295"/>
<g style="mix-blend-mode:screen" opacity="0.4">
<path d="M312.489 338.734C315.083 330.33 308.655 320.884 298.133 317.637C287.61 314.39 276.978 318.571 274.384 326.975C271.791 335.38 278.218 344.825 288.74 348.072C299.263 351.319 309.895 347.139 312.489 338.734Z" fill="#5AE295"/>
</g>
<g style="mix-blend-mode:multiply" opacity="0.57">
<path d="M297.205 322.161C297.384 322.948 297.326 323.77 297.038 324.524C296.75 325.277 296.245 325.929 295.587 326.395C294.929 326.862 294.147 327.123 293.341 327.146C292.534 327.168 291.739 326.951 291.056 326.521C290.373 326.092 289.833 325.47 289.503 324.733C289.174 323.997 289.07 323.179 289.206 322.384C289.341 321.588 289.709 320.851 290.264 320.265C290.818 319.679 291.534 319.27 292.32 319.091C293.375 318.852 294.482 319.041 295.397 319.616C296.313 320.192 296.963 321.107 297.205 322.161Z" fill="#5AE295"/>
</g>
<g style="mix-blend-mode:multiply" opacity="0.57">
<path d="M278.804 348.598C280.072 349.398 281.075 350.556 281.685 351.925C282.296 353.295 282.487 354.814 282.234 356.292C281.981 357.77 281.296 359.14 280.266 360.229C279.235 361.318 277.904 362.076 276.443 362.41C274.981 362.743 273.453 362.635 272.052 362.101C270.652 361.566 269.441 360.628 268.573 359.406C267.705 358.183 267.218 356.731 267.175 355.232C267.132 353.734 267.534 352.256 268.33 350.985C269.403 349.28 271.109 348.07 273.073 347.623C275.037 347.175 277.099 347.526 278.804 348.598Z" fill="#5AE295"/>
</g>
<g style="mix-blend-mode:multiply" opacity="0.57">
<path d="M296.709 367.968C296.584 367.424 296.624 366.856 296.823 366.334C297.022 365.813 297.371 365.362 297.826 365.039C298.281 364.716 298.821 364.535 299.379 364.519C299.937 364.503 300.487 364.653 300.96 364.949C301.432 365.245 301.807 365.675 302.035 366.184C302.264 366.694 302.336 367.259 302.243 367.809C302.151 368.359 301.897 368.87 301.514 369.276C301.131 369.682 300.637 369.966 300.093 370.091C299.363 370.257 298.597 370.127 297.962 369.73C297.327 369.332 296.877 368.698 296.709 367.968Z" fill="#5AE295"/>
</g>
<g style="mix-blend-mode:multiply" opacity="0.57">
<path d="M278.5 324.82C278.555 325.063 278.537 325.316 278.448 325.548C278.359 325.78 278.203 325.981 278 326.124C277.797 326.267 277.557 326.348 277.308 326.354C277.06 326.361 276.815 326.294 276.605 326.161C276.394 326.029 276.228 325.837 276.127 325.61C276.026 325.383 275.994 325.131 276.036 324.886C276.078 324.641 276.191 324.414 276.362 324.234C276.533 324.053 276.753 323.927 276.996 323.872C277.157 323.835 277.324 323.83 277.487 323.857C277.65 323.885 277.806 323.944 277.946 324.032C278.086 324.121 278.207 324.236 278.302 324.371C278.397 324.506 278.465 324.659 278.5 324.82Z" fill="#5AE295"/>
</g>
<g style="mix-blend-mode:multiply" opacity="0.57">
<path d="M308.958 342.654C309.221 343.805 309.137 345.007 308.716 346.109C308.295 347.212 307.557 348.165 306.595 348.847C305.633 349.53 304.49 349.912 303.31 349.945C302.131 349.978 300.968 349.661 299.969 349.033C298.97 348.405 298.18 347.495 297.698 346.418C297.217 345.341 297.065 344.145 297.263 342.982C297.461 341.819 298 340.74 298.811 339.883C299.622 339.026 300.669 338.429 301.819 338.167C303.361 337.816 304.979 338.092 306.317 338.933C307.656 339.774 308.606 341.113 308.958 342.654Z" fill="#5AE295"/>
</g>
<g style="mix-blend-mode:multiply" opacity="0.57">
<path d="M285.756 339.525C286.933 337.811 286.497 335.467 284.782 334.29C283.068 333.114 280.724 333.55 279.547 335.264C278.371 336.979 278.807 339.322 280.521 340.499C282.236 341.676 284.58 341.24 285.756 339.525Z" fill="#5AE295"/>
</g>
<g style="mix-blend-mode:multiply" opacity="0.57">
<path d="M311.604 328.855C311.769 329.581 311.716 330.34 311.45 331.035C311.185 331.731 310.719 332.332 310.111 332.763C309.504 333.194 308.783 333.435 308.038 333.456C307.294 333.477 306.56 333.276 305.93 332.88C305.299 332.484 304.8 331.91 304.496 331.23C304.192 330.55 304.096 329.796 304.221 329.062C304.346 328.328 304.685 327.647 305.197 327.106C305.708 326.565 306.369 326.187 307.094 326.022C307.577 325.911 308.076 325.897 308.563 325.98C309.051 326.063 309.517 326.241 309.936 326.504C310.355 326.767 310.718 327.11 311.004 327.514C311.29 327.917 311.494 328.373 311.604 328.855Z" fill="#5AE295"/>
</g>
<g style="mix-blend-mode:multiply" opacity="0.57">
<path d="M310.915 360.493C312.126 360.493 313.109 359.51 313.109 358.299C313.109 357.087 312.126 356.105 310.915 356.105C309.703 356.105 308.721 357.087 308.721 358.299C308.721 359.51 309.703 360.493 310.915 360.493Z" fill="#5AE295"/>
</g>
<g style="mix-blend-mode:multiply" opacity="0.57">
<path d="M266.484 342.686C266.582 343.112 266.552 343.557 266.397 343.965C266.243 344.374 265.97 344.727 265.614 344.98C265.258 345.234 264.835 345.376 264.399 345.388C263.962 345.401 263.531 345.283 263.162 345.051C262.792 344.818 262.499 344.481 262.322 344.082C262.144 343.683 262.088 343.24 262.162 342.81C262.237 342.379 262.437 341.98 262.738 341.664C263.039 341.347 263.428 341.128 263.854 341.032C264.422 340.905 265.017 341.008 265.509 341.317C266.002 341.627 266.352 342.119 266.484 342.686Z" fill="#5AE295"/>
</g>
<g style="mix-blend-mode:screen" opacity="0.34">
<path d="M295.882 321.387C301.113 323.002 304.305 327.699 303.015 331.861C301.725 336.023 296.444 338.112 291.212 336.497C285.981 334.882 282.784 330.191 284.074 326.023C285.364 321.856 290.65 319.772 295.882 321.387Z" fill="#5AE295"/>
</g>
<g opacity="0.8">
<path opacity="0.8" d="M339.76 4.21273C339.76 4.21273 342.568 8.32177 342.003 12.4138L345.568 11.6022C345.568 11.6022 343.104 4.98185 344.455 3.06543C344.455 3.06543 341.013 3.13342 339.76 4.21273Z" fill="#5AE295"/>
<g style="mix-blend-mode:multiply" opacity="0.41">
<path d="M339.76 4.21273C339.76 4.21273 342.568 8.32177 342.003 12.4138L345.568 11.6022C345.568 11.6022 343.104 4.98185 344.455 3.06543C344.455 3.06543 341.013 3.13342 339.76 4.21273Z" fill="#5AE295"/>
</g>
<path opacity="0.8" d="M345.811 1.39654C346.079 2.56509 344.502 3.9206 342.288 4.42626C340.075 4.93192 338.06 4.39227 337.797 3.22372C337.534 2.05518 339.106 0.695413 341.32 0.189751C343.533 -0.315911 345.548 0.223744 345.811 1.39654Z" fill="#5AE295"/>
<g style="mix-blend-mode:screen" opacity="0.4">
<path d="M341.935 1.50791C342.037 1.93284 341.442 2.45975 340.605 2.65096C339.768 2.84218 339.012 2.65096 338.906 2.19629C338.799 1.74162 339.403 1.24446 340.236 1.05324C341.069 0.862027 341.833 1.06599 341.935 1.50791Z" fill="#5AE295"/>
</g>
</g>
<g opacity="0.8">
<path opacity="0.8" d="M354.798 70.154C354.798 70.154 355.546 65.2291 353.264 61.7872L356.829 60.9756C356.829 60.9756 357.496 68.0081 359.528 69.1512C359.528 69.1512 356.396 70.5789 354.798 70.154Z" fill="#5AE295"/>
<g style="mix-blend-mode:multiply" opacity="0.41">
<path d="M354.798 70.154C354.798 70.154 355.546 65.2291 353.264 61.7872L356.829 60.9756C356.829 60.9756 357.496 68.0081 359.528 69.1512C359.528 69.1512 356.396 70.5789 354.798 70.154Z" fill="#5AE295"/>
</g>
<path opacity="0.8" d="M361.474 70.0665C361.206 68.8979 359.196 68.3668 356.982 68.864C354.768 69.3611 353.188 70.7251 353.455 71.8979C353.723 73.0707 355.733 73.5976 357.947 73.1005C360.161 72.6033 361.746 71.2393 361.474 70.0665Z" fill="#5AE295"/>
<g style="mix-blend-mode:screen" opacity="0.4">
<path d="M357.921 71.6458C357.819 71.2209 357.071 71.0042 356.221 71.1911C355.371 71.3781 354.789 71.8965 354.891 72.3384C354.993 72.7804 355.741 72.9801 356.591 72.7931C357.441 72.6062 358.031 72.0877 357.921 71.6458Z" fill="#5AE295"/>
</g>
</g>
<g opacity="0.8">
<path opacity="0.8" d="M317.201 46.5197C317.201 46.5197 321.314 43.7109 325.406 44.2761L324.59 40.7109C324.59 40.7109 317.974 43.1755 316.058 41.8242C316.058 41.8242 316.126 45.2661 317.201 46.5197Z" fill="#5AE295"/>
<g style="mix-blend-mode:multiply" opacity="0.41">
<path d="M317.201 46.5197C317.201 46.5197 321.314 43.7109 325.406 44.2761L324.59 40.7109C324.59 40.7109 317.974 43.1755 316.058 41.8242C316.058 41.8242 316.126 45.2661 317.201 46.5197Z" fill="#5AE295"/>
</g>
<path opacity="0.8" d="M314.383 40.4681C315.556 40.2004 316.912 41.7769 317.417 43.9907C317.923 46.2046 317.383 48.2187 316.215 48.4822C315.046 48.7457 313.665 47.1734 313.181 44.9596C312.696 42.7457 313.215 40.7316 314.383 40.4681Z" fill="#5AE295"/>
<g style="mix-blend-mode:screen" opacity="0.4">
<path d="M314.498 44.3429C314.923 44.2409 315.45 44.8358 315.641 45.6729C315.832 46.51 315.641 47.2664 315.186 47.3726C314.732 47.4789 314.23 46.8755 314.043 46.0426C313.856 45.2098 314.056 44.4449 314.498 44.3429Z" fill="#5AE295"/>
</g>
</g>
<g opacity="0.8">
<path opacity="0.8" d="M383.14 31.4785C383.14 31.4785 378.215 30.7306 374.778 33.0124L373.966 29.4473C373.966 29.4473 380.994 28.7802 382.142 26.749C382.142 26.749 383.569 29.8807 383.14 31.4785Z" fill="#5AE295"/>
<g style="mix-blend-mode:multiply" opacity="0.41">
<path d="M383.14 31.4785C383.14 31.4785 378.215 30.7306 374.778 33.0124L373.966 29.4473C373.966 29.4473 380.994 28.7802 382.142 26.749C382.142 26.749 383.569 29.8807 383.14 31.4785Z" fill="#5AE295"/>
</g>
<path opacity="0.8" d="M384.883 32.8111C386.052 32.5444 386.59 30.5327 386.085 28.3179C385.58 26.1031 384.223 24.5238 383.053 24.7905C381.884 25.0572 381.346 27.0689 381.851 29.2837C382.356 31.4985 383.714 33.0778 384.883 32.8111Z" fill="#5AE295"/>
<g style="mix-blend-mode:screen" opacity="0.4">
<path d="M384.636 28.3561C384.211 28.458 383.99 29.2059 384.181 30.0558C384.372 30.9056 384.882 31.4878 385.324 31.3858C385.766 31.2838 385.97 30.5359 385.779 29.6861C385.588 28.8362 385.078 28.2456 384.636 28.3561Z" fill="#5AE295"/>
</g>
</g>
<g opacity="0.8">
<path opacity="0.8" d="M333.7 66.5632C333.7 66.5632 334.622 61.668 337.915 59.1737L334.818 57.2275C334.818 57.2275 331.881 63.6482 329.57 64.0519C329.553 64.0519 332.034 66.4357 333.7 66.5632Z" fill="#5AE295"/>
<g style="mix-blend-mode:multiply" opacity="0.41">
<path d="M333.7 66.5632C333.7 66.5632 334.622 61.668 337.915 59.1737L334.818 57.2275C334.818 57.2275 331.881 63.6482 329.57 64.0519C329.553 64.0519 332.034 66.4357 333.7 66.5632Z" fill="#5AE295"/>
</g>
<path opacity="0.8" d="M327.411 64.2731C328.048 63.2575 330.126 63.4233 332.047 64.6215C333.968 65.8198 335.021 67.6343 334.376 68.6498C333.73 69.6654 331.66 69.4997 329.735 68.3014C327.81 67.1031 326.774 65.2887 327.411 64.2731Z" fill="#5AE295"/>
<g style="mix-blend-mode:screen" opacity="0.4">
<path d="M330.232 66.9364C330.47 66.5498 331.256 66.6092 331.979 67.0682C332.701 67.5271 333.1 68.2027 332.858 68.5852C332.616 68.9676 331.834 68.9081 331.108 68.4534C330.381 67.9987 329.99 67.3189 330.232 66.9364Z" fill="#5AE295"/>
</g>
</g>
<g opacity="0.8">
<path opacity="0.8" d="M369.679 9.30007C369.679 9.30007 365.663 12.2533 364.847 16.2986L361.745 14.3567C361.745 14.3567 366.254 8.92189 365.612 6.66553C365.621 6.68677 368.85 7.86807 369.679 9.30007Z" fill="#5AE295"/>
<g style="mix-blend-mode:multiply" opacity="0.41">
<path d="M369.679 9.30007C369.679 9.30007 365.663 12.2533 364.847 16.2986L361.745 14.3567C361.745 14.3567 366.254 8.92189 365.612 6.66553C365.621 6.68677 368.85 7.86807 369.679 9.30007Z" fill="#5AE295"/>
</g>
<path opacity="0.8" d="M364.894 4.63936C364.257 5.65918 365.298 7.46087 367.219 8.66766C369.139 9.87445 371.217 10.0317 371.859 9.0161C372.5 8.00053 371.455 6.19884 369.53 4.99205C367.605 3.78526 365.532 3.62379 364.894 4.63936Z" fill="#5AE295"/>
<g style="mix-blend-mode:screen" opacity="0.4">
<path d="M368.519 6.02802C368.277 6.41045 368.668 7.09033 369.394 7.54501C370.121 7.99968 370.903 8.06341 371.145 7.67673C371.387 7.29005 370.992 6.61441 370.265 6.15974C369.539 5.70507 368.757 5.64558 368.519 6.02802Z" fill="#5AE295"/>
</g>
</g>
<g opacity="0.8">
<path opacity="0.8" d="M379.55 52.5786C379.55 52.5786 374.655 51.6565 372.165 48.3633L370.219 51.461C370.219 51.461 376.639 54.3972 377.039 56.7088C377.043 56.7258 379.427 54.2443 379.55 52.5786Z" fill="#5AE295"/>
<g style="mix-blend-mode:multiply" opacity="0.41">
<path d="M379.55 52.5786C379.55 52.5786 374.655 51.6565 372.165 48.3633L370.219 51.461C370.219 51.461 376.639 54.3972 377.039 56.7088C377.043 56.7258 379.427 54.2443 379.55 52.5786Z" fill="#5AE295"/>
</g>
<path opacity="0.8" d="M377.264 58.8667C376.249 58.2293 376.414 56.1514 377.613 54.2307C378.811 52.3101 380.621 51.2563 381.641 51.9021C382.661 52.548 382.491 54.6174 381.288 56.5423C380.086 58.4672 378.28 59.5041 377.264 58.8667Z" fill="#5AE295"/>
<g style="mix-blend-mode:screen" opacity="0.4">
<path d="M379.924 56.0465C379.541 55.8086 379.601 55.0225 380.055 54.3001C380.51 53.5777 381.194 53.1783 381.577 53.4205C381.959 53.6627 381.9 54.4446 381.445 55.1712C380.99 55.8978 380.306 56.2887 379.924 56.0465Z" fill="#5AE295"/>
</g>
</g>
<g opacity="0.8">
<path opacity="0.8" d="M322.291 16.5986C322.291 16.5986 325.24 20.6142 329.29 21.43L327.327 24.532C327.327 24.532 321.896 20.0235 319.64 20.6652C319.678 20.6567 320.859 17.4272 322.291 16.5986Z" fill="#5AE295"/>
<g style="mix-blend-mode:multiply" opacity="0.41">
<path d="M322.291 16.5986C322.291 16.5986 325.24 20.6142 329.29 21.43L327.327 24.532C327.327 24.532 321.896 20.0235 319.64 20.6652C319.678 20.6567 320.859 17.4272 322.291 16.5986Z" fill="#5AE295"/>
</g>
<path opacity="0.8" d="M317.63 21.384C318.645 22.0213 320.451 20.959 321.658 19.0596C322.865 17.1602 323.022 15.0611 322.006 14.4194C320.991 13.7778 319.189 14.8443 317.978 16.748C316.767 18.6517 316.614 20.7466 317.63 21.384Z" fill="#5AE295"/>
<g style="mix-blend-mode:screen" opacity="0.4">
<path d="M319.015 17.7589C319.402 18.0011 320.082 17.6101 320.536 16.8835C320.991 16.1569 321.051 15.375 320.668 15.1328C320.286 14.8906 319.606 15.2858 319.147 16.0124C318.688 16.739 318.633 17.5209 319.015 17.7589Z" fill="#5AE295"/>
</g>
</g>
<g opacity="0.8">
<path opacity="0.8" d="M368.544 61.3243C368.544 61.3243 364.949 58.83 364.133 55.2988L361.465 57.0793C361.465 57.0793 365.557 61.7535 365.047 63.7379C365.034 63.7379 367.839 62.6033 368.544 61.3243Z" fill="#5AE295"/>
<g style="mix-blend-mode:multiply" opacity="0.41">
<path d="M368.544 61.3243C368.544 61.3243 364.949 58.83 364.133 55.2988L361.465 57.0793C361.465 57.0793 365.557 61.7535 365.047 63.7379C365.034 63.7379 367.839 62.6033 368.544 61.3243Z" fill="#5AE295"/>
</g>
<path opacity="0.8" d="M364.444 65.5306C363.862 64.6552 364.733 63.0447 366.39 61.9399C368.047 60.8351 369.866 60.6652 370.452 61.515C371.039 62.3649 370.168 64.0008 368.506 65.1099C366.845 66.2189 365.03 66.4059 364.444 65.5306Z" fill="#5AE295"/>
<g style="mix-blend-mode:screen" opacity="0.4">
<path d="M367.593 64.2275C367.372 63.8961 367.699 63.2884 368.324 62.872C368.948 62.4556 369.637 62.3833 369.858 62.7148C370.079 63.0462 369.751 63.6538 369.127 64.0703C368.502 64.4867 367.814 64.5589 367.593 64.2275Z" fill="#5AE295"/>
</g>
</g>
<g opacity="0.8">
<path opacity="0.8" d="M352.47 7.05532C352.47 7.05532 353.319 11.3428 351.45 14.4533L354.611 15.0269C354.611 15.0269 354.904 8.83151 356.659 7.74795C356.647 7.74795 353.855 6.61765 352.47 7.05532Z" fill="#5AE295"/>
<g style="mix-blend-mode:multiply" opacity="0.41">
<path d="M352.47 7.05532C352.47 7.05532 353.319 11.3428 351.45 14.4533L354.611 15.0269C354.611 15.0269 354.904 8.83151 356.659 7.74795C356.647 7.74795 353.855 6.61765 352.47 7.05532Z" fill="#5AE295"/>
</g>
<path opacity="0.8" d="M358.346 6.86941C358.159 7.90623 356.417 8.45439 354.454 8.1017C352.491 7.74901 351.055 6.61446 351.242 5.57764C351.428 4.54082 353.171 3.98841 355.134 4.34535C357.097 4.70229 358.516 5.83684 358.346 6.86941Z" fill="#5AE295"/>
<g style="mix-blend-mode:screen" opacity="0.4">
<path d="M355.16 5.62025C355.092 6.01119 354.433 6.2194 353.694 6.08767C352.954 5.95594 352.419 5.52677 352.478 5.13584C352.538 4.74491 353.209 4.53669 353.949 4.66842C354.688 4.80014 355.232 5.22932 355.16 5.62025Z" fill="#5AE295"/>
</g>
</g>
<g opacity="0.8">
<path opacity="0.8" d="M333.076 10.7676C333.076 10.7676 333.717 13.7421 335.757 15.1741L333.913 16.4063C333.913 16.4063 332.022 12.5608 330.615 12.3568C330.615 12.3568 332.077 10.8696 333.076 10.7676Z" fill="#5AE295"/>
<g style="mix-blend-mode:multiply" opacity="0.41">
<path d="M333.076 10.7676C333.076 10.7676 333.717 13.7421 335.757 15.1741L333.913 16.4063C333.913 16.4063 332.022 12.5608 330.615 12.3568C330.615 12.3568 332.077 10.8696 333.076 10.7676Z" fill="#5AE295"/>
</g>
<path opacity="0.8" d="M329.311 12.2582C329.715 12.8616 330.972 12.7342 332.12 11.9693C333.267 11.2044 333.866 10.0954 333.458 9.48772C333.05 8.88008 331.801 9.01181 330.654 9.77668C329.506 10.5415 328.907 11.6548 329.311 12.2582Z" fill="#5AE295"/>
<g style="mix-blend-mode:screen" opacity="0.4">
<path d="M330.977 10.5949C331.13 10.8244 331.606 10.7734 332.035 10.4845C332.464 10.1955 332.693 9.77908 332.54 9.54962C332.387 9.32016 331.916 9.37115 331.482 9.6601C331.049 9.94905 330.824 10.3655 330.977 10.5949Z" fill="#5AE295"/>
</g>
</g>
<g opacity="0.8">
<path opacity="0.8" d="M324.628 54.084C324.628 54.084 327.446 52.9962 328.567 50.7568L330.072 52.3886C330.072 52.3886 326.566 54.8489 326.583 56.2724C326.583 56.2724 324.883 55.0571 324.628 54.084Z" fill="#5AE295"/>
<g style="mix-blend-mode:multiply" opacity="0.41">
<path d="M324.628 54.084C324.628 54.084 327.446 52.9962 328.567 50.7568L330.072 52.3886C330.072 52.3886 326.566 54.8489 326.583 56.2724C326.583 56.2724 324.883 55.0571 324.628 54.084Z" fill="#5AE295"/>
</g>
<path opacity="0.8" d="M326.685 57.5737C327.22 57.0807 326.897 55.8739 325.967 54.8456C325.036 53.8173 323.842 53.4136 323.307 53.9065C322.771 54.3995 323.094 55.6063 324.029 56.6346C324.964 57.6629 326.149 58.0666 326.685 57.5737Z" fill="#5AE295"/>
<g style="mix-blend-mode:screen" opacity="0.4">
<path d="M324.777 56.188C324.981 56.001 324.858 55.5379 324.505 55.1597C324.152 54.7815 323.706 54.6158 323.502 54.8028C323.298 54.9897 323.422 55.4486 323.774 55.8311C324.127 56.2135 324.586 56.3707 324.777 56.188Z" fill="#5AE295"/>
</g>
</g>
<g opacity="0.8">
<path opacity="0.8" d="M375.551 20.2848C375.551 20.2848 372.628 21.0454 371.259 23.1403L369.951 21.3513C369.951 21.3513 373.715 19.3032 373.86 17.8882C373.86 17.9009 375.407 19.3032 375.551 20.2848Z" fill="#5AE295"/>
<g style="mix-blend-mode:multiply" opacity="0.41">
<path d="M375.551 20.2848C375.551 20.2848 372.628 21.0454 371.259 23.1403L369.951 21.3513C369.951 21.3513 373.715 19.3032 373.86 17.8882C373.86 17.9009 375.407 19.3032 375.551 20.2848Z" fill="#5AE295"/>
</g>
<path opacity="0.8" d="M373.902 16.597C373.316 17.0219 373.499 18.2967 374.327 19.3888C375.156 20.4808 376.274 21.0545 376.877 20.6253C377.48 20.1961 377.302 18.9256 376.473 17.8335C375.645 16.7415 374.493 16.1678 373.902 16.597Z" fill="#5AE295"/>
<g style="mix-blend-mode:screen" opacity="0.4">
<path d="M375.632 18.1919C375.411 18.3533 375.479 18.825 375.785 19.2457C376.091 19.6664 376.52 19.8746 376.741 19.7131C376.962 19.5516 376.894 19.08 376.588 18.6593C376.282 18.2386 375.857 18.0304 375.632 18.1919Z" fill="#5AE295"/>
</g>
</g>
<g opacity="0.8">
<path opacity="0.8" d="M343.741 66.2904C343.741 66.2904 345.229 63.6601 344.672 61.2168L346.869 61.5227C346.869 61.5227 345.726 65.6488 346.639 66.7366C346.639 66.7366 344.557 66.8768 343.741 66.2904Z" fill="#5AE295"/>
<g style="mix-blend-mode:multiply" opacity="0.41">
<path d="M343.741 66.2904C343.741 66.2904 345.229 63.6601 344.672 61.2168L346.869 61.5227C346.869 61.5227 345.726 65.6488 346.639 66.7366C346.639 66.7366 344.557 66.8768 343.741 66.2904Z" fill="#5AE295"/>
</g>
<path opacity="0.8" d="M347.549 67.6806C347.647 66.9582 346.623 66.2188 345.259 66.0276C343.895 65.8364 342.709 66.2698 342.607 66.988C342.505 67.7061 343.533 68.4497 344.897 68.6409C346.261 68.8321 347.447 68.3987 347.549 67.6806Z" fill="#5AE295"/>
<g style="mix-blend-mode:screen" opacity="0.4">
<path d="M345.199 67.8124C345.238 67.5405 344.851 67.2643 344.349 67.192C343.848 67.1198 343.385 67.2813 343.347 67.5532C343.308 67.8252 343.695 68.1014 344.196 68.1736C344.698 68.2459 345.174 68.0844 345.199 67.8124Z" fill="#5AE295"/>
</g>
</g>
<g opacity="0.8">
<path opacity="0.8" d="M379.593 43.2782C379.593 43.2782 377.043 41.655 374.579 42.0799L375.003 39.9043C375.003 39.9043 379.062 41.2683 380.196 40.4099C380.188 40.4099 380.213 42.4963 379.593 43.2782Z" fill="#5AE295"/>
<g style="mix-blend-mode:multiply" opacity="0.41">
<path d="M379.593 43.2782C379.593 43.2782 377.043 41.655 374.579 42.0799L375.003 39.9043C375.003 39.9043 379.062 41.2683 380.196 40.4099C380.188 40.4099 380.213 42.4963 379.593 43.2782Z" fill="#5AE295"/>
</g>
<path opacity="0.8" d="M381.173 39.5562C380.459 39.416 379.669 40.4061 379.405 41.7531C379.142 43.1001 379.507 44.3026 380.221 44.4514C380.935 44.6001 381.73 43.6015 381.993 42.2545C382.257 40.9075 381.891 39.6964 381.173 39.5562Z" fill="#5AE295"/>
<g style="mix-blend-mode:screen" opacity="0.4">
<path d="M381.182 41.9056C380.914 41.8546 380.617 42.2243 380.515 42.7342C380.413 43.2441 380.553 43.703 380.825 43.754C381.097 43.805 381.394 43.4353 381.492 42.9042C381.59 42.373 381.454 41.9566 381.182 41.9056Z" fill="#5AE295"/>
</g>
</g>
<g opacity="0.8">
<path opacity="0.8" d="M319.41 32.843C319.41 32.843 323.659 31.8742 326.834 33.6589L327.326 30.4847C327.326 30.4847 321.127 30.3572 319.996 28.6362C319.992 28.6362 318.934 31.4662 319.41 32.843Z" fill="#5AE295"/>
<g style="mix-blend-mode:multiply" opacity="0.41">
<path d="M319.41 32.843C319.41 32.843 323.659 31.8742 326.834 33.6589L327.326 30.4847C327.326 30.4847 321.127 30.3572 319.996 28.6362C319.992 28.6362 318.934 31.4662 319.41 32.843Z" fill="#5AE295"/>
</g>
<path opacity="0.8" d="M319.066 26.9862C320.107 27.1477 320.706 28.8729 320.405 30.8445C320.103 32.8162 319.011 34.2822 317.97 34.125C316.929 33.9678 316.33 32.2341 316.631 30.2666C316.933 28.2992 318.025 26.8247 319.066 26.9862Z" fill="#5AE295"/>
<g style="mix-blend-mode:screen" opacity="0.4">
<path d="M317.906 30.187C318.297 30.2507 318.522 30.9009 318.407 31.6445C318.292 32.3881 317.884 32.9405 317.489 32.881C317.094 32.8215 316.873 32.1672 316.988 31.4235C317.103 30.6799 317.51 30.1275 317.906 30.187Z" fill="#5AE295"/>
</g>
</g>
<path opacity="0.8" d="M367.615 54.6796C377.629 44.6665 377.629 28.4321 367.615 18.4191C357.602 8.40601 341.368 8.40601 331.355 18.4191C321.342 28.4321 321.342 44.6665 331.355 54.6796C341.368 64.6926 357.602 64.6926 367.615 54.6796Z" fill="#5AE295"/>
<g style="mix-blend-mode:screen" opacity="0.4">
<path d="M365.794 32.1698C367.793 25.6914 362.838 18.4105 354.727 15.9075C346.616 13.4045 338.42 16.6272 336.421 23.1057C334.422 29.5841 339.377 36.865 347.487 39.368C355.598 41.871 363.794 38.6483 365.794 32.1698Z" fill="#5AE295"/>
</g>
<g style="mix-blend-mode:multiply" opacity="0.57">
<path d="M354.012 19.3949C354.15 20.0013 354.105 20.635 353.883 21.2159C353.662 21.7969 353.272 22.299 352.765 22.6588C352.258 23.0185 351.655 23.2198 351.033 23.2371C350.412 23.2544 349.799 23.0869 349.272 22.7559C348.746 22.4249 348.329 21.9452 348.076 21.3775C347.822 20.8098 347.742 20.1795 347.846 19.5664C347.95 18.9533 348.234 18.3849 348.662 17.9331C349.089 17.4813 349.641 17.1663 350.247 17.0281C351.06 16.8438 351.913 16.9895 352.619 17.4332C353.324 17.8769 353.825 18.5824 354.012 19.3949Z" fill="#5AE295"/>
</g>
<g style="mix-blend-mode:multiply" opacity="0.57">
<path d="M339.828 39.7739C340.806 40.3905 341.578 41.283 342.049 42.3386C342.52 43.3941 342.667 44.5655 342.472 45.7047C342.277 46.8439 341.749 47.8998 340.955 48.739C340.16 49.5783 339.135 50.1633 338.008 50.4201C336.881 50.6769 335.703 50.594 334.624 50.1819C333.544 49.7697 332.611 49.0468 331.941 48.1045C331.272 47.1622 330.897 46.0428 330.864 44.8875C330.831 43.7323 331.141 42.5931 331.755 41.6139C332.581 40.2993 333.896 39.3669 335.41 39.0219C336.924 38.6768 338.513 38.9473 339.828 39.7739Z" fill="#5AE295"/>
</g>
<g style="mix-blend-mode:multiply" opacity="0.57">
<path d="M353.629 54.7052C353.534 54.2859 353.564 53.8476 353.718 53.4457C353.871 53.0438 354.14 52.6964 354.491 52.4473C354.841 52.1982 355.258 52.0587 355.688 52.0463C356.118 52.0339 356.542 52.1493 356.906 52.3778C357.271 52.6063 357.559 52.9377 357.735 53.3301C357.911 53.7225 357.967 54.1583 357.896 54.5825C357.824 55.0067 357.629 55.4001 357.334 55.7131C357.039 56.0262 356.658 56.2447 356.239 56.3412C355.676 56.4696 355.085 56.3695 354.596 56.0628C354.107 55.7561 353.759 55.2679 353.629 54.7052Z" fill="#5AE295"/>
</g>
<g style="mix-blend-mode:multiply" opacity="0.57">
<path d="M339.594 21.4449C339.636 21.6317 339.622 21.8269 339.554 22.0057C339.485 22.1846 339.365 22.3391 339.209 22.4497C339.052 22.5603 338.866 22.622 338.675 22.6271C338.483 22.6322 338.295 22.5805 338.133 22.4784C337.971 22.3762 337.842 22.2284 337.764 22.0534C337.686 21.8785 337.662 21.6844 337.694 21.4955C337.726 21.3067 337.814 21.1317 337.946 20.9926C338.077 20.8535 338.247 20.7565 338.434 20.714C338.558 20.6851 338.687 20.6812 338.813 20.7024C338.938 20.7236 339.059 20.7695 339.167 20.8374C339.274 20.9054 339.368 20.9941 339.441 21.0983C339.515 21.2026 339.567 21.3204 339.594 21.4449Z" fill="#5AE295"/>
</g>
<g style="mix-blend-mode:multiply" opacity="0.57">
<path d="M363.072 35.1923C363.274 36.0789 363.209 37.0057 362.885 37.8555C362.561 38.7052 361.992 39.4397 361.25 39.966C360.509 40.4923 359.627 40.7868 358.718 40.8123C357.809 40.8377 356.913 40.593 356.143 40.109C355.373 39.6249 354.764 38.9234 354.392 38.0932C354.021 37.2629 353.904 36.3412 354.057 35.4446C354.21 34.548 354.625 33.7168 355.25 33.0562C355.875 32.3956 356.682 31.9353 357.569 31.7334C358.757 31.4628 360.004 31.6752 361.036 32.3238C362.068 32.9724 362.8 34.0041 363.072 35.1923Z" fill="#5AE295"/>
</g>
<g style="mix-blend-mode:multiply" opacity="0.57">
<path d="M345.187 32.7796C346.094 31.458 345.758 29.6514 344.436 28.7444C343.115 27.8375 341.308 28.1736 340.401 29.4952C339.494 30.8168 339.83 32.6234 341.152 33.5304C342.473 34.4373 344.28 34.1012 345.187 32.7796Z" fill="#5AE295"/>
</g>
<g style="mix-blend-mode:multiply" opacity="0.57">
<path d="M365.111 24.5548C365.239 25.1144 365.198 25.6993 364.993 26.2355C364.788 26.7717 364.429 27.2351 363.961 27.5672C363.493 27.8993 362.937 28.0851 362.363 28.1012C361.789 28.1173 361.223 27.9629 360.737 27.6575C360.251 27.3521 359.867 26.9095 359.633 26.3856C359.398 25.8617 359.324 25.28 359.42 24.7142C359.516 24.1483 359.778 23.6236 360.172 23.2065C360.567 22.7894 361.076 22.4985 361.635 22.3707C362.007 22.2858 362.392 22.275 362.768 22.3388C363.143 22.4026 363.503 22.5399 363.826 22.7427C364.148 22.9455 364.428 23.21 364.649 23.5209C364.869 23.8318 365.026 24.1832 365.111 24.5548Z" fill="#5AE295"/>
</g>
<g style="mix-blend-mode:multiply" opacity="0.57">
<path d="M364.58 48.9425C365.514 48.9425 366.271 48.1853 366.271 47.2513C366.271 46.3172 365.514 45.5601 364.58 45.5601C363.646 45.5601 362.889 46.3172 362.889 47.2513C362.889 48.1853 363.646 48.9425 364.58 48.9425Z" fill="#5AE295"/>
</g>
<g style="mix-blend-mode:multiply" opacity="0.57">
<path d="M330.331 35.2162C330.407 35.5442 330.384 35.8874 330.265 36.2023C330.145 36.5172 329.935 36.7896 329.661 36.9848C329.387 37.1801 329.06 37.2895 328.724 37.2991C328.387 37.3087 328.055 37.2182 327.77 37.0389C327.485 36.8596 327.26 36.5997 327.123 36.2922C326.986 35.9846 326.943 35.6433 327 35.3114C327.057 34.9796 327.212 34.6722 327.444 34.4283C327.676 34.1844 327.976 34.0149 328.304 33.9414C328.742 33.8435 329.201 33.9225 329.58 34.1613C329.96 34.4001 330.23 34.7793 330.331 35.2162Z" fill="#5AE295"/>
</g>
<g style="mix-blend-mode:screen" opacity="0.34">
<path d="M352.992 18.7982C357.025 20.0432 359.485 23.6636 358.491 26.8718C357.496 30.08 353.425 31.6905 349.393 30.4454C345.36 29.2004 342.896 25.5843 343.89 22.3718C344.884 19.1594 348.959 17.5532 352.992 18.7982Z" fill="#5AE295"/>
</g>
</svg>
